<svg width="20" height="20" viewBox="0 0 20 20" fill="none" xmlns="http://www.w3.org/2000/svg">
<path d="M9.66667 9.66667C8.75 9.66667 7.96528 9.34028 7.3125 8.6875C6.65972 8.03472 6.33333 7.25 6.33333 6.33333C6.33333 5.41667 6.65972 4.63194 7.3125 3.97917C7.96528 3.32639 8.75 3 9.66667 3C10.5833 3 11.3681 3.32639 12.0208 3.97917C12.6736 4.63194 13 5.41667 13 6.33333C13 7.25 12.6736 8.03472 12.0208 8.6875C11.3681 9.34028 10.5833 9.66667 9.66667 9.66667ZM3 14.6667V14C3 13.5278 3.12153 13.0937 3.36458 12.6979C3.60764 12.3021 3.93056 12 4.33333 11.7917C5.19444 11.3611 6.06944 11.0382 6.95833 10.8229C7.84722 10.6076 8.75 10.5 9.66667 10.5C10.5833 10.5 11.4861 10.6076 12.375 10.8229C13.2639 11.0382 14.1389 11.3611 15 11.7917C15.4028 12 15.7257 12.3021 15.9687 12.6979C16.2118 13.0937 16.3333 13.5278 16.3333 14V14.6667C16.3333 15.125 16.1701 15.5174 15.8437 15.8437C15.5174 16.1701 15.125 16.3333 14.6667 16.3333H4.66667C4.20833 16.3333 3.81597 16.1701 3.48958 15.8437C3.16319 15.5174 3 15.125 3 14.6667ZM4.66667 14.6667H14.6667V14C14.6667 13.8472 14.6285 13.7083 14.5521 13.5833C14.4757 13.4583 14.375 13.3611 14.25 13.2917C13.5 12.9167 12.7431 12.6354 11.9792 12.4479C11.2153 12.2604 10.4444 12.1667 9.66667 12.1667C8.88889 12.1667 8.11806 12.2604 7.35417 12.4479C6.59028 12.6354 5.83333 12.9167 5.08333 13.2917C4.95833 13.3611 4.85764 13.4583 4.78125 13.5833C4.70486 13.7083 4.66667 13.8472 4.66667 14V14.6667ZM9.66667 8C10.125 8 10.5174 7.83681 10.8437 7.51042C11.1701 7.18403 11.3333 6.79167 11.3333 6.33333C11.3333 5.875 11.1701 5.48264 10.8437 5.15625C10.5174 4.82986 10.125 4.66667 9.66667 4.66667C9.20833 4.66667 8.81597 4.82986 8.48958 5.15625C8.16319 5.48264 8 5.875 8 6.33333C8 6.79167 8.16319 7.18403 8.48958 7.51042C8.81597 7.83681 9.20833 8 9.66667 8Z" fill="#0B0B0B"/>
</svg>
