<svg width="20" height="20" viewBox="0 0 20 20" fill="none" xmlns="http://www.w3.org/2000/svg">
<path d="M10 16C9.06667 16 8.175 16.1458 7.325 16.4375C6.475 16.7292 5.7 17.1667 5 17.75V18H15V17.75C14.3 17.1667 13.525 16.7292 12.675 16.4375C11.825 16.1458 10.9333 16 10 16ZM10 14C11.15 14 12.225 14.175 13.225 14.525C14.225 14.875 15.15 15.3667 16 16V2H4V16C4.85 15.3667 5.775 14.875 6.775 14.525C7.775 14.175 8.85 14 10 14ZM10 10C9.58333 10 9.22917 9.85417 8.9375 9.5625C8.64583 9.27083 8.5 8.91667 8.5 8.5C8.5 8.08333 8.64583 7.72917 8.9375 7.4375C9.22917 7.14583 9.58333 7 10 7C10.4167 7 10.7708 7.14583 11.0625 7.4375C11.3542 7.72917 11.5 8.08333 11.5 8.5C11.5 8.91667 11.3542 9.27083 11.0625 9.5625C10.7708 9.85417 10.4167 10 10 10ZM4 20C3.45 20 2.97917 19.8042 2.5875 19.4125C2.19583 19.0208 2 18.55 2 18V2C2 1.45 2.19583 0.979167 2.5875 0.5875C2.97917 0.195833 3.45 0 4 0H16C16.55 0 17.0208 0.195833 17.4125 0.5875C17.8042 0.979167 18 1.45 18 2V18C18 18.55 17.8042 19.0208 17.4125 19.4125C17.0208 19.8042 16.55 20 16 20H4ZM10 12C10.9667 12 11.7917 11.6583 12.475 10.975C13.1583 10.2917 13.5 9.46667 13.5 8.5C13.5 7.53333 13.1583 6.70833 12.475 6.025C11.7917 5.34167 10.9667 5 10 5C9.03333 5 8.20833 5.34167 7.525 6.025C6.84167 6.70833 6.5 7.53333 6.5 8.5C6.5 9.46667 6.84167 10.2917 7.525 10.975C8.20833 11.6583 9.03333 12 10 12Z" fill="#0B0B0B"/>
</svg>
