<svg width="20" height="20" viewBox="0 0 20 20" fill="none" xmlns="http://www.w3.org/2000/svg">
<path d="M10.0003 12.5C10.2364 12.5 10.4344 12.4201 10.5941 12.2604C10.7538 12.1007 10.8337 11.9028 10.8337 11.6667C10.8337 11.4306 10.7538 11.2326 10.5941 11.0729C10.4344 10.9132 10.2364 10.8333 10.0003 10.8333C9.76422 10.8333 9.5663 10.9132 9.40658 11.0729C9.24685 11.2326 9.16699 11.4306 9.16699 11.6667C9.16699 11.9028 9.24685 12.1007 9.40658 12.2604C9.5663 12.4201 9.76422 12.5 10.0003 12.5ZM10.0003 9.16667C10.2364 9.16667 10.4344 9.08681 10.5941 8.92709C10.7538 8.76737 10.8337 8.56945 10.8337 8.33334V5C10.8337 4.76389 10.7538 4.56598 10.5941 4.40626C10.4344 4.24653 10.2364 4.16667 10.0003 4.16667C9.76422 4.16667 9.5663 4.24653 9.40658 4.40626C9.24685 4.56598 9.16699 4.76389 9.16699 5V8.33334C9.16699 8.56945 9.24685 8.76737 9.40658 8.92709C9.5663 9.08681 9.76422 9.16667 10.0003 9.16667ZM5.00033 15L3.08366 16.9167C2.81977 17.1806 2.51769 17.2396 2.17741 17.0938C1.83713 16.9479 1.66699 16.6875 1.66699 16.3125V3.33334C1.66699 2.87501 1.83019 2.48264 2.15658 2.15626C2.48296 1.82987 2.87533 1.66667 3.33366 1.66667H16.667C17.1253 1.66667 17.5177 1.82987 17.8441 2.15626C18.1705 2.48264 18.3337 2.87501 18.3337 3.33334V13.3333C18.3337 13.7917 18.1705 14.184 17.8441 14.5104C17.5177 14.8368 17.1253 15 16.667 15H5.00033ZM4.29199 13.3333H16.667V3.33334H3.33366V14.2708L4.29199 13.3333Z" fill="black"/>
</svg>
