<svg width="20" height="20" viewBox="0 0 20 20" fill="none" xmlns="http://www.w3.org/2000/svg">
<path d="M2 17H6V9H2V17ZM8 17H12V3H8V17ZM14 17H18V11H14V17ZM0 17V9C0 8.45 0.195833 7.97917 0.5875 7.5875C0.979167 7.19583 1.45 7 2 7H6V3C6 2.45 6.19583 1.97917 6.5875 1.5875C6.97917 1.19583 7.45 1 8 1H12C12.55 1 13.0208 1.19583 13.4125 1.5875C13.8042 1.97917 14 2.45 14 3V9H18C18.55 9 19.0208 9.19583 19.4125 9.5875C19.8042 9.97917 20 10.45 20 11V17C20 17.55 19.8042 18.0208 19.4125 18.4125C19.0208 18.8042 18.55 19 18 19H2C1.45 19 0.979167 18.8042 0.5875 18.4125C0.195833 18.0208 0 17.55 0 17Z" fill="#0B0B0B"/>
</svg>
