<svg width="16" height="16" viewBox="0 0 16 16" fill="none" xmlns="http://www.w3.org/2000/svg">
<g id="Group 3">
<g id="Rectangle Copy">
</g>
<path id="Fill 1" fill-rule="evenodd" clip-rule="evenodd" d="M8.67373 2.66667C9.7764 2.66667 10.6737 3.564 10.6737 4.66667C10.6737 5.76933 9.7764 6.66667 8.67373 6.66667C7.57107 6.66667 6.67373 5.76933 6.67373 4.66667C6.67373 3.564 7.57107 2.66667 8.67373 2.66667M15.3117 13.8173C14.5577 11.2333 13.3071 8.32933 10.3211 7.54667C11.3231 6.97133 12.0071 5.90267 12.0071 4.66667C12.0071 2.82867 10.5117 1.33333 8.67373 1.33333C6.83573 1.33333 5.3404 2.82867 5.3404 4.66667C5.3404 5.906 6.0284 6.97733 7.03507 7.55133C6.59773 7.66933 6.18173 7.83067 5.79573 8.04667C5.47373 8.22667 5.35907 8.63267 5.53973 8.954C5.7184 9.274 6.12573 9.39067 6.4464 9.20933C7.09507 8.84733 7.82307 8.67067 8.67173 8.67067C11.2997 8.67067 12.9031 10.3213 14.0317 14.1907C14.1164 14.482 14.3824 14.6707 14.6717 14.6707C14.7331 14.6707 14.7964 14.662 14.8584 14.644C15.2124 14.5413 15.4144 14.1707 15.3117 13.8173" fill="black"/>
<path id="Fill 4" fill-rule="evenodd" clip-rule="evenodd" d="M4.66593 11.3353H5.99927C6.36727 11.3353 6.66593 11.634 6.66593 12.002C6.66593 12.3707 6.36727 12.6687 5.99927 12.6687H4.66593V14.002C4.66593 14.37 4.36793 14.6687 3.99927 14.6687C3.63127 14.6687 3.3326 14.37 3.3326 14.002V12.6687H1.99993C1.63193 12.6687 1.33327 12.3707 1.33327 12.002C1.33327 11.634 1.63193 11.3353 1.99993 11.3353H3.3326V10.0027C3.3326 9.634 3.63127 9.336 3.99927 9.336C4.36793 9.336 4.66593 9.634 4.66593 10.0027V11.3353Z" fill="black"/>
</g>
</svg>
