<svg width="16" height="16" viewBox="0 0 16 16" fill="none" xmlns="http://www.w3.org/2000/svg">
<g transform="translate(2.0000, 1.3335)">
<g id="Group 2087324391">
<path id="Shape" d="M10.667 0C11.4031 0.000175696 11.9998 0.596886 12 1.33301V12C12 12.7363 11.4032 13.3328 10.667 13.333H2.66699C1.93061 13.333 1.33301 12.7364 1.33301 12V10H0.666992C0.298802 10 0 9.7012 0 9.33301C0.000175562 8.96497 0.298911 8.66699 0.666992 8.66699H1.33301V4.66699H0.666992C0.298802 4.66699 1.28852e-07 4.36819 0 4C0 3.63181 0.298802 3.33301 0.666992 3.33301H1.33301V1.33301C1.33318 0.596778 1.93072 0 2.66699 0H10.667ZM2.66699 3.33301H3.33301C3.7012 3.33301 4 3.63181 4 4C4 4.36819 3.7012 4.66699 3.33301 4.66699H2.66699V8.66699H3.33301C3.70109 8.66699 3.99982 8.96497 4 9.33301C4 9.7012 3.7012 10 3.33301 10H2.66699V12H10.667V1.33301H2.66699V3.33301Z" fill="black"/>
</g>
</g>
</svg>
