<svg width="16" height="16" viewBox="0 0 16 16" fill="none" xmlns="http://www.w3.org/2000/svg">
<g id="Group 3">
<g id="Rectangle Copy">
</g>
<path id="Fill 1" fill-rule="evenodd" clip-rule="evenodd" d="M7.99935 5.33474C8.36735 5.33474 8.66602 5.63274 8.66602 6.0014V8.66807C8.66602 9.03607 8.36735 9.33474 7.99935 9.33474C7.63068 9.33474 7.33268 9.03607 7.33268 8.66807V6.0014C7.33268 5.63274 7.63068 5.33474 7.99935 5.33474" fill="black"/>
<path id="Fill 3" fill-rule="evenodd" clip-rule="evenodd" d="M7.99935 10.5014C8.45935 10.5014 8.83268 10.8747 8.83268 11.3347C8.83268 11.7947 8.45935 12.1681 7.99935 12.1681C7.53935 12.1681 7.16602 11.7947 7.16602 11.3347C7.16602 10.8747 7.53935 10.5014 7.99935 10.5014" fill="black"/>
<path id="Fill 5" fill-rule="evenodd" clip-rule="evenodd" d="M7.99996 1.3334C7.6653 1.3334 7.33063 1.50007 7.14463 1.83474L0.791298 13.2194C0.429298 13.8694 0.901298 14.6667 1.6473 14.6667H14.3533C15.0993 14.6667 15.5706 13.8694 15.2086 13.2194L8.85596 1.83474C8.6693 1.50007 8.33463 1.3334 7.99996 1.3334M7.99997 3.03607L13.7493 13.3387H2.2513L7.99997 3.03607" fill="black"/>
</g>
</svg>
