<svg width="16" height="16" viewBox="0 0 16 16" fill="none" xmlns="http://www.w3.org/2000/svg">
<g id="Group">
<g id="Rectangle Copy">
</g>
<path id="Exclude" d="M8 1C11.866 1 15 4.13401 15 8C15 11.866 11.866 15 8 15C4.13401 15 1 11.866 1 8C1 4.13401 4.13401 1 8 1ZM8 10.5C7.53987 10.5 7.16717 10.8729 7.16699 11.333C7.16699 11.7932 7.53976 12.167 8 12.167C8.46016 12.1669 8.83301 11.7932 8.83301 11.333C8.83283 10.873 8.46005 10.5001 8 10.5ZM8 4C7.63189 4.00009 7.33398 4.29886 7.33398 4.66699V8.66699C7.33416 9.03498 7.63199 9.33292 8 9.33301C8.36808 9.33301 8.66682 9.03503 8.66699 8.66699V4.66699C8.66699 4.2988 8.36819 4 8 4Z" fill="black"/>
</g>
</svg>
