<svg width="16" height="16" viewBox="0 0 16 16" fill="none" xmlns="http://www.w3.org/2000/svg">
<g transform="translate(1.5000, 1.5000)">
<path id="Icon (Stroke)" d="M11.7 3.76987C11.7 3.21322 11.6998 2.83476 11.6759 2.54224C11.6526 2.25727 11.6102 2.11133 11.5584 2.00967C11.4338 1.7651 11.2349 1.56618 10.9903 1.44155C10.8887 1.38976 10.7427 1.34741 10.4578 1.32412C10.1652 1.30023 9.78678 1.3 9.23013 1.3H3.76987C3.21322 1.3 2.83476 1.30023 2.54224 1.32412C2.25727 1.3474 2.11133 1.38976 2.00967 1.44155C1.7651 1.56618 1.56618 1.7651 1.44155 2.00967C1.38976 2.11133 1.3474 2.25727 1.32412 2.54224C1.30023 2.83476 1.3 3.21322 1.3 3.76987V9.23013C1.3 9.78678 1.30023 10.1652 1.32412 10.4578C1.34741 10.7427 1.38976 10.8887 1.44155 10.9903C1.56618 11.2349 1.7651 11.4338 2.00967 11.5584C2.11133 11.6102 2.25727 11.6526 2.54224 11.6759C2.83476 11.6998 3.21322 11.7 3.76987 11.7H9.23013C9.78678 11.7 10.1652 11.6998 10.4578 11.6759C10.7427 11.6526 10.8887 11.6102 10.9903 11.5584C11.2349 11.4338 11.4338 11.2349 11.5584 10.9903C11.6102 10.8887 11.6526 10.7427 11.6759 10.4578C11.6998 10.1652 11.7 9.78678 11.7 9.23013V3.76987ZM4.41543 4.09043C4.66927 3.83659 5.08073 3.83659 5.33457 4.09043C5.58841 4.34427 5.58841 4.75573 5.33457 5.00957L3.84414 6.5L5.33457 7.99043C5.58841 8.24427 5.58841 8.65573 5.33457 8.90957C5.08073 9.16341 4.66927 9.16341 4.41543 8.90957L2.46543 6.95957C2.21159 6.70573 2.21159 6.29427 2.46543 6.04043L4.41543 4.09043ZM7.66543 4.09043C7.91927 3.83659 8.33073 3.83659 8.58457 4.09043L10.5346 6.04043C10.7884 6.29427 10.7884 6.70573 10.5346 6.95957L8.58457 8.90957C8.33073 9.16341 7.91927 9.16341 7.66543 8.90957C7.41159 8.65573 7.41159 8.24427 7.66543 7.99043L9.15586 6.5L7.66543 5.00957C7.41159 4.75573 7.41159 4.34427 7.66543 4.09043ZM13 9.23013C13 9.76539 13.0007 10.206 12.9714 10.5638C12.9416 10.9291 12.8776 11.2652 12.7169 11.5807C12.4676 12.0698 12.0698 12.4676 11.5807 12.7169C11.2652 12.8776 10.9291 12.9416 10.5638 12.9714C10.206 13.0007 9.76539 13 9.23013 13H3.76987C3.23461 13 2.79398 13.0007 2.43623 12.9714C2.07089 12.9416 1.73478 12.8776 1.41934 12.7169C0.930208 12.4676 0.532361 12.0698 0.283107 11.5807C0.122378 11.2652 0.0584195 10.9291 0.0285657 10.5638C-0.000663343 10.206 1.18722e-06 9.76539 1.26702e-06 9.23013V3.76987C1.18741e-06 3.23461 -0.000663348 2.79398 0.0285657 2.43623C0.0584195 2.07089 0.122378 1.73479 0.283107 1.41934C0.532361 0.930208 0.930208 0.532361 1.41934 0.283107C1.73479 0.122378 2.07089 0.0584195 2.43623 0.0285657C2.79398 -0.000663343 3.23461 1.18722e-06 3.76987 1.26703e-06H9.23013C9.76539 1.18761e-06 10.206 -0.000663353 10.5638 0.0285657C10.9291 0.0584195 11.2652 0.122378 11.5807 0.283107C12.0698 0.532361 12.4676 0.930208 12.7169 1.41934C12.8776 1.73478 12.9416 2.07089 12.9714 2.43623C13.0007 2.79398 13 3.23461 13 3.76987V9.23013Z" fill="black"/>
</g>
</svg>
