<svg width="16" height="16" viewBox="0 0 16 16" fill="none" xmlns="http://www.w3.org/2000/svg">
<g transform="translate(1.3460, 1.3460)">
<path id="Vector (Stroke)" fill-rule="evenodd" clip-rule="evenodd" d="M6.69533 0.339361C6.82434 0.568282 6.80685 0.851636 6.65065 1.06295C6.08118 1.83339 5.80714 2.78263 5.87839 3.73804C5.94963 4.69345 6.36143 5.59155 7.03888 6.26901C7.71633 6.94646 8.61444 7.35826 9.56985 7.4295C10.5253 7.50075 11.4745 7.22671 12.2449 6.65724C12.4563 6.50104 12.7396 6.48355 12.9685 6.61256C13.1975 6.74158 13.3292 6.99303 13.305 7.25469C13.1885 8.51558 12.7153 9.71721 11.9408 10.719C11.1663 11.7207 10.1225 12.4812 8.9315 12.9114C7.74054 13.3416 6.4517 13.4237 5.21579 13.1481C3.97988 12.8725 2.84801 12.2507 1.95262 11.3553C1.05724 10.4599 0.435374 9.32801 0.159795 8.0921C-0.115785 6.85618 -0.0336804 5.56735 0.3965 4.37639C0.826681 3.18544 1.58715 2.14163 2.58891 1.3671C3.59067 0.592573 4.79231 0.119362 6.0532 0.00283981C6.31486 -0.0213408 6.56631 0.110439 6.69533 0.339361ZM4.85214 1.62605C4.33373 1.81362 3.84494 2.08136 3.40446 2.42193C2.60305 3.04155 1.99468 3.8766 1.65053 4.82936C1.30639 5.78212 1.24071 6.81319 1.46117 7.80192C1.68163 8.79065 2.17912 9.69615 2.89543 10.4125C3.61174 11.1288 4.51723 11.6263 5.50597 11.8467C6.4947 12.0672 7.52577 12.0015 8.47853 11.6574C9.43129 11.3132 10.2663 10.7048 10.886 9.90343C11.2265 9.46295 11.4943 8.97416 11.6818 8.45575C10.9798 8.70976 10.2267 8.81552 9.47069 8.75914C8.19681 8.66415 6.99934 8.11508 6.09607 7.21182C5.19281 6.30855 4.64374 5.11108 4.54874 3.8372C4.49237 3.08122 4.59813 2.32813 4.85214 1.62605Z" fill="black"/>
</g>
</svg>
