<svg width="16" height="16" viewBox="0 0 16 16" fill="none" xmlns="http://www.w3.org/2000/svg">
<g transform="translate(1.3334, 1.3323)">
<g id="Group 4">
<path id="Rectangle" d="M4.66699 0C5.40311 0.000175792 5.99982 0.596886 6 1.33301V4.66699C5.99982 5.40311 5.40311 5.99982 4.66699 6H1.33301C0.596886 5.99982 0.000175793 5.40311 0 4.66699V1.33301C0.000175889 0.596886 0.596886 0.000175889 1.33301 0H4.66699ZM1.33301 4.66699H4.66699V1.33301H1.33301V4.66699Z" fill="black"/>
<path id="Rectangle Copy 4" d="M12.0003 7.33334C12.7364 7.33351 13.3331 7.93022 13.3333 8.66635V12.0003C13.3331 12.7365 12.7364 13.3332 12.0003 13.3333H8.6663C7.93018 13.3332 7.33347 12.7365 7.33329 12.0003V8.66635C7.33347 7.93022 7.93018 7.33351 8.6663 7.33334H12.0003ZM8.6663 12.0003H12.0003V8.66635H8.6663V12.0003Z" fill="black"/>
<path id="Oval" d="M10.3333 5.08626e-06C11.9901 5.08626e-06 13.3333 1.34315 13.3333 3.00001C13.3333 4.65686 11.9901 6.00001 10.3333 6.00001C8.67644 6.00001 7.33329 4.65686 7.33329 3.00001C7.33329 1.34315 8.67644 5.13458e-06 10.3333 5.08626e-06ZM10.3333 1.33301C9.41284 1.33303 8.6663 2.07955 8.6663 3.00001C8.6663 3.92047 9.41284 4.66698 10.3333 4.667C11.2538 4.667 12.0003 3.92048 12.0003 3.00001C12.0003 2.07953 11.2538 1.33301 10.3333 1.33301Z" fill="black"/>
<path id="Path" fill-rule="evenodd" clip-rule="evenodd" d="M3.0008 11.2393L1.09087 13.1493C0.84287 13.3973 0.437537 13.3973 0.18887 13.1493L0.186203 13.1459C-0.0617965 12.8979 -0.0617965 12.4919 0.186203 12.2433L2.09554 10.3339L0.18647 8.4246C-0.0615299 8.1766 -0.0615299 7.7706 0.18647 7.5226L0.189137 7.51927C0.437803 7.27127 0.843137 7.27127 1.09114 7.51927L3.0008 9.42867L4.9102 7.51927C5.1582 7.27127 5.5642 7.27127 5.8122 7.51927L5.81554 7.5226C6.06354 7.7706 6.06354 8.1766 5.81554 8.4246L3.9062 10.3339L5.8158 12.2433C6.0638 12.4919 6.0638 12.8979 5.8158 13.1459L5.81247 13.1493C5.56447 13.3973 5.15847 13.3973 4.91047 13.1493L3.0008 11.2393Z" fill="black"/>
</g>
</g>
</svg>
