<svg width="16" height="16" viewBox="0 0 16 16" fill="none" xmlns="http://www.w3.org/2000/svg">
<path fill-rule="evenodd" clip-rule="evenodd" d="M6.88292 11.7664C7.21745 11.455 7.21745 10.9458 6.88292 10.6344L4.91858 8.801L13.1422 8.801C13.614 8.801 14 8.44073 14 8.0004C14 7.55927 13.614 7.1998 13.1422 7.1998L4.91858 7.1998L6.88292 5.36562C7.2166 5.05419 7.2166 4.54501 6.88292 4.23357C6.54924 3.92214 6.00368 3.92214 5.67 4.23357L2.24141 7.43438C2.18995 7.48081 2.1625 7.54005 2.12733 7.5945C2.10588 7.62812 2.075 7.65534 2.05785 7.69217C2.04241 7.72499 2.04241 7.76182 2.03383 7.79625C1.98494 7.96597 1.98579 8.14531 2.05785 8.30863C2.07415 8.34386 2.10417 8.37028 2.12561 8.4031C2.16078 8.45914 2.18909 8.51759 2.24141 8.56642L5.67 11.7664C6.00368 12.0779 6.54924 12.0779 6.88292 11.7664Z" fill="black"/>
</svg>
