<svg width="16" height="16" viewBox="0 0 16 16" fill="none" xmlns="http://www.w3.org/2000/svg">
<g transform="translate(1.3334, 1.3334)">
<path id="Vector (Stroke)" fill-rule="evenodd" clip-rule="evenodd" d="M6.39563 0.0639835C6.56625 -0.0213278 6.76708 -0.0213278 6.9377 0.0639835L12.9982 3.09429C13.2035 3.19695 13.3332 3.4068 13.3332 3.63636C13.3332 3.86592 13.2035 4.07578 12.9982 4.17844L6.9377 7.20874C6.76708 7.29405 6.56625 7.29405 6.39563 7.20874L0.335148 4.17844C0.129829 4.07578 0.000132754 3.86592 0.000132754 3.63636C0.000132754 3.4068 0.129829 3.19695 0.335148 3.09429L6.39563 0.0639835ZM1.96135 3.63636L6.66667 5.98907L11.372 3.63636L6.66667 1.28366L1.96135 3.63636ZM0.064115 6.39563C0.213802 6.09625 0.577839 5.9749 0.877214 6.12459L6.66667 9.01937L12.4561 6.12459C12.7555 5.9749 13.1195 6.09625 13.2692 6.39563C13.4189 6.69501 13.2976 7.05905 12.9982 7.20874L6.9377 10.239C6.76708 10.3244 6.56625 10.3244 6.39563 10.239L0.335148 7.20874C0.0357732 7.05905 -0.0855725 6.69501 0.064115 6.39563ZM0.064115 9.42593C0.213802 9.12655 0.577839 9.0052 0.877214 9.15489L6.66667 12.0497L12.4561 9.15489C12.7555 9.0052 13.1195 9.12655 13.2692 9.42593C13.4189 9.72531 13.2976 10.0894 12.9982 10.239L6.9377 13.2693C6.76708 13.3547 6.56625 13.3547 6.39563 13.2693L0.335148 10.239C0.0357732 10.0894 -0.0855725 9.72531 0.064115 9.42593Z" fill="black"/>
</g>
</svg>
