<svg width="16" height="16" viewBox="0 0 16 16" fill="none" xmlns="http://www.w3.org/2000/svg">
<g transform="translate(2.0001, 1.3335)">
<path id="Union" d="M6.40714 11.667C6.60274 11.3257 7.03478 11.2093 7.37198 11.4072C7.7091 11.6051 7.82418 12.0425 7.62882 12.3838C7.46335 12.6725 7.22513 12.9125 6.93937 13.0791C6.65368 13.2456 6.32958 13.333 5.99991 13.333C5.67021 13.333 5.34616 13.2456 5.06046 13.0791C4.7747 12.9125 4.53745 12.6725 4.37198 12.3838C4.17644 12.0426 4.29076 11.6052 4.62784 11.4072C4.96501 11.2093 5.39703 11.3258 5.59269 11.667C5.63406 11.7392 5.6941 11.7992 5.76554 11.8408C5.83686 11.8823 5.91764 11.9043 5.99991 11.9043C6.08236 11.9043 6.16383 11.8825 6.23527 11.8408C6.30662 11.7992 6.36581 11.7391 6.40714 11.667ZM5.99991 0C7.12318 0 8.20076 0.451047 8.99503 1.25488C9.78931 2.05874 10.2353 3.14931 10.2353 4.28613C10.2353 6.26424 10.653 7.48372 11.0312 8.18555C11.2213 8.53825 11.4058 8.76748 11.5312 8.90137C11.5939 8.96838 11.6419 9.01257 11.6698 9.03613C11.6832 9.04741 11.692 9.05421 11.6952 9.05664C11.9469 9.23275 12.0584 9.55327 11.9696 9.85059C11.8795 10.1519 11.6049 10.3584 11.2939 10.3584H0.705969C0.394907 10.3584 0.120329 10.1519 0.0301881 9.85059C-0.0585466 9.55329 0.0528947 9.23274 0.304602 9.05664C0.305534 9.05599 0.306302 9.05456 0.307532 9.05371H0.308508C0.311252 9.05183 0.314039 9.05003 0.314368 9.0498L0.312415 9.05078H0.310461C0.314932 9.04725 0.321943 9.04292 0.329993 9.03613C0.357891 9.0126 0.405892 8.96841 0.468665 8.90137C0.593998 8.76748 0.778572 8.53825 0.968665 8.18555C1.34687 7.48374 1.76455 6.26432 1.76456 4.28613C1.76456 3.14935 2.21056 2.05873 3.0048 1.25488C3.79905 0.451053 4.87667 2.70599e-05 5.99991 0ZM5.99991 1.42871C5.25114 1.42874 4.53331 1.7298 4.00382 2.26562C3.4743 2.80153 3.17667 3.52825 3.17667 4.28613C3.17666 6.47501 2.71204 7.93476 2.20792 8.87012C2.19711 8.89018 2.18653 8.91013 2.1757 8.92969H9.82511C9.81423 8.91005 9.80276 8.89026 9.79191 8.87012C9.28779 7.93476 8.82317 6.47501 8.82316 4.28613C8.82316 3.5284 8.52632 2.8015 7.99698 2.26562C7.46747 1.72972 6.74877 1.42871 5.99991 1.42871Z" fill="black"/>
</g>
</svg>
