<svg width="16" height="16" viewBox="0 0 16 16" fill="none" xmlns="http://www.w3.org/2000/svg">
<g id="Group 3">
<g id="Rectangle Copy">
</g>
<path id="Fill 1" fill-rule="evenodd" clip-rule="evenodd" d="M7.99986 13.3333C6.76919 13.3333 5.63852 12.91 4.73519 12.208L12.2079 4.73532C12.9105 5.63799 13.3332 6.76932 13.3332 7.99999C13.3332 10.9407 10.9405 13.3333 7.99986 13.3333M2.6665 7.99999C2.6665 5.05932 5.05917 2.66666 7.99984 2.66666C9.2305 2.66666 10.3612 3.08999 11.2645 3.79199L3.79184 11.2647C3.08917 10.362 2.6665 9.23066 2.6665 7.99999M8 1.33333C4.324 1.33333 1.33333 4.324 1.33333 8C1.33333 11.676 4.324 14.6667 8 14.6667C11.676 14.6667 14.6667 11.676 14.6667 8C14.6667 4.324 11.676 1.33333 8 1.33333" fill="black"/>
</g>
</svg>
