<svg width="16" height="16" viewBox="0 0 16 16" fill="none" xmlns="http://www.w3.org/2000/svg">
<g id="Group">
<g id="Rectangle Copy">
</g>
<path id="Path" d="M12.0003 4.26628H13.0667C13.9504 4.26631 14.6663 4.98323 14.6663 5.86686V11.736C14.6661 12.6195 13.9502 13.3356 13.0667 13.3356H2.93294C2.0496 13.3354 1.33355 12.6193 1.33333 11.736V5.86686C1.33333 4.98334 2.04947 4.26649 2.93294 4.26628H4.00033L5.59993 2.66667H10.3997L12.0003 4.26628ZM4.55208 5.60026H2.93294C2.78585 5.60047 2.66634 5.71972 2.66634 5.86686V11.736C2.66656 11.883 2.78598 12.0024 2.93294 12.0026H13.0667C13.2138 12.0026 13.3331 11.8831 13.3333 11.736V5.86686C13.3333 5.71961 13.214 5.6003 13.0667 5.60026H11.4476L9.84798 3.99967H6.15267L4.55208 5.60026Z" fill="black"/>
<path id="Path_2" d="M8 5.33333C9.65685 5.33333 11 6.67648 11 8.33333C11 9.99019 9.65685 11.3333 8 11.3333C6.34315 11.3333 5 9.99019 5 8.33333C5 6.67648 6.34315 5.33333 8 5.33333ZM8 6.66634C7.07953 6.66634 6.33301 7.41286 6.33301 8.33333C6.33301 9.25381 7.07953 10.0003 8 10.0003C8.92047 10.0003 9.66699 9.25381 9.66699 8.33333C9.66699 7.41286 8.92047 6.66634 8 6.66634Z" fill="black"/>
</g>
</svg>
