<svg width="16" height="16" viewBox="0 0 16 16" fill="none" xmlns="http://www.w3.org/2000/svg">
<g id="Vector">
<path fill-rule="evenodd" clip-rule="evenodd" d="M0.195262 0.195262C0.455612 -0.0650874 0.877722 -0.0650874 1.13807 0.195262L15.8047 14.8619C16.0651 15.1223 16.0651 15.5444 15.8047 15.8047C15.5444 16.0651 15.1223 16.0651 14.8619 15.8047L0.195262 1.13807C-0.0650874 0.877722 -0.0650874 0.455612 0.195262 0.195262Z" fill="black"/>
<path fill-rule="evenodd" clip-rule="evenodd" d="M5.38562 1.74117C5.48974 1.49402 5.73181 1.33331 6 1.33331H10C10.2229 1.33331 10.4311 1.44471 10.5547 1.63018L11.6901 3.33331H14C14.5304 3.33331 15.0391 3.54403 15.4142 3.9191C15.7893 4.29417 16 4.80288 16 5.33331V11.56C16 11.8311 15.8358 12.0752 15.5848 12.1774C15.3337 12.2797 15.0457 12.2197 14.8563 12.0257L5.52297 2.4657C5.33563 2.2738 5.28151 1.98832 5.38562 1.74117ZM7.58256 2.66665L14.6667 9.9228V5.33331C14.6667 5.1565 14.5964 4.98693 14.4714 4.86191C14.3464 4.73689 14.1768 4.66665 14 4.66665H11.3333C11.1104 4.66665 10.9023 4.55525 10.7786 4.36978L9.64321 2.66665H7.58256ZM2 4.66665C1.82319 4.66665 1.65362 4.73689 1.5286 4.86191C1.40357 4.98693 1.33333 5.1565 1.33333 5.33331V12.6666C1.33333 12.8435 1.40357 13.013 1.5286 13.1381C1.65362 13.2631 1.82319 13.3333 2 13.3333H12.3905L10.2157 11.1585C10.05 11.3076 9.86919 11.4402 9.67585 11.5539C9.25369 11.8022 8.78199 11.9545 8.29431 11.9998C7.80664 12.0451 7.31497 11.9824 6.85428 11.8161C6.39359 11.6498 5.9752 11.3841 5.62888 11.0378C5.28255 10.6914 5.0168 10.2731 4.85053 9.81237C4.68426 9.35168 4.62155 8.86001 4.66686 8.37233C4.71218 7.88466 4.86441 7.41296 5.11272 6.9908C5.22643 6.79746 5.35902 6.61669 5.50817 6.45096L3.72386 4.66665H2ZM6.94196 5.99913L4.4714 3.52858C4.34638 3.40355 4.17681 3.33331 4 3.33331H2C1.46957 3.33331 0.960859 3.54403 0.585787 3.9191C0.210714 4.29417 2.98023e-08 4.80288 2.98023e-08 5.33331V12.6666C2.98023e-08 13.1971 0.210714 13.7058 0.585787 14.0809C0.960859 14.4559 1.46957 14.6666 2 14.6666H14C14.2696 14.6666 14.5127 14.5042 14.6159 14.2551C14.7191 14.006 14.6621 13.7192 14.4714 13.5286L10.6675 9.72469C10.6617 9.71865 10.6558 9.7127 10.6497 9.70685L6.9598 6.01697C6.95395 6.01089 6.948 6.00494 6.94196 5.99913ZM6.45316 7.39595C6.38225 7.48054 6.31827 7.57109 6.26199 7.66678C6.113 7.92008 6.02167 8.20309 5.99448 8.4957C5.96729 8.78831 6.00491 9.08331 6.10468 9.35972C6.20444 9.63614 6.36389 9.88717 6.57169 10.095C6.77948 10.3028 7.03051 10.4622 7.30693 10.562C7.58334 10.6617 7.87834 10.6994 8.17095 10.6722C8.46355 10.645 8.74657 10.5536 8.99987 10.4047C9.09555 10.3484 9.18611 10.2844 9.2707 10.2135L6.45316 7.39595Z" fill="black"/>
</g>
</svg>
