<svg width="16" height="16" viewBox="0 0 16 16" fill="none" xmlns="http://www.w3.org/2000/svg">
<g id="Group 4">
<g id="Rectangle">
</g>
<path id="Path" d="M8.02619 2.19639C9.62172 0.600869 12.2079 0.600869 13.8034 2.19639C15.3458 3.73878 15.3972 6.20797 13.9576 7.81094L13.8034 7.97361L11.7904 9.98661C10.2776 11.4994 7.85652 11.5855 6.24238 10.1978C5.82359 9.83774 5.77597 9.20636 6.13602 8.78758C6.49606 8.36879 7.12744 8.32117 7.54622 8.68122C8.32274 9.34881 9.4684 9.34669 10.2434 8.69427L10.3762 8.57239L12.3895 6.5591C13.2036 5.74564 13.2036 4.42503 12.3892 3.61061C11.5747 2.79613 10.2549 2.79613 9.44041 3.61061C9.04988 4.00113 8.41672 4.00113 8.02619 3.61061C7.63567 3.22008 7.63567 2.58692 8.02619 2.19639Z" fill="black"/>
<path id="Path_2" d="M4.20909 6.01429C5.70416 4.51923 8.08881 4.41548 9.70595 5.75798C10.1309 6.11076 10.1894 6.74121 9.83662 7.16615C9.51098 7.5584 8.94874 7.63842 8.52994 7.37094L8.42845 7.29682C7.65004 6.6506 6.52035 6.66197 5.75453 7.30793L5.62331 7.42851L3.61131 9.44051C2.79683 10.255 2.79683 11.5748 3.6116 12.3896C4.42506 13.2037 5.74567 13.2037 6.56009 12.3893C6.95062 11.9988 7.58378 11.9988 7.97431 12.3893C8.36483 12.7798 8.36483 13.413 7.97431 13.8035C6.37873 15.3991 3.79134 15.3991 2.19709 13.8035C0.654753 12.2612 0.603342 9.79313 2.04286 8.18907L2.19709 8.02629L4.20909 6.01429Z" fill="black"/>
</g>
</svg>
