<svg width="16" height="16" viewBox="0 0 16 16" fill="none" xmlns="http://www.w3.org/2000/svg">
<g transform="translate(1.3333, 1.3333)">
<path id="Vector (Stroke)" fill-rule="evenodd" clip-rule="evenodd" d="M6.99828 1.33335C6.22337 1.33133 5.45894 1.51238 4.76725 1.86175L4.76473 1.86303C3.93429 2.27807 3.2358 2.91611 2.7475 3.7057C2.2592 4.49529 2.00038 5.40523 2.00002 6.33361L2.00002 6.33509C1.998 7.11 2.17904 7.87443 2.52842 8.56612C2.60856 8.72478 2.62202 8.90887 2.56581 9.0775L1.72078 11.6126L4.25587 10.7676C4.4245 10.7114 4.60859 10.7248 4.76725 10.805C5.45894 11.1543 6.22337 11.3354 6.99828 11.3334L6.99976 11.3334C7.92814 11.333 8.83808 11.0742 9.62767 10.5859C10.4173 10.0976 11.0553 9.39909 11.4703 8.56865L11.4716 8.56612C11.821 7.87443 12.002 7.11 12 6.33509C11.9962 4.85451 11.4147 3.65196 10.548 2.78533C9.68141 1.9187 8.47886 1.33721 6.99828 1.33335ZM4.16738 0.670982C5.04618 0.227347 6.01731 -0.00254552 7.00176 2.12596e-05C8.8545 0.00485186 10.3893 0.741016 11.4909 1.84252C12.5924 2.94402 13.3285 4.47887 13.3333 6.33161C13.3359 7.31602 13.106 8.28711 12.6624 9.16589C12.1367 10.2173 11.3287 11.1016 10.329 11.7199C9.32903 12.3383 8.17671 12.6661 7.00102 12.6667H7.00028L7.00002 12L7.00176 12.6667L7.00102 12.6667C6.11122 12.6689 5.23232 12.4812 4.42265 12.1174L4.16612 11.9951C4.25079 12.0379 4.33633 12.0786 4.42265 12.1174L0.877503 13.2991C0.637947 13.379 0.373835 13.3166 0.19528 13.1381C0.0167254 12.9595 -0.0456229 12.6954 0.0342293 12.4559L1.21595 8.91072C1.25473 8.99704 1.29552 9.08258 1.33829 9.16726L1.21595 8.91072C0.852167 8.10106 0.664474 7.22217 0.666685 6.33238L0.666685 6.33309L1.33335 6.33335L0.666687 6.33161L0.666685 6.33238C0.667273 5.15668 0.995109 4.00435 1.6135 3.00441C2.23176 2.00466 3.11605 1.19671 4.16738 0.670982ZM4.16738 0.670982L4.16612 0.67162L4.46668 1.26669L4.16865 0.670349L4.16738 0.670982Z" fill="black"/>
</g>
</svg>
