<svg width="16" height="16" viewBox="0 0 16 16" fill="none" xmlns="http://www.w3.org/2000/svg">
<g transform="translate(1.3334, 1.3334)">
<g id="icon">
<g id="Rectangle Copy">
</g>
<g id="Vector">
<path fill-rule="evenodd" clip-rule="evenodd" d="M13.3333 6.66667C13.3333 10.3486 10.3486 13.3333 6.66667 13.3333C2.98477 13.3333 0 10.3486 0 6.66667C0 2.98477 2.98477 0 6.66667 0C10.3486 0 13.3333 2.98477 13.3333 6.66667ZM1.33333 6.66667C1.33333 9.61219 3.72115 12 6.66667 12C9.61219 12 12 9.61219 12 6.66667C12 3.72115 9.61219 1.33333 6.66667 1.33333C3.72115 1.33333 1.33333 3.72115 1.33333 6.66667Z" fill="black"/>
<path fill-rule="evenodd" clip-rule="evenodd" d="M5.71354 9.33333C5.5869 9.33333 5.46549 9.27735 5.37646 9.17712L3.47253 7.04234C3.28685 6.83388 3.28685 6.49639 3.47301 6.28792C3.65917 6.08052 3.96054 6.07999 4.14669 6.28846L5.71354 8.04575L9.18718 4.15635C9.37333 3.94788 9.67423 3.94788 9.86038 4.15635C10.0465 4.36481 10.0465 4.70177 9.86038 4.91024L6.05015 9.17712C5.96111 9.27735 5.84018 9.33333 5.71354 9.33333Z" fill="black"/>
</g>
</g>
</g>
</svg>
