<svg width="16" height="16" viewBox="0 0 16 16" fill="none" xmlns="http://www.w3.org/2000/svg">
<g id="Group">
<g id="Rectangle Copy">
</g>
<path id="Exclude" d="M8.00033 1.33333C11.6821 1.33351 14.6663 4.31854 14.6663 8.00033C14.6662 11.682 11.682 14.6662 8.00033 14.6663C4.31854 14.6663 1.33351 11.6821 1.33333 8.00033C1.33333 4.31843 4.31843 1.33333 8.00033 1.33333ZM11.2874 6.28451C10.892 5.89893 10.259 5.90671 9.87337 6.30208L7.6888 8.54134L6.18294 7.13314C5.77965 6.75581 5.14718 6.77672 4.76986 7.18001C4.39264 7.58328 4.41356 8.21579 4.81673 8.5931L7.03743 10.6712C7.43484 11.043 8.05689 11.0286 8.43685 10.639L11.305 7.69857C11.6905 7.30329 11.6825 6.67012 11.2874 6.28451Z" fill="black"/>
</g>
</svg>
