<svg width="16" height="16" viewBox="0 0 16 16" fill="none" xmlns="http://www.w3.org/2000/svg">
<g transform="translate(5.6667, 3.6667)">
<g id="Vector">
<path fill-rule="evenodd" clip-rule="evenodd" d="M0.438967 0.449435C0.579812 0.294633 0.808166 0.294633 0.949011 0.449435L4.2277 4.05304C4.36854 4.20784 4.36854 4.45883 4.2277 4.61363L0.949011 8.21723C0.808166 8.37204 0.579812 8.37204 0.438967 8.21723C0.298122 8.06243 0.298122 7.81145 0.438967 7.65664L3.46263 4.33333L0.438967 1.01002C0.298122 0.855222 0.298122 0.604238 0.438967 0.449435Z" fill="black"/>
<path fill-rule="evenodd" clip-rule="evenodd" d="M0.192412 0.22511C0.465496 -0.0750368 0.922482 -0.0750368 1.19557 0.22511L4.47426 3.82871C4.7308 4.11069 4.7308 4.55598 4.47426 4.83795L1.19557 8.44156C0.922482 8.7417 0.465496 8.7417 0.192412 8.44156C-0.0641372 8.15958 -0.0641372 7.71429 0.192412 7.43232L3.01198 4.33333L0.192412 1.23435C-0.0641372 0.952376 -0.0641372 0.507083 0.192412 0.22511ZM0.693973 0.66682C0.693973 0.66682 0.690283 0.668528 0.685522 0.67376C0.675854 0.684387 0.666667 0.703642 0.666667 0.72973C0.666667 0.755817 0.675854 0.775073 0.685522 0.7857L3.70919 4.10901C3.82489 4.23618 3.82489 4.43049 3.70919 4.55766L0.685522 7.88097C0.675854 7.89159 0.666667 7.91085 0.666667 7.93694C0.666667 7.96302 0.675854 7.98228 0.685522 7.99291C0.690283 7.99814 0.693973 7.99985 0.693973 7.99985C0.693973 7.99985 0.697695 7.99814 0.702456 7.99291L3.98114 4.3893C3.99081 4.37868 4 4.35942 4 4.33333C4 4.30725 3.99081 4.28799 3.98114 4.27736L0.702456 0.67376C0.697695 0.668528 0.693973 0.66682 0.693973 0.66682Z" fill="black"/>
</g>
</g>
</svg>
