<svg width="16" height="16" viewBox="0 0 16 16" fill="none" xmlns="http://www.w3.org/2000/svg">
<g transform="translate(8, 8) rotate(90) translate(-2.423, -4.5)">
<path fill-rule="evenodd" clip-rule="evenodd" d="M0.45585 0.466721C0.602112 0.305965 0.83925 0.305965 0.985512 0.466721L4.3903 4.20893C4.53657 4.36968 4.53657 4.63032 4.3903 4.79108L0.985512 8.53328C0.83925 8.69404 0.602112 8.69404 0.45585 8.53328C0.309588 8.37252 0.309588 8.11189 0.45585 7.95113L3.59581 4.5L0.45585 1.04887C0.309588 0.888115 0.309588 0.627478 0.45585 0.466721Z" fill="black"/>
<path fill-rule="evenodd" clip-rule="evenodd" d="M0.199812 0.233768C0.4834 -0.0779228 0.957962 -0.0779228 1.24155 0.233768L4.64634 3.97597C4.91276 4.26879 4.91276 4.73121 4.64634 5.02403L1.24155 8.76623C0.957962 9.07792 0.4834 9.07792 0.199812 8.76623C-0.0666041 8.47341 -0.066604 8.01099 0.199812 7.71818L3.12782 4.5L0.199812 1.28182C-0.066604 0.989006 -0.066604 0.526586 0.199812 0.233768ZM0.720665 0.692467C0.720665 0.692467 0.716832 0.69424 0.711888 0.699674C0.701848 0.710709 0.692308 0.730706 0.692308 0.757796C0.692308 0.784887 0.701848 0.804883 0.711888 0.815919L3.85185 4.26705C3.972 4.39911 3.972 4.60089 3.85185 4.73295L0.711888 8.18408C0.701848 8.19512 0.692308 8.21511 0.692308 8.2422C0.692308 8.26929 0.701848 8.28929 0.711888 8.30033C0.716832 8.30576 0.720665 8.30753 0.720665 8.30753C0.720665 8.30753 0.72453 8.30576 0.729473 8.30033L4.13427 4.55812C4.14431 4.54709 4.15385 4.52709 4.15385 4.5C4.15385 4.47291 4.14431 4.45291 4.13427 4.44188L0.729473 0.699674C0.72453 0.69424 0.720665 0.692467 0.720665 0.692467Z" fill="black"/>
</g>
</svg>
