<svg width="16" height="16" viewBox="0 0 16 16" fill="none" xmlns="http://www.w3.org/2000/svg">
<g id="Group 3">
<g id="Rectangle Copy">
</g>
<path id="Fill 1" fill-rule="evenodd" clip-rule="evenodd" d="M5.99807 10.0026C5.78273 10.0026 5.5714 9.8986 5.44273 9.70593C5.23807 9.39993 5.32073 8.98593 5.6274 8.78127L7.3334 7.64327V4.67593C7.3334 4.30727 7.6314 4.00927 8.00007 4.00927C8.36873 4.00927 8.66673 4.30727 8.66673 4.67593V7.99993C8.66673 8.2226 8.5554 8.43127 8.37007 8.5546L6.3674 9.8906C6.25407 9.96593 6.12473 10.0026 5.99807 10.0026" fill="black"/>
<path id="Fill 3" fill-rule="evenodd" clip-rule="evenodd" d="M8 2.66667C5.05933 2.66667 2.66667 5.05933 2.66667 8C2.66667 10.9407 5.05933 13.3333 8 13.3333C10.9407 13.3333 13.3333 10.9407 13.3333 8C13.3333 5.05933 10.9407 2.66667 8 2.66667M8 14.6667C4.324 14.6667 1.33333 11.676 1.33333 8C1.33333 4.324 4.324 1.33333 8 1.33333C11.676 1.33333 14.6667 4.324 14.6667 8C14.6667 11.676 11.676 14.6667 8 14.6667" fill="black"/>
</g>
</svg>
