<svg width="16" height="16" viewBox="0 0 16 16" fill="none" xmlns="http://www.w3.org/2000/svg">
<path d="M8.00049 1.33331C11.6822 1.33349 14.6665 4.31852 14.6665 8.00031C14.6663 11.6819 11.6821 14.6661 8.00049 14.6663C4.3187 14.6663 1.33367 11.6821 1.3335 8.00031C1.3335 4.31841 4.31859 1.33331 8.00049 1.33331ZM8.00049 2.66632C5.05497 2.66632 2.6665 5.05479 2.6665 8.00031C2.66667 10.9457 5.05507 13.3333 8.00049 13.3333C10.9457 13.333 13.3333 10.9455 13.3335 8.00031C13.3335 5.05495 10.9458 2.66658 8.00049 2.66632Z" fill="black"/>
<path fill-rule="evenodd" clip-rule="evenodd" d="M8.94285 7.99998L10.3571 9.41419C10.6174 9.67454 10.6174 10.0967 10.3571 10.357C10.0967 10.6174 9.6746 10.6174 9.41425 10.357L8.00004 8.94279L6.58583 10.357C6.32548 10.6174 5.90337 10.6174 5.64302 10.357C5.38267 10.0967 5.38267 9.67454 5.64302 9.41419L7.05723 7.99998L5.64302 6.58576C5.38267 6.32541 5.38267 5.9033 5.64302 5.64296C5.90337 5.38261 6.32548 5.38261 6.58583 5.64296L8.00004 7.05717L9.41425 5.64296C9.6746 5.38261 10.0967 5.38261 10.3571 5.64296C10.6174 5.9033 10.6174 6.32541 10.3571 6.58576L8.94285 7.99998Z" fill="black"/>
</svg>
