<svg width="16" height="16" viewBox="0 0 16 16" fill="none" xmlns="http://www.w3.org/2000/svg">
<g id="Group">
<g id="Rectangle Copy">
</g>
<path id="Shape" fill-rule="evenodd" clip-rule="evenodd" d="M14.667 7.9998C14.667 11.6818 11.6817 14.6665 8.00033 14.6665C4.31833 14.6665 1.33366 11.6818 1.33366 7.9998C1.33366 4.31846 4.31833 1.33313 8.00033 1.33313C11.6817 1.33313 14.667 4.31846 14.667 7.9998ZM8.94319 8.00004L11.2367 5.70684C11.496 5.44684 11.496 5.02351 11.2367 4.76351C10.9767 4.50418 10.5533 4.50418 10.2933 4.76351L8.00014 7.05698L5.70667 4.76351C5.44733 4.50418 5.02333 4.50418 4.764 4.76351C4.50467 5.02351 4.50467 5.44684 4.764 5.70684L7.05719 8.00004L4.764 10.2935C4.50467 10.5528 4.50467 10.9768 4.764 11.2362C5.02333 11.4955 5.44733 11.4955 5.70667 11.2362L8.00014 8.94298L10.2933 11.2362C10.5533 11.4955 10.9767 11.4955 11.2367 11.2362C11.496 10.9768 11.496 10.5528 11.2367 10.2935L8.94319 8.00004Z" fill="black"/>
</g>
</svg>
