<svg width="16" height="16" viewBox="0 0 16 16" fill="none" xmlns="http://www.w3.org/2000/svg">
<g id="Group 2">
<g id="Rectangle Copy">
</g>
<path id="Shape" d="M12.667 1.33333C13.4031 1.33351 13.9998 1.93022 14 2.66634V10.0003C13.9998 10.7364 13.4031 11.3332 12.667 11.3333H10V13.3333C10 14.0696 9.40322 14.6662 8.66699 14.6663H3.33301C2.59678 14.6662 2 14.0696 2 13.3333V6.00033C2 5.26405 2.59678 4.66652 3.33301 4.66634H6V2.66634C6.00018 1.93022 6.59689 1.33351 7.33301 1.33333H12.667ZM3.33301 13.3333H8.66699V6.00033H3.33301V13.3333ZM7.33301 4.66634H8.66699C9.40322 4.66652 10 5.26405 10 6.00033V10.0003H12.667V2.66634H7.33301V4.66634Z" fill="black"/>
</g>
</svg>
