<svg width="16" height="16" viewBox="0 0 16 16" fill="none" xmlns="http://www.w3.org/2000/svg">
<g id="Group 3">
<g id="Rectangle Copy">
</g>
<path id="Fill 4" fill-rule="evenodd" clip-rule="evenodd" d="M6.66667 12.0065C7.03533 12.0065 7.33333 11.7085 7.33333 11.3398V7.3398C7.33333 6.97113 7.03533 6.67313 6.66667 6.67313C6.298 6.67313 6 6.97113 6 7.3398V11.3398C6 11.7085 6.298 12.0065 6.66667 12.0065" fill="black"/>
<path id="Fill 6" fill-rule="evenodd" clip-rule="evenodd" d="M9.334 12.0065C9.70267 12.0065 10.0007 11.7085 10.0007 11.3398V7.3398C10.0007 6.97113 9.70267 6.67313 9.334 6.67313C8.96533 6.67313 8.66733 6.97113 8.66733 7.3398V11.3398C8.66733 11.7085 8.96533 12.0065 9.334 12.0065" fill="black"/>
<path id="Fill 1" fill-rule="evenodd" clip-rule="evenodd" d="M11.0085 13.0339C10.9998 13.2032 10.8365 13.3359 10.6771 13.3345H5.31247C5.15913 13.3172 5.00513 13.2039 4.99647 13.0292L4.56447 5.3332H11.4225L11.0085 13.0339ZM6.66447 3.0772C6.66447 2.85453 6.85313 2.66653 7.0758 2.66653H8.92113C9.1478 2.66653 9.33247 2.8512 9.33247 3.0772V3.99987H6.66447V3.0772ZM13.3331 3.99987H12.1745C12.1705 3.99987 12.1665 3.99653 12.1618 3.99653C12.1538 3.99587 12.1471 3.99987 12.1385 3.99987H10.6658V3.0772C10.6658 2.11587 9.8838 1.3332 8.92113 1.3332H7.0758C6.1138 1.3332 5.33113 2.11587 5.33113 3.0772V3.99987H2.66647C2.29847 3.99987 1.9998 4.29787 1.9998 4.66653C1.9998 5.0352 2.29847 5.3332 2.66647 5.3332H3.2298L3.66513 13.0979C3.70713 13.9712 4.43913 14.6685 5.2918 14.6685C5.3038 14.6685 5.3158 14.6679 5.3278 14.6679H10.6611H10.6991C11.5658 14.6679 12.2985 13.9719 12.3405 13.1025L12.7578 5.3332H13.3331C13.7018 5.3332 13.9998 5.0352 13.9998 4.66653C13.9998 4.29787 13.7018 3.99987 13.3331 3.99987V3.99987Z" fill="black"/>
</g>
</svg>
