<svg width="16" height="16" viewBox="0 0 16 16" fill="none" xmlns="http://www.w3.org/2000/svg">
<g transform="translate(1.3335, 1.9370)">
<path id="Union" d="M11.4932 0C12.5094 0 13.333 0.823588 13.333 1.83984V7.87305C13.333 8.88932 12.5094 9.71289 11.4932 9.71289H7.2998V10.8594H9.08008C9.42988 10.8594 9.71387 11.1433 9.71387 11.4932C9.71376 11.8429 9.42981 12.1259 9.08008 12.126H4.25293C3.90334 12.1257 3.62022 11.8428 3.62012 11.4932C3.62012 11.1435 3.90328 10.8596 4.25293 10.8594H6.0332V9.71289H1.83984C0.8237 9.71274 0 8.88923 0 7.87305V1.83984C1.77336e-05 0.823681 0.823711 0.00014968 1.83984 0H11.4932ZM1.83984 1.2666C1.52344 1.26675 1.26662 1.52341 1.2666 1.83984V7.87305C1.2666 8.1895 1.52343 8.44614 1.83984 8.44629H11.4932C11.8097 8.44629 12.0664 8.18959 12.0664 7.87305V1.83984C12.0664 1.52332 11.8097 1.2666 11.4932 1.2666H1.83984Z" fill="black"/>
</g>
</svg>
