<svg width="16" height="16" viewBox="0 0 16 16" fill="none" xmlns="http://www.w3.org/2000/svg">
<g id="Group">
<g id="Rectangle Copy">
</g>
<path id="Fill 1" fill-rule="evenodd" clip-rule="evenodd" d="M3.9995 13.0001V3.0001H7.0065V6.3231C7.0065 7.2491 7.7605 8.0021 8.6865 8.0021H11.9975V13.0001H3.9995ZM11.1775 6.0021H9.0065V3.8061L11.1775 6.0021ZM13.8195 5.8311L9.2265 1.1831C9.1105 1.0651 8.9525 1.0001 8.7885 1.0001H3.4995C2.6715 1.0001 1.9995 1.6271 1.9995 2.3991V13.6001C1.9995 14.3731 2.6715 15.0001 3.4995 15.0001H12.4975C13.3255 15.0001 13.9975 14.3731 13.9975 13.6001V6.2621C13.9975 6.1011 13.9345 5.9451 13.8195 5.8311V5.8311Z" fill="black"/>
</g>
</svg>
