<svg width="16" height="16" viewBox="0 0 16 16" fill="none" xmlns="http://www.w3.org/2000/svg">
<g id="dots-grid">
<g id="Icon">
<path d="M8 4C8.36819 4 8.66667 3.70152 8.66667 3.33333C8.66667 2.96514 8.36819 2.66667 8 2.66667C7.63181 2.66667 7.33333 2.96514 7.33333 3.33333C7.33333 3.70152 7.63181 4 8 4Z" stroke="black" stroke-width="1.33333" stroke-linecap="round" stroke-linejoin="round"/>
<path d="M8 8.66667C8.36819 8.66667 8.66667 8.36819 8.66667 8C8.66667 7.63181 8.36819 7.33333 8 7.33333C7.63181 7.33333 7.33333 7.63181 7.33333 8C7.33333 8.36819 7.63181 8.66667 8 8.66667Z" stroke="black" stroke-width="1.33333" stroke-linecap="round" stroke-linejoin="round"/>
<path d="M8 13.3333C8.36819 13.3333 8.66667 13.0349 8.66667 12.6667C8.66667 12.2985 8.36819 12 8 12C7.63181 12 7.33333 12.2985 7.33333 12.6667C7.33333 13.0349 7.63181 13.3333 8 13.3333Z" stroke="black" stroke-width="1.33333" stroke-linecap="round" stroke-linejoin="round"/>
<path d="M12.6667 4C13.0349 4 13.3333 3.70152 13.3333 3.33333C13.3333 2.96514 13.0349 2.66667 12.6667 2.66667C12.2985 2.66667 12 2.96514 12 3.33333C12 3.70152 12.2985 4 12.6667 4Z" stroke="black" stroke-width="1.33333" stroke-linecap="round" stroke-linejoin="round"/>
<path d="M12.6667 8.66667C13.0349 8.66667 13.3333 8.36819 13.3333 8C13.3333 7.63181 13.0349 7.33333 12.6667 7.33333C12.2985 7.33333 12 7.63181 12 8C12 8.36819 12.2985 8.66667 12.6667 8.66667Z" stroke="black" stroke-width="1.33333" stroke-linecap="round" stroke-linejoin="round"/>
<path d="M12.6667 13.3333C13.0349 13.3333 13.3333 13.0349 13.3333 12.6667C13.3333 12.2985 13.0349 12 12.6667 12C12.2985 12 12 12.2985 12 12.6667C12 13.0349 12.2985 13.3333 12.6667 13.3333Z" stroke="black" stroke-width="1.33333" stroke-linecap="round" stroke-linejoin="round"/>
<path d="M3.33333 4C3.70152 4 4 3.70152 4 3.33333C4 2.96514 3.70152 2.66667 3.33333 2.66667C2.96514 2.66667 2.66667 2.96514 2.66667 3.33333C2.66667 3.70152 2.96514 4 3.33333 4Z" stroke="black" stroke-width="1.33333" stroke-linecap="round" stroke-linejoin="round"/>
<path d="M3.33333 8.66667C3.70152 8.66667 4 8.36819 4 8C4 7.63181 3.70152 7.33333 3.33333 7.33333C2.96514 7.33333 2.66667 7.63181 2.66667 8C2.66667 8.36819 2.96514 8.66667 3.33333 8.66667Z" stroke="black" stroke-width="1.33333" stroke-linecap="round" stroke-linejoin="round"/>
<path d="M3.33333 13.3333C3.70152 13.3333 4 13.0349 4 12.6667C4 12.2985 3.70152 12 3.33333 12C2.96514 12 2.66667 12.2985 2.66667 12.6667C2.66667 13.0349 2.96514 13.3333 3.33333 13.3333Z" stroke="black" stroke-width="1.33333" stroke-linecap="round" stroke-linejoin="round"/>
</g>
</g>
</svg>
