<svg width="16" height="16" viewBox="0 0 16 16" fill="none" xmlns="http://www.w3.org/2000/svg">
<g transform="translate(2.4125, 4.7075)">
<path id="Vector" d="M0.2925 6.28249C0.6825 6.67249 1.3125 6.67249 1.7025 6.28249L5.5925 2.41249L9.4725 6.29249C9.8625 6.68249 10.4925 6.68249 10.8825 6.29249C11.2725 5.90249 11.2725 5.27249 10.8825 4.88249L6.2925 0.292486C6.19999 0.199771 6.09011 0.126212 5.96913 0.0760231C5.84816 0.0258341 5.71847 0 5.5875 0C5.45653 0 5.32684 0.0258341 5.20587 0.0760231C5.08489 0.126212 4.97501 0.199771 4.8825 0.292486L0.2925 4.87249C-0.0975 5.26249 -0.0975 5.89249 0.2925 6.28249Z" fill="black"/>
</g>
</svg>
