<svg width="16" height="16" viewBox="0 0 16 16" fill="none" xmlns="http://www.w3.org/2000/svg">
<g id="Group 3">
<g id="Rectangle Copy 52">
</g>
<path id="Fill 1" fill-rule="evenodd" clip-rule="evenodd" d="M8.00207 2.66667C9.10473 2.66667 10.0021 3.56333 10.0021 4.66667C10.0021 5.76933 9.10473 6.66667 8.00207 6.66667C6.8994 6.66667 6.00207 5.76933 6.00207 4.66667C6.00207 3.56333 6.8994 2.66667 8.00207 2.66667M10.8761 8.046C10.4894 7.83067 10.0747 7.66933 9.6394 7.552C10.6467 6.978 11.3354 5.90667 11.3354 4.66667C11.3354 2.82867 9.84007 1.33333 8.00207 1.33333C6.16407 1.33333 4.66873 2.82867 4.66873 4.66667C4.66873 5.902 5.35207 6.97 6.3534 7.546C3.36473 8.32733 2.1134 11.232 1.36007 13.8167C1.2574 14.17 1.46007 14.5407 1.8134 14.6433C1.87607 14.662 1.93873 14.67 2.00007 14.67C2.2894 14.67 2.5554 14.4813 2.64007 14.1907C3.76807 10.3213 5.3714 8.67 8.00007 8.67C8.84807 8.67 9.5754 8.84667 10.2247 9.21C10.5454 9.38867 10.9521 9.274 11.1321 8.95333C11.3121 8.632 11.1967 8.22533 10.8761 8.046" fill="black"/>
<path id="Fill 4" fill-rule="evenodd" clip-rule="evenodd" d="M8.9324 13.5902L8.93773 14.4849C8.93773 14.5855 9.01973 14.6669 9.1204 14.6669H10.0091C10.0577 14.6669 10.1044 14.6475 10.1391 14.6129L12.8244 11.9275C12.9297 11.8222 12.9297 11.6515 12.8244 11.5462L12.0364 10.7575C11.9404 10.6615 11.7844 10.6615 11.6884 10.7575L8.9864 13.4602C8.95173 13.4942 8.9324 13.5415 8.9324 13.5902" fill="black"/>
<path id="Fill 6" fill-rule="evenodd" clip-rule="evenodd" d="M13.6277 11.1241L14.6137 10.1381C14.6877 10.0647 14.6877 9.94407 14.6137 9.87007L13.7283 8.98607C13.655 8.91207 13.5343 8.91207 13.4603 8.98607L12.475 9.9714C12.4003 10.0454 12.4003 10.1661 12.475 10.2401L13.359 11.1241C13.433 11.1981 13.5537 11.1981 13.6277 11.1241" fill="black"/>
</g>
</svg>
