<svg width="16" height="16" viewBox="0 0 16 16" fill="none" xmlns="http://www.w3.org/2000/svg">
<g transform="translate(1.3332, 1.3334)">
<g id="Group 3">
<path id="Fill 1" fill-rule="evenodd" clip-rule="evenodd" d="M10.3953 4.69467L8.67467 2.95933L10.3207 1.346L11.9853 3.02533C11.9893 3.02933 11.982 3.09333 11.9867 3.09733L10.3953 4.69467ZM3.06 12H1.33333V10.2527L7.72333 3.894L9.45333 5.63867L3.06 12ZM13.3333 3.038C13.3287 2.66733 13.1813 2.32467 12.932 2.08667L11.2793 0.42C11.0333 0.157333 10.6827 0.00466667 10.316 0H10.298C9.93067 0 9.57467 0.148 9.31933 0.404667L0.196667 9.50267C0.0713333 9.62733 0 9.798 0 9.97533V12.6667C0 13.0353 0.298 13.3333 0.666667 13.3333H3.33533C3.512 13.3333 3.68067 13.264 3.80533 13.1393L12.932 4.038C13.192 3.77533 13.3387 3.41067 13.3333 3.038V3.038Z" fill="black"/>
</g>
</g>
</svg>
