<svg width="16" height="16" viewBox="0 0 16 16" fill="none" xmlns="http://www.w3.org/2000/svg">
<path fill-rule="evenodd" clip-rule="evenodd" d="M4.66666 8.00006C4.66666 7.26368 5.26362 6.66673 6 6.66673C6.73638 6.66673 7.33333 7.26368 7.33333 8.00006C7.33333 8.73644 6.73638 9.3334 6 9.3334C5.26362 9.3334 4.66666 8.73644 4.66666 8.00006Z" fill="black"/>
<path fill-rule="evenodd" clip-rule="evenodd" d="M8.66667 8.00006C8.66667 7.26368 9.26362 6.66673 10 6.66673C10.7364 6.66673 11.3333 7.26368 11.3333 8.00006C11.3333 8.73644 10.7364 9.3334 10 9.3334C9.26362 9.3334 8.66667 8.73644 8.66667 8.00006Z" fill="black"/>
<path fill-rule="evenodd" clip-rule="evenodd" d="M4.66666 3.33333C4.66666 2.59695 5.26362 2 6 2C6.73638 2 7.33333 2.59695 7.33333 3.33333C7.33333 4.06971 6.73638 4.66667 6 4.66667C5.26362 4.66667 4.66666 4.06971 4.66666 3.33333Z" fill="black"/>
<path fill-rule="evenodd" clip-rule="evenodd" d="M8.66667 3.33333C8.66667 2.59695 9.26362 2 10 2C10.7364 2 11.3333 2.59695 11.3333 3.33333C11.3333 4.06971 10.7364 4.66667 10 4.66667C9.26362 4.66667 8.66667 4.06971 8.66667 3.33333Z" fill="black"/>
<path fill-rule="evenodd" clip-rule="evenodd" d="M4.66666 12.6666C4.66666 11.9302 5.26362 11.3333 6 11.3333C6.73638 11.3333 7.33333 11.9302 7.33333 12.6666C7.33333 13.403 6.73638 13.9999 6 13.9999C5.26362 13.9999 4.66666 13.403 4.66666 12.6666Z" fill="black"/>
<path fill-rule="evenodd" clip-rule="evenodd" d="M8.66667 12.6666C8.66667 11.9302 9.26362 11.3333 10 11.3333C10.7364 11.3333 11.3333 11.9302 11.3333 12.6666C11.3333 13.403 10.7364 13.9999 10 13.9999C9.26362 13.9999 8.66667 13.403 8.66667 12.6666Z" fill="black"/>
</svg>
