<svg width="16" height="16" viewBox="0 0 16 16" fill="none" xmlns="http://www.w3.org/2000/svg">
<g id="Group 3">
<g id="Rectangle">
</g>
<path id="Shape" fill-rule="evenodd" clip-rule="evenodd" d="M13.0002 2C14.054 2 14.9183 2.8164 14.9947 3.85081L15.0002 4V12C15.0002 13.0538 14.1838 13.9181 13.1494 13.9945L13.0002 14H3.0002C1.94543 14 1.082 13.1836 1.00568 12.1492L1.0002 12V4C1.0002 2.94618 1.81569 2.08188 2.85088 2.00549L3.0002 2H13.0002ZM13.0002 7.138L8.64017 10.7722C8.30298 11.0532 7.82706 11.0787 7.4647 10.8487L7.35965 10.7721L3.0002 7.138V12H13.0002V7.138ZM13.0002 4H3.0002V4.533L8 8.701L13.0002 4.534V4Z" fill="black"/>
</g>
</svg>
