<svg width="16" height="16" viewBox="0 0 16 16" fill="none" xmlns="http://www.w3.org/2000/svg">
<g id="Group 2">
<g id="Rectangle Copy">
</g>
<path id="Fill 1" fill-rule="evenodd" clip-rule="evenodd" d="M5.2988 5.40017C5.6858 5.40017 5.9988 5.08717 5.9988 4.70017C5.9988 4.31317 5.6858 4.00017 5.2988 4.00017H3.8998C3.5128 4.00017 3.1988 4.31317 3.1988 4.70017C3.1988 4.70617 3.2018 4.71017 3.2018 4.71517C3.2018 4.71817 3.1978 4.72017 3.1978 4.72317V11.2672C3.1978 11.2712 3.2028 11.2732 3.2028 11.2772C3.2028 11.2842 3.1988 11.2902 3.1988 11.2972C3.1988 11.6842 3.5128 11.9982 3.8998 11.9982H5.2988C5.6858 11.9982 5.9988 11.6842 5.9988 11.2972C5.9988 10.9112 5.6858 10.5972 5.2988 10.5972H4.5988V8.70517H5.2988C5.6858 8.70517 5.9988 8.39117 5.9988 8.00417C5.9988 7.61817 5.6858 7.30417 5.2988 7.30417H4.5988V5.40017H5.2988Z" fill="black"/>
<path id="Fill 4" fill-rule="evenodd" clip-rule="evenodd" d="M14.3994 3.99977C14.0124 3.99977 13.6994 4.31277 13.6994 4.69977V7.30477H12.2994V4.69977C12.2994 4.31277 11.9854 3.99977 11.5984 3.99977C11.2124 3.99977 10.8994 4.31277 10.8994 4.69977V11.2918C10.8994 11.6788 11.2124 11.9918 11.5984 11.9918C11.9854 11.9918 12.2994 11.6788 12.2994 11.2918V8.70477H13.6994V11.2918C13.6994 11.6788 14.0124 11.9918 14.3994 11.9918C14.7864 11.9918 15.0984 11.6788 15.0984 11.2918V4.69977C15.0984 4.31277 14.7864 3.99977 14.3994 3.99977" fill="black"/>
<path id="Fill 7" fill-rule="evenodd" clip-rule="evenodd" d="M9.501 3.99977H7.4C7.014 3.99977 6.7 4.31277 6.7 4.69977C6.7 5.08677 7.014 5.39977 7.4 5.39977H7.751V11.2978C7.751 11.6848 8.064 11.9978 8.45 11.9978C8.837 11.9978 9.15 11.6848 9.15 11.2978V5.39977H9.501C9.888 5.39977 10.2 5.08677 10.2 4.69977C10.2 4.31277 9.888 3.99977 9.501 3.99977" fill="black"/>
<path id="Fill 10" fill-rule="evenodd" clip-rule="evenodd" d="M1.7988 10.4979C1.3588 10.4979 0.9998 10.8559 0.9998 11.2979C0.9998 11.7389 1.3588 12.0979 1.7988 12.0979C2.2398 12.0979 2.5988 11.7389 2.5988 11.2979C2.5988 10.8559 2.2398 10.4979 1.7988 10.4979" fill="black"/>
</g>
</svg>
