<svg width="16" height="16" viewBox="0 0 16 16" fill="none" xmlns="http://www.w3.org/2000/svg">
<g transform="translate(1.3334, 0.6407)">
<path id="Vector (Stroke)" fill-rule="evenodd" clip-rule="evenodd" d="M5.66809 0.267125C5.97178 0.0921232 6.31614 0 6.66667 0C7.0172 0 7.36158 0.0921308 7.66527 0.267147C7.66574 0.267414 7.6662 0.267682 7.66667 0.267949L12.3333 2.93461C12.58 3.07702 12.7927 3.27007 12.9579 3.5002C12.9982 3.54045 13.0339 3.58655 13.0637 3.63815C13.0894 3.6826 13.1095 3.72877 13.124 3.77584C13.2611 4.05148 13.333 4.35562 13.3333 4.66462V9.99932C13.333 10.35 13.2404 10.6945 13.0649 10.9982C12.8894 11.3018 12.6371 11.554 12.3333 11.7293L12.3308 11.7308L7.66667 14.396C7.66627 14.3962 7.66587 14.3964 7.66547 14.3967C7.45399 14.5186 7.22278 14.6003 6.9835 14.6387C6.88926 14.6897 6.78134 14.7186 6.66667 14.7186C6.55199 14.7186 6.44407 14.6897 6.34983 14.6387C6.11056 14.6003 5.87937 14.5186 5.6679 14.3967C5.66749 14.3965 5.66708 14.3962 5.66667 14.396L1.00257 11.7308L1 11.7293C0.696262 11.554 0.44398 11.3018 0.268461 10.9982C0.0929429 10.6945 0.000359734 10.35 0 9.99932V4.66462C0.000316938 4.35562 0.0722162 4.05149 0.209347 3.77584C0.223877 3.72878 0.243884 3.6826 0.269595 3.63815C0.299443 3.58655 0.33515 3.54045 0.375386 3.5002C0.540624 3.27007 0.753346 3.07702 1 2.93462L1.00257 2.93313L3.16839 1.69553C3.26678 1.58466 3.39746 1.51229 3.53755 1.48458L5.66809 0.267125ZM3.69999 2.92742L2.02599 3.88399L6.66667 6.56846L8.33769 5.60183L3.69999 2.92742ZM9.67013 4.83106L5.0406 2.16136L6.33076 1.42413L6.33333 1.42265C6.43468 1.36414 6.54964 1.33333 6.66667 1.33333C6.78369 1.33333 6.89865 1.36414 7 1.42265L11.3073 3.88399L9.67013 4.83106ZM12 5.02366L7.33333 7.72316V13.0508L11.6667 10.5746C11.667 10.5744 11.6674 10.5742 11.6677 10.574C11.7685 10.5156 11.8522 10.4318 11.9105 10.3309C11.969 10.2297 11.9999 10.1149 12 9.99795V5.02366ZM6 13.0508V7.72316L1.33333 5.02366V9.99824C1.3335 10.115 1.36436 10.2298 1.42282 10.3309C1.48112 10.4318 1.56484 10.5156 1.66562 10.574C1.66597 10.5742 1.66632 10.5744 1.66667 10.5746L6 13.0508Z" fill="black"/>
</g>
</svg>
