<svg width="16" height="16" viewBox="0 0 16 16" fill="none" xmlns="http://www.w3.org/2000/svg">
<g transform="translate(2.0000, 1.6666)">
<g id="Group 8">
<path id="Vector (Stroke)" fill-rule="evenodd" clip-rule="evenodd" d="M5.5286 0.195262C5.78895 -0.0650874 6.21106 -0.0650874 6.4714 0.195262L9.13807 2.86193C9.39842 3.12228 9.39842 3.54439 9.13807 3.80474C8.87772 4.06509 8.45561 4.06509 8.19526 3.80474L6.66667 2.27614V9.33333C6.66667 9.70152 6.36819 10 6 10C5.63181 10 5.33333 9.70152 5.33333 9.33333V2.27614L3.80474 3.80474C3.54439 4.06509 3.12228 4.06509 2.86193 3.80474C2.60158 3.54439 2.60158 3.12228 2.86193 2.86193L5.5286 0.195262ZM0.666667 4.66667C1.03486 4.66667 1.33333 4.96514 1.33333 5.33333V10.6667C1.33333 10.8435 1.40357 11.013 1.5286 11.1381C1.65362 11.2631 1.82319 11.3333 2 11.3333H10C10.1768 11.3333 10.3464 11.2631 10.4714 11.1381C10.5964 11.013 10.6667 10.8435 10.6667 10.6667V5.33333C10.6667 4.96514 10.9651 4.66667 11.3333 4.66667C11.7015 4.66667 12 4.96514 12 5.33333V10.6667C12 11.1971 11.7893 11.7058 11.4142 12.0809C11.0391 12.456 10.5304 12.6667 10 12.6667H2C1.46957 12.6667 0.960859 12.456 0.585786 12.0809C0.210714 11.7058 0 11.1971 0 10.6667V5.33333C0 4.96514 0.298477 4.66667 0.666667 4.66667Z" fill="black"/>
</g>
</g>
</svg>
