<svg width="16" height="16" viewBox="0 0 16 16" fill="none" xmlns="http://www.w3.org/2000/svg">
<g transform="translate(2.0000, 2.0000)">
<g id="Group">
<path id="Path" d="M10.8 10.8V6C10.8 5.66863 11.0686 5.4 11.4 5.4C11.7314 5.4 12 5.66863 12 6V10.8C12 11.4627 11.4627 12 10.8 12H1.2C0.537258 12 0 11.4627 0 10.8V1.2C0 0.537258 0.537258 0 1.2 0H6C6.33137 0 6.6 0.268629 6.6 0.6C6.6 0.931371 6.33137 1.2 6 1.2H1.2V10.8H10.8Z" fill="black"/>
<path id="Path_2" fill-rule="evenodd" clip-rule="evenodd" d="M9.92129 1.2H8.36981C8.03844 1.2 7.76981 0.931371 7.76981 0.6C7.76981 0.268629 8.03844 0 8.36981 0H11.3698C11.5355 0 11.6855 0.0671573 11.7941 0.175736C11.9027 0.284315 11.9698 0.434315 11.9698 0.6V3.6C11.9698 3.93137 11.7012 4.2 11.3698 4.2C11.0384 4.2 10.7698 3.93137 10.7698 3.6V2.04853L5.22423 7.59411C4.98992 7.82843 4.61002 7.82843 4.3757 7.59411C4.14139 7.3598 4.14139 6.9799 4.3757 6.74558L9.92129 1.2Z" fill="black"/>
</g>
</g>
</svg>
