<svg width="16" height="16" viewBox="0 0 16 16" fill="none" xmlns="http://www.w3.org/2000/svg">
<g transform="translate(0.3811, 2.6668)">
<g id="Group 513">
<path id="Fill 1" fill-rule="evenodd" clip-rule="evenodd" d="M7.61896 0C4.15538 0 1.1977 2.21102 0 5.33327C1.1977 8.45552 4.15538 10.6665 7.61896 10.6665C11.0818 10.6665 14.0395 8.45552 15.2379 5.33327C14.0395 2.21102 11.0818 0 7.61896 0M7.61898 1.52379C10.1736 1.52379 12.4547 3.00035 13.5793 5.33327C12.4547 7.6662 10.1736 9.14275 7.61898 9.14275C5.06358 9.14275 2.78246 7.6662 1.65867 5.33327C2.78246 3.00035 5.06358 1.52379 7.61898 1.52379" fill="black"/>
<path id="Fill 4" fill-rule="evenodd" clip-rule="evenodd" d="M7.6197 2.27381C5.93591 2.27381 4.57212 3.63836 4.57212 5.32139C4.57212 7.00518 5.93591 8.36898 7.6197 8.36898C9.30273 8.36898 10.6673 7.00518 10.6673 5.32139C10.6673 3.63836 9.30273 2.27381 7.6197 2.27381M7.61974 3.7976C8.46011 3.7976 9.14353 4.48102 9.14353 5.32139C9.14353 6.16253 8.46011 6.84519 7.61974 6.84519C6.77937 6.84519 6.09595 6.16253 6.09595 5.32139C6.09595 4.48102 6.77937 3.7976 7.61974 3.7976" fill="black"/>
</g>
</g>
</svg>
