<svg width="16" height="16" viewBox="0 0 16 16" fill="none" xmlns="http://www.w3.org/2000/svg">
<g transform="translate(0.6662, 2.3334)">
<g id="Group 512">
<path id="Fill 1" fill-rule="evenodd" clip-rule="evenodd" d="M5.15914 1.78598C5.80191 1.57719 6.4806 1.45497 7.18473 1.45497C9.69444 1.45497 11.9348 2.86484 13.0392 5.0924C12.5581 6.06286 11.8517 6.86455 11.0114 7.47637L12.0807 8.51595C13.2256 7.63496 14.1295 6.45643 14.6675 5.0924C13.4912 2.11116 10.5864 0 7.18473 0C6.05259 0 4.97806 0.238615 4.00081 0.660557L5.15914 1.78598Z" fill="black"/>
<path id="Fill 3" fill-rule="evenodd" clip-rule="evenodd" d="M7.10764 3.99734C7.14585 3.99461 7.18198 3.98574 7.22159 3.98574C7.98796 3.98574 8.6112 4.59882 8.6112 5.35118C8.6112 5.3901 8.60217 5.4256 8.59869 5.46247L9.70622 6.55073C9.88895 6.18752 10.0008 5.78403 10.0008 5.35118C10.0008 3.84305 8.75642 2.62029 7.22159 2.62029C6.78108 2.62029 6.37045 2.73089 6.00081 2.90908L7.10764 3.99734Z" fill="black"/>
<path id="Fill 5" fill-rule="evenodd" clip-rule="evenodd" d="M7.33385 8.79382C4.87482 8.79382 2.67907 7.39724 1.59733 5.19067C1.91049 4.55147 2.32631 3.9901 2.80668 3.50152L4.40985 5.07681C4.40839 5.1114 4.40179 5.14455 4.40179 5.17914C4.40179 6.77173 5.71528 8.06166 7.33532 8.06166C7.37126 8.06166 7.40499 8.05589 7.44019 8.05445L8.13397 8.73544C7.87069 8.77003 7.6052 8.79382 7.33385 8.79382M11.5999 10.1032L2.02634 0.696852C1.73958 0.415086 1.27535 0.415086 0.989334 0.696852C0.702581 0.977897 0.702581 1.43405 0.989334 1.71582L1.77699 2.48978C1.01794 3.25508 0.40116 4.16524 0 5.19069C1.15361 8.14383 4.0006 10.2351 7.33383 10.2351C8.04154 10.2351 8.72359 10.1313 9.37483 9.95477L10.5629 11.1222C10.7067 11.2634 10.8937 11.3333 11.0814 11.3333C11.2692 11.3333 11.4569 11.2634 11.5999 11.1222C11.8867 10.8411 11.8867 10.385 11.5999 10.1032" fill="black"/>
</g>
</g>
</svg>
