<svg width="16" height="16" viewBox="0 0 16 16" fill="none" xmlns="http://www.w3.org/2000/svg">
<g id="Group 3">
<g id="Rectangle Copy">
</g>
<path id="Vector (Stroke)" fill-rule="evenodd" clip-rule="evenodd" d="M3.20163 1.88182C3.54417 1.53061 4.00875 1.33333 4.49315 1.33333H9.16893C9.34332 1.33333 9.51056 1.40436 9.63387 1.53079L13.1407 5.1263C13.2641 5.25273 13.3333 5.42421 13.3333 5.60301V12.794C13.3333 13.2906 13.1409 13.7669 12.7984 14.1181C12.7984 14.1181 12.7983 14.1182 12.7983 14.1182C12.7983 14.1182 12.7982 14.1183 12.7982 14.1183C12.4556 14.4696 11.991 14.6667 11.5068 14.6667H4.49315C4.00882 14.6667 3.54419 14.4695 3.20158 14.1181C2.85904 13.767 2.66667 13.2906 2.66667 12.794V3.206C2.66667 2.70933 2.8591 2.23302 3.20163 1.88183C3.20163 1.88183 3.20163 1.88182 3.20163 1.88182ZM4.49315 2.68165C4.3575 2.68165 4.22742 2.7369 4.13153 2.83522L4.13153 2.83523C4.03561 2.93356 3.98173 3.06694 3.98173 3.206V12.794C3.98173 12.9331 4.03564 13.0665 4.13148 13.1647L4.13158 13.1648C4.22739 13.2631 4.35741 13.3183 4.49315 13.3183H11.5068C11.6425 13.3183 11.7726 13.2631 11.8683 13.1649L11.8685 13.1647C11.9644 13.0664 12.0183 12.9331 12.0183 12.794V6.27717H9.16836C8.99395 6.27717 8.82669 6.20613 8.70337 6.07967C8.58006 5.95322 8.5108 5.78172 8.51082 5.6029L8.51129 2.68165H4.49315ZM9.8262 3.63478L11.0884 4.92885H9.82599L9.8262 3.63478ZM5.00484 6.20255C5.00484 5.83023 5.29923 5.52839 5.66238 5.52839H6.83133C7.19447 5.52839 7.48886 5.83023 7.48886 6.20255C7.48886 6.57488 7.19447 6.87671 6.83133 6.87671H5.66238C5.29923 6.87671 5.00484 6.57488 5.00484 6.20255ZM5.00399 8.59986C5.00399 8.22753 5.29837 7.9257 5.66152 7.9257H10.3373C10.7004 7.9257 10.9948 8.22753 10.9948 8.59986C10.9948 8.97219 10.7004 9.27402 10.3373 9.27402H5.66152C5.29837 9.27402 5.00399 8.97219 5.00399 8.59986ZM5.00399 10.9963C5.00399 10.624 5.29837 10.3221 5.66152 10.3221H10.3373C10.7004 10.3221 10.9948 10.624 10.9948 10.9963C10.9948 11.3686 10.7004 11.6704 10.3373 11.6704H5.66152C5.29837 11.6704 5.00399 11.3686 5.00399 10.9963Z" fill="black"/>
</g>
</svg>
