<svg width="16" height="16" viewBox="0 0 16 16" fill="none" xmlns="http://www.w3.org/2000/svg">
<g id="Group 2">
<g id="Rectangle Copy">
</g>
<path id="Fill 1" fill-rule="evenodd" clip-rule="evenodd" d="M3.2377 6.4C3.0957 6.4 2.9517 6.37 2.8147 6.305C2.3137 6.071 2.0987 5.476 2.3337 4.976C3.5457 2.389 5.6017 1.052 8.4467 1.003C12.3097 0.906 13.8327 3.647 13.8957 3.761C14.1597 4.247 13.9797 4.854 13.4947 5.118C13.0087 5.378 12.4067 5.204 12.1427 4.724C12.0927 4.636 11.1127 3.002 8.5837 3.002C8.5497 3.002 8.5157 3.002 8.4817 3.003C5.7867 3.049 4.7487 4.536 4.1437 5.824C3.9737 6.187 3.6137 6.4 3.2377 6.4" fill="black"/>
<path id="Fill 4" fill-rule="evenodd" clip-rule="evenodd" d="M8.5521 15.0025C8.4031 15.0025 8.2511 14.9695 8.1091 14.8985C7.6151 14.6525 7.4111 14.0535 7.6561 13.5585C8.7661 11.3195 9.5081 8.7685 9.4211 7.4905C9.3521 6.4575 8.7591 6.4755 8.5451 6.4685C8.0341 6.4745 7.6941 6.6195 7.4651 7.3485C7.2991 7.8745 6.7391 8.1665 6.2101 8.0015C5.6841 7.8355 5.3911 7.2735 5.5571 6.7465C6.0151 5.2945 7.0681 4.4855 8.5211 4.4685H8.5651C10.1551 4.4685 11.2991 5.6225 11.4171 7.3555C11.5461 9.2505 10.5221 12.2825 9.4491 14.4465C9.2751 14.7985 8.9201 15.0025 8.5521 15.0025" fill="black"/>
<path id="Fill 6" fill-rule="evenodd" clip-rule="evenodd" d="M13.1957 12.8306C13.0877 12.8306 12.9767 12.8126 12.8697 12.7756C12.3467 12.5956 12.0697 12.0256 12.2507 11.5046C12.7837 9.9616 13.0157 8.6296 13.0057 7.1876C13.0017 6.6356 13.4457 6.1846 13.9977 6.1806H14.0057C14.5537 6.1806 15.0017 6.6226 15.0057 7.1726C15.0177 8.8516 14.7517 10.3896 14.1407 12.1566C13.9987 12.5706 13.6107 12.8306 13.1957 12.8306" fill="black"/>
<path id="Fill 9" fill-rule="evenodd" clip-rule="evenodd" d="M4.6635 14.0533C4.5035 14.0533 4.3405 14.0143 4.1895 13.9333C3.7035 13.6713 3.5215 13.0653 3.7825 12.5783C3.7895 12.5673 4.4485 11.3313 4.8585 9.8043C5.0035 9.2703 5.5575 8.9553 6.0835 9.0973C6.6175 9.2413 6.9345 9.7883 6.7905 10.3223C6.3175 12.0843 5.5745 13.4703 5.5435 13.5293C5.3625 13.8633 5.0185 14.0533 4.6635 14.0533" fill="black"/>
<path id="Fill 11" fill-rule="evenodd" clip-rule="evenodd" d="M2.0014 11.0904C1.9114 11.0904 1.8204 11.0784 1.7304 11.0534C1.1984 10.9034 0.8884 10.3524 1.0374 9.8194C1.1824 9.3064 1.2854 8.8614 1.3594 8.5384C1.3984 8.3734 1.4304 8.2364 1.4564 8.1364C1.5954 7.6014 2.1414 7.2774 2.6764 7.4204C3.2104 7.5594 3.5304 8.1054 3.3924 8.6404L3.3084 8.9914C3.2284 9.3354 3.1174 9.8114 2.9634 10.3614C2.8394 10.8024 2.4384 11.0904 2.0014 11.0904" fill="black"/>
</g>
</svg>
