<svg width="16" height="16" viewBox="0 0 16 16" fill="none" xmlns="http://www.w3.org/2000/svg">
<g transform="translate(0.9955, 2.5000)">
<g id="Group 7">
<path id="Path" fill-rule="evenodd" clip-rule="evenodd" d="M9.35775 4.23089L8.24542 7.36769C8.19144 7.49485 8.12698 7.61187 8.05311 7.71437C7.18161 8.95936 5.21887 7.77491 5.91203 6.42256C5.95171 6.3455 5.99749 6.27027 6.04859 6.19787L6.12914 6.09151L6.13946 6.07959L8.31512 3.71932C8.73121 3.21277 9.51393 3.65116 9.35775 4.23089Z" fill="black"/>
<path id="Stroke 5" fill-rule="evenodd" clip-rule="evenodd" d="M0 7.23C0 3.24521 3.1279 0 7.004 0C10.8809 0 14.009 3.24502 14.009 7.23C14.009 8.34965 13.7557 9.43653 13.2789 10.432C13.1126 10.7791 12.7619 11 12.377 11H1.631C1.24613 11 0.895415 10.7791 0.72914 10.432C0.252691 9.43744 0 8.35046 0 7.23ZM12.009 7.23C12.009 4.3335 9.75959 2 7.004 2C4.24928 2 2 4.33364 2 7.23C2 7.74117 2.07194 8.24231 2.21102 8.72399L2.299 8.9995H11.708L11.7975 8.72315C11.909 8.33766 11.9775 7.94001 12.0004 7.53503L12.009 7.23Z" fill="black"/>
</g>
</g>
</svg>
