<svg width="16" height="16" viewBox="0 0 16 16" fill="none" xmlns="http://www.w3.org/2000/svg">
<g id="Group 2">
<g id="Rectangle Copy">
</g>
<path id="Fill 1" fill-rule="evenodd" clip-rule="evenodd" d="M4.8545 4C3.8325 4 3.0005 4.829 3.0005 5.849V7.146C3.0005 8.169 3.8325 9.001 4.8545 9.001H6.5985C6.9255 9.001 7.2315 9.16 7.4185 9.429L7.5355 9.598C7.8405 10.043 8.7015 11.294 9.3785 11.825L9.3465 11.649C9.2105 10.775 9.2175 10.396 9.2855 9.873C9.3495 9.374 9.7745 9.001 10.2775 9.001H11.1455C12.1675 9.001 13.0005 8.175 13.0005 7.16V5.849C13.0005 4.829 12.1675 4 11.1455 4H4.8545ZM9.6955 13.998C9.3545 13.998 9.0055 13.921 8.7025 13.763H8.7015C7.7725 13.278 6.8625 12.126 6.0745 11.001H4.8545C2.7295 11.001 1.0005 9.271 1.0005 7.146V5.849C1.0005 3.727 2.7295 2 4.8545 2H11.1455C13.2705 2 15.0005 3.727 15.0005 5.849V7.16C15.0005 9.235 13.3405 10.931 11.2745 10.999C11.2875 11.098 11.3025 11.21 11.3235 11.34L11.3525 11.499C11.4445 11.979 11.6375 12.978 10.8735 13.613C10.5695 13.867 10.1385 13.998 9.6955 13.998V13.998Z" fill="black"/>
</g>
</svg>
