<svg width="16" height="16" viewBox="0 0 16 16" fill="none" xmlns="http://www.w3.org/2000/svg">
<g id="Group 4">
<g id="Rectangle">
</g>
<path id="Shape" fill-rule="evenodd" clip-rule="evenodd" d="M7.51126 1.13146C7.78048 0.977617 8.10335 0.958502 8.38589 1.07408L8.50423 1.13185L15.4982 5.13585C15.861 5.34355 16.0276 5.72181 15.9981 6.08616L16.0004 6.1472V12.9632C16.0004 13.5155 15.5527 13.9632 15.0004 13.9632C14.4876 13.9632 14.0649 13.5772 14.0071 13.0798L14.0004 12.9632V7.7257L13.0014 8.2957L13.0023 11.2454C13.0023 13.4185 10.7017 15.0064 8.0023 15.0064C5.38231 15.0064 3.13798 13.5105 3.00822 11.4356L3.0023 11.2454L3.0014 8.2957L0.505036 6.87239C-0.127908 6.51145 -0.165523 5.63156 0.392626 5.20907L0.504261 5.13546L7.51126 1.13146ZM5.0014 9.4357L5.0023 11.2454C5.0023 12.1221 6.28345 13.0064 8.0023 13.0064C9.6524 13.0064 10.8991 12.1915 10.9962 11.3506L11.0023 11.2454L11.0014 9.4377L8.50014 10.8662C8.23143 11.0196 7.90933 11.0388 7.62722 10.9239L7.50904 10.8664L5.0014 9.4357ZM3.016 6.002L8.006 3.151L12.986 6.002L8.003 8.846L3.016 6.002Z" fill="black"/>
</g>
</svg>
