<svg width="16" height="16" viewBox="0 0 16 16" fill="none" xmlns="http://www.w3.org/2000/svg">
<g id="Group">
<g id="Rectangle Copy">
</g>
<path id="Oval Copy" fill-rule="evenodd" clip-rule="evenodd" d="M15 8C15 11.866 11.866 15 8 15C4.13401 15 1 11.866 1 8C1 4.13401 4.13401 1 8 1C11.866 1 15 4.13401 15 8ZM3 8C3 10.7614 5.23858 13 8 13C10.7614 13 13 10.7614 13 8C13 5.23858 10.7614 3 8 3C5.23858 3 3 5.23858 3 8Z" fill="black"/>
<path id="Fill 1" fill-rule="evenodd" clip-rule="evenodd" d="M8.98411 8.60828L10.2858 7.28579C10.6699 6.90162 11.3099 6.90162 11.6941 7.28579C12.0783 7.66996 12.0783 8.30995 11.6941 8.69412L8.72837 11.7017C8.5367 11.8933 8.28003 12 8.0242 12C7.76837 12 7.51255 11.8933 7.32004 11.7017L4.29093 8.69412C3.86427 8.26746 3.90677 7.54247 4.41927 7.17912C4.82426 6.8808 5.40093 6.96579 5.74175 7.32829L6.87258 8.43744L7.00092 8.45911V7.47744L7.00008 4.98167C7.00008 4.42666 7.44842 4 7.98175 4C8.55842 4 8.98509 4.44834 8.98509 4.98167L8.98411 8.60828Z" fill="black"/>
</g>
</svg>
