<svg width="16" height="16" viewBox="0 0 16 16" fill="none" xmlns="http://www.w3.org/2000/svg">
<g id="Group">
<g id="Rectangle">
</g>
<rect id="Rectangle_2" x="7.33333" y="6.66667" width="1.33333" height="5.33333" rx="0.666667" fill="black"/>
<path id="Path" d="M8 3.83333C8.46024 3.83333 8.83333 4.20643 8.83333 4.66667C8.83333 5.1269 8.46024 5.5 8 5.5C7.53976 5.5 7.16667 5.1269 7.16667 4.66667C7.16667 4.20643 7.53976 3.83333 8 3.83333Z" fill="black"/>
<path id="Oval" d="M8.00033 1.33333C11.6821 1.33351 14.6663 4.31854 14.6663 8.00033C14.6662 11.682 11.682 14.6662 8.00033 14.6663C4.31854 14.6663 1.33351 11.6821 1.33333 8.00033C1.33333 4.31843 4.31843 1.33333 8.00033 1.33333ZM8.00033 2.66634C5.05481 2.66634 2.66634 5.05481 2.66634 8.00033C2.66651 10.9457 5.05491 13.3333 8.00033 13.3333C10.9455 13.3331 13.3332 10.9455 13.3333 8.00033C13.3333 5.05497 10.9456 2.6666 8.00033 2.66634Z" fill="black"/>
</g>
</svg>
