<svg width="16" height="16" viewBox="0 0 16 16" fill="none" xmlns="http://www.w3.org/2000/svg">
<g transform="translate(1.3334, 1.3334)">
<path id="Icon" d="M12.6667 12.6667H1.73334C1.35997 12.6667 1.17328 12.6667 1.03068 12.594C0.905235 12.5301 0.803248 12.4281 0.739332 12.3027C0.66667 12.1601 0.66667 11.9734 0.66667 11.6V0.666667M12.6667 3.33333L9.04379 6.95621C8.91179 7.08822 8.84579 7.15422 8.76968 7.17895C8.70273 7.2007 8.63061 7.2007 8.56366 7.17895C8.48756 7.15422 8.42155 7.08822 8.28955 6.95621L7.04379 5.71046C6.91179 5.57845 6.84579 5.51245 6.76968 5.48772C6.70273 5.46597 6.63061 5.46597 6.56366 5.48772C6.48756 5.51245 6.42155 5.57845 6.28955 5.71046L3.33334 8.66667M12.6667 3.33333H10M12.6667 3.33333V6" stroke="black" stroke-width="1.33333" stroke-linecap="round" stroke-linejoin="round"/>
</g>
</svg>
