<svg width="16" height="16" viewBox="0 0 16 16" fill="none" xmlns="http://www.w3.org/2000/svg">
<g id="Group 2">
<g id="Rectangle Copy">
</g>
<path id="Rectangle Copy 2" fill-rule="evenodd" clip-rule="evenodd" d="M13 3H3C1.89543 3 1 3.89543 1 5V11C1 12.1046 1.89543 13 3 13H13C14.1046 13 15 12.1046 15 11V5C15 3.89543 14.1046 3 13 3ZM3 11V5H13V11H3Z" fill="black"/>
<path id="Path" d="M5 9.1C5.60751 9.1 6.1 8.60751 6.1 8C6.1 7.39249 5.60751 6.9 5 6.9C4.39249 6.9 3.9 7.39249 3.9 8C3.9 8.60751 4.39249 9.1 5 9.1Z" fill="black"/>
<path id="Path_2" d="M8 9.1C8.60751 9.1 9.1 8.60751 9.1 8C9.1 7.39249 8.60751 6.9 8 6.9C7.39249 6.9 6.9 7.39249 6.9 8C6.9 8.60751 7.39249 9.1 8 9.1Z" fill="black"/>
<path id="Path_3" d="M11 9.1C11.6075 9.1 12.1 8.60751 12.1 8C12.1 7.39249 11.6075 6.9 11 6.9C10.3925 6.9 9.9 7.39249 9.9 8C9.9 8.60751 10.3925 9.1 11 9.1Z" fill="black"/>
</g>
</svg>
