<svg width="16" height="16" viewBox="0 0 16 16" fill="none" xmlns="http://www.w3.org/2000/svg">
<g id="Group 2">
<g id="Rectangle Copy">
</g>
<path id="Fill 1" fill-rule="evenodd" clip-rule="evenodd" d="M7.2695 8.6875V8.6875C7.0305 8.6875 6.8015 8.5915 6.6325 8.4225L5.1705 6.9585C4.8195 6.6075 4.8205 6.0385 5.1715 5.6865C5.5235 5.3345 6.0925 5.3355 6.4445 5.6875L7.2695 6.5135L9.5595 4.2235C9.9115 3.8725 10.4815 3.8725 10.8325 4.2235C11.1845 4.5755 11.1845 5.1455 10.8325 5.4975L7.9065 8.4235C7.7375 8.5925 7.5075 8.6875 7.2695 8.6875" fill="black"/>
<path id="Fill 3" fill-rule="evenodd" clip-rule="evenodd" d="M4 3V12.131L7.446 9.832C7.782 9.607 8.22 9.607 8.556 9.832L12 12.131V3H4ZM3 15C2.838 15 2.676 14.961 2.528 14.882C2.203 14.708 2 14.369 2 14V2C2 1.447 2.447 1 3 1H13C13.553 1 14 1.447 14 2V14C14 14.369 13.797 14.708 13.472 14.882C13.147 15.056 12.752 15.036 12.445 14.832L8.001 11.866L3.555 14.832C3.388 14.943 3.194 15 3 15V15Z" fill="black"/>
</g>
</svg>
