<svg width="16" height="16" viewBox="0 0 16 16" fill="none" xmlns="http://www.w3.org/2000/svg">
<g transform="translate(3.7500, 1.2500)">
<path id="Vector" d="M4.25055 0C1.90681 0 0 1.91168 0 4.26172C0 5.06292 0.224834 5.84478 0.649829 6.52226C0.805056 6.77023 0.992371 7.12594 1.0498 7.32545L1.64906 9.40786C1.70962 9.61737 1.83072 9.80518 1.98703 9.95709C1.94157 10.0392 1.91314 10.1321 1.91314 10.2327V12.2436C1.91314 12.5583 2.16781 12.8136 2.48166 12.8136H2.76988C2.75138 12.8649 2.73921 12.9186 2.73921 12.9751C2.73921 13.2649 2.9942 13.5 3.30771 13.5H5.19263C5.50674 13.5 5.76115 13.2649 5.76115 12.9751C5.76115 12.9184 5.74892 12.8647 5.73131 12.8136H6.01839C6.33249 12.8136 6.58691 12.5583 6.58691 12.2436V10.2327C6.58691 10.1424 6.56386 10.0577 6.52665 9.98193C6.6975 9.82347 6.82941 9.62423 6.89134 9.39822L7.45871 7.32068C7.51385 7.11918 7.69719 6.76713 7.84959 6.52403C8.27511 5.84651 8.5 5.06444 8.5 4.26209C8.49994 1.91195 6.59371 0 4.25055 0ZM6.88706 5.91658C6.82084 6.02233 6.48427 6.57214 6.36202 7.01877L5.79465 9.09632C5.78415 9.13479 5.70596 9.19462 5.66619 9.19494H2.87843C2.8361 9.19494 2.75305 9.13169 2.74139 9.0915L2.14216 7.00909C2.01652 6.57272 1.67936 6.02233 1.61283 5.91573C1.30156 5.41979 1.13698 4.84775 1.13698 4.26172C1.13698 2.54042 2.53355 1.1401 4.25049 1.1401C5.9666 1.1401 7.36286 2.54042 7.36286 4.26172C7.36291 4.84859 7.19859 5.42094 6.88706 5.91658Z" fill="black"/>
</g>
</svg>
