<svg width="16" height="16" viewBox="0 0 16 16" fill="none" xmlns="http://www.w3.org/2000/svg">
<g id="Group 5">
<g id="Rectangle">
</g>
<path id="Path" d="M7.86311 2.81906L8.26239 2.43233C9.72807 0.967468 12.1034 0.967468 13.5684 2.43246C14.9945 3.85853 15.033 6.14585 13.6841 7.6184L13.5685 7.73919L11.5563 9.75207C10.0913 11.2162 7.71538 11.2162 6.25026 9.75194C6.10878 9.61045 5.9796 9.4589 5.8641 9.29916C5.64836 9.0008 5.71534 8.58404 6.0137 8.3683C6.31207 8.15256 6.72883 8.21954 6.94457 8.5179C7.01852 8.62017 7.10165 8.71771 7.19294 8.809C8.10356 9.71912 9.56069 9.75162 10.5102 8.9067L10.6135 8.80921L12.6256 6.79646C13.5706 5.85148 13.5706 4.32026 12.6256 3.37527C11.715 2.46466 10.2586 2.43214 9.30176 3.28434L9.19756 3.38267L8.79089 3.77667C8.52645 4.03287 8.1044 4.02619 7.8482 3.76176C7.61171 3.51766 7.5992 3.13926 7.80667 2.88098L7.86311 2.81906Z" fill="black"/>
<path id="Path_2" d="M4.44486 6.25046C5.90986 4.78547 8.28587 4.78547 9.75167 6.25046C9.85517 6.35396 9.95174 6.46247 10.0417 6.57616C10.2702 6.86488 10.2214 7.28416 9.93264 7.51264C9.64392 7.74112 9.22464 7.69229 8.99616 7.40357C8.93812 7.33023 8.87585 7.26026 8.80899 7.1934C7.89775 6.28266 6.44069 6.25014 5.49098 7.09578L5.38759 7.19335L3.37514 9.20514C2.43064 10.1502 2.43064 11.6816 3.375 12.6265C4.28624 13.5377 5.74259 13.5702 6.68998 12.7269L6.7931 12.6296L7.2951 12.1209C7.55372 11.8589 7.97582 11.8561 8.23788 12.1147C8.47979 12.3534 8.50077 12.7315 8.29915 12.9943L8.2441 13.0575L7.739 13.5693C6.27332 15.035 3.89788 15.035 2.43207 13.5691C1.00681 12.1431 0.968293 9.85597 2.3167 8.38319L2.43227 8.26238L4.44486 6.25046Z" fill="black"/>
</g>
</svg>
