<svg width="16" height="16" viewBox="0 0 16 16" fill="none" xmlns="http://www.w3.org/2000/svg">
<g id="Group 3">
<g id="Rectangle Copy">
</g>
<path id="Fill 1" fill-rule="evenodd" clip-rule="evenodd" d="M12 12.6644C12 13.0324 11.7013 13.3311 11.3333 13.3311H4.66667C4.29867 13.3311 4 13.0324 4 12.6644V7.99773C4 7.62973 4.29867 7.33107 4.66667 7.33107H11.3333C11.7013 7.33107 12 7.62973 12 7.99773V12.6644ZM8.00267 2.6664C9.47333 2.6664 10.6693 3.86307 10.6693 5.33373V5.99773H5.336V5.33373C5.336 3.86307 6.532 2.6664 8.00267 2.6664V2.6664ZM12.0027 6.12173V5.33373C12.0027 3.12773 10.208 1.33307 8.00267 1.33307C5.79667 1.33307 4.00267 3.12773 4.00267 5.33373V6.11973C3.22667 6.39507 2.66667 7.1284 2.66667 7.99773V12.6644C2.66667 13.7671 3.564 14.6644 4.66667 14.6644H11.3333C12.436 14.6644 13.3333 13.7671 13.3333 12.6644V7.99773C13.3333 7.1304 12.7753 6.3984 12.0027 6.12173V6.12173Z" fill="black"/>
<path id="Fill 3" fill-rule="evenodd" clip-rule="evenodd" d="M9 9.66247C9 9.1098 8.552 8.66247 8 8.66247C7.448 8.66247 7 9.1098 7 9.66247C7 9.9578 7.13 10.2205 7.33467 10.4031V11.3265C7.33467 11.6958 7.634 11.9951 8.00333 11.9951C8.37333 11.9951 8.67267 11.6958 8.67267 11.3265V10.3985C8.87267 10.2151 9 9.95447 9 9.66247" fill="black"/>
</g>
</svg>
