<svg width="16" height="16" viewBox="0 0 16 16" fill="none" xmlns="http://www.w3.org/2000/svg">
<g id="Group 2">
<g id="Rectangle Copy">
</g>
<path id="Fill 1" fill-rule="evenodd" clip-rule="evenodd" d="M10.6666 1.33327H5.33326C4.23393 1.33327 3.33326 2.23327 3.33326 3.33327V12.6666C3.33326 13.7666 4.23393 14.6666 5.33326 14.6666H10.6666C11.7666 14.6666 12.6666 13.7666 12.6666 12.6666V3.33327C12.6666 2.23327 11.7666 1.33327 10.6666 1.33327M10.6666 2.66663C11.0279 2.66663 11.3333 2.97196 11.3333 3.33329V12.6666C11.3333 13.028 11.0279 13.3333 10.6666 13.3333H5.33326C4.97192 13.3333 4.66659 13.028 4.66659 12.6666V3.33329C4.66659 2.97196 4.97192 2.66663 5.33326 2.66663H10.6666" fill="black"/>
<path id="Fill 4" fill-rule="evenodd" clip-rule="evenodd" d="M7.99993 11.1711C7.53993 11.1711 7.1666 11.5445 7.1666 12.0045C7.1666 12.4645 7.53993 12.8378 7.99993 12.8378C8.45993 12.8378 8.83326 12.4645 8.83326 12.0045C8.83326 11.5445 8.45993 11.1711 7.99993 11.1711" fill="black"/>
</g>
</svg>
