<svg width="16" height="16" viewBox="0 0 16 16" fill="none" xmlns="http://www.w3.org/2000/svg">
<g transform="translate(2.0000, 2.1619)">
<g id="Group 2087324390">
<path id="Vector" d="M11.4524 3.20479H0.511271V4.30203H11.4524V3.20479Z" fill="black"/>
<path id="Vector_2" d="M11.7993 3.89267L11.6626 3.78801C11.5157 3.67575 11.4862 3.46642 11.5968 3.31872L11.7006 3.17947C11.8694 2.95747 11.7951 2.68486 11.601 2.45612L10.1864 0.47519C9.9737 0.177245 9.63016 0 9.26386 0H2.73191C2.36561 0 2.02209 0.177245 1.80939 0.47519L0.398164 2.45612C0.204036 2.68486 0.130606 2.95664 0.298569 3.17947L0.402384 3.31872C0.512108 3.46728 0.483411 3.67575 0.336551 3.78801L0.199818 3.89267C-0.022162 4.06147 -0.0660519 4.37798 0.102754 4.59998L5.07408 11.5219C5.14836 11.6189 5.26316 11.6763 5.38555 11.6763H6.61193C6.7343 11.6763 6.8491 11.6189 6.92337 11.5219L11.8972 4.59998C12.0661 4.37798 12.0222 4.06064 11.8002 3.89267H11.7993ZM6.11057 10.6719C6.054 10.7462 5.9426 10.7462 5.88605 10.6719L0.913032 3.853C0.856464 3.77872 0.875051 3.67069 0.92991 3.59727L2.50234 1.39349C2.63485 1.20696 2.84923 1.09724 3.07797 1.09724H8.91782C9.14654 1.09724 9.36092 1.20781 9.49343 1.39349L11.0684 3.59727C11.1241 3.67069 11.1418 3.77958 11.0853 3.853L6.10972 10.6719H6.11057Z" fill="black"/>
</g>
</g>
</svg>
