<svg width="16" height="16" viewBox="0 0 16 16" fill="none" xmlns="http://www.w3.org/2000/svg">
<g id="Group 2">
<g id="Rectangle Copy">
</g>
<path id="Fill 1" fill-rule="evenodd" clip-rule="evenodd" d="M9.25 12.7646C9.25 13.4546 8.69 14.0146 8 14.0146C7.31 14.0146 6.75 13.4546 6.75 12.7646C6.75 12.0746 7.31 11.5146 8 11.5146C8.69 11.5146 9.25 12.0746 9.25 12.7646" fill="black"/>
<path id="Fill 4" fill-rule="evenodd" clip-rule="evenodd" d="M3.7031 2.2929C3.3121 1.9019 2.6801 1.9019 2.2891 2.2929C1.8981 2.6839 1.8981 3.3159 2.2891 3.7069L3.6501 5.0669C2.7931 5.5089 1.9941 6.0669 1.2931 6.7689C0.9021 7.1589 0.9021 7.7919 1.2931 8.1829C1.6831 8.5729 2.3161 8.5729 2.7071 8.1829C3.4161 7.4739 4.2461 6.9329 5.1451 6.5639L6.5501 7.9669C5.7241 8.1979 4.9431 8.6299 4.2931 9.2789C3.9021 9.6699 3.9021 10.3029 4.2931 10.6929C4.4881 10.8889 4.7441 10.9859 5.0001 10.9859C5.2561 10.9859 5.5121 10.8889 5.7071 10.6929C6.4321 9.9699 7.4161 9.6749 8.3631 9.7799L11.2931 12.7099C11.4881 12.9049 11.7441 13.0029 12.0001 13.0029C12.2561 13.0029 12.5121 12.9049 12.7071 12.7099C13.0981 12.3189 13.0981 11.6869 12.7071 11.2959L3.7031 2.2929Z" fill="black"/>
<path id="Fill 7" fill-rule="evenodd" clip-rule="evenodd" d="M14.707 6.7685C12.974 5.0355 10.686 4.0645 8.246 4.0015L10.766 6.5205C11.7 6.8915 12.561 7.4495 13.293 8.1825C13.488 8.3775 13.744 8.4755 14 8.4755C14.256 8.4755 14.512 8.3775 14.707 8.1825C15.098 7.7915 15.098 7.1595 14.707 6.7685" fill="black"/>
</g>
</svg>
