<svg width="16" height="16" viewBox="0 0 16 16" fill="none" xmlns="http://www.w3.org/2000/svg">
<g transform="translate(6.5872, 1.0000)">
<g id="Vector">
<path d="M1.41284 2.82569C0.632552 2.82569 0 2.19314 0 1.41284C0 0.632552 0.632552 0 1.41284 0C2.19314 0 2.82569 0.632552 2.82569 1.41284C2.82569 2.19314 2.19314 2.82569 1.41284 2.82569Z" fill="black"/>
<path d="M1.41284 8.41285C0.632552 8.41285 2.38419e-07 7.78029 2.38419e-07 7C2.38419e-07 6.21971 0.632552 5.58716 1.41284 5.58716C2.19314 5.58716 2.82569 6.21971 2.82569 7C2.82569 7.78029 2.19314 8.41285 1.41284 8.41285Z" fill="black"/>
<path d="M1.41284 14C0.632552 14 4.76837e-07 13.3674 4.76837e-07 12.5872C4.76837e-07 11.8069 0.632552 11.1743 1.41284 11.1743C2.19314 11.1743 2.82569 11.8069 2.82569 12.5872C2.82569 13.3674 2.19314 14 1.41284 14Z" fill="black"/>
</g>
</g>
</svg>
