<svg width="16" height="16" viewBox="0 0 16 16" fill="none" xmlns="http://www.w3.org/2000/svg">
<g id="Group">
<g id="Rectangle Copy">
</g>
<path id="Oval Copy" fill-rule="evenodd" clip-rule="evenodd" d="M15 8C15 11.866 11.866 15 8 15C4.13401 15 1 11.866 1 8C1 4.13401 4.13401 1 8 1C11.866 1 15 4.13401 15 8ZM3 8C3 10.7614 5.23858 13 8 13C10.7614 13 13 10.7614 13 8C13 5.23858 10.7614 3 8 3C5.23858 3 3 5.23858 3 8Z" fill="black"/>
<path id="Fill 1" fill-rule="evenodd" clip-rule="evenodd" d="M8.98411 7.39172L10.2858 8.71421C10.6699 9.09838 11.3099 9.09838 11.6941 8.71421C12.0783 8.33004 12.0783 7.69005 11.6941 7.30588L8.72837 4.29832C8.5367 4.10666 8.28003 4 8.0242 4C7.76837 4 7.51255 4.10667 7.32004 4.29832L4.29093 7.30588C3.86427 7.73254 3.90677 8.45753 4.41927 8.82088C4.82426 9.1192 5.40093 9.03421 5.74175 8.67171L6.87258 7.56256L7.00092 7.54089V8.52256L7.00008 11.0183C7.00008 11.5733 7.44842 12 7.98175 12C8.55842 12 8.98509 11.5517 8.98509 11.0183L8.98411 7.39172Z" fill="black"/>
</g>
</svg>
