<svg width="16" height="16" viewBox="0 0 16 16" fill="none" xmlns="http://www.w3.org/2000/svg">
<g id="Group 3">
<g id="Rectangle">
</g>
<path id="Fill 1" fill-rule="evenodd" clip-rule="evenodd" d="M10.6667 5.99933C11.4021 5.99933 12.0001 6.59733 12.0001 7.33267C12.0001 8.068 11.4021 8.666 10.6667 8.666C9.9314 8.666 9.3334 8.068 9.3334 7.33267C9.3334 6.59733 9.9314 5.99933 10.6667 5.99933M5.33207 2.66667C6.0674 2.66667 6.6654 3.26467 6.6654 4C6.6654 4.73533 6.0674 5.33333 5.33207 5.33333C4.5974 5.33333 3.99873 4.73533 3.99873 4C3.99873 3.26467 4.5974 2.66667 5.33207 2.66667M15.3047 13.8127C14.8461 12.238 14.0294 10.242 12.1107 9.56867C12.8447 9.09333 13.3334 8.27067 13.3334 7.33267C13.3334 5.862 12.1374 4.666 10.6667 4.666C9.31807 4.666 8.2114 5.676 8.03607 6.97733C7.68407 6.672 7.26407 6.41533 6.7674 6.24C7.50607 5.76533 7.99873 4.94133 7.99873 4C7.99873 2.52933 6.80273 1.33333 5.33207 1.33333C3.8614 1.33333 2.6654 2.52933 2.6654 4C2.6654 4.938 3.15473 5.76133 3.8894 6.236C1.9694 6.90933 1.15273 8.906 0.6934 10.4813C0.590733 10.8347 0.792733 11.2053 1.14673 11.308C1.20873 11.326 1.2714 11.3347 1.3334 11.3347C1.62273 11.3347 1.88873 11.146 1.9734 10.8547C2.6934 8.38733 3.69807 7.33467 5.3334 7.33467C6.7754 7.33467 7.7014 8.13733 8.3954 9.974C7.05207 10.8553 6.41207 12.4847 6.02473 13.8127C5.92207 14.166 6.1254 14.5367 6.47807 14.6393C6.54073 14.6573 6.6034 14.666 6.66473 14.666C6.95407 14.666 7.22007 14.4773 7.30473 14.186C8.02407 11.7187 9.02873 10.666 10.6647 10.666C12.3001 10.666 13.3047 11.7187 14.0247 14.186C14.1274 14.5387 14.4927 14.742 14.8514 14.6393C15.2054 14.5367 15.4074 14.166 15.3047 13.8127" fill="black"/>
</g>
</svg>
