<svg width="16" height="16" viewBox="0 0 16 16" fill="none" xmlns="http://www.w3.org/2000/svg">
<g id="Group 2">
<g id="Rectangle Copy">
</g>
<path id="Shape" fill-rule="evenodd" clip-rule="evenodd" d="M10.7324 2H12C13.1046 2 14 2.89543 14 4V13C14 14.1046 13.1046 15 12 15H4C2.89543 15 2 14.1046 2 13V4C2 2.89543 2.89543 2 4 2H5.26756C5.61337 1.4022 6.25972 1 7 1H9C9.74028 1 10.3866 1.4022 10.7324 2ZM5.26756 4H4V13H12V4H10.7324C10.3866 4.5978 9.74028 5 9 5H7C6.25972 5 5.61337 4.5978 5.26756 4ZM6.6 3C6.6 2.77909 6.77909 2.6 7 2.6H9C9.22091 2.6 9.4 2.77909 9.4 3C9.4 3.22091 9.22091 3.4 9 3.4H7C6.77909 3.4 6.6 3.22091 6.6 3Z" fill="black"/>
</g>
</svg>
