<svg width="16" height="16" viewBox="0 0 16 16" fill="none" xmlns="http://www.w3.org/2000/svg">
<g id="Group 4">
<g id="Rectangle">
</g>
<path id="Fill 1" fill-rule="evenodd" clip-rule="evenodd" d="M4.04427 13.332C4.23893 11.926 5.04827 11.1927 5.83493 10.4813C6.56893 9.81667 7.32827 9.12933 7.3356 7.99467C7.32827 6.86933 6.56893 6.182 5.83493 5.51733C5.7656 5.456 5.69693 5.39267 5.62893 5.32933H10.3723C10.3043 5.39267 10.2356 5.456 10.1669 5.51733C9.43293 6.182 8.67293 6.86933 8.66627 8.004C8.67293 9.12933 9.43227 9.81667 10.1669 10.4813C10.9529 11.1927 11.7629 11.926 11.9576 13.332H4.04427ZM11.9576 2.66667C11.8829 3.208 11.7149 3.64933 11.4936 4.028C11.4416 4.01467 11.3916 3.996 11.3356 3.996H4.4876C4.27627 3.624 4.11693 3.19267 4.04427 2.66667H11.9576ZM11.0616 9.492C10.3856 8.88 10.0029 8.50933 9.9996 8.004C10.0029 7.48933 10.3856 7.118 11.0616 6.506C12.0216 5.63733 13.3356 4.448 13.3356 2C13.3356 1.63133 13.0369 1.33333 12.6689 1.33333H3.3336C2.96493 1.33333 2.66693 1.63133 2.66693 2C2.66693 4.448 3.98027 5.63733 4.94027 6.506C5.6156 7.118 5.99893 7.48933 6.00227 7.99467C5.99893 8.50933 5.6156 8.88 4.94027 9.492C3.98027 10.3613 2.66693 11.5507 2.66693 13.9987C2.66693 14.3673 2.96493 14.6653 3.3336 14.6653H12.6689C13.0369 14.6653 13.3356 14.3673 13.3356 13.9987C13.3356 11.5507 12.0209 10.3607 11.0616 9.492V9.492Z" fill="black"/>
</g>
</svg>
