<svg width="16" height="16" viewBox="0 0 16 16" fill="none" xmlns="http://www.w3.org/2000/svg">
<g id="Group">
<g id="Rectangle">
</g>
<path id="Oval" d="M8.00033 1.33333C11.6821 1.33351 14.6663 4.31854 14.6663 8.00033C14.6662 11.682 11.682 14.6662 8.00033 14.6663C4.31854 14.6663 1.33351 11.6821 1.33333 8.00033C1.33333 4.31843 4.31843 1.33333 8.00033 1.33333ZM8.00033 2.66634C5.05481 2.66634 2.66634 5.05481 2.66634 8.00033C2.66651 10.9457 5.05491 13.3333 8.00033 13.3333C10.9455 13.3331 13.3332 10.9455 13.3333 8.00033C13.3333 5.05497 10.9456 2.6666 8.00033 2.66634Z" fill="black"/>
<path id="Path" fill-rule="evenodd" clip-rule="evenodd" d="M8.66667 7.33333H10.6667C11.0349 7.33333 11.3333 7.63181 11.3333 8C11.3333 8.36819 11.0349 8.66667 10.6667 8.66667H8.66667V10.6667C8.66667 11.0349 8.36819 11.3333 8 11.3333C7.63181 11.3333 7.33333 11.0349 7.33333 10.6667V8.66667H5.33333C4.96514 8.66667 4.66667 8.36819 4.66667 8C4.66667 7.63181 4.96514 7.33333 5.33333 7.33333H7.33333V5.33333C7.33333 4.96514 7.63181 4.66667 8 4.66667C8.36819 4.66667 8.66667 4.96514 8.66667 5.33333V7.33333Z" fill="black"/>
</g>
</svg>
