<svg width="16" height="16" viewBox="0 0 16 16" fill="none" xmlns="http://www.w3.org/2000/svg">
<g id="Group">
<g id="Rectangle">
</g>
<path id="Exclude" d="M8.00033 1.33333C11.6821 1.33351 14.6663 4.31854 14.6663 8.00033C14.6662 11.682 11.682 14.6662 8.00033 14.6663C4.31854 14.6663 1.33351 11.6821 1.33333 8.00033C1.33333 4.31843 4.31843 1.33333 8.00033 1.33333ZM7.99935 4.66634C7.63139 4.6666 7.33334 4.96532 7.33333 5.33333V7.33333H5.33333C4.96514 7.33333 4.66634 7.63214 4.66634 8.00033C4.66651 8.36838 4.96525 8.66634 5.33333 8.66634H7.33333V10.6663C7.33333 11.0344 7.63138 11.3331 7.99935 11.3333C8.36754 11.3333 8.66634 11.0345 8.66634 10.6663V8.66634H10.6663C11.0344 8.66634 11.3332 8.36838 11.3333 8.00033C11.3333 7.63214 11.0345 7.33333 10.6663 7.33333H8.66634V5.33333C8.66633 4.96515 8.36753 4.66634 7.99935 4.66634Z" fill="black"/>
</g>
</svg>
