<svg width="16" height="16" viewBox="0 0 16 16" fill="none" xmlns="http://www.w3.org/2000/svg">
<g transform="translate(2.6666, 2.6666)">
<g id="Vector">
<path fill-rule="evenodd" clip-rule="evenodd" d="M5.19298 0C5.58055 1.69412e-08 5.89474 0.314186 5.89474 0.701754L5.89474 9.96491C5.89474 10.3525 5.58055 10.6667 5.19298 10.6667C4.80541 10.6667 4.49123 10.3525 4.49123 9.96491L4.49123 0.701754C4.49123 0.314186 4.80541 -1.69412e-08 5.19298 0Z" fill="black"/>
<path fill-rule="evenodd" clip-rule="evenodd" d="M10.6667 5.19298C10.6667 5.58055 10.3525 5.89474 9.96491 5.89474L0.701754 5.89474C0.314186 5.89474 -3.57646e-08 5.58055 0 5.19298C3.57646e-08 4.80541 0.314187 4.49123 0.701754 4.49123L9.96491 4.49123C10.3525 4.49123 10.6667 4.80541 10.6667 5.19298Z" fill="black"/>
</g>
</g>
</svg>
