<svg width="16" height="16" viewBox="0 0 16 16" fill="none" xmlns="http://www.w3.org/2000/svg">
<g id="Group">
<g id="Rectangle Copy 3">
</g>
<path id="Oval" d="M8.00033 1.33333C11.6821 1.33351 14.6663 4.31854 14.6663 8.00033C14.6662 11.682 11.682 14.6662 8.00033 14.6663C4.31854 14.6663 1.33351 11.6821 1.33333 8.00033C1.33333 4.31843 4.31843 1.33333 8.00033 1.33333ZM8.00033 2.66634C5.05481 2.66634 2.66634 5.05481 2.66634 8.00033C2.66651 10.9457 5.05491 13.3333 8.00033 13.3333C10.9455 13.3331 13.3332 10.9455 13.3333 8.00033C13.3333 5.05497 10.9456 2.6666 8.00033 2.66634Z" fill="black"/>
<path id="Stroke 5" d="M6.96126 6.08947C6.96126 5.57607 7.39583 5.1528 7.94126 5.1528C8.48549 5.1528 8.91993 5.57618 8.91993 6.08947C8.92569 6.46417 8.83043 6.59425 8.36979 6.93046L8.3383 6.95343C7.55715 7.52345 7.22936 7.97806 7.27546 8.88209L7.2746 9.01347C7.2746 9.38166 7.57307 9.68013 7.94126 9.68013C8.30945 9.68013 8.60793 9.38166 8.60793 9.01347V8.84813C8.58969 8.47344 8.67013 8.36187 9.12425 8.0305L9.15586 8.00743C9.9315 7.4413 10.2673 6.98283 10.2532 6.07908C10.2533 4.83199 9.21428 3.81947 7.94126 3.81947C6.6672 3.81947 5.62793 4.83171 5.62793 6.08947C5.62793 6.45766 5.92641 6.75613 6.2946 6.75613C6.66279 6.75613 6.96126 6.45766 6.96126 6.08947Z" fill="black"/>
<path id="Path" d="M8 10.5C8.46024 10.5 8.83333 10.8731 8.83333 11.3333C8.83333 11.7936 8.46024 12.1667 8 12.1667C7.53976 12.1667 7.16667 11.7936 7.16667 11.3333C7.16667 10.8731 7.53976 10.5 8 10.5Z" fill="black"/>
</g>
</svg>
