<svg width="16" height="16" viewBox="0 0 16 16" fill="none" xmlns="http://www.w3.org/2000/svg">
<g id="Group 3">
<g id="Rectangle Copy">
</g>
<path id="Path" d="M13.7555 4.74636C13.985 5.16014 14.1718 5.6012 14.3116 6.0642C15.3753 9.58691 13.3962 13.3096 9.89143 14.378C6.38684 15.4463 2.68395 13.4572 1.621 9.93529C0.557134 6.41229 2.53594 2.6898 6.04124 1.62148C6.67164 1.42943 7.31956 1.33333 7.96628 1.33333C8.3733 1.33333 8.70325 1.66498 8.70325 2.07409C8.70325 2.48319 8.3733 2.81484 7.96628 2.81484C7.46409 2.81484 6.96025 2.88956 6.46887 3.03927C3.7429 3.87007 2.204 6.76501 3.03144 9.50511C3.85811 12.2441 6.73797 13.7911 9.46364 12.9602C12.1892 12.1294 13.7285 9.23417 12.9011 6.49435C12.7868 6.11547 12.6323 5.75608 12.4416 5.42063L12.2588 6.48131C12.1894 6.88441 11.8079 7.1546 11.4069 7.08479C11.0058 7.01498 10.737 6.63161 10.8065 6.2285L11.2605 3.59364C11.3291 3.1954 11.7026 2.92595 12.0999 2.9881L14.7096 3.39625C15.1117 3.45915 15.387 3.83785 15.3245 4.24209C15.2619 4.64634 14.8851 4.92305 14.4829 4.86014L13.7555 4.74636V4.74636Z" fill="black"/>
<path id="Path_2" d="M5.65779 8.56889C5.33727 8.79251 5.23728 9.26848 5.43444 9.63201C5.63161 9.99553 6.05128 10.1089 6.3718 9.88533L8.3423 8.51054C8.54387 8.36991 8.66667 8.12073 8.66667 7.85233V4.77278C8.66667 4.34599 8.36161 4 7.9853 4C7.60899 4 7.30394 4.34599 7.30394 4.77278V7.42041L5.65779 8.56889Z" fill="black"/>
</g>
</svg>
