<svg width="16" height="16" viewBox="0 0 16 16" fill="none" xmlns="http://www.w3.org/2000/svg">
<g id="Group 2">
<g id="Rectangle Copy">
</g>
<path id="Fill 1" fill-rule="evenodd" clip-rule="evenodd" d="M10.9077 11.1927L8.71767 10.3281C8.37567 10.1921 7.987 10.3607 7.853 10.7034C7.71767 11.0454 7.88567 11.4327 8.22767 11.5674L9.005 11.8747C8.555 12.0314 8.081 12.1214 7.59833 12.1214H7.58833C6.07567 12.1181 4.66167 11.3027 3.897 9.99407C3.71233 9.67673 3.30367 9.56873 2.98567 9.75473C2.66767 9.94007 2.56033 10.3481 2.74633 10.6661C3.74767 12.3814 5.60167 13.4501 7.58633 13.4547H7.59833C8.23567 13.4547 8.863 13.3354 9.45833 13.1261L9.21833 13.7667C9.089 14.1114 9.26367 14.4954 9.609 14.6247C9.68567 14.6534 9.76433 14.6674 9.84233 14.6674C10.1123 14.6674 10.3663 14.5027 10.467 14.2341L11.287 12.0461C11.415 11.7061 11.2463 11.3261 10.9077 11.1927" fill="black"/>
<path id="Fill 4" fill-rule="evenodd" clip-rule="evenodd" d="M10.5288 3.7878C10.9815 3.7878 11.3488 4.1558 11.3488 4.6078C11.3488 5.0598 10.9815 5.4278 10.5288 5.4278C10.0768 5.4278 9.70947 5.0598 9.70947 4.6078C9.70947 4.1558 10.0768 3.7878 10.5288 3.7878M5.47013 2.66647C5.92213 2.66647 6.29013 3.03447 6.29013 3.48647C6.29013 3.93913 5.92213 4.30647 5.47013 4.30647C5.01747 4.30647 4.65013 3.93913 4.65013 3.48647C4.65013 3.03447 5.01747 2.66647 5.47013 2.66647M13.9568 8.67113C13.5395 7.55913 12.7495 6.7338 11.8048 6.33247C12.3341 5.94047 12.6821 5.3158 12.6821 4.6078C12.6821 3.42047 11.7161 2.45447 10.5288 2.45447C9.34213 2.45447 8.37613 3.42047 8.37613 4.6078C8.37613 5.3158 8.72413 5.94047 9.25347 6.33247C8.9888 6.44447 8.7348 6.5818 8.50013 6.75847C8.05947 6.04513 7.44813 5.50913 6.74547 5.2118C7.2748 4.81913 7.62347 4.19447 7.62347 3.48647C7.62347 2.2998 6.6568 1.33313 5.47013 1.33313C4.2828 1.33313 3.3168 2.2998 3.3168 3.48647C3.3168 4.19447 3.6648 4.81913 4.19413 5.2118C3.24947 5.6118 2.45947 6.43847 2.0428 7.55047C1.91347 7.89513 2.08813 8.27913 2.43213 8.40913C2.7768 8.5358 3.16147 8.3638 3.29147 8.01913C3.6888 6.95847 4.54413 6.27313 5.47013 6.27313C6.3288 6.27313 7.1228 6.86713 7.5508 7.79913C7.37613 8.06713 7.2208 8.35513 7.10147 8.6718C6.9728 9.01647 7.14747 9.40047 7.49213 9.5298C7.56947 9.55847 7.64813 9.57247 7.72613 9.57247C7.99547 9.57247 8.25013 9.4078 8.35013 9.13913C8.74813 8.07913 9.6028 7.3938 10.5288 7.3938C11.4548 7.3938 12.3101 8.07913 12.7081 9.1398C12.8375 9.48513 13.2215 9.6578 13.5668 9.5298C13.9108 9.40047 14.0855 9.01647 13.9568 8.67113" fill="black"/>
</g>
</svg>
