<svg width="16" height="16" viewBox="0 0 16 16" fill="none" xmlns="http://www.w3.org/2000/svg">
<g transform="translate(1.2368, 2.2500)">
<g id="Group 3">
<path id="Shape" fill-rule="evenodd" clip-rule="evenodd" d="M12.1737 0C12.8864 0 13.4709 0.552142 13.5226 1.25173L13.5263 1.35263V9.46842C13.5263 10.1811 12.9742 10.7657 12.2746 10.8173L12.1716 10.8204C12.1717 11.171 11.911 11.4564 11.5744 11.4955L11.4954 11.5C11.1487 11.5 10.8627 11.2393 10.8236 10.9026L10.819 10.8204H2.70391C2.70398 11.171 2.44273 11.4564 2.1065 11.4955L2.02766 11.5C1.65366 11.5 1.35135 11.1977 1.35135 10.8237C0.639158 10.8205 0.0553132 10.2684 0.0037079 9.56926L0 9.46842V1.35263C0 0.639917 0.552142 0.0553796 1.25173 0.00371237L1.35263 0H12.1737ZM12.1737 1.35261H1.35267V9.46839H12.1737V1.35261Z" fill="black"/>
<path id="Fill 4" fill-rule="evenodd" clip-rule="evenodd" d="M8.79012 2.70593C7.29614 2.70593 6.08486 3.91721 6.08486 5.41119C6.08486 6.90517 7.29614 8.11646 8.79012 8.11646C10.2841 8.11646 11.4954 6.90517 11.4954 5.41119C11.4954 3.91721 10.2841 2.70593 8.79012 2.70593M8.79018 4.05857C9.53615 4.05857 10.1428 4.66455 10.1428 5.4112C10.1428 6.15718 9.53615 6.76384 8.79018 6.76384C8.0442 6.76384 7.43755 6.15718 7.43755 5.4112C7.43755 4.66455 8.0442 4.05857 8.79018 4.05857" fill="black"/>
<path id="Path" d="M3.3803 2.70525C3.72714 2.70525 4.013 2.96634 4.05206 3.30269L4.05661 3.38157V7.43946C4.05661 7.81298 3.75382 8.11577 3.3803 8.11577C3.03346 8.11577 2.7476 7.85469 2.70853 7.51833L2.70398 7.43946V3.38157C2.70398 3.00805 3.00678 2.70525 3.3803 2.70525Z" fill="black"/>
</g>
</g>
</svg>
