<svg width="16" height="16" viewBox="0 0 16 16" fill="none" xmlns="http://www.w3.org/2000/svg">
<g transform="translate(2.0000, 2.0000)">
<g id="Group">
<path id="Path" d="M12.0001 1.2V3.59999C12.0001 3.93136 11.7314 4.19999 11.4001 4.19999C11.0687 4.19999 10.8001 3.93136 10.8001 3.59999V1.2H8.40006C8.06869 1.2 7.80006 0.931369 7.80006 0.599999C7.80006 0.268629 8.06869 0 8.40006 0H10.8001C11.4628 0 12.0001 0.537257 12.0001 1.2Z" fill="black"/>
<path id="Path_2" d="M1.20008 1.20002V3.60001C1.20008 3.93139 0.931451 4.20001 0.60008 4.20001C0.26871 4.20001 8.14199e-05 3.93139 8.14199e-05 3.60001V1.20002C8.14199e-05 0.537278 0.537339 2.03848e-05 1.20008 2.03848e-05H3.60008C3.93145 2.03848e-05 4.20007 0.268649 4.20007 0.600019C4.20007 0.93139 3.93145 1.20002 3.60008 1.20002H1.20008Z" fill="black"/>
<path id="Path_3" d="M10.8001 10.8V8.40001C10.8001 8.06864 11.0687 7.80001 11.4001 7.80001C11.7314 7.80001 12.0001 8.06864 12.0001 8.40001V10.8C12.0001 11.4627 11.4628 12 10.8001 12H8.40006C8.06869 12 7.80006 11.7314 7.80006 11.4C7.80006 11.0686 8.06869 10.8 8.40006 10.8H10.8001Z" fill="black"/>
<path id="Path_4" d="M1.2 10.8H3.59999C3.93136 10.8 4.19999 11.0686 4.19999 11.4C4.19999 11.7314 3.93136 12 3.59999 12H1.2C0.537257 12 0 11.4627 0 10.8V8.40001C0 8.06864 0.268629 7.80001 0.599999 7.80001C0.931369 7.80001 1.2 8.06864 1.2 8.40001V10.8Z" fill="black"/>
<rect id="Rectangle" y="5.39999" width="12" height="1.2" rx="0.599999" fill="black"/>
</g>
</g>
</svg>
