<svg width="16" height="16" viewBox="0 0 16 16" fill="none" xmlns="http://www.w3.org/2000/svg">
<g id="Group">
<g id="Rectangle Copy">
</g>
<path id="Path" d="M15 3V5C15 5.55228 14.5523 6 14 6C13.4477 6 13 5.55228 13 5V3H11C10.4477 3 10 2.55228 10 2C10 1.44772 10.4477 1 11 1H13C14.1046 1 15 1.89543 15 3Z" fill="black"/>
<path id="Path_2" d="M3 3V5C3 5.55228 2.55228 6 2 6C1.44772 6 1 5.55228 1 5V3C1 1.89543 1.89543 1 3 1H5C5.55228 1 6 1.44772 6 2C6 2.55228 5.55228 3 5 3H3Z" fill="black"/>
<path id="Path_3" d="M13 13V11C13 10.4477 13.4477 10 14 10C14.5523 10 15 10.4477 15 11V13C15 14.1046 14.1046 15 13 15H11C10.4477 15 10 14.5523 10 14C10 13.4477 10.4477 13 11 13H13Z" fill="black"/>
<path id="Path_4" d="M3 13H5C5.55228 13 6 13.4477 6 14C6 14.5523 5.55228 15 5 15H3C1.89543 15 1 14.1046 1 13V11C1 10.4477 1.44772 10 2 10C2.55228 10 3 10.4477 3 11V13Z" fill="black"/>
<rect id="Rectangle" x="1" y="7" width="14" height="2" rx="1" fill="black"/>
</g>
</svg>
