<svg width="16" height="16" viewBox="0 0 16 16" fill="none" xmlns="http://www.w3.org/2000/svg">
<g id="Group 3">
<g id="Rectangle Copy">
</g>
<path id="Fill 1" fill-rule="evenodd" clip-rule="evenodd" d="M2.66693 6.6666C2.66693 4.4606 4.46093 2.6666 6.66693 2.6666C8.87227 2.6666 10.6669 4.4606 10.6669 6.6666C10.6669 8.8726 8.87227 10.6666 6.66693 10.6666C4.46093 10.6666 2.66693 8.8726 2.66693 6.6666M14.4703 13.5286L10.8756 9.93393C11.5776 9.03127 12.0003 7.89927 12.0003 6.6666C12.0003 3.72127 9.61227 1.33327 6.66693 1.33327C3.72093 1.33327 1.3336 3.72127 1.3336 6.6666C1.3336 9.61193 3.72093 11.9999 6.66693 11.9999C7.89893 11.9999 9.03027 11.5779 9.93227 10.8766L13.5276 14.4713C13.7869 14.7306 14.2109 14.7306 14.4703 14.4713C14.7296 14.2119 14.7296 13.7879 14.4703 13.5286" fill="black"/>
</g>
</svg>
