<svg width="16" height="16" viewBox="0 0 16 16" fill="none" xmlns="http://www.w3.org/2000/svg">
<g transform="translate(-0.0060, 0.0000)">
<g id="Group 2">
<g id="Rectangle Copy">
</g>
<path id="Shape" fill-rule="evenodd" clip-rule="evenodd" d="M15.9717 13.7148C15.0045 10.3997 13.5956 8.27452 11.4287 7.42206C12.1938 6.75022 12.6767 5.7646 12.6767 4.6659C12.6767 2.64083 11.0362 0.9999 9.0117 0.9999C6.98642 0.9999 5.3457 2.64062 5.3457 4.6659C5.3457 5.77495 5.8377 6.76869 6.61543 7.44083C5.69076 7.81553 4.8874 8.42376 4.20441 9.25142C3.85289 9.67739 3.91325 10.3077 4.33922 10.6592C4.76519 11.0107 5.39548 10.9504 5.74699 10.5244C6.59079 9.50185 7.62992 8.9969 9.0137 8.9969C11.529 8.9969 12.9845 10.6169 14.0517 14.275C14.2064 14.8051 14.7616 15.1096 15.2918 14.9549C15.8219 14.8002 16.1264 14.245 15.9717 13.7148ZM10.6767 4.6659C10.6767 5.58652 9.93151 6.3319 9.0117 6.3319C8.09098 6.3319 7.3457 5.58662 7.3457 4.6659C7.3457 3.74518 8.09098 2.9999 9.0117 2.9999C9.93151 2.9999 10.6767 3.74528 10.6767 4.6659Z" fill="black"/>
<path id="Path" d="M7.60194 13.6629H1.7499C1.33569 13.6629 0.9999 13.3271 0.9999 12.9129C0.9999 12.4987 1.33569 12.1629 1.7499 12.1629H7.6033L7.55727 12.1168C7.26449 11.8238 7.26467 11.349 7.55767 11.0562C7.85067 10.7634 8.32555 10.7636 8.61833 11.0566L9.94333 12.3826C10.236 12.6755 10.2359 13.1502 9.94313 13.443L8.61813 14.768C8.32524 15.0609 7.85036 15.0609 7.55747 14.768C7.26458 14.4751 7.26458 14.0003 7.55747 13.7074L7.60194 13.6629Z" fill="black"/>
</g>
</g>
</svg>
