<svg width="16" height="16" viewBox="0 0 16 16" fill="none" xmlns="http://www.w3.org/2000/svg">
<g id="Group 3">
<g id="Rectangle Copy">
</g>
<path id="Shape" d="M8.66837 1.33347C10.5089 1.33366 12.0012 2.82589 12.0014 4.66647C12.0014 5.89263 11.3391 6.96449 10.3529 7.54343C12.7617 8.1805 14.2759 10.2897 15.3051 13.8178C15.408 14.1712 15.2053 14.5409 14.852 14.644C14.4986 14.747 14.129 14.5442 14.0258 14.1909C12.9215 10.4054 11.3627 8.6704 8.66544 8.67038C7.18006 8.67038 6.04772 9.22076 5.14005 10.3198C4.90562 10.6036 4.48546 10.644 4.20157 10.4096C3.91779 10.1753 3.87756 9.75505 4.11173 9.47116C4.90555 8.50996 5.86416 7.86341 6.99747 7.55222C6.00315 6.97537 5.33438 5.89885 5.33438 4.66647C5.33456 2.82556 6.82716 1.33347 8.66837 1.33347ZM8.66837 2.66647C7.56359 2.66647 6.66854 3.56189 6.66837 4.66647C6.66837 5.77121 7.56348 6.66647 8.66837 6.66647C9.77268 6.66628 10.6684 5.77083 10.6684 4.66647C10.6682 3.56227 9.77257 2.66667 8.66837 2.66647Z" fill="black"/>
<path id="Path" d="M7.72156 13.3367H2.00027C1.63208 13.3367 1.3336 13.0383 1.3336 12.6701C1.3336 12.3019 1.63208 12.0034 2.00027 12.0034H7.72259L7.53386 11.8147C7.27351 11.5543 7.27351 11.1322 7.53386 10.8719C7.79421 10.6115 8.21632 10.6115 8.47667 10.8719L9.80267 12.1979C10.063 12.4582 10.063 12.8802 9.80279 13.1406L8.47679 14.4672C8.21651 14.7276 7.7944 14.7277 7.53398 14.4675C7.27357 14.2072 7.27346 13.7851 7.53374 13.5246L7.72156 13.3367Z" fill="black"/>
</g>
</svg>
