<svg width="16" height="16" viewBox="0 0 16 16" fill="none" xmlns="http://www.w3.org/2000/svg">
<g id="Group 3">
<g id="Rectangle">
</g>
<path id="Fill 1" fill-rule="evenodd" clip-rule="evenodd" d="M2 12.9992H12V11.0002H2V12.9992ZM2 7.0032H5.213C5.423 7.7432 5.78 8.4212 6.256 8.9992H2V7.0032ZM2 3.0032H5.604C5.292 3.6122 5.089 4.2852 5.025 5.0002H2V3.0032ZM14 5.5002C14 7.4302 12.43 9.0002 10.5 9.0002C8.57 9.0002 7 7.4302 7 5.5002C7 3.5702 8.57 2.0002 10.5 2.0002C12.43 2.0002 14 3.5702 14 5.5002V5.5002ZM16 5.5002C16 2.4622 13.538 0.0002 10.5 0.0002C9.323 0.0002 8.235 0.3732 7.34 1.0032H2C0.895 1.0032 0 1.8972 0 3.0032V5.0032C0 5.3682 0.106 5.7062 0.277 6.0012C0.106 6.2962 0 6.6342 0 7.0002V9.0002C0 9.3662 0.106 9.7042 0.277 9.9992C0.106 10.2952 0 10.6332 0 10.9992V12.9992C0 14.1032 0.895 14.9992 2 14.9992H12C13.104 14.9992 14 14.1032 14 12.9992V10.9992C14 10.6332 13.895 10.2952 13.723 9.9992C13.736 9.9772 13.742 9.9502 13.754 9.9272C15.114 8.9262 16 7.3182 16 5.5002V5.5002Z" fill="black"/>
<path id="Fill 3" fill-rule="evenodd" clip-rule="evenodd" d="M10.4995 4.4816L11.5185 3.4626C11.7995 3.1816 12.2555 3.1816 12.5365 3.4626C12.8185 3.7446 12.8185 4.2006 12.5365 4.4816L11.5195 5.5006L12.5365 6.5186C12.8185 6.7996 12.8185 7.2556 12.5365 7.5376C12.2555 7.8186 11.7995 7.8186 11.5185 7.5376L10.4995 6.5186L9.4815 7.5376C9.1995 7.8186 8.7435 7.8186 8.4625 7.5376C8.1815 7.2556 8.1815 6.7996 8.4625 6.5186L9.4805 5.5006L8.4625 4.4816C8.1815 4.2006 8.1815 3.7446 8.4625 3.4626C8.7435 3.1816 9.1995 3.1816 9.4815 3.4626L10.4995 4.4816Z" fill="black"/>
</g>
</svg>
