<svg width="16" height="16" viewBox="0 0 16 16" fill="none" xmlns="http://www.w3.org/2000/svg">
<g id="Group 2">
<g id="Rectangle Copy">
</g>
<path id="Oval Copy 14" fill-rule="evenodd" clip-rule="evenodd" d="M16 8C16 12.4183 12.4183 16 8 16C3.58172 16 0 12.4183 0 8C0 3.58172 3.58172 0 8 0C12.4183 0 16 3.58172 16 8ZM2 8C2 11.3137 4.68629 14 8 14C11.3137 14 14 11.3137 14 8C14 4.68629 11.3137 2 8 2C4.68629 2 2 4.68629 2 8Z" fill="black"/>
<path id="Fill 1 Copy" fill-rule="evenodd" clip-rule="evenodd" d="M7.99907 10.1418C6.81769 10.1418 5.85631 9.18045 5.85631 7.99907C5.85631 6.81841 6.81769 5.85631 7.99907 5.85631C9.18045 5.85631 10.1418 6.81841 10.1418 7.99907C10.1418 9.18045 9.18045 10.1418 7.99907 10.1418M12.3325 7.13625L12.1182 7.11482C11.6303 7.06625 11.4039 6.80269 11.3061 6.63627C11.2575 6.45414 11.2282 6.10701 11.5318 5.71774L11.6739 5.54489C12.0596 5.11134 11.9268 4.85706 11.6489 4.57922L11.4189 4.34994C11.1411 4.0721 10.8875 3.93925 10.4533 4.32423L10.2854 4.46137C9.90328 4.77492 9.55329 4.74493 9.36758 4.69564C9.20188 4.59922 8.9326 4.37351 8.88403 3.88068L8.86261 3.6664C8.82761 3.08642 8.55405 3 8.16192 3H7.83622C7.4441 3 7.17054 3.08642 7.13625 3.6664L7.11482 3.88782C7.05483 4.3778 6.78769 4.60207 6.62484 4.69707C6.43842 4.74564 6.0913 4.77207 5.71274 4.46137L5.54489 4.32423C5.11062 3.93925 4.85706 4.0721 4.57922 4.34994L4.34923 4.57922C4.07138 4.85706 3.93853 5.11134 4.32423 5.54489L4.46637 5.71774C4.76992 6.10701 4.74064 6.45414 4.69207 6.63627C4.59422 6.80269 4.3678 7.06625 3.87996 7.11482L3.66569 7.13625C3.08642 7.17125 3 7.4441 3 7.83694V8.16192C3 8.55476 3.08642 8.82832 3.66569 8.86261L3.8871 8.88332C4.37708 8.94403 4.60136 9.21045 4.69636 9.3733C4.74493 9.56043 4.77135 9.90756 4.46065 10.2861L4.32351 10.454C3.93853 10.8875 4.07138 11.1418 4.34923 11.4196L4.57922 11.6489C4.85706 11.9275 5.11062 12.0596 5.54489 11.6746L5.71774 11.5318C6.10272 11.2311 6.447 11.2575 6.62984 11.3054C6.79341 11.4018 7.05554 11.6261 7.11482 12.111L7.13625 12.3332C7.17054 12.9124 7.4441 12.9989 7.83622 12.9989H8.16192C8.55405 12.9989 8.82761 12.9124 8.86261 12.3332L8.88403 12.1182C8.93189 11.6303 9.19616 11.4039 9.36258 11.3061C9.54472 11.2582 9.89185 11.2282 10.2804 11.5318L10.4533 11.6746C10.8875 12.0596 11.1411 11.9275 11.4189 11.6489L11.6489 11.4196C11.9268 11.1418 12.0596 10.8875 11.6746 10.454L11.5375 10.2861C11.2268 9.90756 11.2532 9.56043 11.3018 9.3733C11.3968 9.21045 11.6211 8.94403 12.111 8.88332L12.3325 8.86261C12.9117 8.82832 12.9981 8.55476 12.9981 8.16192V7.83694C12.9981 7.4441 12.9117 7.17125 12.3325 7.13625" fill="black"/>
</g>
</svg>
