<svg width="16" height="16" viewBox="0 0 16 16" fill="none" xmlns="http://www.w3.org/2000/svg">
<g id="Group 2">
<g id="Rectangle Copy">
</g>
<path id="Fill 1" fill-rule="evenodd" clip-rule="evenodd" d="M7.9993 10.9988C6.3453 10.9988 4.9993 9.6528 4.9993 7.9988C4.9993 6.3458 6.3453 4.9988 7.9993 4.9988C9.6533 4.9988 10.9993 6.3458 10.9993 7.9988C10.9993 9.6528 9.6533 10.9988 7.9993 10.9988M14.0663 6.7908L13.7663 6.7608C13.0833 6.6928 12.7663 6.3238 12.6293 6.0908C12.5613 5.8358 12.5203 5.3498 12.9453 4.8048L13.1443 4.5628C13.6843 3.9558 13.4983 3.5998 13.1093 3.2108L12.7873 2.8898C12.3983 2.5008 12.0433 2.3148 11.4353 2.8538L11.2003 3.0458C10.6653 3.4848 10.1753 3.4428 9.9153 3.3738C9.6833 3.2388 9.3063 2.9228 9.2383 2.2328L9.2083 1.9328C9.1593 1.1208 8.7763 0.9998 8.2273 0.9998H7.7713C7.2223 0.9998 6.8393 1.1208 6.7913 1.9328L6.7613 2.2428C6.6773 2.9288 6.3033 3.2428 6.0753 3.3758C5.8143 3.4438 5.3283 3.4808 4.7983 3.0458L4.5633 2.8538C3.9553 2.3148 3.6003 2.5008 3.2113 2.8898L2.8893 3.2108C2.5003 3.5998 2.3143 3.9558 2.8543 4.5628L3.0533 4.8048C3.4783 5.3498 3.4373 5.8358 3.3693 6.0908C3.2323 6.3238 2.9153 6.6928 2.2323 6.7608L1.9323 6.7908C1.1213 6.8398 1.0003 7.2218 1.0003 7.7718V8.2268C1.0003 8.7768 1.1213 9.1598 1.9323 9.2078L2.2423 9.2368C2.9283 9.3218 3.2423 9.6948 3.3753 9.9228C3.4433 10.1848 3.4803 10.6708 3.0453 11.2008L2.8533 11.4358C2.3143 12.0428 2.5003 12.3988 2.8893 12.7878L3.2113 13.1088C3.6003 13.4988 3.9553 13.6838 4.5633 13.1448L4.8053 12.9448C5.3443 12.5238 5.8263 12.5608 6.0823 12.6278C6.3113 12.7628 6.6783 13.0768 6.7613 13.7558L6.7913 14.0668C6.8393 14.8778 7.2223 14.9988 7.7713 14.9988H8.2273C8.7763 14.9988 9.1593 14.8778 9.2083 14.0668L9.2383 13.7658C9.3053 13.0828 9.6753 12.7658 9.9083 12.6288C10.1633 12.5618 10.6493 12.5198 11.1933 12.9448L11.4353 13.1448C12.0433 13.6838 12.3983 13.4988 12.7873 13.1088L13.1093 12.7878C13.4983 12.3988 13.6843 12.0428 13.1453 11.4358L12.9533 11.2008C12.5183 10.6708 12.5553 10.1848 12.6233 9.9228C12.7563 9.6948 13.0703 9.3218 13.7563 9.2368L14.0663 9.2078C14.8773 9.1598 14.9983 8.7768 14.9983 8.2268V7.7718C14.9983 7.2218 14.8773 6.8398 14.0663 6.7908" fill="black"/>
</g>
</svg>
