<svg width="16" height="16" viewBox="0 0 16 16" fill="none" xmlns="http://www.w3.org/2000/svg">
<g id="Group 3">
<g id="Rectangle Copy">
</g>
<path id="Stroke 1" d="M7.54845 1.51032C7.78896 1.28841 8.15439 1.274 8.41173 1.47614C9.41184 2.26203 10.8539 2.88523 12.5992 2.88532C12.7845 2.88532 12.9525 2.87683 13.2858 2.85407C13.6707 2.82792 13.9975 3.13323 13.9977 3.51911V7.76911C13.9978 7.77303 13.998 7.78437 13.9986 7.8111C14.0032 8.0272 13.9986 8.26983 13.9762 8.55133C13.943 8.96835 13.8769 9.37974 13.7682 9.77106C13.674 10.1098 13.5498 10.4226 13.3922 10.7047C12.5528 12.263 10.8837 13.6299 8.25353 14.6236C8.10213 14.6808 7.93435 14.6815 7.78283 14.6246C5.6785 13.8344 4.10684 12.7739 3.12267 11.4693C2.94956 11.2498 2.81162 11.0455 2.70568 10.8492C2.15069 9.90359 1.94745 8.52129 2.00353 7.73688V3.51911C2.00366 3.13323 2.33046 2.82792 2.71545 2.85407C3.04944 2.87688 3.21585 2.88531 3.40197 2.88532C4.56154 2.88532 5.58985 2.60374 6.53771 2.13825C6.59164 2.1115 6.64519 2.08307 6.69884 2.05426C6.94122 1.92416 7.10281 1.82269 7.38048 1.63727C7.44553 1.59011 7.4708 1.57228 7.49084 1.55719C7.51675 1.53769 7.53414 1.52354 7.54845 1.51032ZM7.99962 2.82575C7.74981 2.9907 7.57595 3.09688 7.3297 3.22907C7.26361 3.26455 7.1969 3.29917 7.12755 3.33356C6.00725 3.88375 4.78587 4.21833 3.40197 4.21833C3.37991 4.21833 3.35808 4.21851 3.33654 4.21833L3.33556 7.78376C3.3247 7.94076 3.34296 8.33947 3.40002 8.72809C3.48299 9.29309 3.63477 9.79777 3.86681 10.1939C3.94438 10.3371 4.04054 10.4799 4.17834 10.6549C4.96884 11.7026 6.25401 12.5908 8.0172 13.2857C10.2224 12.412 11.5661 11.2882 12.2213 10.0689L12.2272 10.0582C12.3302 9.8746 12.4153 9.65722 12.483 9.41364C12.5668 9.11197 12.6202 8.78259 12.6471 8.44489C12.6655 8.21273 12.6693 8.01396 12.6656 7.83942C12.6648 7.80569 12.6652 7.80518 12.6647 7.76911V4.21833C12.6433 4.21851 12.6211 4.21833 12.5992 4.21833C10.7391 4.21825 9.17742 3.63017 7.99962 2.82575Z" fill="black"/>
</g>
</svg>
