<svg width="16" height="16" viewBox="0 0 16 16" fill="none" xmlns="http://www.w3.org/2000/svg">
<g id="Group 4">
<g id="Rectangle">
</g>
<path id="Fill 1" fill-rule="evenodd" clip-rule="evenodd" d="M8.2614 13.5896L8.26607 14.4843C8.26673 14.5849 8.34807 14.6663 8.44873 14.6663H9.3374C9.38607 14.6663 9.43273 14.6469 9.4674 14.6129L12.1527 11.9269C12.2581 11.8216 12.2581 11.6503 12.1527 11.5449L11.3647 10.7569C11.2687 10.6609 11.1127 10.6609 11.0167 10.7569L8.31473 13.4596C8.28007 13.4936 8.26073 13.5409 8.2614 13.5896" fill="black"/>
<path id="Fill 3" fill-rule="evenodd" clip-rule="evenodd" d="M12.9561 11.1234L13.9421 10.1381C14.0161 10.0641 14.0161 9.9434 13.9421 9.8694L13.0574 8.98473C12.9834 8.91073 12.8627 8.91073 12.7887 8.98473L11.8034 9.97073C11.7287 10.0447 11.7287 10.1654 11.8034 10.2394L12.6881 11.1234C12.7621 11.1974 12.8821 11.1974 12.9561 11.1234" fill="black"/>
<path id="Fill 6" fill-rule="evenodd" clip-rule="evenodd" d="M8.66567 5.34673V3.22007L10.7837 5.33607L8.66567 5.34673ZM12.667 7.33273V7.33007V7.3274V5.5814C12.667 5.4214 12.603 5.26873 12.4897 5.15607L8.86833 1.53807C8.737 1.40673 8.55967 1.3334 8.37433 1.3334H3.33367C2.59633 1.3334 2.00033 1.93007 2.00033 2.66673V13.3334C2.00033 14.0694 2.59633 14.6667 3.33367 14.6667H5.993C5.99567 14.6667 5.99767 14.6681 6.00033 14.6681C6.369 14.6681 6.667 14.3694 6.667 14.0014C6.667 13.6334 6.369 13.3347 6.00033 13.3347V13.3334H3.33367V2.66673H7.33233V5.34673C7.33233 6.07273 7.92433 6.6634 8.65167 6.6634H11.3337V7.33607H11.335C11.339 7.7014 11.6343 7.99673 12.0003 7.99673C12.367 7.99673 12.6623 7.7014 12.6657 7.33607H12.667V7.33273Z" fill="black"/>
</g>
</svg>
