<svg width="16" height="16" viewBox="0 0 16 16" fill="none" xmlns="http://www.w3.org/2000/svg">
<g id="Group 2">
<g id="Rectangle Copy">
</g>
<path id="Fill 1" fill-rule="evenodd" clip-rule="evenodd" d="M7.9999 0.9998C7.7419 0.9998 7.4829 1.1368 7.3559 1.4098L5.7639 5.0948C5.6629 5.3098 5.4619 5.4598 5.2279 5.4958L1.6039 6.0528C1.0329 6.1408 0.7999 6.8348 1.2009 7.2488L3.8729 9.7178C4.0289 9.8788 4.1009 10.1038 4.0639 10.3248L3.1509 14.1748C3.0769 14.6328 3.4419 14.9998 3.8529 14.9998C3.9669 14.9998 4.0849 14.9718 4.1969 14.9088L7.6549 13.1488C7.7629 13.0898 7.8809 13.0598 7.9999 13.0598C8.1189 13.0598 8.2379 13.0898 8.3459 13.1488L11.7409 14.9088C11.8539 14.9718 11.9719 14.9998 12.0859 14.9998C12.4969 14.9998 12.8609 14.6328 12.7869 14.1748L11.9369 10.3248C11.8999 10.1038 11.9709 9.8788 12.1279 9.7178L14.7989 7.2488C15.1999 6.8348 14.9679 6.1408 14.3969 6.0528L10.7719 5.4958C10.5379 5.4598 10.3369 5.3098 10.2369 5.0948L8.6439 1.4098C8.5169 1.1368 8.2589 0.9998 7.9999 0.9998M7.9999 4.9608L8.4009 5.8888L8.4249 5.9408C8.8089 6.7628 9.5729 7.3358 10.4689 7.4738L11.4469 7.6228L10.7709 8.2488C10.7439 8.2718 10.7179 8.2978 10.6929 8.3228C10.0989 8.9358 9.8249 9.8028 9.9619 10.6458C9.9679 10.6828 9.9759 10.7198 9.9829 10.7568L10.2289 11.8728L9.2829 11.3828C8.8899 11.1718 8.4469 11.0598 7.9999 11.0598C7.5569 11.0598 7.1169 11.1698 6.7259 11.3778L5.7529 11.8728L6.0109 10.7868C6.0209 10.7398 6.0299 10.6928 6.0379 10.6458C6.1749 9.8038 5.9009 8.9368 5.3079 8.3238C5.2819 8.2988 5.2569 8.2728 5.2289 8.2478L4.5539 7.6228L5.5309 7.4738C6.4279 7.3358 7.1909 6.7628 7.5749 5.9408C7.5839 5.9238 7.5919 5.9058 7.5999 5.8888L7.9999 4.9608" fill="black"/>
</g>
</svg>
