<svg width="16" height="16" viewBox="0 0 16 16" fill="none" xmlns="http://www.w3.org/2000/svg">
<g transform="translate(1.3330, 1.3330)">
<path id="Union" d="M10 6C11.1045 6 11.9997 6.89561 12 8V9.44922C12.7769 9.72372 13.3339 10.4631 13.334 11.334C13.334 12.4386 12.4386 13.334 11.334 13.334C10.2294 13.3339 9.33398 12.4386 9.33398 11.334C9.33406 10.4636 9.89081 9.72509 10.667 9.4502V8C10.6667 7.63204 10.368 7.33301 10 7.33301H3.33301C2.96525 7.33333 2.66632 7.63224 2.66602 8V9.44922C3.44287 9.72373 3.99993 10.4631 4 11.334C4 12.4386 3.10465 13.334 2 13.334C0.895422 13.3339 0 12.4386 0 11.334C7.33008e-05 10.4636 0.5568 9.72508 1.33301 9.4502V8C1.33332 6.89581 2.22882 6.00032 3.33301 6H6V3.88281C5.22392 3.60786 4.667 2.87032 4.66699 2C4.66707 0.895479 5.56248 0.000101525 6.66699 0C7.77159 0 8.66691 0.895417 8.66699 2C8.66698 2.87039 8.11012 3.60791 7.33398 3.88281V6H10ZM2 10.4766C1.52673 10.4767 1.14269 10.8607 1.14258 11.334C1.14258 11.8073 1.52666 12.1913 2 12.1914C2.47342 12.1914 2.85742 11.8074 2.85742 11.334C2.85731 10.8607 2.47336 10.4766 2 10.4766ZM11.334 10.4766C10.8607 10.4767 10.4767 10.8607 10.4766 11.334C10.4766 11.8073 10.8607 12.1913 11.334 12.1914C11.8074 12.1914 12.1914 11.8074 12.1914 11.334C12.1913 10.8607 11.8073 10.4766 11.334 10.4766ZM6.66699 1.14258C6.1937 1.14269 5.80964 1.5267 5.80957 2C5.80959 2.47334 6.19367 2.85731 6.66699 2.85742C7.14041 2.85742 7.5244 2.47341 7.52441 2C7.52434 1.52664 7.14037 1.14258 6.66699 1.14258Z" fill="black"/>
</g>
</svg>
