<svg width="16" height="16" viewBox="0 0 16 16" fill="none" xmlns="http://www.w3.org/2000/svg">
<g transform="translate(1.9966499999999998, 1.9966499999999998)">
<path id="Vector (Stroke)" fill-rule="evenodd" clip-rule="evenodd" d="M0 0.666667C0 0.298477 0.298477 0 0.666667 0H6.57819C6.75503 0 6.92463 0.0702618 7.04966 0.195324L12.1291 5.27606C12.4734 5.62256 12.6667 6.09124 12.6667 6.57974C12.6667 7.06824 12.4734 7.53692 12.1291 7.88342L12.1277 7.88482L7.88936 12.1242C7.71765 12.2962 7.51373 12.4326 7.28925 12.5257C7.06478 12.6188 6.82416 12.6667 6.58115 12.6667C6.33814 12.6667 6.09752 12.6188 5.87305 12.5257C5.6486 12.4326 5.44471 12.2962 5.27302 12.1243C5.27299 12.1243 5.27304 12.1243 5.27302 12.1243L0.195475 7.05136C0.0703206 6.92632 0 6.75665 0 6.57974V0.666667ZM1.33333 1.33333V6.30342L6.2164 11.1821C6.26429 11.23 6.32116 11.2681 6.38375 11.294C6.44633 11.32 6.51341 11.3333 6.58115 11.3333C6.64889 11.3333 6.71597 11.32 6.77855 11.294C6.84113 11.2681 6.898 11.23 6.9459 11.1821L11.1833 6.94354C11.1835 6.94336 11.1837 6.94318 11.1839 6.94299C11.2796 6.84639 11.3333 6.71584 11.3333 6.57974C11.3333 6.44363 11.2796 6.31309 11.1839 6.21648C11.1837 6.2163 11.1835 6.21612 11.1833 6.21593L6.302 1.33333H1.33333ZM2.66667 3.33333C2.66667 2.96514 2.96514 2.66667 3.33333 2.66667H3.34C3.70819 2.66667 4.00667 2.96514 4.00667 3.33333C4.00667 3.70152 3.70819 4 3.34 4H3.33333C2.96514 4 2.66667 3.70152 2.66667 3.33333Z" fill="black"/>
</g>
<g transform="translate(4.33, 4.33)">
<path id="Vector" d="M1 1H1.0075" stroke="black" stroke-width="2" stroke-linecap="round" stroke-linejoin="round"/>
</g>
</svg>
