<svg width="16" height="16" viewBox="0 0 16 16" fill="none" xmlns="http://www.w3.org/2000/svg">
<g transform="translate(1.3341, 3.3333)">
<g id="Group 2087324389">
<path id="Fill 3" fill-rule="evenodd" clip-rule="evenodd" d="M8.66526 5.08626e-06C6.0886 5.08626e-06 3.9986 2.09 3.9986 4.66667C3.9986 7.244 6.0886 9.33334 8.66526 9.33334C11.2426 9.33334 13.3319 7.244 13.3319 4.66667C13.3319 2.09 11.2426 5.08626e-06 8.66526 5.08626e-06M8.66525 1.33334C10.5039 1.33334 11.9986 2.82868 11.9986 4.66668C11.9986 6.50534 10.5039 8.00001 8.66525 8.00001C6.82725 8.00001 5.33192 6.50534 5.33192 4.66668C5.33192 2.82868 6.82725 1.33334 8.66525 1.33334" fill="black"/>
<path id="Stroke 6" d="M3.2029 0.239163C1.30613 0.863486 0 2.63726 0 4.66441C0 6.69156 1.30613 8.46533 3.2029 9.08965C3.55263 9.20477 3.92946 9.01457 4.04458 8.66484C4.15969 8.31511 3.9695 7.93828 3.61977 7.82316C2.2657 7.37747 1.33333 6.11128 1.33333 4.66441C1.33333 3.21754 2.2657 1.95135 3.61977 1.50565C3.9695 1.39054 4.15969 1.01371 4.04458 0.663975C3.92946 0.314243 3.55263 0.124048 3.2029 0.239163Z" fill="black"/>
</g>
</g>
</svg>
