<svg width="16" height="16" viewBox="0 0 16 16" fill="none" xmlns="http://www.w3.org/2000/svg">
<g id="Group 4">
<g id="Rectangle">
</g>
<path id="Stroke 1" fill-rule="evenodd" clip-rule="evenodd" d="M4.05437 3.36021C3.58499 2.89083 3.6948 2.1028 4.27463 1.77962C6.46605 0.558192 9.07433 0.768851 10.7097 2.42514C11.9981 3.7287 12.3427 5.8085 11.7807 7.71643L11.763 7.771L14.3234 10.3319C15.2916 11.3134 15.1973 12.885 14.2015 13.9696L14.0665 14.1082C12.9858 15.1585 11.3193 15.2942 10.3274 14.2902L7.787 11.75L7.72575 11.7701C5.87551 12.3187 3.86808 12.0069 2.5507 10.8134L2.38285 10.6527C0.761008 9.0099 0.569441 6.42728 1.78553 4.26151C2.10984 3.68393 2.89592 3.57556 3.36442 4.04383L5.45658 6.135C5.54699 6.22541 5.79721 6.20816 6.00698 5.99839C6.21649 5.78925 6.23369 5.53953 6.14237 5.44821L4.05437 3.36021ZM9.68747 7.63822C10.2783 6.25126 10.1133 4.66686 9.28689 3.83071C8.61458 3.1498 7.62309 2.87901 6.59502 3.0486L6.575 3.052L7.55658 4.034C8.43588 4.9133 8.37891 6.33342 7.53984 7.28627L7.42059 7.41321C6.47044 8.36335 4.96057 8.46741 4.04254 7.54938L3.054 6.561L3.04154 6.63167C2.89918 7.56056 3.11909 8.4574 3.68019 9.11085L3.80564 9.24708C4.6498 10.101 6.24684 10.2782 7.6491 9.67459C8.02522 9.51269 8.46204 9.59645 8.75158 9.886L11.7458 12.8803C11.9074 13.0438 12.3273 13.0096 12.6737 12.6728C13.042 12.3162 13.0771 11.9164 12.9044 11.7412L9.90037 8.73721C9.6118 8.44864 9.52754 8.01367 9.68747 7.63822Z" fill="black"/>
</g>
</svg>
