<svg width="16" height="16" viewBox="0 0 16 16" fill="none" xmlns="http://www.w3.org/2000/svg">
<g transform="translate(1.2222, 1.4907)">
<path id="Icon" d="M3.11113 3.11113L5.86113 5.86113M3.11113 3.11113H1.2778L0.666685 1.2778L1.2778 0.666685L3.11113 1.2778V3.11113ZM11.2138 1.11953L9.60808 2.72529C9.36607 2.9673 9.24506 3.08831 9.19973 3.22784C9.15985 3.35058 9.15985 3.48279 9.19973 3.60553C9.24506 3.74506 9.36607 3.86607 9.60808 4.10808L9.75307 4.25307C9.99508 4.49508 10.1161 4.61608 10.2556 4.66142C10.3784 4.7013 10.5106 4.7013 10.6333 4.66142C10.7728 4.61608 10.8938 4.49508 11.1359 4.25307L12.6379 2.75101C12.7997 3.14467 12.8889 3.57581 12.8889 4.0278C12.8889 5.88409 11.3841 7.38891 9.5278 7.38891C9.304 7.38891 9.08532 7.36703 8.87376 7.32531C8.57667 7.26672 8.42813 7.23742 8.33808 7.2464C8.24234 7.25594 8.19516 7.27029 8.11033 7.31569C8.03054 7.35838 7.9505 7.43842 7.79042 7.5985L3.41669 11.9722C2.91042 12.4785 2.08961 12.4785 1.58335 11.9722C1.07709 11.466 1.07709 10.6452 1.58335 10.1389L5.95709 5.76517C6.11717 5.60509 6.19721 5.52505 6.23991 5.44526C6.2853 5.36043 6.29966 5.31325 6.3092 5.21751C6.31817 5.12746 6.28887 4.97892 6.23028 4.68183C6.18856 4.47028 6.16669 4.25159 6.16669 4.0278C6.16669 2.17151 7.67151 0.666685 9.5278 0.666685C10.1423 0.666685 10.7182 0.831577 11.2138 1.11953ZM6.77783 8.6111L10.1389 11.9722C10.6452 12.4784 11.466 12.4784 11.9722 11.9722C12.4785 11.4659 12.4785 10.6451 11.9722 10.1388L9.20715 7.37381C9.01141 7.35529 8.82056 7.31998 8.63605 7.26933C8.39829 7.20407 8.13748 7.25144 7.96314 7.42578L6.77783 8.6111Z" stroke="black" stroke-width="1.33333" stroke-linecap="round" stroke-linejoin="round"/>
</g>
</svg>
