<svg width="16" height="16" viewBox="0 0 16 16" fill="none" xmlns="http://www.w3.org/2000/svg">
<g transform="translate(4, 4)">
<path fill-rule="evenodd" clip-rule="evenodd" d="M3.83738 0.0383945C3.93978 -0.0127982 4.06022 -0.0127982 4.16262 0.0383945L7.79891 1.85658C7.92211 1.91817 7.99993 2.04408 7.99993 2.18182C7.99993 2.31956 7.92211 2.44547 7.79891 2.50706L4.16262 4.32524C4.06022 4.37644 3.93978 4.37644 3.83738 4.32524L0.201094 2.50706C0.0779009 2.44547 8.2637e-05 2.31956 8.2637e-05 2.18182C8.2637e-05 2.04408 0.0779009 1.91817 0.201094 1.85658L3.83738 0.0383945ZM1.17681 2.18182L4 3.59346L6.8232 2.18182L4 0.770198L1.17681 2.18182ZM0.0384679 3.83738C0.128286 3.65775 0.346708 3.58495 0.52633 3.67477L4 5.41164L7.47368 3.67477C7.65331 3.58495 7.87171 3.65775 7.96153 3.83738C8.05135 4.01702 7.97855 4.23542 7.79891 4.32524L4.16262 6.14342C4.06022 6.19462 3.93978 6.19462 3.83738 6.14342L0.201094 4.32524C0.0214645 4.23542 -0.0513431 4.01702 0.0384679 3.83738ZM0.0384679 5.65556C0.128286 5.47593 0.346708 5.40313 0.52633 5.49295L4 7.22982L7.47368 5.49295C7.65331 5.40313 7.87171 5.47593 7.96153 5.65556C8.05135 5.8352 7.97855 6.0536 7.79891 6.14342L4.16262 7.9616C4.06022 8.0128 3.93978 8.0128 3.83738 7.9616L0.201094 6.14342C0.0214645 6.0536 -0.0513431 5.8352 0.0384679 5.65556Z" fill="black"/>
</g>
</svg>
