<svg width="16" height="16" viewBox="0 0 16 16" fill="none" xmlns="http://www.w3.org/2000/svg">
<g transform="translate(1.3335, 3.3336)">
<g id="Group 2087324394">
<path id="Fill 1" fill-rule="evenodd" clip-rule="evenodd" d="M4.66703 9.33283C4.49652 9.33283 4.32601 9.2675 4.19613 9.13817L0.195153 5.13883C0.0706016 5.0135 0 4.84417 0 4.66683C0 4.49017 0.0706016 4.32017 0.195153 4.1955L4.1928 0.1955C4.45323 -0.0651667 4.87484 -0.0651667 5.1346 0.1955C5.39503 0.456167 5.39503 0.8775 5.1346 1.13817L1.60852 4.66683L5.13793 8.19417C5.39836 8.45483 5.39836 8.87617 5.1386 9.1375C5.00872 9.2675 4.83754 9.33283 4.66703 9.33283" fill="black"/>
<path id="Fill 4" fill-rule="evenodd" clip-rule="evenodd" d="M8.66683 9.33283C8.49617 9.33283 8.3255 9.2675 8.1955 9.1375C7.93483 8.87683 7.93483 8.4555 8.1955 8.19483L11.7235 4.66683L8.1955 1.13817C7.93483 0.8775 7.93483 0.456167 8.1955 0.1955C8.45617 -0.0651667 8.8775 -0.0651667 9.13817 0.1955L13.1375 4.1955C13.3982 4.45617 13.3982 4.8775 13.1375 5.13817L9.13817 9.1375C9.00817 9.2675 8.8375 9.33283 8.66683 9.33283" fill="black"/>
</g>
</g>
</svg>
