<svg width="16" height="16" viewBox="0 0 16 16" fill="none" xmlns="http://www.w3.org/2000/svg">
<path id="Vector" d="M8.00094 10.8C6.41294 10.8 5.12227 9.54671 5.12227 8.00004C5.12227 6.45338 6.41161 5.20004 8.00227 5.20004C9.59161 5.20004 10.8796 6.45338 10.8796 8.00004C10.8796 9.54671 9.59161 10.8 8.00094 10.8ZM14.1116 8.77604C14.1449 8.52004 14.1703 8.26404 14.1703 8.00004C14.1703 7.73604 14.1449 7.47204 14.1116 7.20004L15.8476 5.89604C15.9233 5.83711 15.975 5.75273 15.9931 5.65857C16.0112 5.56441 15.9946 5.46687 15.9463 5.38404L14.3009 2.61604C14.252 2.53187 14.1746 2.46791 14.0827 2.43565C13.9908 2.40339 13.8904 2.40495 13.7996 2.44004L11.7516 3.24004C11.3254 2.91807 10.8582 2.65441 10.3623 2.45604L10.0569 0.336043C10.0388 0.24075 9.98771 0.154875 9.91264 0.093448C9.83756 0.0320213 9.74327 -0.00104299 9.64627 4.29682e-05H6.35694C6.25971 -0.00135849 6.16511 0.0315619 6.08975 0.0930157C6.0144 0.15447 5.96312 0.240522 5.94494 0.336043L5.64094 2.45604C5.12227 2.65604 4.67827 2.92804 4.25161 3.24004L2.20361 2.44004C2.1126 2.40459 2.01192 2.40284 1.91973 2.43511C1.82755 2.46739 1.74995 2.53156 1.70094 2.61604L0.056939 5.38404C0.00654813 5.46631 -0.0112687 5.56444 0.00698681 5.65918C0.0252423 5.75391 0.0782513 5.83839 0.155606 5.89604L1.89027 7.20004C1.8551 7.46531 1.83595 7.73247 1.83294 8.00004C1.83294 8.26404 1.85827 8.52004 1.89027 8.77604L0.155606 10.104C0.0782513 10.1617 0.0252423 10.2462 0.00698681 10.3409C-0.0112687 10.4356 0.00654813 10.5338 0.056939 10.616L1.70094 13.384C1.79961 13.56 2.02227 13.624 2.20361 13.56L4.25161 12.752C4.67827 13.072 5.12227 13.344 5.64094 13.544L5.94494 15.664C5.96312 15.7596 6.0144 15.8456 6.08975 15.9071C6.16511 15.9685 6.25971 16.0014 6.35694 16H9.64627C9.74327 16.0011 9.83756 15.9681 9.91264 15.9066C9.98771 15.8452 10.0388 15.7593 10.0569 15.664L10.3623 13.544C10.8585 13.3429 11.3257 13.0766 11.7516 12.752L13.7996 13.56C13.9809 13.624 14.2023 13.56 14.3009 13.384L15.9463 10.616C15.9946 10.5332 16.0112 10.4357 15.9931 10.3415C15.975 10.2474 15.9233 10.163 15.8476 10.104L14.1116 8.77604Z" fill="black"/>
</svg>
