<svg width="16" height="16" viewBox="0 0 16 16" fill="none" xmlns="http://www.w3.org/2000/svg">
<g transform="translate(0.6972, 0.6650)">
<g id="Group 2087324395">
<path id="Vector" d="M7.30228 5.7391e-05C6.30293 -0.00391423 5.3135 0.198291 4.39583 0.594034C3.47816 0.989778 2.65199 1.57055 1.96895 2.30006V1.00006C1.97004 0.903421 1.95011 0.807703 1.91054 0.719533C1.87097 0.631364 1.8127 0.552852 1.73978 0.489438C1.66685 0.426023 1.58101 0.379222 1.4882 0.352277C1.39539 0.325333 1.29783 0.318888 1.20228 0.333391C1.04056 0.364741 0.895076 0.452122 0.791427 0.580159C0.687777 0.708196 0.632604 0.868686 0.635615 1.03339V4.00006C0.635615 4.17687 0.705853 4.34644 0.830877 4.47146C0.955901 4.59649 1.12547 4.66672 1.30228 4.66672H4.30228C4.39892 4.66782 4.49464 4.64789 4.58281 4.60832C4.67097 4.56875 4.74949 4.51048 4.8129 4.43755C4.87632 4.36463 4.92312 4.27878 4.95006 4.18597C4.97701 4.09316 4.98345 3.99561 4.96895 3.90006C4.9376 3.73834 4.85022 3.59285 4.72218 3.4892C4.59414 3.38555 4.43365 3.33038 4.26895 3.33339H2.83562C3.61212 2.46865 4.62305 1.84804 5.74559 1.54696C6.86813 1.24589 8.05394 1.27731 9.15896 1.63741C10.264 1.99751 11.2406 2.67079 11.9702 3.57544C12.6999 4.4801 13.151 5.57718 13.2689 6.73339C13.2855 6.89841 13.363 7.05132 13.4863 7.16226C13.6096 7.27321 13.7698 7.33422 13.9356 7.33339C14.0291 7.33386 14.1216 7.31467 14.2071 7.27708C14.2927 7.23949 14.3694 7.18433 14.4323 7.11518C14.4951 7.04603 14.5427 6.96444 14.572 6.8757C14.6013 6.78695 14.6116 6.69304 14.6023 6.60006C14.4204 4.79062 13.5727 3.1133 12.2238 1.8937C10.8748 0.67409 9.12083 -0.000792049 7.30228 5.7391e-05Z" fill="black"/>
<path id="Vector_2" d="M13.3033 9.99999H10.3033C10.2067 9.99889 10.111 10.0188 10.0228 10.0584C9.93465 10.098 9.85614 10.1562 9.79272 10.2292C9.72931 10.3021 9.68251 10.3879 9.65556 10.4807C9.62862 10.5735 9.62217 10.6711 9.63668 10.7667C9.66803 10.9284 9.75541 11.0739 9.88344 11.1775C10.0115 11.2812 10.172 11.3363 10.3367 11.3333H11.77C10.9935 12.1981 9.98257 12.8187 8.86004 13.1197C7.7375 13.4208 6.55168 13.3894 5.44667 13.0293C4.34165 12.6692 3.365 11.9959 2.63538 11.0913C1.90577 10.1866 1.45459 9.08954 1.33668 7.93332C1.32009 7.76831 1.2426 7.6154 1.11933 7.50445C0.996054 7.3935 0.835854 7.33249 0.670009 7.33332C0.576558 7.33285 0.484052 7.35204 0.398494 7.38963C0.312935 7.42722 0.236236 7.48238 0.173373 7.55153C0.11051 7.62068 0.0628878 7.70227 0.0335956 7.79102C0.00430347 7.87976 -0.00600383 7.97367 0.00334261 8.06665C0.143355 9.46628 0.682943 10.7961 1.55777 11.8976C2.4326 12.9991 3.60575 13.8257 4.93734 14.2789C6.26893 14.7322 7.70278 14.7929 9.06792 14.4538C10.4331 14.1148 11.6719 13.3902 12.6367 12.3667V13.6667C12.6356 13.7633 12.6555 13.859 12.6951 13.9472C12.7347 14.0353 12.7929 14.1139 12.8658 14.1773C12.9388 14.2407 13.0246 14.2875 13.1174 14.3144C13.2102 14.3414 13.3078 14.3478 13.4033 14.3333C13.5651 14.302 13.7105 14.2146 13.8142 14.0866C13.9178 13.9585 13.973 13.798 13.97 13.6333V10.6667C13.97 10.4898 13.8998 10.3203 13.7747 10.1952C13.6497 10.0702 13.4802 9.99999 13.3033 9.99999Z" fill="black"/>
<path id="Fill 4" fill-rule="evenodd" clip-rule="evenodd" d="M10.8464 6.60849H8.02964V3.79172C8.02964 3.39145 7.70515 3.06659 7.30451 3.06659C6.90424 3.06659 6.57938 3.39145 6.57938 3.79172V6.60849H3.76334C3.3627 6.60849 3.03821 6.93335 3.03821 7.33362C3.03821 7.73389 3.3627 8.05875 3.76334 8.05875H6.57938V10.8752C6.57938 11.2754 6.90424 11.6003 7.30451 11.6003C7.70515 11.6003 8.02964 11.2754 8.02964 10.8752V8.05875H10.8464C11.2467 8.05875 11.5715 7.73389 11.5715 7.33362C11.5715 6.93335 11.2467 6.60849 10.8464 6.60849" fill="black"/>
</g>
</g>
</svg>
