<svg viewBox="0 0 16 16" fill="currentColor" width="32" height="32" xmlns="http://www.w3.org/2000/svg" xmlns:xlink="http://www.w3.org/1999/xlink">
    <style>
        :root, .palette0 {color: currentColor;
            --color0: #a1a3a7;
            --color1: #1c1c1c;
            --color2: #121312;
        }
    </style>
    <path d="M3.9935 12.6663l0-7.7031-1.8476 1.8477c-0.2636 0.2636-0.6915 0.2636-0.9551 0-0.2636-0.2636-0.2636-0.6915 0-0.9551l3-3 0.1064-0.0859c0.262-0.173 0.6181-0.1447 0.8487 0.0859l3 3c0.2636 0.2636 0.2636 0.6915 0 0.9551-0.2636 0.2636-0.6915 0.2636-0.9551 0L5.3431 4.9632l0 7.7031c0 0.3728-0.302 0.6758-0.6748 0.6758-0.3727 0-0.6748-0.303-0.6748-0.6758z" />
    <path d="M10.6602 3.3333c0-0.3728 0.302-0.6748 0.6748-0.6748 0.3728 0 0.6748 0.302 0.6748 0.6748v7.7041l1.8477-1.8476c0.2636-0.2636 0.6915-0.2636 0.9551 0 0.2632 0.2635 0.2633 0.6906 0 0.9541l-3 3c-0.2636 0.2636-0.6915 0.2636-0.9551 0l-3-3c-0.2633-0.2635-0.2632-0.6906 0-0.9541 0.2636-0.2636 0.6915-0.2636 0.9551 0l1.8476 1.8476z" />
</svg>