<svg width="16" height="16" viewBox="0 0 16 16" fill="none" xmlns="http://www.w3.org/2000/svg">
<g transform="translate(1.3255, 1.3323)">
<path id="Shape" d="M11.6027 0C12.2209 1.9743e-05 12.6672 0.0649034 12.9337 0.265625C12.9818 0.301891 13.025 0.344775 13.0616 0.392578C13.6682 1.18485 13.29 4.29597 12.1612 5.68652L12.0568 5.80859L11.756 6.10938L11.7862 6.2793C12.1098 8.20202 11.7871 9.9979 11.0489 11.5928C10.7248 12.293 10.397 12.801 10.1652 13.0879C9.934 13.3739 9.51958 13.415 9.23742 13.1953L9.17492 13.1396L6.95031 10.915L6.47082 11.3955C5.74816 12.1168 4.44212 11.5175 3.22472 10.3428L3.10754 10.2275C1.89694 9.01694 1.23663 7.69463 1.87414 6.93555L1.93957 6.86426L2.41906 6.38477L0.195427 4.16016C-0.0844864 3.88017 -0.0606197 3.41887 0.247184 3.16992C0.534026 2.93808 1.04207 2.60929 1.7423 2.28516C3.38386 1.52535 5.23881 1.20665 7.2257 1.5791L7.52843 1.27734L7.67492 1.14941C8.62382 0.375061 10.1531 0 11.6027 0ZM7.89269 9.97168L9.5382 11.6172C9.60866 11.4952 9.67544 11.3689 9.74133 11.2363L9.83898 11.0322C10.3667 9.89194 10.6459 8.63717 10.5636 7.30176L7.89269 9.97168ZM11.6027 1.33398C10.4465 1.33398 9.21103 1.63505 8.55578 2.15039L8.45226 2.23828L2.97765 7.71191L2.99425 7.77344L3.02843 7.87109L3.0509 7.92578L3.09191 8.01465C3.27441 8.39135 3.61612 8.85031 4.04992 9.28418C4.48399 9.71825 4.94285 10.0605 5.31945 10.2432C5.38111 10.2731 5.43837 10.2975 5.48937 10.3164L5.56164 10.3408L5.62316 10.3574L11.087 4.89258C11.5179 4.42166 11.818 3.58653 11.9425 2.61523C11.9853 2.28107 12.0043 1.94975 12.0001 1.66211L11.9943 1.49512L11.9845 1.34863L11.8321 1.33887L11.7208 1.33496L11.6027 1.33398ZM6.03332 2.77148C4.69792 2.68912 3.44297 2.96745 2.30285 3.49512C2.16384 3.55946 2.0304 3.62629 1.90441 3.69336L1.71691 3.7959L3.36242 5.44141L6.03332 2.77148Z" fill="black"/>
</g>
</svg>
