<svg width="16" height="16" viewBox="0 0 16 16" fill="none" xmlns="http://www.w3.org/2000/svg">
<g transform="translate(1, 1)">
<path id="ic-partial-fill" d="M7.00879 0C10.7616 0.00210907 13.833 2.97196 14.001 6.68457V6.64551C14.007 6.76453 14.0098 6.88438 14.0098 7.00488C14.0098 7.12567 14.0071 7.24593 14.001 7.36523V7.32422C13.8334 11.0385 10.7598 14.0087 7.00488 14.0088C3.25001 14.0087 0.176319 11.0385 0.00878906 7.32422V7.36523C0.0027135 7.24593 7.56983e-07 7.12567 0 7.00488C1.98575e-06 6.88439 0.00274185 6.76453 0.00878906 6.64551V6.68457C0.176761 2.97199 3.24821 0.00216285 7.00098 0V14H7.00879V12.0078C9.7659 12.0056 12.0088 9.7625 12.0088 7.00488C12.0088 4.24626 9.76591 2.00221 7.00879 2V0Z" fill="black"/>
</g>
</svg>
