<svg width="16" height="16" viewBox="0 0 16 16" fill="none" xmlns="http://www.w3.org/2000/svg">
<g id="coins-stacked-04">
<path id="Icon" d="M13.3333 3.33333C13.3333 4.4379 10.9455 5.33333 8 5.33333C5.05448 5.33333 2.66667 4.4379 2.66667 3.33333M13.3333 3.33333C13.3333 2.22876 10.9455 1.33333 8 1.33333C5.05448 1.33333 2.66667 2.22876 2.66667 3.33333M13.3333 3.33333V12.6667C13.3333 13.7712 10.9455 14.6667 8 14.6667C5.05448 14.6667 2.66667 13.7712 2.66667 12.6667V3.33333M13.3333 6.4444C13.3333 7.54897 10.9455 8.4444 8 8.4444C5.05448 8.4444 2.66667 7.54897 2.66667 6.4444M13.3333 9.55333C13.3333 10.6579 10.9455 11.5533 8 11.5533C5.05448 11.5533 2.66667 10.6579 2.66667 9.55333" stroke="black" stroke-width="1.33333" stroke-linecap="round" stroke-linejoin="round"/>
</g>
</svg>
