<svg width="16" height="16" viewBox="0 0 16 16" fill="none" xmlns="http://www.w3.org/2000/svg">
<g id="Group 2">
<g id="Rectangle Copy">
</g>
<path id="Fill 1" fill-rule="evenodd" clip-rule="evenodd" d="M14.2001 3.582C13.8481 3.46867 13.4741 3.66 13.3595 4.01L13.0955 4.82333C12.0195 3.092 10.1188 2 8.00213 2C5.20547 2 2.80413 3.89867 2.16213 6.61667C2.07747 6.97467 2.29947 7.334 2.6588 7.41867C2.71013 7.43 2.76147 7.436 2.81213 7.436C3.11413 7.436 3.38747 7.23 3.4608 6.92267C3.95947 4.80933 5.8268 3.33333 8.00213 3.33333C9.6628 3.33333 11.1421 4.20533 11.9748 5.57267L10.9415 5.25533C10.5888 5.146 10.2161 5.346 10.1081 5.69667C10.0001 6.04867 10.1981 6.422 10.5495 6.53L13.0075 7.28533C13.0728 7.30533 13.1388 7.31467 13.2035 7.31467C13.4848 7.31467 13.7455 7.13533 13.8375 6.854L14.6281 4.42267C14.7415 4.072 14.5495 3.696 14.2001 3.582" fill="black"/>
<path id="Fill 4" fill-rule="evenodd" clip-rule="evenodd" d="M13.3642 8.38087C12.9982 8.30953 12.6515 8.54553 12.5809 8.9062C12.1529 11.0855 10.2269 12.6669 8.0022 12.6669C6.34687 12.6669 4.8662 11.7955 4.03287 10.4309L5.0522 10.7449C5.40553 10.8549 5.77753 10.6549 5.88553 10.3035C5.99353 9.95087 5.7962 9.5782 5.4442 9.4702L2.98687 8.7142C2.6382 8.60687 2.26953 8.79953 2.1562 9.14553L1.3662 11.5782C1.2522 11.9275 1.4442 12.3042 1.79487 12.4182C1.86287 12.4402 1.9322 12.4502 2.0002 12.4502C2.28153 12.4502 2.54287 12.2715 2.6342 11.9895L2.9022 11.1655C3.97687 12.9029 5.88487 14.0002 8.0022 14.0002C10.8622 14.0002 13.3382 11.9662 13.8895 9.1642C13.9609 8.80287 13.7249 8.45153 13.3642 8.38087" fill="black"/>
</g>
</svg>
