<svg width="16" height="16" viewBox="0 0 16 16" fill="none" xmlns="http://www.w3.org/2000/svg">
<g id="Group 3">
<g id="Rectangle Copy">
</g>
<path id="Fill 1" fill-rule="evenodd" clip-rule="evenodd" d="M7.333 5.61073V13.9994C7.333 14.3681 7.63167 14.6661 7.99967 14.6661C8.36833 14.6661 8.66633 14.3681 8.66633 13.9994V5.61073L11.4143 8.35807C11.675 8.61873 12.097 8.61873 12.357 8.35807C12.6177 8.0974 12.6177 7.67607 12.357 7.4154L8.58567 3.64407C8.56633 3.62473 8.54567 3.60673 8.525 3.59073C8.40233 3.43407 8.213 3.33473 7.99967 3.33473C7.787 3.33473 7.597 3.43407 7.475 3.59073C7.45433 3.60673 7.433 3.62473 7.41433 3.64407L3.643 7.4154C3.38233 7.67607 3.38233 8.0974 3.643 8.35807C3.903 8.61873 4.325 8.61873 4.58567 8.35807L7.333 5.61073Z" fill="black"/>
<path id="Fill 3" fill-rule="evenodd" clip-rule="evenodd" d="M13.9997 2.66667H1.99967C1.633 2.66667 1.333 2.36667 1.333 2C1.333 1.63333 1.633 1.33333 1.99967 1.33333H13.9997C14.367 1.33333 14.6663 1.63333 14.6663 2C14.6663 2.36667 14.367 2.66667 13.9997 2.66667" fill="black"/>
</g>
</svg>
