<svg width="16" height="16" viewBox="0 0 16 16" fill="none" xmlns="http://www.w3.org/2000/svg">
<g transform="translate(0.9999, 0.9999)">
<g id="Group">
<path id="Vector" d="M9.18629 2.76761C9.55461 3.0182 9.92293 3.34251 10.2913 3.71103C10.6596 4.07955 10.9837 4.44807 11.2342 4.8166L9.17156 6.88033L9.96713 7.67634L13.503 4.13852C14.166 3.47517 14.166 2.39909 13.503 1.73574L12.2655 0.497506C11.6025 -0.165835 10.527 -0.165835 9.87873 0.497506L6.34284 4.03533L7.13842 4.83134L9.18629 2.76761ZM11.4552 1.29352L12.7075 2.53175C12.9284 2.75287 12.9284 3.10665 12.7075 3.32776L12.0445 3.99111C11.7645 3.62258 11.4552 3.25406 11.1016 2.88554C10.748 2.53175 10.3797 2.20745 10.0113 1.94212L10.6743 1.27878C10.8658 1.0724 11.2342 1.0724 11.4552 1.29352Z" fill="black"/>
<path id="Vector_2" d="M1.08335 0.291104C0.862358 0.0699901 0.508768 0.0699901 0.287775 0.291104C0.0667815 0.512218 0.0667815 0.866 0.287775 1.08711L4.76658 5.56836L1.36328 8.98825C1.30435 9.06196 1.24541 9.13566 1.21595 9.22411L0.0225828 13.2779C-0.0363488 13.4842 0.0225828 13.6906 0.169912 13.838C0.273042 13.9412 0.420371 14.0002 0.5677 14.0002C0.626632 14.0002 0.67083 13.9854 0.729762 13.9707L4.78131 12.7619C4.86971 12.7324 4.9581 12.6882 5.01704 12.6145L8.42034 9.20937L12.8991 13.6906C13.0023 13.7938 13.1496 13.8528 13.2969 13.8528C13.4443 13.8528 13.5916 13.7938 13.6947 13.6906C13.9157 13.4695 13.9157 13.1157 13.6947 12.8946L1.08335 0.291104ZM2.14412 10.0791C2.45351 10.3149 2.77764 10.5803 3.08703 10.9046C3.39642 11.2141 3.67634 11.5384 3.91207 11.848L1.39274 12.5998L2.14412 10.0791ZM4.84024 11.1994C4.56032 10.8309 4.25093 10.4623 3.89734 10.0938C3.54375 9.7253 3.17542 9.41574 2.8071 9.1504L5.57689 6.37911L7.62476 8.4281L4.84024 11.1994Z" fill="black"/>
</g>
</g>
</svg>
