<svg width="16" height="16" viewBox="0 0 16 16" fill="none" xmlns="http://www.w3.org/2000/svg">
<g transform="translate(1.0000, 2.7500)">
<path id="Shape" d="M11.9004 0C12.6734 0.00022626 13.2998 0.671712 13.2998 1.5V3C13.6864 3 14 3.33579 14 3.75V6.75C14 7.16421 13.6864 7.5 13.2998 7.5V9C13.2998 9.82829 12.6734 10.4998 11.9004 10.5H1.40039C0.627192 10.5 0 9.82843 0 9V1.5C0 0.671573 0.627192 0 1.40039 0H11.9004ZM1.40039 9H11.9004V7.5H9.7998C9.41329 7.4999 9.09961 7.16415 9.09961 6.75V3.75C9.09961 3.33585 9.41329 3.0001 9.7998 3H11.9004V1.5H1.40039V9ZM10.5 6H12.5996V4.5H10.5V6Z" fill="black"/>
</g>
</svg>
