<svg width="16" height="16" viewBox="0 0 16 16" fill="none" xmlns="http://www.w3.org/2000/svg">
<g transform="translate(1.2500, 1.2500)">
<path id="Union" d="M9.66699 0C10.2857 2.4061e-05 10.8788 0.237327 11.3164 0.65918C11.754 1.08113 12 1.65327 12 2.25C12 2.80593 11.7843 3.33829 11.4014 3.75H12.8867C13.2256 3.75002 13.5 3.99027 13.5 4.28613V6.96484C13.4997 7.26051 13.2255 7.49998 12.8867 7.5H12.75V12.9375C12.75 13.2481 12.452 13.4998 12.084 13.5H1.41699C1.04879 13.5 0.75 13.2482 0.75 12.9375V7.5H0.613281C0.274701 7.49983 0.000258343 7.26042 0 6.96484V4.28613C0 3.99037 0.274541 3.75017 0.613281 3.75H2.09863C1.71575 3.33831 1.5 2.80585 1.5 2.25C1.50002 1.65327 1.74602 1.08113 2.18359 0.65918C2.62109 0.237306 3.2143 0.000105072 3.83301 0C5.32939 0 6.24359 1.01305 6.75 1.87109C7.2564 1.01302 8.17053 0 9.66699 0ZM2.08301 12.375H6V7.5H2.08301V12.375ZM7.5 12.375H11.417V7.5H7.5V12.375ZM1.22754 6.42871H6V4.82129H1.22754V6.42871ZM7.5 6.42871H12.2734V4.82129H7.5V6.42871ZM3.83301 1.28613C3.56793 1.28624 3.31342 1.38761 3.12598 1.56836C2.93861 1.74917 2.83302 1.99438 2.83301 2.25C2.83301 2.50561 2.93863 2.75083 3.12598 2.93164C3.31342 3.11239 3.56793 3.21474 3.83301 3.21484H5.93652C5.85514 3.00952 5.75144 2.78297 5.62402 2.55957C5.20472 1.82458 4.62883 1.28613 3.83301 1.28613ZM9.66699 1.28613C8.87112 1.28613 8.29529 1.82451 7.87598 2.55957C7.74856 2.78297 7.64584 3.00952 7.56445 3.21484H9.66699C9.93218 3.21482 10.1865 3.11246 10.374 2.93164C10.5615 2.75081 10.667 2.50569 10.667 2.25C10.667 1.99431 10.5615 1.74918 10.374 1.56836C10.1865 1.38754 9.93218 1.28616 9.66699 1.28613Z" fill="black"/>
</g>
</svg>
