<svg width="21" height="20" viewBox="0 0 21 20" fill="none" xmlns="http://www.w3.org/2000/svg">
<path d="M15.4997 9.16732H13.833C13.5969 9.16732 13.399 9.08746 13.2393 8.92773C13.0795 8.76801 12.9997 8.5701 12.9997 8.33398C12.9997 8.09787 13.0795 7.89996 13.2393 7.74023C13.399 7.58051 13.5969 7.50065 13.833 7.50065H15.4997V5.83398C15.4997 5.59787 15.5795 5.39996 15.7393 5.24023C15.899 5.08051 16.0969 5.00065 16.333 5.00065C16.5691 5.00065 16.767 5.08051 16.9268 5.24023C17.0865 5.39996 17.1663 5.59787 17.1663 5.83398V7.50065H18.833C19.0691 7.50065 19.267 7.58051 19.4268 7.74023C19.5865 7.89996 19.6663 8.09787 19.6663 8.33398C19.6663 8.5701 19.5865 8.76801 19.4268 8.92773C19.267 9.08746 19.0691 9.16732 18.833 9.16732H17.1663V10.834C17.1663 11.0701 17.0865 11.268 16.9268 11.4277C16.767 11.5875 16.5691 11.6673 16.333 11.6673C16.0969 11.6673 15.899 11.5875 15.7393 11.4277C15.5795 11.268 15.4997 11.0701 15.4997 10.834V9.16732ZM7.99967 10.0007C7.08301 10.0007 6.29829 9.67426 5.64551 9.02148C4.99273 8.36871 4.66634 7.58398 4.66634 6.66732C4.66634 5.75065 4.99273 4.96593 5.64551 4.31315C6.29829 3.66037 7.08301 3.33398 7.99967 3.33398C8.91634 3.33398 9.70106 3.66037 10.3538 4.31315C11.0066 4.96593 11.333 5.75065 11.333 6.66732C11.333 7.58398 11.0066 8.36871 10.3538 9.02148C9.70106 9.67426 8.91634 10.0007 7.99967 10.0007ZM1.33301 15.0007V14.334C1.33301 13.8618 1.45454 13.4277 1.69759 13.0319C1.94065 12.6361 2.26356 12.334 2.66634 12.1257C3.52745 11.6951 4.40245 11.3722 5.29134 11.1569C6.18023 10.9416 7.08301 10.834 7.99967 10.834C8.91634 10.834 9.81912 10.9416 10.708 11.1569C11.5969 11.3722 12.4719 11.6951 13.333 12.1257C13.7358 12.334 14.0587 12.6361 14.3018 13.0319C14.5448 13.4277 14.6663 13.8618 14.6663 14.334V15.0007C14.6663 15.459 14.5031 15.8513 14.1768 16.1777C13.8504 16.5041 13.458 16.6673 12.9997 16.6673H2.99967C2.54134 16.6673 2.14898 16.5041 1.82259 16.1777C1.4962 15.8513 1.33301 15.459 1.33301 15.0007ZM2.99967 15.0007H12.9997V14.334C12.9997 14.1812 12.9615 14.0423 12.8851 13.9173C12.8087 13.7923 12.708 13.6951 12.583 13.6257C11.833 13.2507 11.0761 12.9694 10.3122 12.7819C9.54829 12.5944 8.77745 12.5007 7.99967 12.5007C7.2219 12.5007 6.45106 12.5944 5.68717 12.7819C4.92329 12.9694 4.16634 13.2507 3.41634 13.6257C3.29134 13.6951 3.19065 13.7923 3.11426 13.9173C3.03787 14.0423 2.99967 14.1812 2.99967 14.334V15.0007ZM7.99967 8.33398C8.45801 8.33398 8.85037 8.17079 9.17676 7.8444C9.50315 7.51801 9.66634 7.12565 9.66634 6.66732C9.66634 6.20898 9.50315 5.81662 9.17676 5.49023C8.85037 5.16385 8.45801 5.00065 7.99967 5.00065C7.54134 5.00065 7.14898 5.16385 6.82259 5.49023C6.4962 5.81662 6.33301 6.20898 6.33301 6.66732C6.33301 7.12565 6.4962 7.51801 6.82259 7.8444C7.14898 8.17079 7.54134 8.33398 7.99967 8.33398Z" fill="#5F6266"/>
</svg>
