<svg width="48" height="48" viewBox="0 0 48 48" fill="none" xmlns="http://www.w3.org/2000/svg">
<g filter="url(#filter0_i_2004_60304)">
<path fill-rule="evenodd" clip-rule="evenodd" d="M24 48C20.68 48 17.56 47.37 14.64 46.11C11.72 44.85 9.18 43.14 7.02 40.98C4.86 38.82 3.15 36.28 1.89 33.36C0.63 30.44 0 27.32 0 24C0 20.68 0.63 17.56 1.89 14.64C3.15 11.72 4.86 9.18 7.02 7.02C9.18 4.86 11.72 3.15 14.64 1.89C17.56 0.63 20.68 0 24 0C27.32 0 30.44 0.63 33.36 1.89C36.28 3.15 38.82 4.86 40.98 7.02C43.14 9.18 44.85 11.72 46.11 14.64C47.37 17.56 48 20.68 48 24C48 27.32 47.37 30.44 46.11 33.36C44.85 36.28 43.14 38.82 40.98 40.98C38.82 43.14 36.28 44.85 33.36 46.11C30.44 47.37 27.32 48 24 48ZM15.48 23.16L20.64 28.32L32.52 16.44C32.96 16 33.52 15.78 34.2 15.78C34.88 15.78 35.44 16 35.88 16.44C36.32 16.88 36.54 17.44 36.54 18.12C36.54 18.8 36.32 19.36 35.88 19.8L22.32 33.36C21.84 33.84 21.28 34.08 20.64 34.08C20 34.08 19.44 33.84 18.96 33.36L12.12 26.52C11.68 26.08 11.46 25.52 11.46 24.84C11.46 24.16 11.68 23.6 12.12 23.16C12.56 22.72 13.12 22.5 13.8 22.5C14.48 22.5 15.04 22.72 15.48 23.16Z" fill="#11D535"/>
<path d="M20.64 28.32L15.48 23.16C15.04 22.72 14.48 22.5 13.8 22.5C13.12 22.5 12.56 22.72 12.12 23.16C11.68 23.6 11.46 24.16 11.46 24.84C11.46 25.52 11.68 26.08 12.12 26.52L18.96 33.36C19.44 33.84 20 34.08 20.64 34.08C21.28 34.08 21.84 33.84 22.32 33.36L35.88 19.8C36.32 19.36 36.54 18.8 36.54 18.12C36.54 17.44 36.32 16.88 35.88 16.44C35.44 16 34.88 15.78 34.2 15.78C33.52 15.78 32.96 16 32.52 16.44L20.64 28.32Z" fill="#064712"/>
</g>
<defs>
<filter id="filter0_i_2004_60304" x="0" y="0" width="48" height="48" filterUnits="userSpaceOnUse" color-interpolation-filters="sRGB">
<feFlood flood-opacity="0" result="BackgroundImageFix"/>
<feBlend mode="normal" in="SourceGraphic" in2="BackgroundImageFix" result="shape"/>
<feColorMatrix in="SourceAlpha" type="matrix" values="0 0 0 0 0 0 0 0 0 0 0 0 0 0 0 0 0 0 127 0" result="hardAlpha"/>
<feOffset dy="-2.66667"/>
<feComposite in2="hardAlpha" operator="arithmetic" k2="-1" k3="1"/>
<feColorMatrix type="matrix" values="0 0 0 0 0 0 0 0 0 0 0 0 0 0 0 0 0 0 0.35 0"/>
<feBlend mode="normal" in2="shape" result="effect1_innerShadow_2004_60304"/>
</filter>
</defs>
</svg>
