<svg width="16" height="16" viewBox="0 0 16 16" fill="none" xmlns="http://www.w3.org/2000/svg">
<path d="M7.96671 8.90005L9.90005 10.8334C10.0223 10.9556 10.1778 11.0167 10.3667 11.0167C10.5556 11.0167 10.7112 10.9556 10.8334 10.8334C10.9556 10.7112 11.0167 10.5556 11.0167 10.3667C11.0167 10.1778 10.9556 10.0223 10.8334 9.90005L8.90005 7.96671L10.8334 6.03338C10.9556 5.91116 11.0167 5.7556 11.0167 5.56672C11.0167 5.37783 10.9556 5.22227 10.8334 5.10005C10.7112 4.97783 10.5556 4.91672 10.3667 4.91672C10.1778 4.91672 10.0223 4.97783 9.90005 5.10005L7.96671 7.03338L6.03338 5.10005C5.91116 4.97783 5.7556 4.91672 5.56672 4.91672C5.37783 4.91672 5.22227 4.97783 5.10005 5.10005C4.97783 5.22227 4.91672 5.37783 4.91672 5.56672C4.91672 5.7556 4.97783 5.91116 5.10005 6.03338L7.03338 7.96671L5.10005 9.90005C4.97783 10.0223 4.91672 10.1778 4.91672 10.3667C4.91672 10.5556 4.97783 10.7112 5.10005 10.8334C5.22227 10.9556 5.37783 11.0167 5.56672 11.0167C5.7556 11.0167 5.91116 10.9556 6.03338 10.8334L7.96671 8.90005ZM7.96671 14.6334C7.04449 14.6334 6.17783 14.4584 5.36672 14.1084C4.5556 13.7584 3.85005 13.2834 3.25005 12.6834C2.65005 12.0834 2.17505 11.3778 1.82505 10.5667C1.47505 9.7556 1.30005 8.88894 1.30005 7.96671C1.30005 7.04449 1.47505 6.17783 1.82505 5.36672C2.17505 4.5556 2.65005 3.85005 3.25005 3.25005C3.85005 2.65005 4.5556 2.17505 5.36672 1.82505C6.17783 1.47505 7.04449 1.30005 7.96671 1.30005C8.88894 1.30005 9.7556 1.47505 10.5667 1.82505C11.3778 2.17505 12.0834 2.65005 12.6834 3.25005C13.2834 3.85005 13.7584 4.5556 14.1084 5.36672C14.4584 6.17783 14.6334 7.04449 14.6334 7.96671C14.6334 8.88894 14.4584 9.7556 14.1084 10.5667C13.7584 11.3778 13.2834 12.0834 12.6834 12.6834C12.0834 13.2834 11.3778 13.7584 10.5667 14.1084C9.7556 14.4584 8.88894 14.6334 7.96671 14.6334ZM7.96671 13.3C9.4556 13.3 10.7167 12.7834 11.75 11.75C12.7834 10.7167 13.3 9.4556 13.3 7.96671C13.3 6.47783 12.7834 5.21672 11.75 4.18338C10.7167 3.15005 9.4556 2.63338 7.96671 2.63338C6.47783 2.63338 5.21672 3.15005 4.18338 4.18338C3.15005 5.21672 2.63338 6.47783 2.63338 7.96671C2.63338 9.4556 3.15005 10.7167 4.18338 11.75C5.21672 12.7834 6.47783 13.3 7.96671 13.3Z" fill="white"/>
</svg>
