<svg width="20" height="20" viewBox="0 0 20 20" fill="none" xmlns="http://www.w3.org/2000/svg">
<path d="M9.9749 11.3754L5.0749 16.2754C4.89157 16.4587 4.65824 16.5504 4.3749 16.5504C4.09157 16.5504 3.85824 16.4587 3.6749 16.2754C3.49157 16.0921 3.3999 15.8587 3.3999 15.5754C3.3999 15.2921 3.49157 15.0587 3.6749 14.8754L8.5749 9.97539L3.6749 5.07539C3.49157 4.89206 3.3999 4.65872 3.3999 4.37539C3.3999 4.09206 3.49157 3.85872 3.6749 3.67539C3.85824 3.49206 4.09157 3.40039 4.3749 3.40039C4.65824 3.40039 4.89157 3.49206 5.0749 3.67539L9.9749 8.57539L14.8749 3.67539C15.0582 3.49206 15.2916 3.40039 15.5749 3.40039C15.8582 3.40039 16.0916 3.49206 16.2749 3.67539C16.4582 3.85872 16.5499 4.09206 16.5499 4.37539C16.5499 4.65872 16.4582 4.89206 16.2749 5.07539L11.3749 9.97539L16.2749 14.8754C16.4582 15.0587 16.5499 15.2921 16.5499 15.5754C16.5499 15.8587 16.4582 16.0921 16.2749 16.2754C16.0916 16.4587 15.8582 16.5504 15.5749 16.5504C15.2916 16.5504 15.0582 16.4587 14.8749 16.2754L9.9749 11.3754Z" fill="#7C8086"/>
</svg>
