<svg width="21" height="20" viewBox="0 0 21 20" fill="none" xmlns="http://www.w3.org/2000/svg">
<path d="M9.66667 11.8333L7.875 10.0417C7.72222 9.88889 7.52778 9.8125 7.29167 9.8125C7.05556 9.8125 6.86111 9.88889 6.70833 10.0417C6.55556 10.1944 6.47917 10.3889 6.47917 10.625C6.47917 10.8611 6.55556 11.0556 6.70833 11.2083L9.08333 13.5833C9.25 13.75 9.44444 13.8333 9.66667 13.8333C9.88889 13.8333 10.0833 13.75 10.25 13.5833L14.9583 8.875C15.1111 8.72222 15.1875 8.52778 15.1875 8.29167C15.1875 8.05556 15.1111 7.86111 14.9583 7.70833C14.8056 7.55556 14.6111 7.47917 14.375 7.47917C14.1389 7.47917 13.9444 7.55556 13.7917 7.70833L9.66667 11.8333ZM10.8333 18.6667C9.68056 18.6667 8.59722 18.4479 7.58333 18.0104C6.56944 17.5729 5.6875 16.9792 4.9375 16.2292C4.1875 15.4792 3.59375 14.5972 3.15625 13.5833C2.71875 12.5694 2.5 11.4861 2.5 10.3333C2.5 9.18056 2.71875 8.09722 3.15625 7.08333C3.59375 6.06944 4.1875 5.1875 4.9375 4.4375C5.6875 3.6875 6.56944 3.09375 7.58333 2.65625C8.59722 2.21875 9.68056 2 10.8333 2C11.9861 2 13.0694 2.21875 14.0833 2.65625C15.0972 3.09375 15.9792 3.6875 16.7292 4.4375C17.4792 5.1875 18.0729 6.06944 18.5104 7.08333C18.9479 8.09722 19.1667 9.18056 19.1667 10.3333C19.1667 11.4861 18.9479 12.5694 18.5104 13.5833C18.0729 14.5972 17.4792 15.4792 16.7292 16.2292C15.9792 16.9792 15.0972 17.5729 14.0833 18.0104C13.0694 18.4479 11.9861 18.6667 10.8333 18.6667ZM10.8333 17C12.6944 17 14.2708 16.3542 15.5625 15.0625C16.8542 13.7708 17.5 12.1944 17.5 10.3333C17.5 8.47222 16.8542 6.89583 15.5625 5.60417C14.2708 4.3125 12.6944 3.66667 10.8333 3.66667C8.97222 3.66667 7.39583 4.3125 6.10417 5.60417C4.8125 6.89583 4.16667 8.47222 4.16667 10.3333C4.16667 12.1944 4.8125 13.7708 6.10417 15.0625C7.39583 16.3542 8.97222 17 10.8333 17Z" fill="#11D535"/>
</svg>
