<svg width="21" height="20" viewBox="0 0 21 20" fill="none" xmlns="http://www.w3.org/2000/svg">
<path fill-rule="evenodd" clip-rule="evenodd" d="M10.5 18C9.39333 18 8.35333 17.79 7.38 17.37C6.40667 16.95 5.56 16.38 4.84 15.66C4.12 14.94 3.55 14.0933 3.13 13.12C2.71 12.1467 2.5 11.1067 2.5 10C2.5 8.89333 2.71 7.85333 3.13 6.88C3.55 5.90667 4.12 5.06 4.84 4.34C5.56 3.62 6.40667 3.05 7.38 2.63C8.35333 2.21 9.39333 2 10.5 2C11.6067 2 12.6467 2.21 13.62 2.63C14.5933 3.05 15.44 3.62 16.16 4.34C16.88 5.06 17.45 5.90667 17.87 6.88C18.29 7.85333 18.5 8.89333 18.5 10C18.5 11.1067 18.29 12.1467 17.87 13.12C17.45 14.0933 16.88 14.94 16.16 15.66C15.44 16.38 14.5933 16.95 13.62 17.37C12.6467 17.79 11.6067 18 10.5 18ZM7.66 9.72L9.38 11.44L13.34 7.48C13.4867 7.33333 13.6733 7.26 13.9 7.26C14.1267 7.26 14.3133 7.33333 14.46 7.48C14.6067 7.62667 14.68 7.81333 14.68 8.04C14.68 8.26667 14.6067 8.45333 14.46 8.6L9.94 13.12C9.78 13.28 9.59333 13.36 9.38 13.36C9.16667 13.36 8.98 13.28 8.82 13.12L6.54 10.84C6.39333 10.6933 6.32 10.5067 6.32 10.28C6.32 10.0533 6.39333 9.86667 6.54 9.72C6.68667 9.57333 6.87333 9.5 7.1 9.5C7.32667 9.5 7.51333 9.57333 7.66 9.72Z" fill="#11D535"/>
<path d="M9.38 11.44L7.66 9.72C7.51333 9.57333 7.32667 9.5 7.1 9.5C6.87333 9.5 6.68667 9.57333 6.54 9.72C6.39333 9.86667 6.32 10.0533 6.32 10.28C6.32 10.5067 6.39333 10.6933 6.54 10.84L8.82 13.12C8.98 13.28 9.16667 13.36 9.38 13.36C9.59333 13.36 9.78 13.28 9.94 13.12L14.46 8.6C14.6067 8.45333 14.68 8.26667 14.68 8.04C14.68 7.81333 14.6067 7.62667 14.46 7.48C14.3133 7.33333 14.1267 7.26 13.9 7.26C13.6733 7.26 13.4867 7.33333 13.34 7.48L9.38 11.44Z" fill="#064712"/>
</svg>
