<svg width="684" height="174" viewBox="0 0 684 174" fill="none" xmlns="http://www.w3.org/2000/svg">
<path d="M486.775 83.082C487.458 82.4215 488.542 82.4215 489.225 83.082L510.675 103.833C511.67 104.796 513.054 105.246 514.425 105.052L543.976 100.872C544.917 100.739 545.794 101.376 545.958 102.312L551.114 131.708C551.353 133.072 552.209 134.249 553.432 134.898L579.796 148.886C580.635 149.331 580.97 150.362 580.553 151.215L567.446 178.029C566.838 179.273 566.838 180.727 567.446 181.971L580.553 208.785C580.97 209.638 580.635 210.669 579.796 211.114L553.432 225.102C552.209 225.751 551.353 226.928 551.114 228.292L545.958 257.688C545.794 258.624 544.917 259.261 543.976 259.128L514.425 254.948C513.054 254.754 511.67 255.204 510.675 256.167L489.225 276.918C488.542 277.579 487.458 277.579 486.775 276.918L465.325 256.167C464.33 255.204 462.946 254.754 461.575 254.948L432.024 259.128C431.083 259.261 430.206 258.624 430.042 257.688L424.886 228.292C424.646 226.928 423.791 225.751 422.568 225.102L396.204 211.114C395.365 210.669 395.03 209.638 395.447 208.785L408.554 181.971C409.162 180.727 409.162 179.273 408.554 178.029L395.447 151.215C395.03 150.362 395.365 149.331 396.204 148.886L422.568 134.898C423.791 134.249 424.646 133.072 424.886 131.708L430.042 102.312C430.206 101.376 431.083 100.739 432.024 100.872L461.575 105.052C462.946 105.246 464.33 104.796 465.325 103.833L486.775 83.082Z" fill="#B50317" stroke="#E8041D" stroke-width="2.72727"/>
<path d="M247.378 108.542C248.208 108.081 249.255 108.361 249.743 109.176L265.092 134.772C265.804 135.959 267.024 136.752 268.399 136.919L298.025 140.53C298.968 140.645 299.65 141.487 299.566 142.434L296.939 172.163C296.817 173.542 297.338 174.901 298.352 175.844L320.197 196.179C320.893 196.827 320.949 197.909 320.326 198.625L300.725 221.132C299.816 222.177 299.439 223.582 299.705 224.941L305.426 254.233C305.608 255.165 305.017 256.074 304.092 256.287L275.005 262.975C273.656 263.285 272.525 264.201 271.941 265.456L259.352 292.516C258.951 293.378 257.939 293.766 257.065 293.394L229.603 281.708C228.329 281.166 226.876 281.242 225.666 281.915L199.575 296.407C198.744 296.868 197.698 296.588 197.209 295.773L181.86 270.177C181.148 268.99 179.928 268.197 178.554 268.03L148.928 264.419C147.985 264.304 147.303 263.462 147.386 262.515L150.014 232.786C150.136 231.407 149.614 230.048 148.601 229.105L126.755 208.77C126.06 208.122 126.003 207.04 126.627 206.324L146.227 183.817C147.137 182.772 147.513 181.367 147.248 180.008L141.527 150.716C141.345 149.784 141.935 148.875 142.861 148.662L171.948 141.974C173.297 141.664 174.427 140.748 175.011 139.493L187.601 112.433C188.001 111.571 189.013 111.183 189.887 111.555L217.35 123.241C218.624 123.783 220.077 123.707 221.287 123.034L247.378 108.542Z" fill="#B50317" stroke="#E8041D" stroke-width="2.72727"/>
<path d="M618.816 17.2378C619.755 16.3295 621.245 16.3295 622.184 17.2378L651.679 45.771L652.931 44.4761L651.679 45.771C653.047 47.0946 654.949 47.7127 656.834 47.4461L697.467 41.6988C698.761 41.5159 699.966 42.3917 700.192 43.6784L707.282 84.0987C707.611 85.9738 708.787 87.5921 710.469 88.4844L746.72 107.718C747.873 108.33 748.334 109.748 747.76 110.921L729.738 147.79C728.902 149.5 728.902 151.5 729.738 153.21L747.76 190.079C748.334 191.252 747.873 192.67 746.719 193.282L710.469 212.516C708.787 213.408 707.611 215.026 707.282 216.901L700.192 257.322C699.966 258.608 698.761 259.484 697.467 259.301L656.834 253.554C654.949 253.287 653.047 253.905 651.679 255.229L622.184 283.762C621.245 284.67 619.755 284.67 618.816 283.762L589.321 255.229C587.953 253.905 586.051 253.287 584.166 253.554L543.533 259.301C542.239 259.484 541.034 258.608 540.808 257.322L533.718 216.901C533.389 215.026 532.213 213.408 530.531 212.516L494.28 193.282C493.127 192.67 492.666 191.252 493.24 190.079L511.262 153.21C512.098 151.5 512.098 149.5 511.262 147.79L493.24 110.921C492.666 109.748 493.127 108.33 494.28 107.718L530.531 88.4844C532.213 87.5921 533.389 85.9738 533.718 84.0987L540.808 43.6784C541.034 42.3917 542.239 41.5159 543.533 41.6988L584.166 47.4461C586.051 47.7127 587.953 47.0946 589.321 45.771L618.816 17.2378Z" fill="#B50317" stroke="#E8041D" stroke-width="3.75"/>
<path d="M92.163 4.62307C93.1872 3.63221 94.8128 3.63221 95.837 4.62307L128.013 35.7501C129.506 37.1941 131.581 37.8685 133.637 37.5776L177.964 31.3078C179.375 31.1082 180.69 32.0637 180.937 33.4674L188.671 77.5622C189.03 79.6078 190.313 81.3732 192.147 82.3466L231.694 103.329C232.953 103.997 233.455 105.543 232.829 106.823L213.169 147.043C212.257 148.909 212.257 151.091 213.169 152.957L232.829 193.177C233.455 194.457 232.953 196.003 231.694 196.671L192.147 217.653C190.313 218.627 189.03 220.392 188.671 222.438L180.937 266.533C180.69 267.936 179.375 268.892 177.964 268.692L133.637 262.422C131.581 262.131 129.506 262.806 128.013 264.25L95.837 295.377C94.8128 296.368 93.1872 296.368 92.163 295.377L59.987 264.25C58.4944 262.806 56.419 262.131 54.3627 262.422L10.0357 268.692C8.62471 268.892 7.30964 267.936 7.06342 266.533L-0.671454 222.438C-1.03026 220.392 -2.31296 218.627 -4.14749 217.653L-43.694 196.671C-44.9529 196.003 -45.4552 194.457 -44.8293 193.177L-25.1687 152.957C-24.2566 151.091 -24.2566 148.909 -25.1687 147.043L-44.8293 106.823C-45.4552 105.543 -44.9529 103.997 -43.694 103.329L-4.14749 82.3466C-2.31296 81.3732 -1.03026 79.6078 -0.671454 77.5622L7.06342 33.4674C7.30964 32.0637 8.62471 31.1082 10.0357 31.3078L54.3627 37.5776C56.419 37.8685 58.4944 37.1941 59.987 35.7501L92.163 4.62307Z" fill="#B50317" stroke="#E8041D" stroke-width="4.09091"/>
</svg>
