<svg width="20" height="20" viewBox="0 0 20 20" fill="none" xmlns="http://www.w3.org/2000/svg">
<path d="M10.3333 17.7292C10.1389 17.7292 9.94097 17.6944 9.73958 17.625C9.53819 17.5556 9.36111 17.4444 9.20833 17.2917L7.77083 15.9792C6.29861 14.6319 4.96875 13.2951 3.78125 11.9688C2.59375 10.6424 2 9.18056 2 7.58333C2 6.27778 2.4375 5.1875 3.3125 4.3125C4.1875 3.4375 5.27778 3 6.58333 3C7.31944 3 8.01389 3.15625 8.66667 3.46875C9.31944 3.78125 9.875 4.20833 10.3333 4.75C10.7917 4.20833 11.3472 3.78125 12 3.46875C12.6528 3.15625 13.3472 3 14.0833 3C15.3889 3 16.4792 3.4375 17.3542 4.3125C18.2292 5.1875 18.6667 6.27778 18.6667 7.58333C18.6667 9.18056 18.0764 10.6458 16.8958 11.9792C15.7153 13.3125 14.375 14.6528 12.875 16L11.4583 17.2917C11.3056 17.4444 11.1285 17.5556 10.9271 17.625C10.7257 17.6944 10.5278 17.7292 10.3333 17.7292Z" fill="#FF0420"/>
</svg>
