<svg width="20" height="20" viewBox="0 0 20 20" fill="none" xmlns="http://www.w3.org/2000/svg">
<path d="M10.3333 17.7292C10.1389 17.7292 9.94097 17.6944 9.73958 17.625C9.53819 17.5556 9.36111 17.4444 9.20833 17.2917L7.77083 15.9792C6.29861 14.6319 4.96875 13.2951 3.78125 11.9688C2.59375 10.6424 2 9.18056 2 7.58333C2 6.27778 2.4375 5.1875 3.3125 4.3125C4.1875 3.4375 5.27778 3 6.58333 3C7.31944 3 8.01389 3.15625 8.66667 3.46875C9.31944 3.78125 9.875 4.20833 10.3333 4.75C10.7917 4.20833 11.3472 3.78125 12 3.46875C12.6528 3.15625 13.3472 3 14.0833 3C15.3889 3 16.4792 3.4375 17.3542 4.3125C18.2292 5.1875 18.6667 6.27778 18.6667 7.58333C18.6667 9.18056 18.0764 10.6458 16.8958 11.9792C15.7153 13.3125 14.375 14.6528 12.875 16L11.4583 17.2917C11.3056 17.4444 11.1285 17.5556 10.9271 17.625C10.7257 17.6944 10.5278 17.7292 10.3333 17.7292ZM9.54167 6.41667C9.13889 5.84722 8.70833 5.41319 8.25 5.11458C7.79167 4.81597 7.23611 4.66667 6.58333 4.66667C5.75 4.66667 5.05556 4.94444 4.5 5.5C3.94444 6.05556 3.66667 6.75 3.66667 7.58333C3.66667 8.30556 3.92361 9.07292 4.4375 9.88542C4.95139 10.6979 5.56597 11.4861 6.28125 12.25C6.99653 13.0139 7.73264 13.7292 8.48958 14.3958C9.24653 15.0625 9.86111 15.6111 10.3333 16.0417C10.8056 15.6111 11.4201 15.0625 12.1771 14.3958C12.934 13.7292 13.6701 13.0139 14.3854 12.25C15.1007 11.4861 15.7153 10.6979 16.2292 9.88542C16.7431 9.07292 17 8.30556 17 7.58333C17 6.75 16.7222 6.05556 16.1667 5.5C15.6111 4.94444 14.9167 4.66667 14.0833 4.66667C13.4306 4.66667 12.875 4.81597 12.4167 5.11458C11.9583 5.41319 11.5278 5.84722 11.125 6.41667C11.0278 6.55556 10.9097 6.65972 10.7708 6.72917C10.6319 6.79861 10.4861 6.83333 10.3333 6.83333C10.1806 6.83333 10.0347 6.79861 9.89583 6.72917C9.75694 6.65972 9.63889 6.55556 9.54167 6.41667Z" fill="#7C8086"/>
</svg>
