<svg width="24" height="24" viewBox="0 0 24 24" fill="none" xmlns="http://www.w3.org/2000/svg">
<path d="M12.5 13.975L14.425 15.125C14.6083 15.2417 14.7875 15.2375 14.9625 15.1125C15.1375 14.9875 15.2 14.8167 15.15 14.6L14.65 12.425L16.35 10.95C16.5167 10.8 16.5667 10.6208 16.5 10.4125C16.4333 10.2042 16.2833 10.0917 16.05 10.075L13.825 9.9L12.95 7.825C12.8667 7.625 12.7167 7.525 12.5 7.525C12.2833 7.525 12.1333 7.625 12.05 7.825L11.175 9.9L8.95 10.075C8.71667 10.0917 8.56667 10.2042 8.5 10.4125C8.43333 10.6208 8.48333 10.8 8.65 10.95L10.35 12.425L9.85 14.6C9.8 14.8167 9.8625 14.9875 10.0375 15.1125C10.2125 15.2375 10.3917 15.2417 10.575 15.125L12.5 13.975ZM9.15 19.5H6.5C5.95 19.5 5.47917 19.3042 5.0875 18.9125C4.69583 18.5208 4.5 18.05 4.5 17.5V14.85L2.575 12.9C2.39167 12.7 2.25 12.4792 2.15 12.2375C2.05 11.9958 2 11.75 2 11.5C2 11.25 2.05 11.0042 2.15 10.7625C2.25 10.5208 2.39167 10.3 2.575 10.1L4.5 8.15V5.5C4.5 4.95 4.69583 4.47917 5.0875 4.0875C5.47917 3.69583 5.95 3.5 6.5 3.5H9.15L11.1 1.575C11.3 1.39167 11.5208 1.25 11.7625 1.15C12.0042 1.05 12.25 1 12.5 1C12.75 1 12.9958 1.05 13.2375 1.15C13.4792 1.25 13.7 1.39167 13.9 1.575L15.85 3.5H18.5C19.05 3.5 19.5208 3.69583 19.9125 4.0875C20.3042 4.47917 20.5 4.95 20.5 5.5V8.15L22.425 10.1C22.6083 10.3 22.75 10.5208 22.85 10.7625C22.95 11.0042 23 11.25 23 11.5C23 11.75 22.95 11.9958 22.85 12.2375C22.75 12.4792 22.6083 12.7 22.425 12.9L20.5 14.85V17.5C20.5 18.05 20.3042 18.5208 19.9125 18.9125C19.5208 19.3042 19.05 19.5 18.5 19.5H15.85L13.9 21.425C13.7 21.6083 13.4792 21.75 13.2375 21.85C12.9958 21.95 12.75 22 12.5 22C12.25 22 12.0042 21.95 11.7625 21.85C11.5208 21.75 11.3 21.6083 11.1 21.425L9.15 19.5Z" fill="white"/>
</svg>
