<svg width="25" height="24" viewBox="0 0 25 24" fill="none" xmlns="http://www.w3.org/2000/svg">
<path d="M12.5335 16.2002C12.7696 16.2002 12.9676 16.1203 13.1273 15.9606C13.287 15.8009 13.3669 15.603 13.3669 15.3669V12.0335C13.3669 11.7974 13.287 11.5995 13.1273 11.4398C12.9676 11.2801 12.7696 11.2002 12.5335 11.2002C12.2974 11.2002 12.0995 11.2801 11.9398 11.4398C11.7801 11.5995 11.7002 11.7974 11.7002 12.0335V15.3669C11.7002 15.603 11.7801 15.8009 11.9398 15.9606C12.0995 16.1203 12.2974 16.2002 12.5335 16.2002ZM12.5335 9.53353C12.7696 9.53353 12.9676 9.45367 13.1273 9.29394C13.287 9.13422 13.3669 8.93631 13.3669 8.70019C13.3669 8.46408 13.287 8.26617 13.1273 8.10644C12.9676 7.94672 12.7696 7.86686 12.5335 7.86686C12.2974 7.86686 12.0995 7.94672 11.9398 8.10644C11.7801 8.26617 11.7002 8.46408 11.7002 8.70019C11.7002 8.93631 11.7801 9.13422 11.9398 9.29394C12.0995 9.45367 12.2974 9.53353 12.5335 9.53353ZM12.5335 20.3669C11.3808 20.3669 10.2974 20.1481 9.28353 19.7106C8.26964 19.2731 7.3877 18.6794 6.6377 17.9294C5.8877 17.1794 5.29395 16.2974 4.85645 15.2835C4.41895 14.2696 4.2002 13.1863 4.2002 12.0335C4.2002 10.8808 4.41895 9.79742 4.85645 8.78353C5.29395 7.76964 5.8877 6.8877 6.6377 6.1377C7.3877 5.3877 8.26964 4.79395 9.28353 4.35645C10.2974 3.91895 11.3808 3.7002 12.5335 3.7002C13.6863 3.7002 14.7696 3.91895 15.7835 4.35645C16.7974 4.79395 17.6794 5.3877 18.4294 6.1377C19.1794 6.8877 19.7731 7.76964 20.2106 8.78353C20.6481 9.79742 20.8669 10.8808 20.8669 12.0335C20.8669 13.1863 20.6481 14.2696 20.2106 15.2835C19.7731 16.2974 19.1794 17.1794 18.4294 17.9294C17.6794 18.6794 16.7974 19.2731 15.7835 19.7106C14.7696 20.1481 13.6863 20.3669 12.5335 20.3669ZM12.5335 18.7002C14.3946 18.7002 15.971 18.0544 17.2627 16.7627C18.5544 15.471 19.2002 13.8946 19.2002 12.0335C19.2002 10.1724 18.5544 8.59603 17.2627 7.30436C15.971 6.0127 14.3946 5.36686 12.5335 5.36686C10.6724 5.36686 9.09603 6.0127 7.80436 7.30436C6.5127 8.59603 5.86686 10.1724 5.86686 12.0335C5.86686 13.8946 6.5127 15.471 7.80436 16.7627C9.09603 18.0544 10.6724 18.7002 12.5335 18.7002Z" fill="#7C8086"/>
</svg>
