<svg width="56" height="47" viewBox="0 0 56 47" fill="none" xmlns="http://www.w3.org/2000/svg">
<g filter="url(#filter0_i_2004_58085)">
<path d="M5.0498 46.7431C3.99767 47.1605 2.99815 47.0692 2.05123 46.4692C1.10432 45.8692 0.630859 44.9953 0.630859 43.8475V29.7608C0.630859 29.7608 25.8819 24.5 25.8819 23.5C25.8819 22.5 0.630859 17.2392 0.630859 17.2392V3.15246C0.630859 2.00465 1.10432 1.13075 2.05123 0.530762C2.99815 -0.0692298 3.99767 -0.160533 5.0498 0.256853L53.6581 20.6044C54.9733 21.1783 55.6309 22.1435 55.6309 23.5C55.6309 24.8565 54.9733 25.8217 53.6581 26.3956L5.0498 46.7431Z" fill="#47D3FF"/>
</g>
<defs>
<filter id="filter0_i_2004_58085" x="0.630859" y="0" width="55" height="47" filterUnits="userSpaceOnUse" color-interpolation-filters="sRGB">
<feFlood flood-opacity="0" result="BackgroundImageFix"/>
<feBlend mode="normal" in="SourceGraphic" in2="BackgroundImageFix" result="shape"/>
<feColorMatrix in="SourceAlpha" type="matrix" values="0 0 0 0 0 0 0 0 0 0 0 0 0 0 0 0 0 0 127 0" result="hardAlpha"/>
<feOffset dy="-2.66667"/>
<feComposite in2="hardAlpha" operator="arithmetic" k2="-1" k3="1"/>
<feColorMatrix type="matrix" values="0 0 0 0 0 0 0 0 0 0 0 0 0 0 0 0 0 0 0.35 0"/>
<feBlend mode="normal" in2="shape" result="effect1_innerShadow_2004_58085"/>
</filter>
</defs>
</svg>
