<svg width="24" height="24" viewBox="0 0 24 24" fill="none" xmlns="http://www.w3.org/2000/svg">
<path d="M3 21C2.71667 21 2.47917 20.9042 2.2875 20.7125C2.09583 20.5208 2 20.2833 2 20V10C2 9.71667 2.09583 9.47917 2.2875 9.2875C2.47917 9.09583 2.71667 9 3 9H6.5C6.78333 9 7.02083 9.09583 7.2125 9.2875C7.40417 9.47917 7.5 9.71667 7.5 10V20C7.5 20.2833 7.40417 20.5208 7.2125 20.7125C7.02083 20.9042 6.78333 21 6.5 21H3ZM10.25 21C9.96667 21 9.72917 20.9042 9.5375 20.7125C9.34583 20.5208 9.25 20.2833 9.25 20V4C9.25 3.71667 9.34583 3.47917 9.5375 3.2875C9.72917 3.09583 9.96667 3 10.25 3H13.75C14.0333 3 14.2708 3.09583 14.4625 3.2875C14.6542 3.47917 14.75 3.71667 14.75 4V20C14.75 20.2833 14.6542 20.5208 14.4625 20.7125C14.2708 20.9042 14.0333 21 13.75 21H10.25ZM17.5 21C17.2167 21 16.9792 20.9042 16.7875 20.7125C16.5958 20.5208 16.5 20.2833 16.5 20V12C16.5 11.7167 16.5958 11.4792 16.7875 11.2875C16.9792 11.0958 17.2167 11 17.5 11H21C21.2833 11 21.5208 11.0958 21.7125 11.2875C21.9042 11.4792 22 11.7167 22 12V20C22 20.2833 21.9042 20.5208 21.7125 20.7125C21.5208 20.9042 21.2833 21 21 21H17.5Z" fill="white"/>
</svg>
