<svg width="7" height="12" viewBox="0 0 7 12" fill="none" xmlns="http://www.w3.org/2000/svg">
<path d="M2.825 5.575L6.725 1.675C6.90833 1.49167 7 1.25833 7 0.975C7 0.691667 6.90833 0.458333 6.725 0.275C6.54167 0.0916667 6.30833 0 6.025 0C5.74167 0 5.50833 0.0916667 5.325 0.275L0.725 4.875C0.625 4.975 0.554167 5.08333 0.5125 5.2C0.470833 5.31667 0.45 5.44167 0.45 5.575C0.45 5.70833 0.470833 5.83333 0.5125 5.95C0.554167 6.06667 0.625 6.175 0.725 6.275L5.325 10.875C5.50833 11.0583 5.74167 11.15 6.025 11.15C6.30833 11.15 6.54167 11.0583 6.725 10.875C6.90833 10.6917 7 10.4583 7 10.175C7 9.89167 6.90833 9.65833 6.725 9.475L2.825 5.575Z" fill="#0B0B0B"/>
</svg>
