<svg width="20" height="20" viewBox="0 0 20 20" fill="none" xmlns="http://www.w3.org/2000/svg">
<path d="M9.15039 10.8171V13.3171C9.15039 13.5532 9.23025 13.7511 9.38997 13.9108C9.5497 14.0705 9.74761 14.1504 9.98372 14.1504C10.2198 14.1504 10.4178 14.0705 10.5775 13.9108C10.7372 13.7511 10.8171 13.5532 10.8171 13.3171V10.8171H13.3171C13.5532 10.8171 13.7511 10.7372 13.9108 10.5775C14.0705 10.4178 14.1504 10.2198 14.1504 9.98372C14.1504 9.74761 14.0705 9.5497 13.9108 9.38997C13.7511 9.23025 13.5532 9.15039 13.3171 9.15039H10.8171V6.65039C10.8171 6.41428 10.7372 6.21636 10.5775 6.05664C10.4178 5.89692 10.2198 5.81706 9.98372 5.81706C9.74761 5.81706 9.5497 5.89692 9.38997 6.05664C9.23025 6.21636 9.15039 6.41428 9.15039 6.65039V9.15039H6.65039C6.41428 9.15039 6.21636 9.23025 6.05664 9.38997C5.89692 9.5497 5.81706 9.74761 5.81706 9.98372C5.81706 10.2198 5.89692 10.4178 6.05664 10.5775C6.21636 10.7372 6.41428 10.8171 6.65039 10.8171H9.15039ZM9.98372 18.3171C8.83095 18.3171 7.74761 18.0983 6.73372 17.6608C5.71983 17.2233 4.83789 16.6296 4.08789 15.8796C3.33789 15.1296 2.74414 14.2476 2.30664 13.2337C1.86914 12.2198 1.65039 11.1365 1.65039 9.98372C1.65039 8.83095 1.86914 7.74761 2.30664 6.73372C2.74414 5.71983 3.33789 4.83789 4.08789 4.08789C4.83789 3.33789 5.71983 2.74414 6.73372 2.30664C7.74761 1.86914 8.83095 1.65039 9.98372 1.65039C11.1365 1.65039 12.2198 1.86914 13.2337 2.30664C14.2476 2.74414 15.1296 3.33789 15.8796 4.08789C16.6296 4.83789 17.2233 5.71983 17.6608 6.73372C18.0983 7.74761 18.3171 8.83095 18.3171 9.98372C18.3171 11.1365 18.0983 12.2198 17.6608 13.2337C17.2233 14.2476 16.6296 15.1296 15.8796 15.8796C15.1296 16.6296 14.2476 17.2233 13.2337 17.6608C12.2198 18.0983 11.1365 18.3171 9.98372 18.3171ZM9.98372 16.6504C11.8448 16.6504 13.4212 16.0046 14.7129 14.7129C16.0046 13.4212 16.6504 11.8448 16.6504 9.98372C16.6504 8.12261 16.0046 6.54622 14.7129 5.25456C13.4212 3.96289 11.8448 3.31706 9.98372 3.31706C8.12261 3.31706 6.54622 3.96289 5.25456 5.25456C3.96289 6.54622 3.31706 8.12261 3.31706 9.98372C3.31706 11.8448 3.96289 13.4212 5.25456 14.7129C6.54622 16.0046 8.12261 16.6504 9.98372 16.6504Z" fill="#FF0420"/>
</svg>
