<svg width="20" height="20" viewBox="0 0 20 20" fill="none" xmlns="http://www.w3.org/2000/svg">
<path d="M7.50033 11.8743C7.20866 11.8743 6.96213 11.7737 6.76074 11.5723C6.55935 11.3709 6.45866 11.1243 6.45866 10.8327C6.45866 10.541 6.55935 10.2945 6.76074 10.0931C6.96213 9.89171 7.20866 9.79101 7.50033 9.79101C7.79199 9.79101 8.03852 9.89171 8.23991 10.0931C8.4413 10.2945 8.54199 10.541 8.54199 10.8327C8.54199 11.1243 8.4413 11.3709 8.23991 11.5723C8.03852 11.7737 7.79199 11.8743 7.50033 11.8743ZM12.5003 11.8743C12.2087 11.8743 11.9621 11.7737 11.7607 11.5723C11.5594 11.3709 11.4587 11.1243 11.4587 10.8327C11.4587 10.541 11.5594 10.2945 11.7607 10.0931C11.9621 9.89171 12.2087 9.79101 12.5003 9.79101C12.792 9.79101 13.0385 9.89171 13.2399 10.0931C13.4413 10.2945 13.542 10.541 13.542 10.8327C13.542 11.1243 13.4413 11.3709 13.2399 11.5723C13.0385 11.7737 12.792 11.8743 12.5003 11.8743ZM10.0003 16.666C11.8614 16.666 13.4378 16.0202 14.7295 14.7285C16.0212 13.4368 16.667 11.8605 16.667 9.99935C16.667 9.66602 16.6462 9.3431 16.6045 9.0306C16.5628 8.7181 16.4864 8.41602 16.3753 8.12435C16.0837 8.19379 15.792 8.24588 15.5003 8.2806C15.2087 8.31532 14.9031 8.33268 14.5837 8.33268C13.3198 8.33268 12.1253 8.06185 11.0003 7.52018C9.87533 6.97852 8.91699 6.22157 8.12533 5.24935C7.68088 6.33268 7.04546 7.27365 6.21908 8.07227C5.39269 8.87088 4.43088 9.47157 3.33366 9.87435V9.99935C3.33366 11.8605 3.97949 13.4368 5.27116 14.7285C6.56283 16.0202 8.13921 16.666 10.0003 16.666ZM10.0003 18.3327C8.84755 18.3327 7.76421 18.1139 6.75033 17.6764C5.73644 17.2389 4.85449 16.6452 4.10449 15.8952C3.35449 15.1452 2.76074 14.2632 2.32324 13.2493C1.88574 12.2355 1.66699 11.1521 1.66699 9.99935C1.66699 8.84657 1.88574 7.76324 2.32324 6.74935C2.76074 5.73546 3.35449 4.85352 4.10449 4.10352C4.85449 3.35352 5.73644 2.75977 6.75033 2.32227C7.76421 1.88477 8.84755 1.66602 10.0003 1.66602C11.1531 1.66602 12.2364 1.88477 13.2503 2.32227C14.2642 2.75977 15.1462 3.35352 15.8962 4.10352C16.6462 4.85352 17.2399 5.73546 17.6774 6.74935C18.1149 7.76324 18.3337 8.84657 18.3337 9.99935C18.3337 11.1521 18.1149 12.2355 17.6774 13.2493C17.2399 14.2632 16.6462 15.1452 15.8962 15.8952C15.1462 16.6452 14.2642 17.2389 13.2503 17.6764C12.2364 18.1139 11.1531 18.3327 10.0003 18.3327ZM8.87533 3.43685C9.45866 4.40907 10.2503 5.19032 11.2503 5.7806C12.2503 6.37088 13.3614 6.66602 14.5837 6.66602C14.7781 6.66602 14.9656 6.6556 15.1462 6.63477C15.3267 6.61393 15.5142 6.58963 15.7087 6.56185C15.1253 5.58963 14.3337 4.80838 13.3337 4.2181C12.3337 3.62782 11.2225 3.33268 10.0003 3.33268C9.80588 3.33268 9.61838 3.3431 9.43783 3.36393C9.25727 3.38477 9.06977 3.40907 8.87533 3.43685ZM3.68783 7.89518C4.39616 7.4924 5.01421 6.97157 5.54199 6.33268C6.06977 5.69379 6.4656 4.97852 6.72949 4.18685C6.02116 4.58963 5.4031 5.11046 4.87533 5.74935C4.34755 6.38824 3.95171 7.10352 3.68783 7.89518Z" fill="#0B0B0B"/>
</svg>
