<svg width="20" height="20" viewBox="0 0 20 20" fill="none" xmlns="http://www.w3.org/2000/svg">
<path d="M9.99967 16.3743L8.45801 17.541C8.29134 17.666 8.12467 17.6695 7.95801 17.5514C7.79134 17.4334 7.74273 17.2771 7.81217 17.0827L8.41634 15.166L6.89551 14.0827C6.72884 13.9716 6.68023 13.8188 6.74967 13.6243C6.81912 13.4299 6.95106 13.3327 7.14551 13.3327H8.99967L9.58301 11.416L6.62467 9.66602C6.37467 9.51324 6.18023 9.31185 6.04134 9.06185C5.90245 8.81185 5.83301 8.52713 5.83301 8.20768V3.33268C5.83301 2.87435 5.9962 2.48199 6.32259 2.1556C6.64898 1.82921 7.04134 1.66602 7.49967 1.66602H12.4997C12.958 1.66602 13.3504 1.82921 13.6768 2.1556C14.0031 2.48199 14.1663 2.87435 14.1663 3.33268V8.20768C14.1663 8.52713 14.0969 8.81185 13.958 9.06185C13.8191 9.31185 13.6247 9.51324 13.3747 9.66602L10.4163 11.416L10.9997 13.3327H12.8538C13.0483 13.3327 13.1802 13.4299 13.2497 13.6243C13.3191 13.8188 13.2705 13.9716 13.1038 14.0827L11.583 15.166L12.1872 17.0827C12.2566 17.2771 12.208 17.4334 12.0413 17.5514C11.8747 17.6695 11.708 17.666 11.5413 17.541L9.99967 16.3743ZM7.49967 3.33268V8.20768L9.16634 9.20768V3.33268H7.49967ZM12.4997 3.33268H10.833V9.20768L12.4997 8.20768V3.33268Z" fill="black"/>
</svg>
