<svg width="24" height="24" viewBox="0 0 24 24" fill="none" xmlns="http://www.w3.org/2000/svg">
<path d="M16.2321 10.0494L8.34785 17.9336C8.1475 18.134 7.9118 18.2342 7.64074 18.2342C7.36968 18.2342 7.13398 18.134 6.93364 17.9336C6.73329 17.7333 6.63311 17.4976 6.63311 17.2265C6.63311 16.9555 6.73329 16.7198 6.93364 16.5194L14.8179 8.63518L10.7874 8.63518C10.5045 8.63518 10.2718 8.53795 10.0891 8.3435C9.90643 8.14905 9.8092 7.91629 9.79742 7.64523C9.79742 7.36239 9.8917 7.12079 10.0803 6.92045C10.2688 6.7201 10.5045 6.61993 10.7874 6.61993L17.2574 6.61993C17.3988 6.61993 17.5255 6.64644 17.6375 6.69948C17.7494 6.75251 17.8525 6.82617 17.9468 6.92045C18.0411 7.01473 18.1148 7.11785 18.1678 7.22981C18.2208 7.34176 18.2473 7.46845 18.2473 7.60988L18.2473 14.0799C18.2473 14.3627 18.1472 14.5984 17.9468 14.787C17.7465 14.9756 17.5049 15.0699 17.222 15.0699C16.951 15.0581 16.7182 14.9608 16.5238 14.7782C16.3293 14.5955 16.2321 14.3627 16.2321 14.0799V10.0494Z" fill="#0B0B0B"/>
</svg>
