<svg width="238" height="54" viewBox="0 0 238 54" fill="none" xmlns="http://www.w3.org/2000/svg">
<path d="M26.0697 34.2168C24.6245 34.2168 23.4395 34.0145 22.5146 33.6098C21.6041 33.2052 20.9466 32.6705 20.5419 32.0057C20.1517 31.3265 20.0145 30.6111 20.1301 29.8596C20.159 29.744 20.2168 29.6428 20.3035 29.5561C20.4046 29.455 20.5203 29.4044 20.6503 29.4044H23.425C23.6274 29.4044 23.7719 29.4405 23.8586 29.5128C23.9453 29.585 24.032 29.679 24.1187 29.7946C24.1765 30.0114 24.2921 30.2209 24.4655 30.4232C24.639 30.6255 24.8774 30.7917 25.1809 30.9218C25.4988 31.0374 25.889 31.0952 26.3515 31.0952C27.1897 31.0952 27.8617 30.9652 28.3675 30.705C28.8733 30.4449 29.1695 30.0908 29.2563 29.6428C29.343 29.3249 29.2852 29.0648 29.0828 28.8625C28.895 28.6457 28.5554 28.4578 28.064 28.2988C27.5871 28.1254 26.944 27.952 26.1347 27.7786C25.0797 27.5474 24.2126 27.2294 23.5334 26.8248C22.8542 26.4057 22.3773 25.8782 22.1027 25.2423C21.8426 24.592 21.8065 23.8188 21.9943 22.9228C22.2834 21.5933 22.9987 20.5455 24.1404 19.7796C25.2821 18.9992 26.7634 18.609 28.5843 18.609C29.5236 18.609 30.3546 18.7391 31.0772 18.9992C31.8142 19.2594 32.4284 19.6062 32.9197 20.0397C33.4111 20.4733 33.7652 20.9357 33.9819 21.4271C34.1987 21.904 34.271 22.3737 34.1987 22.8361C34.1843 22.9517 34.1265 23.0601 34.0253 23.1613C33.9241 23.248 33.8085 23.2914 33.6785 23.2914H30.7737C30.6292 23.2914 30.4991 23.2625 30.3835 23.2046C30.2823 23.1468 30.1956 23.0529 30.1234 22.9228C30.1234 22.6049 29.9572 22.3303 29.6248 22.0991C29.2924 21.8534 28.8516 21.7306 28.3025 21.7306C27.681 21.7306 27.1608 21.8462 26.7417 22.0774C26.3226 22.2942 26.0625 22.6338 25.9613 23.0963C25.889 23.3853 25.9252 23.6382 26.0697 23.855C26.2286 24.0717 26.5177 24.2596 26.9368 24.4186C27.3703 24.5775 27.9628 24.7437 28.7143 24.9172C29.9861 25.1628 30.9832 25.4952 31.7058 25.9143C32.4284 26.319 32.9125 26.832 33.1582 27.4534C33.4183 28.0748 33.4545 28.8335 33.2666 29.7295C32.9486 31.2036 32.1755 32.3236 30.9471 33.0895C29.7332 33.841 28.1074 34.2168 26.0697 34.2168ZM41.5497 34.2168C40.6248 34.2168 39.7722 34.1012 38.9918 33.8699C38.2259 33.6243 37.5755 33.2557 37.0408 32.7644C36.5206 32.273 36.1665 31.6516 35.9786 30.9001C35.7908 30.1486 35.8052 29.2526 36.022 28.2121L37.8862 19.3677C37.9151 19.2088 37.9946 19.0787 38.1247 18.9775C38.2548 18.8764 38.3993 18.8258 38.5582 18.8258H41.3546C41.5136 18.8258 41.6292 18.8764 41.7015 18.9775C41.7882 19.0787 41.8171 19.2088 41.7882 19.3677L39.9022 28.1905C39.6999 29.1298 39.7505 29.8379 40.054 30.3148C40.3575 30.7773 40.95 31.0085 41.8315 31.0085C42.6986 31.0085 43.4068 30.7773 43.9559 30.3148C44.5051 29.8379 44.8808 29.1298 45.0831 28.1905L46.9691 19.3677C46.998 19.2088 47.0775 19.0787 47.2075 18.9775C47.3376 18.8764 47.4749 18.8258 47.6194 18.8258H50.4158C50.5748 18.8258 50.6904 18.8764 50.7626 18.9775C50.8493 19.0787 50.8782 19.2088 50.8493 19.3677L48.9851 28.2121C48.5371 30.2787 47.7133 31.7961 46.5139 32.7644C45.3288 33.7326 43.6741 34.2168 41.5497 34.2168ZM51.6213 34C51.4767 34 51.3611 33.9494 51.2744 33.8483C51.1877 33.7471 51.1588 33.617 51.1877 33.4581L54.1792 19.3677C54.2081 19.2088 54.2876 19.0787 54.4176 18.9775C54.5477 18.8764 54.685 18.8258 54.8295 18.8258H60.5957C61.4773 18.8258 62.2721 18.927 62.9802 19.1293C63.7028 19.3316 64.3026 19.6423 64.7795 20.0614C65.2564 20.4805 65.5887 21.008 65.7766 21.6439C65.9645 22.2653 65.9717 22.9951 65.7983 23.8333C65.437 25.4952 64.7 26.7236 63.5872 27.5185C62.4889 28.3133 61.0076 28.7107 59.1433 28.7107H56.2169L55.2197 33.4581C55.1908 33.617 55.1113 33.7471 54.9813 33.8483C54.8656 33.9494 54.7284 34 54.5694 34H51.6213ZM56.7805 25.7192H59.2734C59.8659 25.7192 60.3934 25.5603 60.8558 25.2423C61.3327 24.9244 61.6435 24.4403 61.788 23.7899C61.8602 23.4142 61.8747 23.0818 61.8313 22.7928C61.788 22.5037 61.6362 22.2725 61.3761 22.0991C61.1304 21.9257 60.7475 21.839 60.2272 21.839H57.6259L56.7805 25.7192ZM66.704 34C66.5595 34 66.4439 33.9494 66.3572 33.8483C66.2705 33.7471 66.2415 33.617 66.2705 33.4581L69.2619 19.3677C69.2908 19.2088 69.3703 19.0787 69.5004 18.9775C69.6305 18.8764 69.7677 18.8258 69.9123 18.8258H80.0356C80.1946 18.8258 80.3102 18.8764 80.3825 18.9775C80.4692 19.0787 80.4981 19.2088 80.4692 19.3677L80.0573 21.4054C80.0284 21.5644 79.9489 21.6945 79.8188 21.7956C79.6888 21.8968 79.5443 21.9474 79.3853 21.9474H72.4702L71.8415 24.8738H78.2581C78.417 24.8738 78.5399 24.9316 78.6266 25.0472C78.7133 25.1484 78.7422 25.2785 78.7133 25.4374L78.3014 27.3234C78.2725 27.4679 78.193 27.5979 78.063 27.7135C77.9474 27.8147 77.8101 27.8653 77.6511 27.8653H71.2129L70.5843 30.8785H77.6511C77.8101 30.8785 77.9257 30.929 77.9979 31.0302C78.0846 31.1314 78.1135 31.2614 78.0846 31.4204L77.6511 33.4581C77.6222 33.617 77.5427 33.7471 77.4126 33.8483C77.297 33.9494 77.1597 34 77.0008 34H66.704ZM81.2646 34C81.1057 34 80.9828 33.9494 80.8961 33.8483C80.8238 33.7471 80.8022 33.617 80.8311 33.4581L83.8226 19.3677C83.8515 19.2088 83.9309 19.0787 84.061 18.9775C84.1911 18.8764 84.3356 18.8258 84.4946 18.8258H90.3908C92.2551 18.8258 93.628 19.2594 94.5095 20.1265C95.4055 20.9791 95.6873 22.193 95.3549 23.7683C95.1382 24.7943 94.7046 25.6614 94.0543 26.3695C93.4184 27.0777 92.6597 27.6124 91.7782 27.9737L93.6208 33.3063C93.6352 33.3497 93.6424 33.3858 93.6424 33.4147C93.6424 33.4436 93.6352 33.487 93.6208 33.5448C93.6063 33.6604 93.5413 33.7688 93.4257 33.8699C93.31 33.9566 93.1872 34 93.0571 34H90.1957C89.9211 34 89.7333 33.935 89.6321 33.8049C89.5454 33.6604 89.4804 33.5303 89.437 33.4147L87.9846 28.6457H85.7518L84.733 33.4581C84.7041 33.617 84.6246 33.7471 84.4946 33.8483C84.3645 33.9494 84.22 34 84.061 34H81.2646ZM86.4022 25.5892H88.9168C89.596 25.5892 90.1379 25.423 90.5426 25.0906C90.9472 24.7582 91.2146 24.303 91.3446 23.7249C91.4602 23.1613 91.388 22.7061 91.1278 22.3592C90.8822 22.0124 90.4053 21.839 89.6971 21.839H87.2042L86.4022 25.5892ZM102.344 34.2168C101.361 34.2168 100.472 34.0939 99.6776 33.8483C98.8972 33.6026 98.2468 33.2341 97.7266 32.7427C97.2063 32.2369 96.845 31.6227 96.6427 30.9001C96.4404 30.1631 96.4187 29.3105 96.5777 28.3422C96.6788 27.7497 96.8017 27.1138 96.9462 26.4346C97.1052 25.7554 97.2569 25.105 97.4014 24.4836C97.7194 23.2263 98.2107 22.1641 98.8755 21.297C99.5403 20.4155 100.378 19.7507 101.39 19.3027C102.416 18.8403 103.623 18.609 105.01 18.609C105.935 18.609 106.795 18.7246 107.59 18.9559C108.385 19.1871 109.057 19.5339 109.606 19.9964C110.169 20.4444 110.574 20.9935 110.82 21.6439C111.08 22.2797 111.13 23.0095 110.971 23.8333C110.943 23.9634 110.878 24.0717 110.776 24.1585C110.69 24.2452 110.581 24.2885 110.451 24.2885H107.503C107.315 24.2885 107.171 24.2524 107.07 24.1801C106.983 24.0934 106.925 23.9417 106.896 23.7249C106.911 22.9734 106.715 22.4532 106.311 22.1641C105.906 21.8751 105.371 21.7306 104.707 21.7306C103.912 21.7306 103.225 21.9546 102.647 22.4026C102.069 22.8361 101.657 23.5659 101.412 24.592C101.108 25.777 100.848 26.991 100.631 28.2338C100.443 29.2599 100.53 29.9969 100.891 30.4449C101.253 30.8785 101.831 31.0952 102.626 31.0952C103.29 31.0952 103.89 30.9507 104.425 30.6617C104.96 30.3726 105.4 29.8524 105.747 29.1009C105.863 28.8841 105.978 28.7396 106.094 28.6674C106.21 28.5806 106.361 28.5373 106.549 28.5373H109.497C109.627 28.5373 109.729 28.5806 109.801 28.6674C109.873 28.7541 109.895 28.8625 109.866 28.9925C109.664 29.8018 109.346 30.5316 108.912 31.1819C108.493 31.8178 107.958 32.367 107.308 32.8294C106.672 33.2774 105.942 33.6243 105.119 33.8699C104.295 34.1012 103.37 34.2168 102.344 34.2168ZM112.016 34C111.871 34 111.756 33.9494 111.669 33.8483C111.582 33.7471 111.553 33.617 111.582 33.4581L114.574 19.3677C114.603 19.2088 114.682 19.0787 114.812 18.9775C114.942 18.8764 115.079 18.8258 115.224 18.8258H118.02C118.179 18.8258 118.302 18.8764 118.389 18.9775C118.476 19.0787 118.505 19.2088 118.476 19.3677L117.348 24.592H122.703L123.808 19.3677C123.837 19.2088 123.909 19.0787 124.025 18.9775C124.155 18.8764 124.3 18.8258 124.459 18.8258H127.255C127.414 18.8258 127.537 18.8764 127.623 18.9775C127.71 19.0787 127.739 19.2088 127.71 19.3677L124.697 33.4581C124.668 33.617 124.589 33.7471 124.459 33.8483C124.343 33.9494 124.206 34 124.047 34H121.25C121.091 34 120.969 33.9494 120.882 33.8483C120.81 33.7471 120.788 33.617 120.817 33.4581L121.966 28.0604H116.633L115.462 33.4581C115.434 33.617 115.354 33.7471 115.224 33.8483C115.108 33.9494 114.971 34 114.812 34H112.016ZM127.236 34C127.062 34 126.94 33.9277 126.867 33.7832C126.795 33.6387 126.802 33.4942 126.889 33.3497L134.931 19.4328C135.018 19.2738 135.141 19.1365 135.3 19.0209C135.459 18.8908 135.661 18.8258 135.907 18.8258H139.245C139.491 18.8258 139.664 18.8908 139.765 19.0209C139.881 19.1365 139.946 19.2738 139.96 19.4328L142.085 33.3497C142.128 33.552 142.092 33.711 141.976 33.8266C141.861 33.9422 141.731 34 141.586 34H138.963C138.747 34 138.588 33.9494 138.486 33.8483C138.4 33.7471 138.342 33.6315 138.313 33.5014L137.944 31.3337H132.157L130.856 33.5448C130.784 33.6459 130.683 33.7471 130.552 33.8483C130.437 33.9494 130.271 34 130.054 34H127.236ZM133.696 28.2121H137.728L136.926 22.4893L133.696 28.2121ZM144.637 34C144.478 34 144.355 33.9494 144.268 33.8483C144.182 33.7471 144.153 33.617 144.182 33.4581L147.195 19.3677C147.224 19.2088 147.303 19.0787 147.433 18.9775C147.563 18.8764 147.701 18.8258 147.845 18.8258H150.772C150.916 18.8258 151.032 18.8764 151.118 18.9775C151.205 19.0787 151.234 19.2088 151.205 19.3677L148.192 33.4581C148.163 33.617 148.084 33.7471 147.954 33.8483C147.838 33.9494 147.708 34 147.563 34H144.637ZM152.099 34C151.954 34 151.839 33.9494 151.752 33.8483C151.665 33.7471 151.636 33.617 151.665 33.4581L154.657 19.3677C154.685 19.2088 154.758 19.0787 154.873 18.9775C155.003 18.8764 155.148 18.8258 155.307 18.8258H157.605C157.836 18.8258 157.995 18.8764 158.082 18.9775C158.168 19.0787 158.226 19.1654 158.255 19.2377L161.788 27.6268L163.544 19.3677C163.573 19.2088 163.653 19.0787 163.783 18.9775C163.913 18.8764 164.05 18.8258 164.195 18.8258H166.796C166.955 18.8258 167.071 18.8764 167.143 18.9775C167.229 19.0787 167.258 19.2088 167.229 19.3677L164.238 33.4581C164.209 33.6026 164.13 33.7326 164 33.8483C163.884 33.9494 163.747 34 163.588 34H161.29C161.059 34 160.9 33.9494 160.813 33.8483C160.726 33.7326 160.668 33.6459 160.64 33.5881L157.063 25.5025L155.35 33.4581C155.321 33.617 155.242 33.7471 155.112 33.8483C154.996 33.9494 154.859 34 154.7 34H152.099Z" fill="#FF0420"/>
<path d="M173.246 34C173.101 34 172.986 33.9494 172.899 33.8483C172.812 33.7471 172.784 33.617 172.812 33.4581L175.804 19.3677C175.833 19.2088 175.912 19.0787 176.042 18.9775C176.172 18.8764 176.31 18.8258 176.454 18.8258H186.578C186.737 18.8258 186.852 18.8764 186.924 18.9775C187.011 19.0787 187.04 19.2088 187.011 19.3677L186.599 21.4054C186.57 21.5644 186.491 21.6945 186.361 21.7956C186.231 21.8968 186.086 21.9474 185.927 21.9474H179.012L178.384 24.8738H184.8C184.959 24.8738 185.082 24.9316 185.169 25.0472C185.255 25.1484 185.284 25.2785 185.255 25.4374L184.843 27.3234C184.815 27.4679 184.735 27.5979 184.605 27.7135C184.489 27.8147 184.352 27.8653 184.193 27.8653H177.755L177.126 30.8785H184.193C184.352 30.8785 184.468 30.929 184.54 31.0302C184.627 31.1314 184.656 31.2614 184.627 31.4204L184.193 33.4581C184.164 33.617 184.085 33.7471 183.955 33.8483C183.839 33.9494 183.702 34 183.543 34H173.246ZM193.464 34.2168C192.482 34.2168 191.593 34.0939 190.798 33.8483C190.018 33.6026 189.367 33.2341 188.847 32.7427C188.327 32.2369 187.966 31.6227 187.763 30.9001C187.561 30.1631 187.539 29.3105 187.698 28.3422C187.799 27.7497 187.922 27.1138 188.067 26.4346C188.226 25.7554 188.377 25.105 188.522 24.4836C188.84 23.2263 189.331 22.1641 189.996 21.297C190.661 20.4155 191.499 19.7507 192.511 19.3027C193.537 18.8403 194.743 18.609 196.131 18.609C197.056 18.609 197.915 18.7246 198.71 18.9559C199.505 19.1871 200.177 19.5339 200.726 19.9964C201.29 20.4444 201.695 20.9935 201.94 21.6439C202.2 22.2797 202.251 23.0095 202.092 23.8333C202.063 23.9634 201.998 24.0717 201.897 24.1585C201.81 24.2452 201.702 24.2885 201.572 24.2885H198.624C198.436 24.2885 198.291 24.2524 198.19 24.1801C198.103 24.0934 198.046 23.9417 198.017 23.7249C198.031 22.9734 197.836 22.4532 197.431 22.1641C197.027 21.8751 196.492 21.7306 195.827 21.7306C195.032 21.7306 194.346 21.9546 193.768 22.4026C193.19 22.8361 192.778 23.5659 192.532 24.592C192.229 25.777 191.969 26.991 191.752 28.2338C191.564 29.2599 191.651 29.9969 192.012 30.4449C192.373 30.8785 192.951 31.0952 193.746 31.0952C194.411 31.0952 195.011 30.9507 195.545 30.6617C196.08 30.3726 196.521 29.8524 196.868 29.1009C196.983 28.8841 197.099 28.7396 197.215 28.6674C197.33 28.5806 197.482 28.5373 197.67 28.5373H200.618C200.748 28.5373 200.849 28.5806 200.921 28.6674C200.994 28.7541 201.015 28.8625 200.986 28.9925C200.784 29.8018 200.466 30.5316 200.033 31.1819C199.614 31.8178 199.079 32.367 198.429 32.8294C197.793 33.2774 197.063 33.6243 196.239 33.8699C195.415 34.1012 194.49 34.2168 193.464 34.2168ZM209.076 34.2168C208.165 34.2168 207.32 34.0939 206.54 33.8483C205.759 33.6026 205.102 33.2341 204.567 32.7427C204.032 32.2514 203.649 31.6372 203.418 30.9001C203.201 30.1631 203.172 29.3032 203.331 28.3205C203.447 27.6991 203.57 27.0777 203.7 26.4563C203.844 25.8348 203.989 25.2062 204.133 24.5703C204.61 22.6194 205.47 21.1381 206.713 20.1265C207.956 19.1148 209.632 18.609 211.742 18.609C212.653 18.609 213.491 18.7391 214.257 18.9992C215.037 19.2449 215.695 19.6206 216.229 20.1265C216.779 20.6323 217.162 21.2537 217.378 21.9907C217.61 22.7277 217.638 23.5876 217.465 24.5703C217.364 25.2062 217.241 25.8348 217.097 26.4563C216.966 27.0777 216.829 27.6991 216.685 28.3205C216.193 30.3004 215.326 31.7817 214.083 32.7644C212.841 33.7326 211.171 34.2168 209.076 34.2168ZM209.358 31.0952C210.138 31.0952 210.825 30.864 211.417 30.4015C212.01 29.9391 212.429 29.2021 212.674 28.1905C212.833 27.5546 212.971 26.9548 213.086 26.3912C213.216 25.8276 213.332 25.2423 213.433 24.6354C213.621 23.6237 213.534 22.8867 213.173 22.4243C212.812 21.9618 212.241 21.7306 211.46 21.7306C210.68 21.7306 209.994 21.9618 209.401 22.4243C208.823 22.8867 208.411 23.6237 208.165 24.6354C208.006 25.2423 207.862 25.8276 207.732 26.3912C207.616 26.9548 207.501 27.5546 207.385 28.1905C207.212 29.2021 207.298 29.9391 207.645 30.4015C207.992 30.864 208.563 31.0952 209.358 31.0952Z" fill="#202327"/>
</svg>
