<svg width="32" height="33" viewBox="0 0 32 33" fill="none" xmlns="http://www.w3.org/2000/svg">
<g filter="url(#filter0_i_2246_30994)">
<path d="M15.6524 0.836315C15.8462 0.648798 16.1538 0.648798 16.3476 0.836315L19.7798 4.15654C19.8906 4.26377 20.0447 4.31385 20.1974 4.29225L24.9256 3.62347C25.1927 3.5857 25.4415 3.76652 25.4881 4.03215L26.3132 8.73561C26.3398 8.88751 26.4351 9.01862 26.5713 9.0909L30.7896 11.329C31.0279 11.4554 31.1229 11.748 31.0045 11.9903L28.9073 16.2804C28.8396 16.419 28.8396 16.581 28.9073 16.7196L31.0045 21.0097C31.1229 21.252 31.0279 21.5446 30.7896 21.671L26.5713 23.9091C26.4351 23.9814 26.3398 24.1125 26.3132 24.2644L25.4881 28.9678C25.4415 29.2335 25.1927 29.4143 24.9256 29.3765L20.1974 28.7078C20.0447 28.6862 19.8906 28.7362 19.7798 28.8435L16.3476 32.1637C16.1538 32.3512 15.8462 32.3512 15.6524 32.1637L12.2202 28.8435C12.1094 28.7362 11.9553 28.6862 11.8026 28.7078L7.07437 29.3765C6.80733 29.4143 6.55846 29.2335 6.51186 28.9678L5.68681 24.2644C5.66017 24.1125 5.56491 23.9814 5.42868 23.9091L1.21038 21.671C0.972141 21.5446 0.87708 21.252 0.99552 21.0097L3.09266 16.7196C3.16039 16.581 3.16039 16.419 3.09266 16.2804L0.99552 11.9903C0.87708 11.748 0.972141 11.4554 1.21038 11.329L5.42868 9.0909C5.56491 9.01862 5.66017 8.88751 5.68681 8.73561L6.51186 4.03215C6.55846 3.76652 6.80733 3.5857 7.07437 3.62347L11.8026 4.29225C11.9553 4.31385 12.1094 4.26377 12.2202 4.15654L15.6524 0.836315Z" fill="#FF0420"/>
</g>
<g filter="url(#filter1_d_2246_30994)">
<path d="M12.3876 20.11C11.6542 20.11 11.0456 20.0073 10.5616 19.802C10.0776 19.5893 9.71092 19.3143 9.46158 18.977C9.21225 18.6397 9.08025 18.2803 9.06558 17.899C9.06558 17.8403 9.08758 17.789 9.13158 17.745C9.18292 17.6937 9.24158 17.668 9.30758 17.668H10.6936C10.7962 17.668 10.8732 17.6863 10.9246 17.723C10.9832 17.7597 11.0346 17.8073 11.0786 17.866C11.1372 17.976 11.2179 18.0823 11.3206 18.185C11.4306 18.2877 11.5699 18.372 11.7386 18.438C11.9146 18.4967 12.1309 18.526 12.3876 18.526C12.8129 18.526 13.1319 18.46 13.3446 18.328C13.5646 18.196 13.6746 18.0163 13.6746 17.789C13.6746 17.6277 13.6159 17.4957 13.4986 17.393C13.3812 17.283 13.1906 17.1877 12.9266 17.107C12.6699 17.019 12.3252 16.931 11.8926 16.843C11.3352 16.7257 10.8586 16.5753 10.4626 16.392C10.0739 16.2013 9.77692 15.9557 9.57158 15.655C9.36625 15.347 9.26358 14.9657 9.26358 14.511C9.26358 14.0637 9.38825 13.664 9.63758 13.312C9.89425 12.96 10.2499 12.685 10.7046 12.487C11.1592 12.289 11.6982 12.19 12.3216 12.19C12.8276 12.19 13.2712 12.256 13.6526 12.388C14.0412 12.52 14.3676 12.696 14.6316 12.916C14.8956 13.136 15.0936 13.3707 15.2256 13.62C15.3649 13.862 15.4382 14.1003 15.4456 14.335C15.4456 14.3937 15.4236 14.4487 15.3796 14.5C15.3356 14.544 15.2806 14.566 15.2146 14.566H13.7626C13.6819 14.566 13.6122 14.5513 13.5536 14.522C13.4949 14.4927 13.4436 14.445 13.3996 14.379C13.3556 14.2177 13.2382 14.0783 13.0476 13.961C12.8642 13.8363 12.6222 13.774 12.3216 13.774C11.9989 13.774 11.7459 13.8327 11.5626 13.95C11.3866 14.06 11.2986 14.2323 11.2986 14.467C11.2986 14.6137 11.3462 14.742 11.4416 14.852C11.5442 14.962 11.7092 15.0573 11.9366 15.138C12.1712 15.2187 12.4902 15.303 12.8936 15.391C13.5609 15.5157 14.0999 15.6733 14.5106 15.864C14.9212 16.0473 15.2219 16.2893 15.4126 16.59C15.6032 16.8833 15.6986 17.2537 15.6986 17.701C15.6986 18.1997 15.5556 18.6323 15.2696 18.999C14.9909 19.3583 14.6022 19.6333 14.1036 19.824C13.6049 20.0147 13.0329 20.11 12.3876 20.11ZM19.9568 20.11C19.2601 20.11 18.6625 19.9963 18.1638 19.769C17.6725 19.5417 17.2875 19.208 17.0088 18.768C16.7375 18.328 16.5871 17.7817 16.5578 17.129C16.5505 16.8283 16.5468 16.5057 16.5468 16.161C16.5468 15.8163 16.5505 15.4863 16.5578 15.171C16.5871 14.533 16.7411 13.994 17.0198 13.554C17.2985 13.1067 17.6871 12.7693 18.1858 12.542C18.6845 12.3073 19.2748 12.19 19.9568 12.19C20.4408 12.19 20.8881 12.2523 21.2988 12.377C21.7095 12.4943 22.0688 12.6703 22.3768 12.905C22.6848 13.1323 22.9231 13.411 23.0918 13.741C23.2678 14.0637 23.3595 14.4303 23.3668 14.841C23.3741 14.907 23.3521 14.962 23.3008 15.006C23.2568 15.05 23.2018 15.072 23.1358 15.072H21.6508C21.5555 15.072 21.4821 15.0537 21.4308 15.017C21.3795 14.973 21.3355 14.896 21.2988 14.786C21.1961 14.3973 21.0275 14.1333 20.7928 13.994C20.5655 13.8473 20.2831 13.774 19.9458 13.774C19.5425 13.774 19.2235 13.8877 18.9888 14.115C18.7541 14.335 18.6258 14.7053 18.6038 15.226C18.5818 15.8273 18.5818 16.4433 18.6038 17.074C18.6258 17.5947 18.7541 17.9687 18.9888 18.196C19.2235 18.416 19.5425 18.526 19.9458 18.526C20.2831 18.526 20.5691 18.4527 20.8038 18.306C21.0385 18.1593 21.2035 17.8953 21.2988 17.514C21.3281 17.404 21.3685 17.3307 21.4198 17.294C21.4785 17.25 21.5555 17.228 21.6508 17.228H23.1358C23.2018 17.228 23.2568 17.25 23.3008 17.294C23.3521 17.338 23.3741 17.393 23.3668 17.459C23.3595 17.8697 23.2678 18.24 23.0918 18.57C22.9231 18.8927 22.6848 19.1713 22.3768 19.406C22.0688 19.6333 21.7095 19.8093 21.2988 19.934C20.8881 20.0513 20.4408 20.11 19.9568 20.11Z" fill="white"/>
</g>
<defs>
<filter id="filter0_i_2246_30994" x="0.945312" y="0.695312" width="30.1094" height="31.6094" filterUnits="userSpaceOnUse" color-interpolation-filters="sRGB">
<feFlood flood-opacity="0" result="BackgroundImageFix"/>
<feBlend mode="normal" in="SourceGraphic" in2="BackgroundImageFix" result="shape"/>
<feColorMatrix in="SourceAlpha" type="matrix" values="0 0 0 0 0 0 0 0 0 0 0 0 0 0 0 0 0 0 127 0" result="hardAlpha"/>
<feOffset dy="-1"/>
<feComposite in2="hardAlpha" operator="arithmetic" k2="-1" k3="1"/>
<feColorMatrix type="matrix" values="0 0 0 0 0 0 0 0 0 0 0 0 0 0 0 0 0 0 0.35 0"/>
<feBlend mode="normal" in2="shape" result="effect1_innerShadow_2246_30994"/>
</filter>
<filter id="filter1_d_2246_30994" x="9.06641" y="12.1895" width="14.3125" height="8.41992" filterUnits="userSpaceOnUse" color-interpolation-filters="sRGB">
<feFlood flood-opacity="0" result="BackgroundImageFix"/>
<feColorMatrix in="SourceAlpha" type="matrix" values="0 0 0 0 0 0 0 0 0 0 0 0 0 0 0 0 0 0 127 0" result="hardAlpha"/>
<feOffset dy="0.5"/>
<feComposite in2="hardAlpha" operator="out"/>
<feColorMatrix type="matrix" values="0 0 0 0 0 0 0 0 0 0 0 0 0 0 0 0 0 0 0.25 0"/>
<feBlend mode="normal" in2="BackgroundImageFix" result="effect1_dropShadow_2246_30994"/>
<feBlend mode="normal" in="SourceGraphic" in2="effect1_dropShadow_2246_30994" result="shape"/>
</filter>
</defs>
</svg>
