<svg width="21" height="20" viewBox="0 0 21 20" fill="none" xmlns="http://www.w3.org/2000/svg">
<g clip-path="url(#clip0_393_8130)">
<path d="M20.333 10C20.333 15.5228 15.8559 20 10.333 20C4.81016 20 0.333008 15.5228 0.333008 10C0.333008 4.47715 4.81016 0 10.333 0C15.8559 0 20.333 4.47715 20.333 10Z" fill="#FF0420"/>
<path d="M7.71579 12.4107C7.26936 12.4107 6.90329 12.3482 6.61757 12.2232C6.33632 12.0982 6.1332 11.933 6.0082 11.7277C5.88766 11.5179 5.84525 11.2969 5.88097 11.0647C5.8899 11.029 5.90775 10.9978 5.93454 10.971C5.96579 10.9397 6.0015 10.9241 6.04168 10.9241H6.89882C6.96132 10.9241 7.00597 10.9353 7.03275 10.9576C7.05954 10.9799 7.08632 11.0089 7.11311 11.0446C7.13097 11.1116 7.16668 11.1763 7.22025 11.2388C7.27382 11.3013 7.34749 11.3527 7.44124 11.3929C7.53945 11.4286 7.65998 11.4464 7.80284 11.4464C8.06177 11.4464 8.26936 11.4063 8.42561 11.3259C8.58186 11.2455 8.67338 11.1362 8.70016 10.9978C8.72695 10.8996 8.70909 10.8192 8.64659 10.7567C8.58856 10.6897 8.48365 10.6317 8.33186 10.5826C8.18454 10.529 7.98588 10.4754 7.73588 10.4219C7.40998 10.3504 7.14213 10.2522 6.93231 10.1272C6.72248 9.99777 6.57516 9.83482 6.49034 9.63839C6.40999 9.4375 6.39882 9.19866 6.45686 8.92188C6.54615 8.51116 6.76713 8.1875 7.11981 7.95089C7.47249 7.70982 7.93007 7.58929 8.49257 7.58929C8.78275 7.58929 9.03945 7.62946 9.26266 7.70982C9.49034 7.79018 9.68007 7.89732 9.83186 8.03125C9.98365 8.16518 10.093 8.30804 10.16 8.45982C10.2269 8.60714 10.2493 8.75223 10.2269 8.89509C10.2225 8.9308 10.2046 8.96429 10.1734 8.99554C10.1421 9.02232 10.1064 9.03571 10.0662 9.03571H9.16891C9.12427 9.03571 9.08409 9.02679 9.04838 9.00893C9.01713 8.99107 8.99034 8.96205 8.96802 8.92188C8.96802 8.82366 8.91668 8.73884 8.814 8.66741C8.71132 8.59152 8.57516 8.55357 8.40552 8.55357C8.21356 8.55357 8.05284 8.58929 7.92338 8.66071C7.79391 8.72768 7.71356 8.83259 7.68231 8.97545C7.65999 9.06473 7.67115 9.14286 7.71579 9.20982C7.7649 9.27679 7.85418 9.33482 7.98365 9.38393C8.11757 9.43304 8.30061 9.48438 8.53275 9.53795C8.92561 9.61384 9.23365 9.71652 9.45686 9.84598C9.68007 9.97098 9.82963 10.1295 9.90552 10.3214C9.98588 10.5134 9.99704 10.7478 9.939 11.0246C9.84079 11.4799 9.60195 11.8259 9.22248 12.0625C8.84749 12.2946 8.34525 12.4107 7.71579 12.4107Z" fill="white"/>
<path d="M10.6228 12.3438C10.5781 12.3438 10.5424 12.3281 10.5156 12.2969C10.4888 12.2656 10.4799 12.2254 10.4888 12.1763L11.4129 7.82366C11.4219 7.77455 11.4464 7.73438 11.4866 7.70313C11.5268 7.67188 11.5692 7.65625 11.6138 7.65625H14.7411C14.7902 7.65625 14.8259 7.67188 14.8482 7.70313C14.875 7.73438 14.8839 7.77455 14.875 7.82366L14.7478 8.45312C14.7388 8.50223 14.7143 8.54241 14.6741 8.57366C14.6339 8.60491 14.5893 8.62054 14.5402 8.62054H12.404L12.2098 9.52455H14.192C14.2411 9.52455 14.279 9.54241 14.3058 9.57812C14.3326 9.60938 14.3415 9.64955 14.3326 9.69866L14.2054 10.2812C14.1964 10.3259 14.1719 10.3661 14.1317 10.4018C14.096 10.433 14.0536 10.4487 14.0045 10.4487H12.0156L11.8214 11.3795H14.0045C14.0536 11.3795 14.0893 11.3951 14.1116 11.4263C14.1384 11.4576 14.1473 11.4978 14.1384 11.5469L14.0045 12.1763C13.9955 12.2254 13.971 12.2656 13.9308 12.2969C13.8951 12.3281 13.8527 12.3438 13.8036 12.3438H10.6228Z" fill="white"/>
</g>
<defs>
<clipPath id="clip0_393_8130">
<rect width="20" height="20" fill="white" transform="translate(0.333008)"/>
</clipPath>
</defs>
</svg>
