<svg width="197" height="54" viewBox="0 0 197 54" fill="none" xmlns="http://www.w3.org/2000/svg">
<path d="M23.0267 32.7903C24.021 33.2436 25.2419 33.4702 26.6895 33.4702C28.0493 33.4702 29.2191 33.2582 30.1987 32.8342C31.1784 32.4101 31.9314 31.818 32.4578 31.0576C32.9988 30.2827 33.2693 29.3834 33.2693 28.3599C33.2693 27.3656 33.0135 26.5248 32.5017 25.8376C32.0045 25.1358 31.31 24.5875 30.4181 24.1927C29.5261 23.7833 28.4953 23.5274 27.3256 23.425L26.0973 23.3154C25.3662 23.2569 24.8398 23.0595 24.5182 22.7232C24.1965 22.3869 24.0356 21.9921 24.0356 21.5388C24.0356 21.1879 24.1234 20.8662 24.2988 20.5738C24.4743 20.2667 24.7375 20.0254 25.0884 19.85C25.454 19.6745 25.8999 19.5868 26.4263 19.5868C26.9819 19.5868 27.4425 19.6891 27.8081 19.8938C28.1882 20.0985 28.4734 20.3691 28.6635 20.7054C28.8535 21.027 28.9486 21.3853 28.9486 21.7801H32.4578C32.4578 20.7273 32.2166 19.8134 31.734 19.0385C31.2515 18.2489 30.557 17.6421 29.6504 17.218C28.7585 16.7794 27.6838 16.5601 26.4263 16.5601C25.2273 16.5601 24.1892 16.7648 23.3119 17.1742C22.4345 17.569 21.7473 18.1392 21.2502 18.8849C20.7676 19.6306 20.5264 20.5153 20.5264 21.5388C20.5264 22.9571 21.0016 24.0976 21.952 24.9603C22.9024 25.823 24.1745 26.3201 25.7683 26.4517L26.9746 26.5614C27.9543 26.6491 28.6635 26.8465 29.1021 27.1536C29.5408 27.446 29.7601 27.8481 29.7601 28.3599C29.7601 28.7693 29.6431 29.1348 29.4092 29.4565C29.1752 29.7636 28.8316 30.0048 28.3783 30.1803C27.925 30.3558 27.3621 30.4435 26.6895 30.4435C25.9438 30.4435 25.337 30.3412 24.8691 30.1364C24.4012 29.9171 24.0503 29.632 23.8163 29.2811C23.597 28.9301 23.4873 28.55 23.4873 28.1406H20C20 29.1787 20.2559 30.0999 20.7676 30.9041C21.2794 31.6937 22.0324 32.3224 23.0267 32.7903Z" fill="black"/>
<path d="M35.5721 32.0885C36.3178 32.9804 37.3852 33.4264 38.7743 33.4264H38.9278C39.8344 33.4264 40.5947 33.229 41.2088 32.8342C41.8229 32.4394 42.2835 31.8399 42.5906 31.0357C42.6848 30.7959 42.7652 30.5391 42.8319 30.2654V33.0535H45.6173V21.0343H42.1081V28.0967C42.1081 28.7693 41.9107 29.303 41.5159 29.6978C41.1211 30.0926 40.6093 30.29 39.9806 30.29C39.3665 30.29 38.8766 30.0999 38.5111 29.7197C38.1456 29.3396 37.9628 28.8278 37.9628 28.1844V21.0343H34.4535V28.009C34.4535 29.8221 34.8264 31.1819 35.5721 32.0885Z" fill="black"/>
<path fill-rule="evenodd" clip-rule="evenodd" d="M53.0203 32.9C52.4284 32.5859 51.9312 32.142 51.5289 31.5684V37.4401H48.0196V21.0343H50.8051V24.0586C50.9086 23.7462 51.0329 23.4546 51.178 23.1838C51.6166 22.3503 52.2088 21.7289 52.9545 21.3195C53.7002 20.8954 54.541 20.6834 55.4768 20.6834C56.3102 20.6834 57.0633 20.8369 57.7359 21.144C58.4231 21.4511 59.008 21.8824 59.4905 22.438C59.9876 22.979 60.3605 23.6224 60.6091 24.3681C60.8723 25.0992 61.0039 25.9034 61.0039 26.7807V27.2852C61.0039 28.1479 60.8796 28.9594 60.631 29.7197C60.3824 30.4654 60.0169 31.1161 59.5344 31.6717C59.0665 32.2274 58.4889 32.666 57.8017 32.9877C57.1291 33.2948 56.3541 33.4483 55.4768 33.4483C54.5702 33.4483 53.7514 33.2655 53.0203 32.9ZM54.4898 30.5093C55.0893 30.5093 55.6084 30.3631 56.047 30.0706C56.5003 29.7782 56.8512 29.3688 57.0998 28.8424C57.3484 28.316 57.4727 27.7092 57.4727 27.022C57.4727 26.3348 57.3484 25.7353 57.0998 25.2235C56.8512 24.7117 56.5076 24.3169 56.069 24.0391C55.6303 23.7467 55.1039 23.6005 54.4898 23.6005C53.9634 23.6005 53.4663 23.7248 52.9984 23.9733C52.5305 24.2219 52.1503 24.5801 51.8579 25.048C51.5801 25.5013 51.4412 26.0569 51.4412 26.7149V27.5264C51.4412 28.1552 51.5874 28.6962 51.8798 29.1495C52.1869 29.5881 52.5744 29.9244 53.0423 30.1584C53.5102 30.3923 53.9927 30.5093 54.4898 30.5093Z" fill="black"/>
<path fill-rule="evenodd" clip-rule="evenodd" d="M65.3932 32.9438C66.1827 33.2948 67.0893 33.4702 68.1128 33.4702C69.1217 33.4702 70.0137 33.2948 70.7886 32.9438C71.5636 32.5929 72.2069 32.1031 72.7187 31.4743C73.2305 30.8456 73.5741 30.1291 73.7495 29.3249H70.5254C70.3792 29.6905 70.1014 29.9975 69.692 30.2461C69.2826 30.4947 68.7562 30.619 68.1128 30.619C67.411 30.619 66.8407 30.4727 66.4021 30.1803C65.9634 29.8879 65.6417 29.4785 65.437 28.9521C65.3229 28.6504 65.2405 28.3214 65.19 27.9651H73.9689V26.7807C73.9689 25.6841 73.7349 24.6752 73.267 23.754C72.7991 22.8182 72.1192 22.0652 71.2273 21.4949C70.35 20.9101 69.2679 20.6176 67.9812 20.6176C67.0016 20.6176 66.1242 20.7931 65.3493 21.144C64.589 21.4803 63.9529 21.9409 63.4411 22.5258C62.9294 23.1106 62.5346 23.7759 62.2568 24.5217C61.9936 25.2527 61.862 26.0204 61.862 26.8246V27.2633C61.862 28.0382 61.9936 28.7985 62.2568 29.5443C62.5346 30.2754 62.9294 30.9406 63.4411 31.5401C63.9675 32.125 64.6182 32.5929 65.3932 32.9438ZM65.2169 25.9692C65.2717 25.6547 65.3524 25.3696 65.459 25.1138C65.6783 24.5728 66 24.1634 66.424 23.8856C66.848 23.6078 67.3671 23.4689 67.9812 23.4689C68.5807 23.4689 69.0779 23.6078 69.4727 23.8856C69.8821 24.1488 70.1891 24.5363 70.3938 25.048C70.5047 25.3251 70.5855 25.6322 70.6363 25.9692H65.2169Z" fill="black"/>
<path d="M79.7596 24.6971C79.2333 25.2089 78.9701 25.9546 78.9701 26.9343V33.0535H75.4608V21.0343H78.2463V25.0006C78.3797 23.8685 78.716 22.9558 79.2552 22.2626C79.9863 21.3414 81.0391 20.8808 82.4135 20.8808H82.8741V23.9075H81.9968C81.0317 23.9075 80.286 24.1707 79.7596 24.6971Z" fill="black"/>
<path fill-rule="evenodd" clip-rule="evenodd" d="M97.8674 29.0837L99.1671 33.0535H102.896L97.4125 17.0426H91.6003L86.3145 33.0535H89.9114L91.179 29.0837H97.8674ZM96.8908 26.1008L94.8874 19.9816H94.0851L92.1313 26.1008H96.8908Z" fill="black"/>
<path d="M109.156 33.4702C108.118 33.4702 107.211 33.3021 106.436 32.9658C105.676 32.6148 105.04 32.1469 104.528 31.5621C104.017 30.9772 103.636 30.3192 103.388 29.5881C103.139 28.8424 103.015 28.0748 103.015 27.2852V26.8685C103.015 26.0496 103.146 25.2674 103.41 24.5217C103.673 23.7613 104.06 23.0887 104.572 22.5038C105.084 21.919 105.72 21.4584 106.48 21.1221C107.255 20.7858 108.14 20.6176 109.134 20.6176C110.216 20.6176 111.174 20.8296 112.007 21.2537C112.841 21.6631 113.506 22.2406 114.003 22.9864C114.5 23.7321 114.778 24.5875 114.837 25.5525H111.393C111.335 25.0115 111.115 24.5582 110.735 24.1927C110.37 23.8125 109.836 23.6224 109.134 23.6224C108.549 23.6224 108.059 23.7686 107.665 24.0611C107.284 24.3535 106.999 24.7556 106.809 25.2674C106.619 25.7791 106.524 26.3859 106.524 27.0878C106.524 27.7311 106.612 28.316 106.787 28.8424C106.963 29.3542 107.241 29.7563 107.621 30.0487C108.016 30.3265 108.527 30.4654 109.156 30.4654C109.624 30.4654 110.019 30.385 110.34 30.2242C110.677 30.0487 110.94 29.8148 111.13 29.5223C111.335 29.2153 111.459 28.8643 111.503 28.4696H114.924C114.881 29.4638 114.603 30.3411 114.091 31.1015C113.579 31.8472 112.899 32.4321 112.051 32.8561C111.203 33.2655 110.238 33.4702 109.156 33.4702Z" fill="black"/>
<path d="M119.011 32.9658C119.786 33.3021 120.693 33.4702 121.731 33.4702C122.813 33.4702 123.778 33.2655 124.626 32.8561C125.474 32.4321 126.154 31.8472 126.666 31.1015C127.177 30.3411 127.455 29.4638 127.499 28.4696H124.078C124.034 28.8643 123.909 29.2153 123.705 29.5223C123.515 29.8148 123.251 30.0487 122.915 30.2242C122.593 30.385 122.199 30.4654 121.731 30.4654C121.102 30.4654 120.59 30.3265 120.195 30.0487C119.815 29.7563 119.537 29.3542 119.362 28.8424C119.187 28.316 119.099 27.7311 119.099 27.0878C119.099 26.3859 119.194 25.7791 119.384 25.2674C119.574 24.7556 119.859 24.3535 120.239 24.0611C120.634 23.7686 121.124 23.6224 121.709 23.6224C122.411 23.6224 122.944 23.8125 123.31 24.1927C123.69 24.5582 123.909 25.0115 123.968 25.5525H127.411C127.353 24.5875 127.075 23.7321 126.578 22.9864C126.081 22.2406 125.415 21.6631 124.582 21.2537C123.749 20.8296 122.791 20.6176 121.709 20.6176C120.715 20.6176 119.83 20.7858 119.055 21.1221C118.295 21.4584 117.659 21.919 117.147 22.5038C116.635 23.0887 116.248 23.7613 115.984 24.5217C115.721 25.2674 115.59 26.0496 115.59 26.8685V27.2852C115.59 28.0748 115.714 28.8424 115.962 29.5881C116.211 30.3192 116.591 30.9772 117.103 31.5621C117.615 32.1469 118.251 32.6148 119.011 32.9658Z" fill="black"/>
<path d="M147.063 33.4264C145.674 33.4264 144.606 32.9804 143.861 32.0885C143.115 31.1819 142.742 29.8221 142.742 28.009V21.0343H146.251V28.1844C146.251 28.8278 146.434 29.3396 146.8 29.7197C147.165 30.0999 147.655 30.29 148.269 30.29C148.898 30.29 149.41 30.0926 149.805 29.6978C150.199 29.303 150.397 28.7693 150.397 28.0967V21.0343H153.906V33.0535H151.121V30.2654C151.054 30.5391 150.973 30.7959 150.879 31.0357C150.572 31.8399 150.112 32.4394 149.497 32.8342C148.883 33.229 148.123 33.4264 147.216 33.4264H147.063Z" fill="black"/>
<path d="M159.357 23.118C159.251 23.4007 159.163 23.7079 159.094 24.0395V21.0343H156.308V33.0535H159.818V26.0569C159.818 25.3843 160.015 24.8433 160.41 24.4339C160.819 24.0099 161.353 23.7979 162.011 23.7979C162.654 23.7979 163.166 24.0026 163.546 24.412C163.926 24.8214 164.116 25.3478 164.116 25.9911V33.0535H167.626V26.1885C167.626 24.3316 167.253 22.9498 166.507 22.0433C165.776 21.1221 164.709 20.6615 163.305 20.6615H163.151C162.23 20.6615 161.448 20.8662 160.805 21.2756C160.161 21.685 159.679 22.2991 159.357 23.118Z" fill="black"/>
<path d="M175.244 33.207C174.03 33.207 173.051 33.0608 172.305 32.7684C171.559 32.4613 171.011 31.9569 170.66 31.255C170.324 30.5385 170.155 29.5735 170.155 28.3599V23.6005H168.335V21.0343H170.155V17.7883H173.423V21.0343H176.933V23.6005H173.423V28.4915C173.423 29.0617 173.57 29.5004 173.862 29.8075C174.169 30.0999 174.6 30.2461 175.156 30.2461H176.933V33.207H175.244Z" fill="black"/>
<path fill-rule="evenodd" clip-rule="evenodd" d="M134.863 33.536C133.806 33.536 132.867 33.3746 132.046 33.0519C131.224 32.7144 130.527 32.2596 129.955 31.6874C129.397 31.1152 128.972 30.4623 128.678 29.7287C128.385 28.9804 128.238 28.1955 128.238 27.3739V26.8677C128.238 26.0314 128.385 25.2391 128.678 24.4909C128.987 23.728 129.427 23.0604 129.999 22.4882C130.586 21.916 131.29 21.4685 132.112 21.1457C132.933 20.8083 133.85 20.6396 134.863 20.6396C135.904 20.6396 136.829 20.8083 137.636 21.1457C138.457 21.4685 139.154 21.916 139.726 22.4882C140.299 23.0604 140.739 23.728 141.047 24.4909C141.355 25.2391 141.509 26.0314 141.509 26.8677V27.3739C141.509 28.1955 141.362 28.9804 141.069 29.7287C140.775 30.4623 140.343 31.1152 139.77 31.6874C139.213 32.2596 138.523 32.7144 137.702 33.0519C136.88 33.3746 135.934 33.536 134.863 33.536ZM134.87 23.2486C134.87 23.2486 135.719 24.7247 136.481 25.486C137.242 26.2474 138.718 27.097 138.718 27.097C138.718 27.097 137.242 27.9467 136.481 28.708C135.719 29.4693 134.87 30.9454 134.87 30.9454C134.87 30.9454 134.02 29.4693 133.259 28.708C132.497 27.9467 131.021 27.097 131.021 27.097C131.021 27.097 132.497 26.2474 133.259 25.486C134.02 24.7247 134.87 23.2486 134.87 23.2486Z" fill="black"/>
</svg>
