<svg width="24" height="24" viewBox="0 0 24 24" fill="none" xmlns="http://www.w3.org/2000/svg">
<path d="M5.425 9.4L3.55 11.275C3.36667 11.4583 3.1375 11.55 2.8625 11.55C2.5875 11.55 2.35 11.4583 2.15 11.275C1.95 11.075 1.85 10.8375 1.85 10.5625C1.85 10.2875 1.95 10.05 2.15 9.85L5.725 6.275C5.825 6.175 5.93333 6.10417 6.05 6.0625C6.16667 6.02083 6.29167 6 6.425 6C6.55833 6 6.68333 6.02083 6.8 6.0625C6.91667 6.10417 7.025 6.175 7.125 6.275L10.725 9.875C10.925 10.075 11.0208 10.3083 11.0125 10.575C11.0042 10.8417 10.9 11.075 10.7 11.275C10.5 11.4583 10.2667 11.5542 10 11.5625C9.73333 11.5708 9.5 11.475 9.3 11.275L7.425 9.4L7.425 17.15C7.425 17.4333 7.32917 17.6708 7.1375 17.8625C6.94583 18.0542 6.70833 18.15 6.425 18.15C6.14167 18.15 5.90417 18.0542 5.7125 17.8625C5.52083 17.6708 5.425 17.4333 5.425 17.15L5.425 9.4ZM15.425 14.75L15.425 7C15.425 6.71667 15.5208 6.47917 15.7125 6.2875C15.9042 6.09583 16.1417 6 16.425 6C16.7083 6 16.9458 6.09583 17.1375 6.2875C17.3292 6.47917 17.425 6.71667 17.425 7L17.425 14.75L19.3 12.875C19.4833 12.6917 19.7125 12.6 19.9875 12.6C20.2625 12.6 20.5 12.6917 20.7 12.875C20.9 13.075 21 13.3125 21 13.5875C21 13.8625 20.9 14.1 20.7 14.3L17.125 17.875C17.025 17.975 16.9167 18.0458 16.8 18.0875C16.6833 18.1292 16.5583 18.15 16.425 18.15C16.2917 18.15 16.1667 18.1292 16.05 18.0875C15.9333 18.0458 15.825 17.975 15.725 17.875L12.125 14.275C11.925 14.075 11.8292 13.8417 11.8375 13.575C11.8458 13.3083 11.95 13.075 12.15 12.875C12.35 12.6917 12.5833 12.5958 12.85 12.5875C13.1167 12.5792 13.35 12.675 13.55 12.875L15.425 14.75Z" fill="white"/>
</svg>
