<svg width="20" height="20" viewBox="0 0 20 20" fill="none" xmlns="http://www.w3.org/2000/svg">
<path d="M5.7998 17.5C5.34147 17.5 4.94911 17.3368 4.62272 17.0104C4.29633 16.684 4.13314 16.2917 4.13314 15.8333V5C3.89703 5 3.69911 4.92014 3.53939 4.76042C3.37967 4.60069 3.2998 4.40278 3.2998 4.16667C3.2998 3.93056 3.37967 3.73264 3.53939 3.57292C3.69911 3.41319 3.89703 3.33333 4.13314 3.33333H7.46647C7.46647 3.09722 7.54633 2.89931 7.70605 2.73958C7.86578 2.57986 8.06369 2.5 8.2998 2.5H11.6331C11.8692 2.5 12.0672 2.57986 12.2269 2.73958C12.3866 2.89931 12.4665 3.09722 12.4665 3.33333H15.7998C16.0359 3.33333 16.2338 3.41319 16.3936 3.57292C16.5533 3.73264 16.6331 3.93056 16.6331 4.16667C16.6331 4.40278 16.5533 4.60069 16.3936 4.76042C16.2338 4.92014 16.0359 5 15.7998 5V15.8333C15.7998 16.2917 15.6366 16.684 15.3102 17.0104C14.9838 17.3368 14.5915 17.5 14.1331 17.5H5.7998ZM14.1331 5H5.7998V15.8333H14.1331V5ZM8.2998 14.1667C8.53592 14.1667 8.73383 14.0868 8.89355 13.9271C9.05328 13.7674 9.13314 13.5694 9.13314 13.3333V7.5C9.13314 7.26389 9.05328 7.06597 8.89355 6.90625C8.73383 6.74653 8.53592 6.66667 8.2998 6.66667C8.06369 6.66667 7.86578 6.74653 7.70605 6.90625C7.54633 7.06597 7.46647 7.26389 7.46647 7.5V13.3333C7.46647 13.5694 7.54633 13.7674 7.70605 13.9271C7.86578 14.0868 8.06369 14.1667 8.2998 14.1667ZM11.6331 14.1667C11.8692 14.1667 12.0672 14.0868 12.2269 13.9271C12.3866 13.7674 12.4665 13.5694 12.4665 13.3333V7.5C12.4665 7.26389 12.3866 7.06597 12.2269 6.90625C12.0672 6.74653 11.8692 6.66667 11.6331 6.66667C11.397 6.66667 11.1991 6.74653 11.0394 6.90625C10.8797 7.06597 10.7998 7.26389 10.7998 7.5V13.3333C10.7998 13.5694 10.8797 13.7674 11.0394 13.9271C11.1991 14.0868 11.397 14.1667 11.6331 14.1667Z" fill="#FF0420"/>
</svg>
