<svg width="56" height="48" viewBox="0 0 56 48" fill="none" xmlns="http://www.w3.org/2000/svg">
<g filter="url(#filter0_i_342_115264)">
<path d="M3.26676 48C2.77787 48 2.33342 47.8778 1.93342 47.6333C1.53342 47.3889 1.22231 47.0667 1.00009 46.6667C0.777868 46.2667 0.655646 45.8333 0.633423 45.3667C0.611201 44.9 0.733424 44.4444 1.00009 44L25.6668 1.33333C25.9334 0.888889 26.2779 0.555556 26.7001 0.333333C27.1223 0.111111 27.5556 0 28.0001 0C28.4445 0 28.8779 0.111111 29.3001 0.333333C29.7223 0.555556 30.0668 0.888889 30.3334 1.33333L55.0001 44C55.2668 44.4444 55.389 44.9 55.3668 45.3667C55.3445 45.8333 55.2223 46.2667 55.0001 46.6667C54.7779 47.0667 54.4668 47.3889 54.0668 47.6333C53.6668 47.8778 53.2223 48 52.7334 48H3.26676Z" fill="#E8041D"/>
</g>
<path d="M28.6305 40.0013C29.3861 40.0013 30.0194 39.7457 30.5305 39.2346C31.0416 38.7235 31.2972 38.0902 31.2972 37.3346C31.2972 36.5791 31.0416 35.9457 30.5305 35.4346C30.0194 34.9235 29.3861 34.668 28.6305 34.668C27.875 34.668 27.2416 34.9235 26.7305 35.4346C26.2194 35.9457 25.9639 36.5791 25.9639 37.3346C25.9639 38.0902 26.2194 38.7235 26.7305 39.2346C27.2416 39.7457 27.875 40.0013 28.6305 40.0013ZM28.6305 32.0013C29.3861 32.0013 30.0194 31.7457 30.5305 31.2346C31.0416 30.7235 31.2972 30.0902 31.2972 29.3346V21.3346C31.2972 20.5791 31.0416 19.9457 30.5305 19.4346C30.0194 18.9235 29.3861 18.668 28.6305 18.668C27.875 18.668 27.2416 18.9235 26.7305 19.4346C26.2194 19.9457 25.9639 20.5791 25.9639 21.3346V29.3346C25.9639 30.0902 26.2194 30.7235 26.7305 31.2346C27.2416 31.7457 27.875 32.0013 28.6305 32.0013Z" fill="#6B020D"/>
<defs>
<filter id="filter0_i_342_115264" x="0.630859" y="0" width="54.7383" height="48" filterUnits="userSpaceOnUse" color-interpolation-filters="sRGB">
<feFlood flood-opacity="0" result="BackgroundImageFix"/>
<feBlend mode="normal" in="SourceGraphic" in2="BackgroundImageFix" result="shape"/>
<feColorMatrix in="SourceAlpha" type="matrix" values="0 0 0 0 0 0 0 0 0 0 0 0 0 0 0 0 0 0 127 0" result="hardAlpha"/>
<feOffset dy="-2.66667"/>
<feComposite in2="hardAlpha" operator="arithmetic" k2="-1" k3="1"/>
<feColorMatrix type="matrix" values="0 0 0 0 0 0 0 0 0 0 0 0 0 0 0 0 0 0 0.35 0"/>
<feBlend mode="normal" in2="shape" result="effect1_innerShadow_342_115264"/>
</filter>
</defs>
</svg>
