<svg viewBox="0 0 28 32" fill="none" xmlns="http://www.w3.org/2000/svg">
<path fill-rule="evenodd" clip-rule="evenodd" d="M11.0526 0H16.9474C17.3543 0 17.6842 0.367356 17.6842 0.820513V2.46154C17.6842 2.9147 18.0141 3.28205 18.4211 3.28205H22.1053C22.5122 3.28205 22.8421 3.64941 22.8421 4.10256V5.74359C22.8421 6.19675 23.172 6.5641 23.5789 6.5641H24.2316C24.6385 6.5641 24.9684 6.93146 24.9684 7.38462V15.5897C24.9684 16.0429 25.2983 16.4103 25.7053 16.4103H27.2632C27.6701 16.4103 28 16.7776 28 17.2308V22.9744C28 23.4275 27.6701 23.7949 27.2632 23.7949H25.7895C25.3825 23.7949 25.0526 24.1622 25.0526 24.6154C25.0526 25.0685 24.7227 25.4359 24.3158 25.4359H19.8947C19.4878 25.4359 19.1579 25.8033 19.1579 26.2564V28.7179C19.1579 29.1711 18.828 29.5385 18.4211 29.5385H18.3788C17.9718 29.5385 17.6419 29.9058 17.6419 30.359V31.1795C17.6419 31.6326 17.312 32 16.9051 32H11.0949C10.688 32 10.3581 31.6326 10.3581 31.1795V30.359C10.3581 29.9058 10.0282 29.5385 9.62122 29.5385H9.57895C9.172 29.5385 8.8421 29.1711 8.8421 28.7179V26.2564C8.8421 25.8033 8.51221 25.4359 8.10526 25.4359H3.68421C3.27726 25.4359 2.94737 25.0685 2.94737 24.6154C2.94737 24.1622 2.61747 23.7949 2.21053 23.7949H0.736842C0.329895 23.7949 0 23.4275 0 22.9744V17.2308C0 16.7776 0.329895 16.4103 0.736842 16.4103H2.29472C2.70167 16.4103 3.03156 16.0429 3.03156 15.5897V7.38462C3.03156 6.93146 3.36146 6.5641 3.76841 6.5641H4.42105C4.828 6.5641 5.15789 6.19675 5.15789 5.74359V4.10256C5.15789 3.64941 5.48779 3.28205 5.89474 3.28205H9.57895C9.98589 3.28205 10.3158 2.9147 10.3158 2.46154V0.820513C10.3158 0.367356 10.6457 0 11.0526 0ZM15.3895 28.7179C15.7964 28.7179 16.1263 28.3506 16.1263 27.8974V26.2564C16.1263 25.8033 15.7964 25.4359 15.3895 25.4359H12.6105C12.2036 25.4359 11.8737 25.8033 11.8737 26.2564V27.8974C11.8737 28.3506 12.2036 28.7179 12.6105 28.7179H15.3895ZM24.2316 22.1538C24.6385 22.1538 24.9684 21.7865 24.9684 21.3333V18.0513C24.9684 17.5981 24.6385 17.2308 24.2316 17.2308H22.6737C22.2668 17.2308 21.9369 16.8634 21.9369 16.4103V7.38462C21.9369 6.93146 21.607 6.5641 21.2 6.5641H6.79999C6.39304 6.5641 6.06314 6.93146 6.06314 7.38462V16.4103C6.06314 16.8634 5.73325 17.2308 5.3263 17.2308H3.76842C3.36147 17.2308 3.03158 17.5981 3.03158 18.0513V21.3333C3.03158 21.7865 3.36147 22.1538 3.76842 22.1538H24.2316Z" fill="#121312"/>
</svg>
