<svg width="25" height="25" viewBox="0 0 25 25" fill="none" xmlns="http://www.w3.org/2000/svg">
<path fill-rule="evenodd" clip-rule="evenodd" d="M10.5373 2.51258C5.83461 3.4881 2.301 7.64679 2.301 12.6291C2.301 12.9786 2.31835 13.3238 2.35217 13.6638C2.41495 14.2947 1.95327 14.857 1.32097 14.9197C0.688679 14.9823 0.125212 14.5216 0.0624349 13.8906C0.0211211 13.4754 0 13.0545 0 12.6291C0 5.65423 5.66605 0 12.6555 0C13.0665 0 13.4464 0.218846 13.6519 0.574095C13.8574 0.929343 13.8573 1.36702 13.6518 1.72224L11.3265 5.74059C11.0087 6.28968 10.3051 6.47777 9.75481 6.16068C9.20456 5.84359 9.01609 5.1414 9.33384 4.59231L10.5373 2.51258ZM17.6127 1.21451C17.0462 0.964456 16.3864 1.22569 16.1388 1.798C15.8913 2.3703 16.1499 3.03695 16.7164 3.287C20.2768 4.85855 22.7614 8.44648 22.7614 12.6182C22.7614 13.7291 22.5856 14.7973 22.2607 15.7967L21.0902 13.7489C20.781 13.2081 20.0964 13.0228 19.561 13.3352C19.0257 13.6475 18.8423 14.3391 19.1515 14.88L21.4139 18.8379C21.6138 19.1876 21.9832 19.4031 22.3829 19.4032C22.7826 19.4034 23.1521 19.1882 23.3522 18.8386C24.4005 17.0078 25.0001 14.882 25.0001 12.6182C25.0001 7.51553 21.9591 3.13299 17.6127 1.21451ZM2.63428 17.1641C2.22608 17.1641 1.84891 17.3776 1.64496 17.7242C1.44101 18.0707 1.44128 18.4977 1.64568 18.844C3.81613 22.5215 7.87578 24.9999 12.5273 24.9999C15.354 24.9999 17.9648 24.0835 20.0634 22.5468C20.5687 22.1768 20.6723 21.4754 20.2948 20.9801C19.9173 20.4848 19.2016 20.3833 18.6963 20.7533C16.9774 22.012 14.8427 22.7611 12.5273 22.7611C9.48402 22.7611 6.74865 21.4651 4.86558 19.4029H7.38788C8.01864 19.4029 8.52997 18.9017 8.52997 18.2835C8.52997 17.6652 8.01864 17.1641 7.38788 17.1641H2.63428ZM12.5003 7.8359C9.92433 7.8359 7.8361 9.92413 7.8361 12.5001C7.8361 15.076 9.92433 17.1643 12.5003 17.1643C15.0762 17.1643 17.1645 15.076 17.1645 12.5001C17.1645 9.92413 15.0762 7.8359 12.5003 7.8359ZM10.1682 12.5001C10.1682 11.2121 11.2123 10.168 12.5003 10.168C13.7883 10.168 14.8324 11.2121 14.8324 12.5001C14.8324 13.788 13.7883 14.8322 12.5003 14.8322C11.2123 14.8322 10.1682 13.788 10.1682 12.5001Z" fill="url(#paint0_linear_14529_22780)"/>
<defs>
<linearGradient id="paint0_linear_14529_22780" x1="0" y1="12.4999" x2="25.0001" y2="12.4999" gradientUnits="userSpaceOnUse">
<stop stop-color="#32F970"/>
<stop offset="0.86" stop-color="#EED509"/>
</linearGradient>
</defs>
</svg>
