<svg width="28" height="25" viewBox="0 0 28 25" fill="none" xmlns="http://www.w3.org/2000/svg">
<path fill-rule="evenodd" clip-rule="evenodd" d="M23.6667 4.63082C23.287 4.22969 22.6541 4.21224 22.253 4.59186C21.8518 4.97147 21.8344 5.6044 22.214 6.00553L22.9403 5.31818L22.214 6.00554L22.2141 6.00563L22.2145 6.00607L22.2163 6.00795L22.2236 6.01569L22.2526 6.04645L22.3638 6.16459C22.4598 6.26679 22.5972 6.41345 22.7621 6.59075C23.0923 6.9457 23.5314 7.42181 23.9696 7.90891C24.4098 8.39828 24.8406 8.88939 25.158 9.27715C25.3009 9.45167 25.4109 9.59327 25.4858 9.69797V9.71234V9.72714V9.742V9.7569V9.77185V9.78685V9.8019V9.817V9.83214V9.84733V9.86257V9.87785V9.89318V9.90856V9.92398V9.93945V9.95496V9.97052V9.98612V10.0018V10.0175V10.0332V10.049V10.0648V10.0807V10.0966V10.1125V10.1285V10.1446V10.1606V10.1768V10.1929V10.2091V10.2254V10.2417V10.258V10.2744V10.2908V10.3072V10.3237V10.3402V10.3568V10.3734V10.39V10.4067V10.4234V10.4402V10.4569V10.4738V10.4906V10.5075V10.5245V10.5414V10.5585V10.5755V10.5926V10.6097V10.6268V10.644V10.6612V10.6785V10.6958V10.7131V10.7304V10.7478V10.7652V10.7827V10.8001V10.8176V10.8352V10.8528V10.8704V10.888V10.9057V10.9234V10.9411V10.9588V10.9766V10.9944V11.0123V11.0301V11.048V11.066V11.0839V11.1019V11.1199V11.1379V11.156V11.1741V11.1922V11.2103V11.2285V11.2467V11.2649V11.2831V11.3014V11.3197V11.338V11.3563V11.3747V11.3931V11.4115V11.4299V11.4484V11.4668V11.4853V11.5038V11.5224V11.5409V11.5595V11.5781V11.5967V11.6154V11.634V11.6527V11.6714V11.6901V11.7089V11.7276V11.7464V11.7652V11.784V11.8028V11.8217V11.8405V11.8594V11.8783V11.8972V11.9161V11.9351V11.954V11.973V11.992V12.011V12.03V12.049V12.0681V12.0871V12.1062V12.1253V12.1444V12.1635V12.1826V12.2017V12.2209V12.24V12.2592V12.2784V12.2975V12.3167V12.3359V12.3552V12.3744V12.3936V12.4129V12.4321V12.4514V12.4706V12.4899V12.5092V12.5285V12.5478V12.5671V12.5864V12.6057V12.625V12.6444V12.6637V12.683V12.7024V12.7217V12.7411V12.7605V12.7798V12.7992V12.8186V12.8379V12.8573V12.8767V12.8961V12.9154V12.9348V12.9542V12.9736V12.993V13.0124V13.0318V13.0511V13.0705V13.0899V13.1093V13.1287V13.1481V13.1675V13.1869V13.2062V13.2256V13.245V13.2644V13.2837V13.3031V13.3225V13.3418V13.3612V13.3805V13.3999V13.4192V13.4386V13.4579V13.4772V13.4965V13.5159V13.5352V13.5545V13.5738V13.5931V13.6123V13.6316V13.6509V13.6701V13.6894V13.7086V13.7278V13.7471V13.7663V13.7855V13.8047V13.8239V13.843V13.8622V13.8813V13.9005V13.9196V13.9387V13.9578V13.9769V13.996V14.015V14.0341V14.0531V14.0721V14.0912V14.1101V14.1291V14.1481V14.167V14.186V14.2049V14.2238V14.2427V14.2616V14.2804V14.2992V14.3181V14.3369V14.3556V14.3744V14.3932V14.4119V14.4306V14.4493V14.468V14.4866V14.5052V14.5239V14.5425V14.561V14.5796V14.5981V14.6166V14.6351V14.6536V14.672V14.6904V14.7088V14.7272V14.7455V14.7639V14.7822V14.8004V14.8187V14.8369V14.8551V14.8733V14.8915V14.9096V14.9277V14.9458V14.9638V14.9818V14.9998V15.0178V15.0358V15.0537V15.0716V15.0894V15.1072V15.125V15.1428V15.1606V15.1783V15.1959V15.2136V15.2312V15.2488V15.2664V15.2839V15.3014V15.3189V15.3363V15.3537V15.3711V15.3884V15.4057V15.423V15.4402V15.4574V15.4746V15.4917V15.5088V15.5259V15.5429V15.5599V15.5768V15.5938V15.6107V15.6275V15.6443V15.6611V15.6778V15.6945V15.7112V15.7278V15.7444V15.7609V15.7774V15.7939V15.8103V15.8267V15.8431V15.8594V15.8757V15.8919V15.9081V15.9242V15.9403V15.9564V15.9724V15.9884V16.0043V16.0202V16.0361V16.0519V16.0676V16.0834V16.099V16.1147V16.1302V16.1458V16.1613V16.1767V16.1921V16.2075V16.2228V16.2381V16.2533V16.2685V16.2836V16.2987V16.3137V16.3287V16.3436V16.3585V16.3733V16.3881V16.4028V16.4175V16.4322V16.4468V16.4613V16.4758V16.4902V16.5046V16.5189V16.5332V16.5474V16.5616V16.5757V16.5898V16.6038V16.6178V16.6317V16.6455V16.6593V16.6731V16.6868V16.7004V16.714V16.7275V16.741V16.7544V16.7678V16.7811V16.7943V16.8075V16.8206V16.8337V16.8467V16.8597V16.8726V16.8854V16.8982V16.9109V16.9236V16.9362V16.9487V16.9612V16.9736V16.986V16.9983V17.0105V17.0227V17.0348V17.0468V17.0588V17.0708V17.0826V17.0944V17.1062V17.1178V17.1294V17.141V17.1525V17.1639V17.1752V17.1865V17.1977V17.2089V17.22V17.231V17.242V17.2528V17.2637V17.2744V17.2851V17.2957V17.3063V17.3167V17.3272V17.3375V17.3478V17.358V17.3681V17.3782V17.3882V17.3981V17.408V17.4177V17.4275V17.4371V17.4467V17.4562V17.4656V17.4749V17.4842V17.4934V17.5025V17.5116V17.5206V17.5295V17.5383V17.5471V17.5558V17.5644V17.5729V17.5814V17.5897V17.598V17.6063V17.6144V17.6225V17.6305V17.6384V17.6462V17.654V17.6617V17.6693V17.6768V17.6843V17.6916V17.6989V17.7061V17.7133V17.7203V17.7273C25.4858 17.9553 25.4051 18.0725 25.3044 18.1537C25.1787 18.2549 24.9681 18.3341 24.7131 18.3341C24.458 18.3341 24.2474 18.2549 24.1217 18.1537C24.021 18.0725 23.9403 17.9553 23.9403 17.7273V17.7248V17.7224V17.7199V17.7174V17.7149V17.7125V17.71V17.7075V17.705V17.7025V17.7V17.6976V17.6951V17.6926V17.69V17.6875V17.685V17.6825V17.68V17.6775V17.6749V17.6724V17.6699V17.6674V17.6648V17.6623V17.6597V17.6572V17.6546V17.6521V17.6495V17.647V17.6444V17.6418V17.6393V17.6367V17.6341V17.6315V17.629V17.6264V17.6238V17.6212V17.6186V17.616V17.6134V17.6108V17.6082V17.6056V17.603V17.6003V17.5977V17.5951V17.5925V17.5899V17.5872V17.5846V17.5819V17.5793V17.5767V17.574V17.5714V17.5687V17.5661V17.5634V17.5607V17.5581V17.5554V17.5527V17.5501V17.5474V17.5447V17.542V17.5393V17.5367V17.534V17.5313V17.5286V17.5259V17.5232V17.5205V17.5178V17.5151V17.5123V17.5096V17.5069V17.5042V17.5015V17.4987V17.496V17.4933V17.4905V17.4878V17.4851V17.4823V17.4796V17.4768V17.4741V17.4713V17.4686V17.4658V17.463V17.4603V17.4575V17.4547V17.452V17.4492V17.4464V17.4436V17.4408V17.4381V17.4353V17.4325V17.4297V17.4269V17.4241V17.4213V17.4185V17.4157V17.4129V17.41V17.4072V17.4044V17.4016V17.3988V17.3959V17.3931V17.3903V17.3874V17.3846V17.3818V17.3789V17.3761V17.3732V17.3704V17.3675V17.3647V17.3618V17.359V17.3561V17.3533V17.3504V17.3475V17.3447V17.3418V17.3389V17.336V17.3332V17.3303V17.3274V17.3245V17.3216V17.3187V17.3158V17.3129V17.31V17.3071V17.3042V17.3013V17.2984V17.2955V17.2926V17.2897V17.2868V17.2839V17.2809V17.278V17.2751V17.2722V17.2692V17.2663V17.2634V17.2604V17.2575V17.2546V17.2516V17.2487V17.2457V17.2428V17.2398V17.2369V17.2339V17.231V17.228V17.225V17.2221V17.2191V17.2161V17.2132V17.2102V17.2072V17.2042V17.2013V17.1983V17.1953V17.1923V17.1893V17.1863V17.1833V17.1804V17.1774V17.1744V17.1714V17.1684V17.1654V17.1624V17.1594V17.1563V17.1533V17.1503V17.1473V17.1443V17.1413V17.1383V17.1352V17.1322V17.1292V17.1262V17.1231V17.1201V17.1171V17.114V17.111V17.108V17.1049V17.1019V17.0988V17.0958V17.0927V17.0897V17.0866V17.0836V17.0805V17.0775V17.0744V17.0714V17.0683V17.0652V17.0622V17.0591V17.056V17.053V17.0499V17.0468V17.0437V17.0407V17.0376V17.0345V17.0314V17.0283V17.0252V17.0222V17.0191V17.016V17.0129V17.0098V17.0067V17.0036V17.0005V16.9974V16.9943V16.9912V16.9881V16.985V16.9819V16.9788V16.9757V16.9726V16.9694V16.9663V16.9632V16.9601V16.957V16.9538V16.9507V16.9476V16.9445V16.9413V16.9382V16.9351V16.932V16.9288V16.9257V16.9226V16.9194V16.9163V16.9131V16.91V16.9069V16.9037V16.9006V16.8974V16.8943V16.8911V16.888V16.8848V16.8817V16.8785V16.8754V16.8722V16.869V16.8659V16.8627V16.8596V16.8564V16.8532V16.8501V16.8469V16.8437V16.8406V16.8374V16.8342V16.831V16.8279V16.8247V16.8215V16.8183V16.8152V16.812V16.8088V16.8056V16.8024V16.7992V16.7961V16.7929V16.7897V16.7865V16.7833V16.7801V16.7769V16.7737V16.7705V16.7673V16.7641V16.7609V16.7577V16.7545V16.7513V16.7481V16.7449V16.7417V16.7385V16.7353V16.7321V16.7289V16.7257V16.7225V16.7193V16.7161V16.7128V16.7096V16.7064V16.7032V16.7V16.6968V16.6936V16.6903V16.6871V16.6839V16.6807V16.6774V16.6742V16.671V16.6678V16.6645V16.6613V16.6581V16.6549V16.6516V16.6484V16.6452V16.6419V16.6387V16.6355V16.6322V16.629V16.6258V16.6225V16.6193V16.6161V16.6128V16.6096V16.6063V16.6031V16.5999V16.5966V16.5934V16.5901V16.5869V16.5836V16.5804V16.5771V16.5739V16.5707V16.5674V16.5642V16.5609V16.5577V16.5544V16.5512V16.5479V16.5447V16.5414V16.5381V16.5349V16.5316V16.5284V16.5251V16.5219V16.5186V16.5154V16.5121V16.5088V16.5056V16.5023V16.4991V16.4958V16.4925V16.4893V16.486V16.4828V16.4795V16.4762V16.473V16.4697V16.4664V16.4632V16.4599V16.4567V16.4534V16.4501V16.4469V16.4436V16.4403V16.4371V16.4338V16.4305V16.4273V16.424V16.4207V16.4174V16.4142V16.4109V16.4076V16.4044V16.4011V16.3978V16.3946V16.3913V16.388V16.3847V16.3815V16.3782V16.3749V16.3717V16.3684V16.3651V16.3618V16.3586V16.3553V16.352V16.3487V16.3455V16.3422V16.3389V16.3356V16.3324V16.3291V16.3258V16.3226V16.3193V16.316V16.3127V16.3095V16.3062V16.3029V16.2996V16.2964V16.2931V16.2898V16.2865V16.2833V16.28V16.2767V16.2734V16.2702V16.2669V16.2636V16.2603V16.2571V16.2538V16.2505V16.2472V16.244V16.2407V16.2374V16.2341V16.2309V16.2276V16.2243V16.221V16.2178V16.2145V16.2112V16.2079V16.2047V16.2014V16.1981V16.1948V16.1916V16.1883V16.185V16.1818C23.9403 14.5249 22.5972 13.1818 20.9403 13.1818H19.2182L19.1998 13.1634C19.2085 13.1102 19.2131 13.0556 19.2131 13C19.2131 12.4477 18.7654 12 18.2131 12H4.03125C3.47897 12 3.03125 12.4477 3.03125 13C3.03125 13.5523 3.47897 14 4.03125 14H17.2079L18.0969 14.8889L18.3898 15.1818H18.804H20.9403C21.4927 15.1818 21.9403 15.6295 21.9403 16.1818V16.185V16.1883V16.1916V16.1948V16.1981V16.2014V16.2047V16.2079V16.2112V16.2145V16.2178V16.221V16.2243V16.2276V16.2309V16.2341V16.2374V16.2407V16.244V16.2472V16.2505V16.2538V16.2571V16.2603V16.2636V16.2669V16.2702V16.2734V16.2767V16.28V16.2833V16.2865V16.2898V16.2931V16.2964V16.2996V16.3029V16.3062V16.3095V16.3127V16.316V16.3193V16.3226V16.3258V16.3291V16.3324V16.3356V16.3389V16.3422V16.3455V16.3487V16.352V16.3553V16.3586V16.3618V16.3651V16.3684V16.3717V16.3749V16.3782V16.3815V16.3847V16.388V16.3913V16.3946V16.3978V16.4011V16.4044V16.4076V16.4109V16.4142V16.4174V16.4207V16.424V16.4273V16.4305V16.4338V16.4371V16.4403V16.4436V16.4469V16.4501V16.4534V16.4567V16.4599V16.4632V16.4664V16.4697V16.473V16.4762V16.4795V16.4828V16.486V16.4893V16.4925V16.4958V16.4991V16.5023V16.5056V16.5088V16.5121V16.5154V16.5186V16.5219V16.5251V16.5284V16.5316V16.5349V16.5381V16.5414V16.5447V16.5479V16.5512V16.5544V16.5577V16.5609V16.5642V16.5674V16.5707V16.5739V16.5771V16.5804V16.5836V16.5869V16.5901V16.5934V16.5966V16.5999V16.6031V16.6063V16.6096V16.6128V16.6161V16.6193V16.6225V16.6258V16.629V16.6322V16.6355V16.6387V16.6419V16.6452V16.6484V16.6516V16.6549V16.6581V16.6613V16.6645V16.6678V16.671V16.6742V16.6774V16.6807V16.6839V16.6871V16.6903V16.6936V16.6968V16.7V16.7032V16.7064V16.7096V16.7128V16.7161V16.7193V16.7225V16.7257V16.7289V16.7321V16.7353V16.7385V16.7417V16.7449V16.7481V16.7513V16.7545V16.7577V16.7609V16.7641V16.7673V16.7705V16.7737V16.7769V16.7801V16.7833V16.7865V16.7897V16.7929V16.7961V16.7992V16.8024V16.8056V16.8088V16.812V16.8152V16.8183V16.8215V16.8247V16.8279V16.831V16.8342V16.8374V16.8406V16.8437V16.8469V16.8501V16.8532V16.8564V16.8596V16.8627V16.8659V16.869V16.8722V16.8754V16.8785V16.8817V16.8848V16.888V16.8911V16.8943V16.8974V16.9006V16.9037V16.9069V16.91V16.9131V16.9163V16.9194V16.9226V16.9257V16.9288V16.932V16.9351V16.9382V16.9413V16.9445V16.9476V16.9507V16.9538V16.957V16.9601V16.9632V16.9663V16.9694V16.9726V16.9757V16.9788V16.9819V16.985V16.9881V16.9912V16.9943V16.9974V17.0005V17.0036V17.0067V17.0098V17.0129V17.016V17.0191V17.0222V17.0252V17.0283V17.0314V17.0345V17.0376V17.0407V17.0437V17.0468V17.0499V17.053V17.056V17.0591V17.0622V17.0652V17.0683V17.0714V17.0744V17.0775V17.0805V17.0836V17.0866V17.0897V17.0927V17.0958V17.0988V17.1019V17.1049V17.108V17.111V17.114V17.1171V17.1201V17.1231V17.1262V17.1292V17.1322V17.1352V17.1383V17.1413V17.1443V17.1473V17.1503V17.1533V17.1563V17.1594V17.1624V17.1654V17.1684V17.1714V17.1744V17.1774V17.1804V17.1833V17.1863V17.1893V17.1923V17.1953V17.1983V17.2013V17.2042V17.2072V17.2102V17.2132V17.2161V17.2191V17.2221V17.225V17.228V17.231V17.2339V17.2369V17.2398V17.2428V17.2457V17.2487V17.2516V17.2546V17.2575V17.2604V17.2634V17.2663V17.2692V17.2722V17.2751V17.278V17.2809V17.2839V17.2868V17.2897V17.2926V17.2955V17.2984V17.3013V17.3042V17.3071V17.31V17.3129V17.3158V17.3187V17.3216V17.3245V17.3274V17.3303V17.3332V17.336V17.3389V17.3418V17.3447V17.3475V17.3504V17.3533V17.3561V17.359V17.3618V17.3647V17.3675V17.3704V17.3732V17.3761V17.3789V17.3818V17.3846V17.3874V17.3903V17.3931V17.3959V17.3988V17.4016V17.4044V17.4072V17.41V17.4129V17.4157V17.4185V17.4213V17.4241V17.4269V17.4297V17.4325V17.4353V17.4381V17.4408V17.4436V17.4464V17.4492V17.452V17.4547V17.4575V17.4603V17.463V17.4658V17.4686V17.4713V17.4741V17.4768V17.4796V17.4823V17.4851V17.4878V17.4905V17.4933V17.496V17.4987V17.5015V17.5042V17.5069V17.5096V17.5123V17.5151V17.5178V17.5205V17.5232V17.5259V17.5286V17.5313V17.534V17.5367V17.5393V17.542V17.5447V17.5474V17.5501V17.5527V17.5554V17.5581V17.5607V17.5634V17.5661V17.5687V17.5714V17.574V17.5767V17.5793V17.5819V17.5846V17.5872V17.5899V17.5925V17.5951V17.5977V17.6003V17.603V17.6056V17.6082V17.6108V17.6134V17.616V17.6186V17.6212V17.6238V17.6264V17.629V17.6315V17.6341V17.6367V17.6393V17.6418V17.6444V17.647V17.6495V17.6521V17.6546V17.6572V17.6597V17.6623V17.6648V17.6674V17.6699V17.6724V17.6749V17.6775V17.68V17.6825V17.685V17.6875V17.69V17.6926V17.6951V17.6976V17.7V17.7025V17.705V17.7075V17.71V17.7125V17.7149V17.7174V17.7199V17.7224V17.7248V17.7273C21.9403 18.5704 22.3029 19.2566 22.8669 19.7111C23.406 20.1454 24.0818 20.3341 24.7131 20.3341C25.3444 20.3341 26.0202 20.1454 26.5592 19.7111C27.1233 19.2566 27.4858 18.5704 27.4858 17.7273V17.7203V17.7133V17.7061V17.6989V17.6916V17.6843V17.6768V17.6693V17.6617V17.654V17.6462V17.6384V17.6305V17.6225V17.6144V17.6063V17.598V17.5897V17.5814V17.5729V17.5644V17.5558V17.5471V17.5383V17.5295V17.5206V17.5116V17.5025V17.4934V17.4842V17.4749V17.4656V17.4562V17.4467V17.4371V17.4275V17.4177V17.408V17.3981V17.3882V17.3782V17.3681V17.358V17.3478V17.3375V17.3272V17.3167V17.3063V17.2957V17.2851V17.2744V17.2637V17.2528V17.242V17.231V17.22V17.2089V17.1977V17.1865V17.1752V17.1639V17.1525V17.141V17.1294V17.1178V17.1062V17.0944V17.0826V17.0708V17.0588V17.0468V17.0348V17.0227V17.0105V16.9983V16.986V16.9736V16.9612V16.9487V16.9362V16.9236V16.9109V16.8982V16.8854V16.8726V16.8597V16.8467V16.8337V16.8206V16.8075V16.7943V16.7811V16.7678V16.7544V16.741V16.7275V16.714V16.7004V16.6868V16.6731V16.6593V16.6455V16.6317V16.6178V16.6038V16.5898V16.5757V16.5616V16.5474V16.5332V16.5189V16.5046V16.4902V16.4758V16.4613V16.4468V16.4322V16.4175V16.4028V16.3881V16.3733V16.3585V16.3436V16.3287V16.3137V16.2987V16.2836V16.2685V16.2533V16.2381V16.2228V16.2075V16.1921V16.1767V16.1613V16.1458V16.1302V16.1147V16.099V16.0834V16.0676V16.0519V16.0361V16.0202V16.0043V15.9884V15.9724V15.9564V15.9403V15.9242V15.9081V15.8919V15.8757V15.8594V15.8431V15.8267V15.8103V15.7939V15.7774V15.7609V15.7444V15.7278V15.7112V15.6945V15.6778V15.6611V15.6443V15.6275V15.6107V15.5938V15.5768V15.5599V15.5429V15.5259V15.5088V15.4917V15.4746V15.4574V15.4402V15.423V15.4057V15.3884V15.3711V15.3537V15.3363V15.3189V15.3014V15.2839V15.2664V15.2488V15.2312V15.2136V15.1959V15.1783V15.1606V15.1428V15.125V15.1072V15.0894V15.0716V15.0537V15.0358V15.0178V14.9998V14.9818V14.9638V14.9458V14.9277V14.9096V14.8915V14.8733V14.8551V14.8369V14.8187V14.8004V14.7822V14.7639V14.7455V14.7272V14.7088V14.6904V14.672V14.6536V14.6351V14.6166V14.5981V14.5796V14.561V14.5425V14.5239V14.5052V14.4866V14.468V14.4493V14.4306V14.4119V14.3932V14.3744V14.3556V14.3369V14.3181V14.2992V14.2804V14.2616V14.2427V14.2238V14.2049V14.186V14.167V14.1481V14.1291V14.1101V14.0912V14.0721V14.0531V14.0341V14.015V13.996V13.9769V13.9578V13.9387V13.9196V13.9005V13.8813V13.8622V13.843V13.8239V13.8047V13.7855V13.7663V13.7471V13.7278V13.7086V13.6894V13.6701V13.6509V13.6316V13.6123V13.5931V13.5738V13.5545V13.5352V13.5159V13.4965V13.4772V13.4579V13.4386V13.4192V13.3999V13.3805V13.3612V13.3418V13.3225V13.3031V13.2837V13.2644V13.245V13.2256V13.2062V13.1869V13.1675V13.1481V13.1287V13.1093V13.0899V13.0705V13.0511V13.0318V13.0124V12.993V12.9736V12.9542V12.9348V12.9154V12.8961V12.8767V12.8573V12.8379V12.8186V12.7992V12.7798V12.7605V12.7411V12.7217V12.7024V12.683V12.6637V12.6444V12.625V12.6057V12.5864V12.5671V12.5478V12.5285V12.5092V12.4899V12.4706V12.4514V12.4321V12.4129V12.3936V12.3744V12.3552V12.3359V12.3167V12.2975V12.2784V12.2592V12.24V12.2209V12.2017V12.1826V12.1635V12.1444V12.1253V12.1062V12.0871V12.0681V12.049V12.03V12.011V11.992V11.973V11.954V11.9351V11.9161V11.8972V11.8783V11.8594V11.8405V11.8217V11.8028V11.784V11.7652V11.7464V11.7276V11.7089V11.6901V11.6714V11.6527V11.634V11.6154V11.5967V11.5781V11.5595V11.5409V11.5224V11.5038V11.4853V11.4668V11.4484V11.4299V11.4115V11.3931V11.3747V11.3563V11.338V11.3197V11.3014V11.2831V11.2649V11.2467V11.2285V11.2103V11.1922V11.1741V11.156V11.1379V11.1199V11.1019V11.0839V11.066V11.048V11.0301V11.0123V10.9944V10.9766V10.9588V10.9411V10.9234V10.9057V10.888V10.8704V10.8528V10.8352V10.8176V10.8001V10.7827V10.7652V10.7478V10.7304V10.7131V10.6958V10.6785V10.6612V10.644V10.6268V10.6097V10.5926V10.5755V10.5585V10.5414V10.5245V10.5075V10.4906V10.4738V10.4569V10.4402V10.4234V10.4067V10.39V10.3734V10.3568V10.3402V10.3237V10.3072V10.2908V10.2744V10.258V10.2417V10.2254V10.2091V10.1929V10.1768V10.1606V10.1446V10.1285V10.1125V10.0966V10.0807V10.0648V10.049V10.0332V10.0175V10.0018V9.98612V9.97052V9.95496V9.93945V9.92398V9.90856V9.89318V9.87785V9.86257V9.84733V9.83214V9.817V9.8019V9.78685V9.77185V9.7569V9.742V9.72714V9.71234V9.69758V9.68288V9.66822V9.65362V9.63906V9.62455V9.6101V9.5957V9.58135V9.56705V9.5528V9.5386V9.52446V9.51037V9.49633V9.48235V9.46842V9.45454C27.4858 9.27421 27.4393 9.13262 27.4159 9.06787C27.3878 8.99028 27.3552 8.92373 27.329 8.87452C27.2766 8.77599 27.2137 8.67932 27.1551 8.59489C27.0357 8.42268 26.8776 8.22046 26.7056 8.01032C26.3583 7.58595 25.9027 7.06734 25.4565 6.57136C25.0083 6.07312 24.5611 5.58824 24.2265 5.22855C24.059 5.04853 23.9194 4.89946 23.8215 4.79525L23.7077 4.67425L23.6774 4.64219L23.6695 4.63384L23.6674 4.63165L23.6669 4.63107L23.6667 4.6309C23.6667 4.63086 23.6667 4.63082 22.9403 5.31818L23.6667 4.63082Z" fill="url(#paint0_linear_14529_22809)"/>
<path d="M3.85156 2C3.85156 1.44772 4.29928 1 4.85156 1H17.397C17.9493 1 18.397 1.44772 18.397 2V23.8182H3.85156V2Z" stroke="url(#paint1_linear_14529_22809)" stroke-width="2"/>
<path d="M1.66797 23.6364H20.5771" stroke="url(#paint2_linear_14529_22809)" stroke-width="2" stroke-linecap="round"/>
<defs>
<linearGradient id="paint0_linear_14529_22809" x1="3.03125" y1="12.3261" x2="27.4858" y2="12.3261" gradientUnits="userSpaceOnUse">
<stop offset="0.095" stop-color="#32F970"/>
<stop offset="1" stop-color="#EED509"/>
</linearGradient>
<linearGradient id="paint1_linear_14529_22809" x1="2.85156" y1="12.4091" x2="19.397" y2="12.4091" gradientUnits="userSpaceOnUse">
<stop offset="0.095" stop-color="#32F970"/>
<stop offset="1" stop-color="#EED509"/>
</linearGradient>
<linearGradient id="paint2_linear_14529_22809" x1="1.66797" y1="24.1364" x2="20.5771" y2="24.1364" gradientUnits="userSpaceOnUse">
<stop offset="0.095" stop-color="#32F970"/>
<stop offset="1" stop-color="#EED509"/>
</linearGradient>
</defs>
</svg>
