<svg width="23" height="24" viewBox="0 0 23 24" fill="none" xmlns="http://www.w3.org/2000/svg">
<path d="M21.2297 11.9983H18.8394C18.1255 11.9983 17.5471 12.5769 17.5471 13.2909V16.761C17.5471 17.4751 16.9686 18.0537 16.2547 18.0537H6.74547C6.03158 18.0537 5.45312 18.6322 5.45312 19.3463V21.7371C5.45312 22.4511 6.03158 23.0297 6.74547 23.0297H16.8051C17.519 23.0297 18.0893 22.4511 18.0893 21.7371V19.8189C18.0893 19.1049 18.6677 18.5984 19.3816 18.5984H21.2292C21.9431 18.5984 22.5215 18.0198 22.5215 17.3057V13.2759C22.5215 12.5619 21.9431 11.9983 21.2292 11.9983H21.2297Z" fill="url(#paint0_radial_14819_30068)"/>
<path d="M5.4515 7.24869C5.4515 6.53464 6.02996 5.95605 6.74385 5.95605H16.2473C16.9612 5.95605 17.5396 5.37746 17.5396 4.66341V2.27262C17.5396 1.55857 16.9612 0.97998 16.2473 0.97998H6.19296C5.47907 0.97998 4.90061 1.55857 4.90061 2.27262V4.11482C4.90061 4.82886 4.32215 5.40745 3.60827 5.40745H1.76891C1.05502 5.40745 0.476562 5.98604 0.476562 6.70009V10.7343C0.476562 11.4483 1.05744 11.9979 1.77132 11.9979H4.16158C4.87546 11.9979 5.45392 11.4193 5.45392 10.7052L5.4515 7.24917V7.24869Z" fill="url(#paint1_radial_14819_30068)"/>
<path d="M10.3747 9.48511H12.6707C13.4189 9.48511 14.0259 10.0927 14.0259 10.8406V13.1371C14.0259 13.8855 13.4184 14.4926 12.6707 14.4926H10.3747C9.62653 14.4926 9.01953 13.885 9.01953 13.1371V10.8406C9.01953 10.0922 9.62701 9.48511 10.3747 9.48511Z" fill="url(#paint2_radial_14819_30068)"/>
<defs>
<radialGradient id="paint0_radial_14819_30068" cx="0" cy="0" r="1" gradientUnits="userSpaceOnUse" gradientTransform="translate(25.7664 10.437) rotate(148.204) scale(23.8999 22.7018)">
<stop stop-color="#FF5F00"/>
<stop offset="0.5" stop-color="#FFD200"/>
<stop offset="1" stop-color="#12FF80"/>
</radialGradient>
<radialGradient id="paint1_radial_14819_30068" cx="0" cy="0" r="1" gradientUnits="userSpaceOnUse" gradientTransform="translate(20.7835 -0.579395) rotate(148.228) scale(23.8864 22.6797)">
<stop stop-color="#FF5F00"/>
<stop offset="0.5" stop-color="#FFD200"/>
<stop offset="1" stop-color="#12FF80"/>
</radialGradient>
<radialGradient id="paint2_radial_14819_30068" cx="0" cy="0" r="1" gradientUnits="userSpaceOnUse" gradientTransform="translate(14.9777 8.77639) rotate(136.187) scale(8.2568 8.74914)">
<stop stop-color="#FF5F00"/>
<stop offset="0.5" stop-color="#FFD200"/>
<stop offset="1" stop-color="#12FF80"/>
</radialGradient>
</defs>
</svg>
