<svg viewBox="0 0 62 12" fill="none" xmlns="http://www.w3.org/2000/svg">
<path d="M21.6906 6.42854C21.9564 6.78716 22.0898 7.2585 22.0898 7.84257C22.0898 8.39144 21.9369 8.88466 21.6311 9.32271C21.3253 9.76076 20.9018 10.1042 20.3612 10.3515C19.8205 10.5993 19.2089 10.7234 18.5263 10.7234C17.7904 10.7234 17.1387 10.5883 16.5719 10.3187C16.0046 10.049 15.5592 9.67705 15.2358 9.20333C14.9418 8.77384 14.7742 8.29108 14.7327 7.75553C14.7256 7.66659 14.798 7.59144 14.8875 7.59239L16.3571 7.61427C16.4333 7.61522 16.4957 7.67277 16.5062 7.74792C16.5657 8.18359 16.7653 8.53983 17.104 8.81807C17.476 9.12342 17.9638 9.2761 18.5663 9.2761C19.0717 9.2761 19.4838 9.16576 19.8029 8.94411C20.1221 8.72295 20.2816 8.4176 20.2816 8.02806C20.2816 7.75363 20.193 7.53674 20.0158 7.37741C19.8382 7.21807 19.5971 7.09441 19.2913 7.00547C18.9855 6.917 18.522 6.81522 17.9018 6.70012L17.8351 6.6868C17.2502 6.58074 16.7491 6.43662 16.3328 6.25541C15.916 6.0742 15.5792 5.80642 15.3224 5.45208C15.0652 5.09822 14.9366 4.62878 14.9366 4.04471C14.9366 3.51391 15.0805 3.03591 15.3687 2.6107C15.6568 2.18597 16.0603 1.85398 16.5786 1.61522C17.0973 1.37646 17.6799 1.2566 18.3272 1.2566C19.0098 1.2566 19.619 1.38074 20.1554 1.62854C20.6918 1.87634 21.1128 2.22402 21.4186 2.67063C21.6935 3.07253 21.8555 3.51867 21.905 4.00999C21.914 4.09988 21.8416 4.17693 21.7516 4.17646L20.2802 4.16552C20.2059 4.16504 20.144 4.11082 20.1306 4.03757C20.0654 3.67039 19.8872 3.36742 19.5966 3.12866C19.2727 2.86326 18.8497 2.73056 18.3267 2.73056C17.848 2.73056 17.4626 2.83234 17.1702 3.03591C16.8777 3.23948 16.7315 3.53579 16.7315 3.92533C16.7315 4.19073 16.8177 4.39905 16.9906 4.54935C17.1635 4.70012 17.4002 4.8195 17.7018 4.90797C18.0028 4.99643 18.4553 5.09394 19.0579 5.2H19.0712C19.6919 5.3151 20.2168 5.45874 20.647 5.63139C21.0766 5.80404 21.4248 6.06944 21.6906 6.42806V6.42854ZM29.8356 9.36219V10.4913C29.8356 10.5755 29.7675 10.644 29.6827 10.644H28.5037C28.0941 10.644 27.7621 10.312 27.7621 9.90297V9.678C27.7621 9.49061 27.5149 9.42592 27.4201 9.58763C27.2267 9.87396 27.0147 10.1089 26.7603 10.292C26.4774 10.4961 26.1944 10.6392 25.8467 10.6949C25.5142 10.7482 25.1741 10.7291 24.8426 10.6782C24.4086 10.6112 23.9871 10.458 23.6346 10.1926C23.1649 9.83876 22.9301 9.35172 22.9301 8.73199C22.9301 8.01522 23.1873 7.46207 23.7013 7.07253C24.2152 6.683 24.9688 6.48847 25.9615 6.48847H27.1852C27.2695 6.48847 27.3381 6.42045 27.3381 6.33579V6.12985C27.3381 5.47063 26.827 5.02782 26.1077 5.02782C25.7267 5.02782 25.4371 5.10963 25.1932 5.27325C24.9826 5.41451 24.8469 5.59715 24.785 5.82069C24.7668 5.88585 24.7064 5.93056 24.6387 5.93056H23.2873C23.1921 5.93056 23.1211 5.84447 23.1368 5.7503C23.2402 5.14625 23.5422 4.67063 24.0428 4.3239C24.5925 3.9434 25.2918 3.74935 26.1873 3.74935C27.1357 3.74935 27.7411 3.96338 28.2551 4.38383C28.7691 4.80428 29.0263 5.41736 29.0263 6.22259V8.75862C29.0263 8.91795 29.0639 9.03306 29.1392 9.10392C29.2144 9.17479 29.3188 9.20999 29.4517 9.20999H29.6813C29.7656 9.20999 29.8342 9.27848 29.8342 9.36266L29.8356 9.36219ZM27.3386 7.8088C27.3386 7.72461 27.27 7.65612 27.1857 7.65612H25.9353C25.5185 7.65612 25.1975 7.73793 24.9712 7.90155C24.7454 8.06564 24.632 8.29774 24.632 8.59834C24.632 8.86373 24.734 9.07634 24.9379 9.23567C25.1417 9.39501 25.4118 9.47443 25.7491 9.47443C26.3292 9.47443 26.8442 9.20809 27.1324 8.69774C27.2695 8.45422 27.3386 8.16885 27.3386 7.84162V7.80832V7.8088ZM34.609 1.3541H32.8508C31.9229 1.3541 31.1712 2.10511 31.1712 3.03115V3.7679C31.1712 3.85208 31.1027 3.92057 31.0183 3.92057H30.0142C29.9299 3.92057 29.8613 3.98906 29.8613 4.07325V5.21522C29.8613 5.29941 29.9299 5.3679 30.0142 5.3679H31.0183C31.1027 5.3679 31.1712 5.43591 31.1712 5.52057V10.4918C31.1712 10.576 31.2398 10.6445 31.3242 10.6445H32.6941C32.7784 10.6445 32.847 10.576 32.847 10.4918V5.52057C32.847 5.43639 32.9156 5.3679 32.9999 5.3679H34.5966C34.6809 5.3679 34.7495 5.29941 34.7495 5.21522V4.07325C34.7495 3.98906 34.6809 3.92057 34.5966 3.92057H32.9999C32.9156 3.92057 32.847 3.85208 32.847 3.7679V3.10583C32.847 2.93746 32.9837 2.80095 33.1523 2.80095H34.6095C34.6938 2.80095 34.7624 2.73246 34.7624 2.64828V1.5063C34.7624 1.42212 34.6938 1.35363 34.6095 1.35363L34.609 1.3541ZM11.3136 5.99667H10.0103C9.62113 5.99667 9.30579 6.31153 9.30579 6.70012V8.58835C9.30579 8.97693 8.99045 9.29179 8.60128 9.29179H3.41727C3.0281 9.29179 2.71276 9.60666 2.71276 9.99524V11.2966C2.71276 11.6851 3.0281 12 3.41727 12H8.90185C9.29102 12 9.60207 11.6851 9.60207 11.2966V10.2526C9.60207 9.86397 9.91741 9.58811 10.3066 9.58811H11.3136C11.7027 9.58811 12.0181 9.27325 12.0181 8.88466V6.69156C12.0181 6.30297 11.7027 5.99619 11.3136 5.99619V5.99667ZM2.71228 3.41165C2.71228 3.02307 3.02762 2.7082 3.41679 2.7082H8.59795C8.98712 2.7082 9.30245 2.39334 9.30245 2.00476V0.703448C9.30245 0.314863 8.98712 0 8.59795 0H3.1167C2.72753 0 2.41219 0.314863 2.41219 0.703448V1.70606C2.41219 2.09465 2.09685 2.40951 1.70768 2.40951H0.704508C0.315337 2.40951 0 2.72438 0 3.11296V5.30844C0 5.69703 0.316766 5.99619 0.705937 5.99619H2.0092C2.39837 5.99619 2.71371 5.68133 2.71371 5.29275L2.71228 3.41213V3.41165ZM5.39551 4.62878C4.98729 4.62878 4.6567 4.95933 4.6567 5.36647V6.61641C4.6567 7.02402 4.98776 7.3541 5.39551 7.3541H6.64733C7.05556 7.3541 7.38614 7.02354 7.38614 6.61641V5.36647C7.38614 4.95886 7.05508 4.62878 6.64733 4.62878H5.39551ZM41.3211 5.29322C41.6179 5.78882 41.7665 6.36433 41.7665 7.01926C41.7665 7.10773 41.7641 7.20523 41.7598 7.3113C41.7574 7.3698 41.7527 7.42735 41.7465 7.48347C41.7374 7.56005 41.6717 7.61665 41.5945 7.61665H36.8478C36.7573 7.61665 36.6854 7.69512 36.6958 7.78549C36.7011 7.82925 36.7073 7.87301 36.7144 7.91629C36.7344 8.03995 36.7635 8.16219 36.804 8.28062C36.8416 8.39096 36.8888 8.49798 36.9464 8.59929C37.0926 8.85612 37.2922 9.05541 37.5447 9.19667C37.7971 9.33841 38.092 9.40927 38.4288 9.40927C38.8365 9.40927 39.1776 9.31653 39.4529 9.13056C39.6982 8.96457 39.8697 8.73864 39.9664 8.45232C39.9874 8.39001 40.0455 8.34721 40.1112 8.34721H41.4878C41.5864 8.34721 41.6588 8.439 41.6364 8.53508C41.5507 8.90464 41.3902 9.24423 41.1549 9.55529C40.88 9.91819 40.519 10.2036 40.0712 10.4114C39.6234 10.6197 39.1157 10.7234 38.5488 10.7234C37.8129 10.7234 37.1727 10.5822 36.6273 10.2987C36.0818 10.0157 35.6631 9.61046 35.3707 9.08395C35.0782 8.55743 34.932 7.94863 34.932 7.2585C34.932 6.56837 35.0739 5.93294 35.3573 5.40642C35.6408 4.8799 36.0399 4.47277 36.5539 4.18502C37.0679 3.89726 37.6576 3.74982 38.3225 3.74982C38.9875 3.74982 39.5901 3.88633 40.1041 4.1522C40.618 4.4176 41.0239 4.79857 41.3206 5.29417L41.3211 5.29322ZM40.0445 6.27539C39.9621 5.91296 39.7916 5.62521 39.5329 5.4126C39.2314 5.1648 38.8503 5.04067 38.3892 5.04067C38.1053 5.04067 37.8443 5.09822 37.6047 5.21332C37.3656 5.32842 37.1703 5.49441 37.0198 5.7113C36.9026 5.87967 36.8206 6.06801 36.773 6.27586C36.7511 6.37099 36.8249 6.46136 36.9226 6.46136H39.8954C39.9931 6.46136 40.0664 6.37051 40.0445 6.27539ZM61.5994 3.92057H60.1399V2.36813C60.1399 2.12889 59.946 1.93532 59.7064 1.93532H58.8571C58.6175 1.93532 58.4236 2.12889 58.4236 2.36813V3.92057H57.4995C57.2785 3.92057 57.0994 4.09941 57.0994 4.3201V4.96504C57.0994 5.18573 57.2785 5.36457 57.4995 5.36457H58.4236V8.97218C58.4236 9.21141 58.6175 9.40499 58.8571 9.40499H59.4749C59.7145 9.40499 59.9084 9.53151 59.9084 9.77075V10.2136C59.9084 10.4528 60.1023 10.6464 60.3419 10.6464H61.4265C61.6661 10.6464 61.8504 10.4518 61.8504 10.2126V9.65184C61.8504 9.4126 61.6566 9.21902 61.417 9.21902L60.5262 9.21998C60.2866 9.21998 60.1404 8.9717 60.1404 8.73294V5.36457H61.5999C61.8209 5.36457 62 5.18573 62 4.96504V4.3201C62 4.09941 61.8209 3.92057 61.5999 3.92057H61.5994ZM56.5178 5.3717V7.14768C56.5178 7.40357 56.3101 7.61141 56.0534 7.61141H51.5929V8.70345C51.5929 8.95933 51.8006 9.20809 52.0573 9.20809L55.3112 9.20713C55.5675 9.20713 55.7757 9.41451 55.7757 9.67087V10.1822C55.7757 10.438 55.5785 10.6464 55.3217 10.6464H51.8601C51.6039 10.6464 51.3957 10.439 51.3957 10.1826V9.87539C51.3957 9.6195 51.188 9.41165 50.9313 9.41165H50.344C50.0877 9.41165 49.8795 9.20428 49.8795 8.94792V5.37122C49.8795 5.11534 50.0872 4.90749 50.344 4.90749H50.9313C51.1875 4.90749 51.3957 4.70012 51.3957 4.44376V4.117C51.3957 3.86112 51.6034 3.65327 51.8601 3.65327H54.5858C54.842 3.65327 55.0502 3.86064 55.0502 4.117V4.44376C55.0502 4.69964 55.2579 4.90749 55.5146 4.90749H56.0538C56.3101 4.90749 56.5183 5.11486 56.5183 5.37122L56.5178 5.3717ZM51.5929 5.61712V6.46849H54.8525V5.61712C54.8525 5.36124 54.6448 5.15339 54.3881 5.15339H52.0569C51.8006 5.15339 51.5924 5.36076 51.5924 5.61712H51.5929ZM48.4257 4.88942H47.8594C47.6031 4.88942 47.3949 4.68204 47.3949 4.42568V4.12271C47.3949 3.86683 47.1872 3.65898 46.9305 3.65898H44.6369C44.3806 3.65898 44.1725 3.86635 44.1725 4.12271V4.42568C44.1725 4.68157 43.9648 4.88942 43.7081 4.88942H43.1417C42.8854 4.88942 42.6772 5.09679 42.6772 5.35315V10.1831C42.6772 10.439 42.8849 10.6468 43.1417 10.6468H43.9053C44.1615 10.6468 44.3697 10.4395 44.3697 10.1831V5.62045C44.3697 5.36457 44.5774 5.15672 44.8341 5.15672H45.7839H46.7338C46.99 5.15672 47.1982 5.36409 47.1982 5.62045V10.1831C47.1982 10.439 47.4059 10.6468 47.6626 10.6468H48.4262C48.6825 10.6468 48.8906 10.4395 48.8906 10.1831V5.35315C48.8906 5.09727 48.683 4.88942 48.4262 4.88942H48.4257Z" fill="url(#paint0_radial_14847_47703)"/>
<defs>
<radialGradient id="paint0_radial_14847_47703" cx="0" cy="0" r="1" gradientUnits="userSpaceOnUse" gradientTransform="translate(59.7449 0.464412) rotate(168.092) scale(58.6254 25.0038)">
<stop/>
<stop offset="1" stop-color="#003F54"/>
</radialGradient>
</defs>
</svg>
