<svg viewBox="0 0 63 12" fill="none" xmlns="http://www.w3.org/2000/svg">
<path d="M22.1906 6.42854C22.4564 6.78716 22.5898 7.2585 22.5898 7.84257C22.5898 8.39144 22.4369 8.88466 22.1311 9.32271C21.8253 9.76076 21.4018 10.1042 20.8612 10.3515C20.3205 10.5993 19.7089 10.7234 19.0263 10.7234C18.2904 10.7234 17.6387 10.5883 17.0719 10.3187C16.5046 10.049 16.0592 9.67705 15.7358 9.20333C15.4418 8.77384 15.2742 8.29108 15.2327 7.75553C15.2256 7.66659 15.298 7.59144 15.3875 7.59239L16.8571 7.61427C16.9333 7.61522 16.9957 7.67277 17.0062 7.74792C17.0657 8.18359 17.2653 8.53983 17.604 8.81807C17.976 9.12342 18.4638 9.2761 19.0663 9.2761C19.5717 9.2761 19.9838 9.16576 20.3029 8.94411C20.6221 8.72295 20.7816 8.4176 20.7816 8.02806C20.7816 7.75363 20.693 7.53674 20.5158 7.37741C20.3382 7.21807 20.0971 7.09441 19.7913 7.00547C19.4855 6.917 19.022 6.81522 18.4018 6.70012L18.3351 6.6868C17.7502 6.58074 17.2491 6.43662 16.8328 6.25541C16.416 6.0742 16.0792 5.80642 15.8224 5.45208C15.5652 5.09822 15.4366 4.62878 15.4366 4.04471C15.4366 3.51391 15.5805 3.03591 15.8687 2.6107C16.1568 2.18597 16.5603 1.85398 17.0786 1.61522C17.5973 1.37646 18.1799 1.2566 18.8272 1.2566C19.5098 1.2566 20.119 1.38074 20.6554 1.62854C21.1918 1.87634 21.6128 2.22402 21.9186 2.67063C22.1935 3.07253 22.3555 3.51867 22.405 4.00999C22.414 4.09988 22.3416 4.17693 22.2516 4.17646L20.7802 4.16552C20.7059 4.16504 20.644 4.11082 20.6306 4.03757C20.5654 3.67039 20.3872 3.36742 20.0966 3.12866C19.7727 2.86326 19.3497 2.73056 18.8267 2.73056C18.348 2.73056 17.9626 2.83234 17.6702 3.03591C17.3777 3.23948 17.2315 3.53579 17.2315 3.92533C17.2315 4.19073 17.3177 4.39905 17.4906 4.54935C17.6635 4.70012 17.9002 4.8195 18.2018 4.90797C18.5028 4.99643 18.9553 5.09394 19.5579 5.2H19.5712C20.1919 5.3151 20.7168 5.45874 21.147 5.63139C21.5766 5.80404 21.9248 6.06944 22.1906 6.42806V6.42854ZM30.3356 9.36219V10.4913C30.3356 10.5755 30.2675 10.644 30.1827 10.644H29.0037C28.5941 10.644 28.2621 10.312 28.2621 9.90297V9.678C28.2621 9.49061 28.0149 9.42592 27.9201 9.58763C27.7267 9.87396 27.5147 10.1089 27.2603 10.292C26.9774 10.4961 26.6944 10.6392 26.3467 10.6949C26.0142 10.7482 25.6741 10.7291 25.3426 10.6782C24.9086 10.6112 24.4871 10.458 24.1346 10.1926C23.6649 9.83876 23.4301 9.35172 23.4301 8.73199C23.4301 8.01522 23.6873 7.46207 24.2013 7.07253C24.7152 6.683 25.4688 6.48847 26.4615 6.48847H27.6852C27.7695 6.48847 27.8381 6.42045 27.8381 6.33579V6.12985C27.8381 5.47063 27.327 5.02782 26.6077 5.02782C26.2267 5.02782 25.9371 5.10963 25.6932 5.27325C25.4826 5.41451 25.3469 5.59715 25.285 5.82069C25.2668 5.88585 25.2064 5.93056 25.1387 5.93056H23.7873C23.6921 5.93056 23.6211 5.84447 23.6368 5.7503C23.7402 5.14625 24.0422 4.67063 24.5428 4.3239C25.0925 3.9434 25.7918 3.74935 26.6873 3.74935C27.6357 3.74935 28.2411 3.96338 28.7551 4.38383C29.2691 4.80428 29.5263 5.41736 29.5263 6.22259V8.75862C29.5263 8.91795 29.5639 9.03306 29.6392 9.10392C29.7144 9.17479 29.8188 9.20999 29.9517 9.20999H30.1813C30.2656 9.20999 30.3342 9.27848 30.3342 9.36266L30.3356 9.36219ZM27.8386 7.8088C27.8386 7.72461 27.77 7.65612 27.6857 7.65612H26.4353C26.0185 7.65612 25.6975 7.73793 25.4712 7.90155C25.2454 8.06564 25.132 8.29774 25.132 8.59834C25.132 8.86373 25.234 9.07634 25.4379 9.23567C25.6417 9.39501 25.9118 9.47443 26.2491 9.47443C26.8292 9.47443 27.3442 9.20809 27.6324 8.69774C27.7695 8.45422 27.8386 8.16885 27.8386 7.84162V7.80832V7.8088ZM35.109 1.3541H33.3508C32.4229 1.3541 31.6712 2.10511 31.6712 3.03115V3.7679C31.6712 3.85208 31.6027 3.92057 31.5183 3.92057H30.5142C30.4299 3.92057 30.3613 3.98906 30.3613 4.07325V5.21522C30.3613 5.29941 30.4299 5.3679 30.5142 5.3679H31.5183C31.6027 5.3679 31.6712 5.43591 31.6712 5.52057V10.4918C31.6712 10.576 31.7398 10.6445 31.8242 10.6445H33.1941C33.2784 10.6445 33.347 10.576 33.347 10.4918V5.52057C33.347 5.43639 33.4156 5.3679 33.4999 5.3679H35.0966C35.1809 5.3679 35.2495 5.29941 35.2495 5.21522V4.07325C35.2495 3.98906 35.1809 3.92057 35.0966 3.92057H33.4999C33.4156 3.92057 33.347 3.85208 33.347 3.7679V3.10583C33.347 2.93746 33.4837 2.80095 33.6523 2.80095H35.1095C35.1938 2.80095 35.2624 2.73246 35.2624 2.64828V1.5063C35.2624 1.42212 35.1938 1.35363 35.1095 1.35363L35.109 1.3541ZM11.8136 5.99667H10.5103C10.1211 5.99667 9.80579 6.31153 9.80579 6.70012V8.58835C9.80579 8.97693 9.49045 9.29179 9.10128 9.29179H3.91727C3.5281 9.29179 3.21276 9.60666 3.21276 9.99524V11.2966C3.21276 11.6851 3.5281 12 3.91727 12H9.40185C9.79102 12 10.1021 11.6851 10.1021 11.2966V10.2526C10.1021 9.86397 10.4174 9.58811 10.8066 9.58811H11.8136C12.2027 9.58811 12.5181 9.27325 12.5181 8.88466V6.69156C12.5181 6.30297 12.2027 5.99619 11.8136 5.99619V5.99667ZM3.21228 3.41165C3.21228 3.02307 3.52762 2.7082 3.91679 2.7082H9.09795C9.48712 2.7082 9.80245 2.39334 9.80245 2.00476V0.703448C9.80245 0.314863 9.48712 0 9.09795 0H3.6167C3.22753 0 2.91219 0.314863 2.91219 0.703448V1.70606C2.91219 2.09465 2.59685 2.40951 2.20768 2.40951H1.20451C0.815337 2.40951 0.5 2.72438 0.5 3.11296V5.30844C0.5 5.69703 0.816766 5.99619 1.20594 5.99619H2.5092C2.89837 5.99619 3.21371 5.68133 3.21371 5.29275L3.21228 3.41213V3.41165ZM5.89551 4.62878C5.48729 4.62878 5.1567 4.95933 5.1567 5.36647V6.61641C5.1567 7.02402 5.48776 7.3541 5.89551 7.3541H7.14733C7.55556 7.3541 7.88614 7.02354 7.88614 6.61641V5.36647C7.88614 4.95886 7.55508 4.62878 7.14733 4.62878H5.89551ZM41.8211 5.29322C42.1179 5.78882 42.2665 6.36433 42.2665 7.01926C42.2665 7.10773 42.2641 7.20523 42.2598 7.3113C42.2574 7.3698 42.2527 7.42735 42.2465 7.48347C42.2374 7.56005 42.1717 7.61665 42.0945 7.61665H37.3478C37.2573 7.61665 37.1854 7.69512 37.1958 7.78549C37.2011 7.82925 37.2073 7.87301 37.2144 7.91629C37.2344 8.03995 37.2635 8.16219 37.304 8.28062C37.3416 8.39096 37.3888 8.49798 37.4464 8.59929C37.5926 8.85612 37.7922 9.05541 38.0447 9.19667C38.2971 9.33841 38.592 9.40927 38.9288 9.40927C39.3365 9.40927 39.6776 9.31653 39.9529 9.13056C40.1982 8.96457 40.3697 8.73864 40.4664 8.45232C40.4874 8.39001 40.5455 8.34721 40.6112 8.34721H41.9878C42.0864 8.34721 42.1588 8.439 42.1364 8.53508C42.0507 8.90464 41.8902 9.24423 41.6549 9.55529C41.38 9.91819 41.019 10.2036 40.5712 10.4114C40.1234 10.6197 39.6157 10.7234 39.0488 10.7234C38.3129 10.7234 37.6727 10.5822 37.1273 10.2987C36.5818 10.0157 36.1631 9.61046 35.8707 9.08395C35.5782 8.55743 35.432 7.94863 35.432 7.2585C35.432 6.56837 35.5739 5.93294 35.8573 5.40642C36.1408 4.8799 36.5399 4.47277 37.0539 4.18502C37.5679 3.89726 38.1576 3.74982 38.8225 3.74982C39.4875 3.74982 40.0901 3.88633 40.6041 4.1522C41.118 4.4176 41.5239 4.79857 41.8206 5.29417L41.8211 5.29322ZM40.5445 6.27539C40.4621 5.91296 40.2916 5.62521 40.0329 5.4126C39.7314 5.1648 39.3503 5.04067 38.8892 5.04067C38.6053 5.04067 38.3443 5.09822 38.1047 5.21332C37.8656 5.32842 37.6703 5.49441 37.5198 5.7113C37.4026 5.87967 37.3206 6.06801 37.273 6.27586C37.2511 6.37099 37.3249 6.46136 37.4226 6.46136H40.3954C40.4931 6.46136 40.5664 6.37051 40.5445 6.27539ZM62.0994 3.92057H60.6399V2.36813C60.6399 2.12889 60.446 1.93532 60.2064 1.93532H59.3571C59.1175 1.93532 58.9236 2.12889 58.9236 2.36813V3.92057H57.9995C57.7785 3.92057 57.5994 4.09941 57.5994 4.3201V4.96504C57.5994 5.18573 57.7785 5.36457 57.9995 5.36457H58.9236V8.97218C58.9236 9.21141 59.1175 9.40499 59.3571 9.40499H59.9749C60.2145 9.40499 60.4084 9.53151 60.4084 9.77075V10.2136C60.4084 10.4528 60.6023 10.6464 60.8419 10.6464H61.9265C62.1661 10.6464 62.3504 10.4518 62.3504 10.2126V9.65184C62.3504 9.4126 62.1566 9.21902 61.917 9.21902L61.0262 9.21998C60.7866 9.21998 60.6404 8.9717 60.6404 8.73294V5.36457H62.0999C62.3209 5.36457 62.5 5.18573 62.5 4.96504V4.3201C62.5 4.09941 62.3209 3.92057 62.0999 3.92057H62.0994ZM57.0178 5.3717V7.14768C57.0178 7.40357 56.8101 7.61141 56.5534 7.61141H52.0929V8.70345C52.0929 8.95933 52.3006 9.20809 52.5573 9.20809L55.8112 9.20713C56.0675 9.20713 56.2757 9.41451 56.2757 9.67087V10.1822C56.2757 10.438 56.0785 10.6464 55.8217 10.6464H52.3601C52.1039 10.6464 51.8957 10.439 51.8957 10.1826V9.87539C51.8957 9.6195 51.688 9.41165 51.4313 9.41165H50.844C50.5877 9.41165 50.3795 9.20428 50.3795 8.94792V5.37122C50.3795 5.11534 50.5872 4.90749 50.844 4.90749H51.4313C51.6875 4.90749 51.8957 4.70012 51.8957 4.44376V4.117C51.8957 3.86112 52.1034 3.65327 52.3601 3.65327H55.0858C55.342 3.65327 55.5502 3.86064 55.5502 4.117V4.44376C55.5502 4.69964 55.7579 4.90749 56.0146 4.90749H56.5538C56.8101 4.90749 57.0183 5.11486 57.0183 5.37122L57.0178 5.3717ZM52.0929 5.61712V6.46849H55.3525V5.61712C55.3525 5.36124 55.1448 5.15339 54.8881 5.15339H52.5569C52.3006 5.15339 52.0924 5.36076 52.0924 5.61712H52.0929ZM48.9257 4.88942H48.3594C48.1031 4.88942 47.8949 4.68204 47.8949 4.42568V4.12271C47.8949 3.86683 47.6872 3.65898 47.4305 3.65898H45.1369C44.8806 3.65898 44.6725 3.86635 44.6725 4.12271V4.42568C44.6725 4.68157 44.4648 4.88942 44.2081 4.88942H43.6417C43.3854 4.88942 43.1772 5.09679 43.1772 5.35315V10.1831C43.1772 10.439 43.3849 10.6468 43.6417 10.6468H44.4053C44.6615 10.6468 44.8697 10.4395 44.8697 10.1831V5.62045C44.8697 5.36457 45.0774 5.15672 45.3341 5.15672H46.2839H47.2338C47.49 5.15672 47.6982 5.36409 47.6982 5.62045V10.1831C47.6982 10.439 47.9059 10.6468 48.1626 10.6468H48.9262C49.1825 10.6468 49.3906 10.4395 49.3906 10.1831V5.35315C49.3906 5.09727 49.183 4.88942 48.9262 4.88942H48.9257Z" fill="url(#paint0_radial_15073_54999)"/>
<defs>
<radialGradient id="paint0_radial_15073_54999" cx="0" cy="0" r="1" gradientUnits="userSpaceOnUse" gradientTransform="translate(74.2868 -1.69838) rotate(169.483) scale(75.0476 28.5672)">
<stop stop-color="#FF5F00"/>
<stop offset="0.5" stop-color="#FFD200"/>
<stop offset="1" stop-color="#12FF80"/>
</radialGradient>
</defs>
</svg>
