<svg viewBox="0 0 131 25" fill="none" xmlns="http://www.w3.org/2000/svg">
<path d="M45.8302 13.3571C46.3918 14.0743 46.6736 15.017 46.6736 16.1851C46.6736 17.2829 46.3506 18.2693 45.7044 19.1454C45.0583 20.0215 44.1635 20.7083 43.0212 21.203C41.8789 21.6986 40.5866 21.9468 39.1443 21.9468C37.5893 21.9468 36.2125 21.6767 35.0148 21.1373C33.8161 20.598 32.8751 19.8541 32.1917 18.9067C31.5707 18.0477 31.2164 17.0822 31.1288 16.0111C31.1138 15.8332 31.2667 15.6829 31.4559 15.6848L34.5609 15.7285C34.7219 15.7304 34.8538 15.8455 34.8759 15.9958C35.0017 16.8672 35.4234 17.5797 36.139 18.1361C36.9251 18.7468 37.9557 19.0522 39.2288 19.0522C40.2967 19.0522 41.1673 18.8315 41.8416 18.3882C42.5159 17.9459 42.8531 17.3352 42.8531 16.5561C42.8531 16.0073 42.6659 15.5735 42.2915 15.2548C41.9161 14.9361 41.4068 14.6888 40.7607 14.5109C40.1145 14.334 39.1352 14.1304 37.8248 13.9002L37.6839 13.8736C36.448 13.6615 35.3892 13.3732 34.5095 13.0108C33.6289 12.6484 32.9173 12.1128 32.3748 11.4042C31.8314 10.6964 31.5596 9.75755 31.5596 8.58942C31.5596 7.52782 31.8636 6.57182 32.4725 5.7214C33.0814 4.87194 33.9339 4.20797 35.0289 3.73044C36.1249 3.25291 37.3558 3.0132 38.7236 3.0132C40.1659 3.0132 41.4531 3.26147 42.5864 3.75707C43.7197 4.25268 44.6094 4.94804 45.2555 5.84126C45.8363 6.64507 46.1785 7.53734 46.2831 8.51998C46.3023 8.69976 46.1493 8.85386 45.9591 8.85291L42.8501 8.83103C42.6931 8.83008 42.5622 8.72164 42.5341 8.57515C42.3962 7.84078 42.0198 7.23484 41.4058 6.75731C40.7214 6.22652 39.8277 5.96112 38.7226 5.96112C37.7111 5.96112 36.8969 6.16468 36.2789 6.57182C35.6609 6.97895 35.352 7.57158 35.352 8.35065C35.352 8.88145 35.5341 9.2981 35.8995 9.59869C36.2648 9.90024 36.765 10.139 37.4021 10.3159C38.0382 10.4929 38.9943 10.6879 40.2675 10.9H40.2957C41.6071 11.1302 42.7162 11.4175 43.6251 11.7628C44.5329 12.1081 45.2686 12.6398 45.8302 13.3571ZM63.0397 19.2244V21.4826C63.0397 21.651 62.8958 21.788 62.7166 21.788H60.2256C59.3601 21.788 58.6586 21.124 58.6586 20.3059V19.856C58.6586 19.4812 58.1362 19.3518 57.9359 19.6753C57.5273 20.2479 57.0794 20.7178 56.542 21.0841C55.9442 21.4921 55.3463 21.7785 54.6116 21.8898C53.9091 21.9963 53.1905 21.9583 52.49 21.8565C51.5731 21.7224 50.6824 21.4161 49.9376 20.8853C48.9452 20.1775 48.449 19.2034 48.449 17.964C48.449 16.5304 48.9925 15.4241 50.0785 14.6451C51.1645 13.866 52.7567 13.4769 54.8542 13.4769H57.4398C57.6179 13.4769 57.7628 13.3409 57.7628 13.1716V12.7597C57.7628 11.4413 56.6829 10.5556 55.1632 10.5556C54.358 10.5556 53.746 10.7193 53.2307 11.0465C52.7859 11.329 52.499 11.6943 52.3682 12.1414C52.33 12.2717 52.2021 12.3611 52.0592 12.3611H49.2039C49.0026 12.3611 48.8526 12.1889 48.8858 12.0006C49.1042 10.7925 49.7423 9.84126 50.8001 9.1478C51.9616 8.3868 53.4391 7.99869 55.3312 7.99869C57.3351 7.99869 58.6143 8.42675 59.7003 9.26766C60.7862 10.1086 61.3297 11.3347 61.3297 12.9452V18.0172C61.3297 18.3359 61.4092 18.5661 61.5683 18.7078C61.7273 18.8496 61.9477 18.92 62.2285 18.92H62.7136C62.8918 18.92 63.0367 19.057 63.0367 19.2253L63.0397 19.2244ZM57.7638 16.1176C57.7638 15.9492 57.6189 15.8122 57.4408 15.8122H54.7988C53.9182 15.8122 53.2398 15.9759 52.7617 16.3031C52.2847 16.6313 52.0451 17.0955 52.0451 17.6967C52.0451 18.2275 52.2605 18.6527 52.6913 18.9713C53.122 19.29 53.6927 19.4489 54.4053 19.4489C55.6311 19.4489 56.7191 18.9162 57.328 17.8955C57.6179 17.4084 57.7638 16.8377 57.7638 16.1832V16.1176ZM73.1255 3.2082H69.4106C67.45 3.2082 65.8618 4.71023 65.8618 6.56231V8.03579C65.8618 8.20416 65.7169 8.34114 65.5388 8.34114H63.4171C63.239 8.34114 63.0941 8.47812 63.0941 8.64649V10.9304C63.0941 11.0988 63.239 11.2358 63.4171 11.2358H65.5388C65.7169 11.2358 65.8618 11.3718 65.8618 11.5411V21.4836C65.8618 21.652 66.0068 21.7889 66.1849 21.7889H69.0795C69.2576 21.7889 69.4026 21.652 69.4026 21.4836V11.5411C69.4026 11.3728 69.5475 11.2358 69.7256 11.2358H73.0993C73.2774 11.2358 73.4224 11.0988 73.4224 10.9304V8.64649C73.4224 8.47812 73.2774 8.34114 73.0993 8.34114H69.7256C69.5475 8.34114 69.4026 8.20416 69.4026 8.03579V6.71165C69.4026 6.37491 69.6914 6.1019 70.0477 6.1019H73.1265C73.3046 6.1019 73.4495 5.96492 73.4495 5.79655V3.5126C73.4495 3.34423 73.3046 3.20725 73.1265 3.20725L73.1255 3.2082ZM23.9045 12.4933H21.1508C20.3285 12.4933 19.6622 13.1231 19.6622 13.9002V17.6767C19.6622 18.4539 18.996 19.0836 18.1737 19.0836H7.22035C6.39807 19.0836 5.7318 19.7133 5.7318 20.4905V23.0931C5.7318 23.8703 6.39807 24.5 7.22035 24.5H18.8088C19.631 24.5 20.2882 23.8703 20.2882 23.0931V21.0051C20.2882 20.2279 20.9545 19.6762 21.7768 19.6762H23.9045C24.7267 19.6762 25.393 19.0465 25.393 18.2693V13.8831C25.393 13.1059 24.7267 12.4933 23.9045 12.4933ZM5.73079 7.32331C5.73079 6.54614 6.39707 5.91641 7.21935 5.91641H18.1666C18.9889 5.91641 19.6552 5.28668 19.6552 4.50951V1.9069C19.6552 1.12973 18.9889 0.5 18.1666 0.5H6.58528C5.763 0.5 5.09672 1.12973 5.09672 1.9069V3.91213C5.09672 4.6893 4.43044 5.31902 3.60816 5.31902H1.48856C0.666277 5.31902 0 5.94875 0 6.72592V11.1169C0 11.8941 0.669297 12.4924 1.49158 12.4924H4.24525C5.06753 12.4924 5.73381 11.8627 5.73381 11.0855L5.73079 7.32331ZM11.4002 9.75755C10.5377 9.75755 9.83917 10.4187 9.83917 11.2329V13.7328C9.83917 14.548 10.5387 15.2082 11.4002 15.2082H14.0452C14.9077 15.2082 15.6062 14.5471 15.6062 13.7328V11.2329C15.6062 10.4177 14.9067 9.75755 14.0452 9.75755H11.4002ZM87.3075 11.0864C87.9345 12.0776 88.2486 13.2287 88.2486 14.5385C88.2486 14.7155 88.2435 14.9105 88.2345 15.1226C88.2294 15.2396 88.2194 15.3547 88.2063 15.4669C88.1872 15.6201 88.0483 15.7333 87.8852 15.7333H77.8558C77.6646 15.7333 77.5126 15.8902 77.5348 16.071C77.5458 16.1585 77.5589 16.246 77.574 16.3326C77.6163 16.5799 77.6777 16.8244 77.7632 17.0612C77.8428 17.2819 77.9424 17.496 78.0642 17.6986C78.3732 18.2122 78.7949 18.6108 79.3283 18.8933C79.8617 19.1768 80.4847 19.3185 81.1963 19.3185C82.0578 19.3185 82.7784 19.1331 83.3602 18.7611C83.8785 18.4291 84.2408 17.9773 84.4451 17.4046C84.4894 17.28 84.6122 17.1944 84.7511 17.1944H87.6598C87.8681 17.1944 88.0211 17.378 87.9738 17.5702C87.7926 18.3093 87.4534 18.9885 86.9563 19.6106C86.3755 20.3364 85.6126 20.9071 84.6665 21.3228C83.7205 21.7395 82.6476 21.9468 81.4499 21.9468C79.8949 21.9468 78.5422 21.6643 77.3898 21.0974C76.2374 20.5314 75.3528 19.7209 74.7348 18.6679C74.1168 17.6149 73.8078 16.3973 73.8078 15.017C73.8078 13.6367 74.1078 12.3659 74.7066 11.3128C75.3055 10.2598 76.1489 9.44554 77.2348 8.87004C78.3208 8.29453 79.5668 7.99964 80.9718 7.99964C82.3769 7.99964 83.65 8.27265 84.736 8.8044C85.822 9.3352 86.6795 10.0971 87.3065 11.0883L87.3075 11.0864ZM84.6102 13.0508C84.4361 12.3259 84.0758 11.7504 83.5293 11.3252C82.8922 10.8296 82.087 10.5813 81.1127 10.5813C80.5129 10.5813 79.9613 10.6964 79.4551 10.9266C78.9499 11.1568 78.5372 11.4888 78.2192 11.9226C77.9716 12.2593 77.7985 12.636 77.6978 13.0517C77.6515 13.242 77.8075 13.4227 78.0138 13.4227H84.2952C84.5015 13.4227 84.6565 13.241 84.6102 13.0508ZM130.154 8.34114H127.07V5.23627C127.07 4.75779 126.66 4.37063 126.154 4.37063H124.359C123.853 4.37063 123.444 4.75779 123.444 5.23627V8.34114H121.491C121.024 8.34114 120.646 8.69881 120.646 9.14019V10.4301C120.646 10.8715 121.024 11.2291 121.491 11.2291H123.444V18.4443C123.444 18.9228 123.853 19.31 124.359 19.31H125.665C126.171 19.31 126.581 19.563 126.581 20.0415V20.9271C126.581 21.4056 126.99 21.7927 127.497 21.7927H129.788C130.294 21.7927 130.684 21.4037 130.684 20.9252V19.8037C130.684 19.3252 130.274 18.938 129.768 18.938L127.886 18.94C127.38 18.94 127.071 18.4434 127.071 17.9659V11.2291H130.155C130.622 11.2291 131 10.8715 131 10.4301V9.14019C131 8.69881 130.621 8.34114 130.154 8.34114ZM119.417 11.2434V14.7954C119.417 15.3071 118.978 15.7228 118.435 15.7228H109.011V17.9069C109.011 18.4187 109.45 18.9162 109.992 18.9162L116.867 18.9143C117.409 18.9143 117.849 19.329 117.849 19.8417V20.8643C117.849 21.3761 117.432 21.7927 116.889 21.7927H109.575C109.034 21.7927 108.594 21.378 108.594 20.8653V20.2508C108.594 19.739 108.155 19.3233 107.613 19.3233H106.372C105.83 19.3233 105.391 18.9086 105.391 18.3958V11.2424C105.391 10.7307 105.829 10.315 106.372 10.315H107.613C108.154 10.315 108.594 9.90024 108.594 9.38752V8.73401C108.594 8.22223 109.033 7.80654 109.575 7.80654H115.334C115.876 7.80654 116.316 8.22128 116.316 8.73401V9.38752C116.316 9.89929 116.755 10.315 117.297 10.315H118.436C118.978 10.315 119.418 10.7297 119.418 11.2424L119.417 11.2434ZM109.011 11.7342V13.437H115.898V11.7342C115.898 11.2225 115.459 10.8068 114.917 10.8068H109.991C109.45 10.8068 109.01 11.2215 109.01 11.7342H109.011ZM102.319 10.2788H101.122C100.581 10.2788 100.141 9.86409 100.141 9.35137V8.74542C100.141 8.23365 99.7021 7.81795 99.1596 7.81795H94.3135C93.772 7.81795 93.3322 8.2327 93.3322 8.74542V9.35137C93.3322 9.86314 92.8934 10.2788 92.3509 10.2788H91.1542C90.6127 10.2788 90.1729 10.6936 90.1729 11.2063V20.8662C90.1729 21.378 90.6117 21.7937 91.1542 21.7937H92.7676C93.309 21.7937 93.7489 21.379 93.7489 20.8662V11.7409C93.7489 11.2291 94.1877 10.8134 94.7302 10.8134H96.737H98.7439C99.2854 10.8134 99.7252 11.2282 99.7252 11.7409V20.8662C99.7252 21.378 100.164 21.7937 100.707 21.7937H102.32C102.861 21.7937 103.301 21.379 103.301 20.8662V11.2063C103.301 10.6945 102.862 10.2788 102.32 10.2788H102.319Z" fill="currentColor"/>
</svg>
