<svg width="20" height="20" viewBox="0 0 20 20" fill="none" xmlns="http://www.w3.org/2000/svg">
<rect width="20" height="20" rx="10" fill="#3C3C3C"/>
<path d="M14.5525 9.99669H13.4336C13.0995 9.99669 12.8288 10.2674 12.8288 10.6015V12.225C12.8288 12.5591 12.5581 12.8298 12.224 12.8298H7.77355C7.43945 12.8298 7.16874 13.1005 7.16874 13.4346V14.5535C7.16874 14.8876 7.43945 15.1583 7.77355 15.1583H12.482C12.8161 15.1583 13.0832 14.8876 13.0832 14.5535V13.6558C13.0832 13.3217 13.3539 13.0846 13.688 13.0846H14.5525C14.8866 13.0846 15.1573 12.8138 15.1573 12.4797V10.5941C15.1573 10.26 14.8866 9.99669 14.5525 9.99669ZM7.16833 7.77412C7.16833 7.44002 7.43904 7.1693 7.77314 7.1693H12.2211C12.5552 7.1693 12.826 6.89859 12.826 6.56449V5.44564C12.826 5.11154 12.5552 4.84082 12.2211 4.84082H7.51551C7.18141 4.84082 6.9107 5.11154 6.9107 5.44564V6.30767C6.9107 6.64178 6.63998 6.91249 6.30588 6.91249H5.44466C5.11056 6.91249 4.83984 7.18321 4.83984 7.51731V9.40496C4.83984 9.73906 5.11179 9.99628 5.44589 9.99628H6.56474C6.89884 9.99628 7.16955 9.72556 7.16955 9.39146L7.16833 7.77412ZM9.47186 8.82059C9.12141 8.82059 8.8376 9.1048 8.8376 9.45485V10.5295C8.8376 10.88 9.12181 11.1638 9.47186 11.1638H10.5465C10.897 11.1638 11.1808 10.8796 11.1808 10.5295V9.45485C11.1808 9.10439 10.8966 8.82059 10.5465 8.82059H9.47186Z" fill="url(#paint0_radial_15055_50184)"/>
<defs>
<radialGradient id="paint0_radial_15055_50184" cx="0" cy="0" r="1" gradientUnits="userSpaceOnUse" gradientTransform="translate(17.1188 3.38058) rotate(136.194) scale(17.0143 18.0287)">
<stop stop-color="#FF5F00"/>
<stop offset="0.5" stop-color="#FFD200"/>
<stop offset="1" stop-color="#12FF80"/>
</radialGradient>
</defs>
</svg>
