<svg width="505" height="80" viewBox="0 0 101 16" fill="none" xmlns="http://www.w3.org/2000/svg">
    <path class="illustration-background-light-grey-fill" d="M0.678388 10.5143L0.669435 10.4978C0.513213 10.217 0.38349 9.8854 0.280873 9.51279C0.153767 9.05127 0.0734043 8.54784 0.0326814 8.0312C0.00465483 7.67562 -0.00142866 7.37124 0.00410266 7.104C0.0053739 7.0524 0.0053739 7.0524 0.00626082 6.99721L0.00626086 1.55901C0.00626087 1.01158 0.452573 0.565685 1 0.565685C3.82077 0.565685 5 0.571006 7.07863 0.571006C7.73726 0.570044 9.06665 0.570755 9.5 0.570755C10.3595 0.570755 11.3672 0.570755 11.5 0.570755C12.5 0.570755 12.937 0.568345 13.0502 0.565685C13.0659 0.565317 13.0977 0.565048 13.1408 0.564857C13.6964 0.562401 14.1498 1.01812 14.15 1.57368L14.1517 7.01891C14.1682 7.25884 14.1404 7.86856 14.0539 8.46333C13.9281 9.32783 13.6983 10.0999 13.3464 10.706C13.2287 10.9251 13.0823 11.1429 12.8733 11.4107C11.7306 12.9387 9.90685 14.245 7.42253 15.2846C7.1864 15.3835 6.9197 15.3832 6.68373 15.284C3.55818 13.9701 1.6347 12.3099 0.678388 10.5143Z" fill="#DDDEE0"/>
    <path class="illustration-text-secondary-fill illustration-text-secondary-stroke" d="M10.0518 7.4043H10.9912C11.1409 7.4043 11.2557 7.52069 11.2559 7.66309V9.24805C11.2558 9.39421 11.1372 9.5127 10.9912 9.5127H10.2656C9.86912 9.5127 9.51367 9.80309 9.51367 10.2363V10.9902C9.5136 11.1385 9.39598 11.2549 9.25195 11.2549H5.29688C5.15096 11.2547 5.0323 11.1363 5.03223 10.9902V10.0498C5.0324 9.90379 5.15102 9.78531 5.29688 9.78516H9.03613C9.45128 9.78503 9.78711 9.44834 9.78711 9.0332V7.66895C9.78733 7.52299 9.90596 7.40449 10.0518 7.4043Z" fill="#A1A3A7" stroke="#A1A3A7" stroke-width="0.487185"/>
    <path class="illustration-text-secondary-fill illustration-text-secondary-stroke" d="M5.09082 3.07324H9.04395C9.1899 3.07324 9.30837 3.19182 9.30859 3.33789V4.27832C9.30857 4.42456 9.19002 4.54297 9.04395 4.54297H5.30762C4.89246 4.54309 4.55566 4.87978 4.55566 5.29492L4.55664 6.6543C4.55633 6.80016 4.43869 6.91776 4.29297 6.91797H3.35254C3.19869 6.91784 3.08691 6.80345 3.08691 6.66504V5.0791C3.08691 4.93294 3.20561 4.81461 3.35156 4.81445H4.0752C4.49038 4.81437 4.82715 4.47767 4.82715 4.0625V3.33789C4.82737 3.19196 4.94506 3.07347 5.09082 3.07324Z" fill="#A1A3A7" stroke="#A1A3A7" stroke-width="0.487185"/>
    <path class="illustration-text-secondary-fill illustration-text-secondary-stroke" d="M6.72852 6.41504H7.63086C7.79038 6.41506 7.91992 6.54546 7.91992 6.70508V7.60742C7.91992 7.76712 7.7903 7.89744 7.63086 7.89746H6.72852C6.56898 7.89746 6.43848 7.76705 6.43848 7.60742V6.70508C6.43848 6.54537 6.56906 6.41504 6.72852 6.41504Z" fill="#A1A3A7" stroke="#A1A3A7" stroke-width="0.487185"/>
    
    <g clip-path="url(#clip0_4420_1460)">
        <path class="illustration-text-secondary-fill illustration-text-secondary-stroke" d="M47.6777 12.8506C47.7896 12.9021 47.9137 12.9316 48.0439 12.9316H48.957C48.9943 12.9317 49.0134 12.9597 49.0137 12.9805V13.7803C49.0137 13.8011 48.9945 13.83 48.957 13.8301H47.8135C47.7761 13.8299 47.7568 13.8011 47.7568 13.7803V13.2061C47.7568 13.0784 47.7278 12.9585 47.6777 12.8506ZM47.2539 3.56836C47.2041 3.67619 47.1758 3.79647 47.1758 3.92383V12.0752C47.1758 12.2024 47.2043 12.3221 47.2539 12.4297C47.1426 12.3787 47.0191 12.3497 46.8896 12.3496H46.3027C46.2653 12.3495 46.2461 12.3216 46.2461 12.3008V3.69824C46.2462 3.67742 46.2653 3.64941 46.3027 3.64941H46.8887C47.0187 3.64941 47.1424 3.6196 47.2539 3.56836ZM47.8135 2.16992H48.9561C48.9937 2.16992 49.0137 2.1979 49.0137 2.21875V3.01758C49.0137 3.03843 48.9937 3.06738 48.9561 3.06738H48.0439C47.9137 3.06738 47.7894 3.09603 47.6777 3.14746C47.7275 3.03972 47.7568 2.92019 47.7568 2.79297V2.21875C47.7568 2.1979 47.7759 2.16992 47.8135 2.16992Z" fill="#A1A3A7" stroke="#A1A3A7" stroke-width="0.64778"/>
        <path class="illustration-text-secondary-fill" d="M84.3516 12.5361V3.91504H87.3752C90.2364 3.91504 91.6482 5.67673 91.6482 8.22555C91.6482 10.7744 90.2364 12.5361 87.3752 12.5361H84.3516ZM85.9383 5.37687V11.0742H87.4501C89.2493 11.0742 89.974 9.84981 89.974 8.22555C89.974 6.6013 89.2493 5.37687 87.4501 5.37687H85.9383Z" fill="#A1A3A7"/>
        <path class="illustration-text-secondary-fill" d="M77.7969 12.5361V3.91504H79.3836V11.0742H83.2818V12.5361H77.7969Z" fill="#A1A3A7"/>
        <path class="illustration-text-secondary-fill" d="M70.3125 12.5361V3.91504H76.2098V5.36437H71.8993V7.40093H75.6725V8.83777H71.8993V11.0742H76.2972V12.5361H70.3125Z" fill="#A1A3A7"/>
        <path class="illustration-text-secondary-fill" d="M66.9531 12.5361V3.91504H68.5399V12.5361H66.9531Z" fill="#A1A3A7"/>
        <path class="illustration-text-secondary-fill" d="M58.1641 12.5361V3.91504H59.7508V7.30098H63.5741V3.91504H65.1608V12.5361H63.5741V8.7753H59.7508V12.5361H58.1641Z" fill="#A1A3A7"/>
        <path class="illustration-text-secondary-fill" d="M49.8594 9.66366H51.4711C51.6336 10.7756 52.3832 11.3254 53.5202 11.3254C54.3823 11.3254 55.1444 10.9756 55.1444 10.2134C55.1444 9.61368 54.6946 9.30132 54.1574 9.15139L52.2583 8.61414C51.0088 8.2518 50.1717 7.37721 50.1717 6.19025C50.1717 4.75342 51.4337 3.69141 53.2953 3.69141C55.007 3.69141 56.2439 4.55351 56.6063 6.0903V6.60256H55.0695C54.9195 5.6655 54.3073 5.10326 53.2828 5.10326C52.4582 5.10326 51.821 5.49058 51.821 6.14028C51.821 6.62755 52.1708 7.00238 52.7955 7.1773L54.6946 7.70206C55.9191 8.0394 56.7937 8.85153 56.7937 10.1759C56.7937 11.8501 55.3943 12.7622 53.5077 12.7622C51.5586 12.7622 50.2092 11.7752 49.8594 10.1759V9.66366Z" fill="#A1A3A7"/>
        <path class="illustration-text-secondary-fill illustration-text-secondary-stroke" d="M93.9873 12.8506C93.9374 12.9584 93.9092 13.0786 93.9092 13.2061V13.7803C93.9092 13.8011 93.89 13.83 93.8525 13.8301H92.709C92.6715 13.8299 92.6523 13.801 92.6523 13.7803V12.9805C92.6526 12.9597 92.6718 12.9318 92.709 12.9316H93.6221C93.7522 12.9316 93.8757 12.9019 93.9873 12.8506ZM94.4111 3.56836C94.5228 3.61967 94.6464 3.64941 94.7764 3.64941H95.3623C95.3999 3.64941 95.4198 3.67743 95.4199 3.69824V12.3008C95.4199 12.3216 95.4008 12.3495 95.3633 12.3496H94.7764C94.6465 12.3497 94.5226 12.3785 94.4111 12.4297C94.4608 12.322 94.4893 12.2024 94.4893 12.0752V3.92383C94.4892 3.79625 94.4611 3.67623 94.4111 3.56836ZM92.709 2.16992H93.8516C93.8892 2.16992 93.9092 2.19793 93.9092 2.21875V2.79297C93.9092 2.92007 93.9367 3.0399 93.9863 3.14746C93.875 3.09645 93.7516 3.06739 93.6221 3.06738H92.709C92.6715 3.06738 92.6525 3.03935 92.6523 3.01855V2.21875C92.6523 2.19793 92.6714 2.16992 92.709 2.16992Z" fill="#A1A3A7" stroke="#A1A3A7" stroke-width="0.64778"/>
        <path class="illustration-text-secondary-fill illustration-text-secondary-stroke" d="M20.083 3.85547C20.7016 3.85547 21.2422 3.96659 21.7109 4.18164C22.1213 4.37008 22.4469 4.62109 22.6953 4.93262L22.7969 5.06934C22.9926 5.35419 23.1204 5.66397 23.1816 6.00195L22.1084 5.99414C22.0129 5.6287 21.8123 5.31866 21.5117 5.07324C21.1283 4.76092 20.6425 4.61915 20.083 4.61914C19.5781 4.61914 19.1353 4.72535 18.7832 4.96875C18.4049 5.23033 18.2207 5.61966 18.2207 6.08789C18.2208 6.42031 18.3335 6.71528 18.582 6.93066C18.7411 7.06852 18.9359 7.1775 19.1582 7.2627L19.3896 7.33984C19.6978 7.42984 20.1483 7.52579 20.7324 7.62793L20.7598 7.63281H20.7705C21.3295 7.73757 21.7962 7.86544 22.1748 8.01367L22.2002 8.02441C22.5612 8.16832 22.8481 8.38617 23.0674 8.67969C23.2707 8.95233 23.3877 9.32971 23.3877 9.84082C23.3876 10.3016 23.2595 10.7087 23.0039 11.0723C22.7459 11.4394 22.3851 11.733 21.9102 11.9492C21.4368 12.1646 20.8938 12.2764 20.2754 12.2764C19.6059 12.2764 19.0261 12.1539 18.5293 11.9189C18.0289 11.6823 17.6454 11.3618 17.3691 10.96C17.1557 10.6495 17.0201 10.3067 16.9629 9.92773L18.0332 9.94336C18.1252 10.3759 18.3487 10.7406 18.6992 11.0264C19.1295 11.377 19.6782 11.5381 20.3145 11.5381C20.8474 11.5381 21.3145 11.4209 21.6904 11.1621C22.0855 10.8899 22.292 10.4983 22.292 10.0186C22.292 9.67847 22.1768 9.37684 21.9268 9.15332C21.7096 8.95975 21.4293 8.82155 21.1025 8.72754C20.7919 8.63819 20.332 8.53841 19.7314 8.42773L19.6719 8.41602L19.667 8.41504L19.2734 8.33496C18.8964 8.24862 18.5688 8.14448 18.2891 8.02344V8.02246C17.9379 7.87064 17.6596 7.65005 17.4473 7.35938C17.2516 7.09132 17.1377 6.71562 17.1377 6.20215C17.1377 5.75667 17.2584 5.36273 17.498 5.01172L17.499 5.01074C17.7395 4.65808 18.0796 4.37643 18.5322 4.16895C18.9842 3.96181 19.4996 3.85551 20.083 3.85547Z" fill="#A1A3A7" stroke="#A1A3A7" stroke-width="0.64778"/>
        <path class="illustration-text-secondary-fill illustration-text-secondary-stroke" d="M27.793 6.18848C28.656 6.18848 29.1665 6.37958 29.5957 6.72852C30.0029 7.0596 30.2246 7.54917 30.2246 8.25195V10.7002C30.2246 10.8956 30.2705 11.1128 30.4365 11.2686V11.2695C30.5859 11.4101 30.7758 11.4599 30.9609 11.46H31.0088V12.1963H30.041C29.8206 12.1962 29.6457 12.0197 29.6455 11.8057V11.5879C29.6454 11.0943 29.0433 10.9295 28.7617 11.2637L28.7217 11.3193C28.5927 11.5093 28.459 11.667 28.3125 11.7969L28.1611 11.918C27.9136 12.0957 27.6852 12.2066 27.4121 12.25C27.1342 12.2945 26.8403 12.2809 26.5381 12.2344C26.1576 12.1758 25.8016 12.0442 25.5107 11.8262V11.8252C25.1413 11.5484 24.957 11.1772 24.957 10.6748C24.957 10.1475 25.1188 9.75049 25.4326 9.45312L25.5762 9.33105C25.9957 9.01509 26.6458 8.83306 27.5742 8.83301H28.7627C29.0202 8.83285 29.2341 8.62482 29.2344 8.3623V8.16309C29.2344 7.75511 29.0724 7.39941 28.7891 7.14941C28.5092 6.9025 28.1307 6.77548 27.7168 6.77539C27.2972 6.77539 26.9492 6.86528 26.6484 7.06641C26.4267 7.21491 26.2618 7.40911 26.166 7.64648H25.2002C25.3125 7.24755 25.5414 6.9313 25.8965 6.68652V6.68555C26.3617 6.3648 26.9713 6.18852 27.793 6.18848ZM27.5479 9.3125C27.1071 9.31252 26.7193 9.3981 26.4238 9.61035L26.4229 9.61133C26.1128 9.83533 25.9601 10.1607 25.96 10.5459C25.96 10.8998 26.1032 11.2001 26.3818 11.417C26.6515 11.6268 26.9904 11.7158 27.3672 11.7158C28.0326 11.7158 28.6477 11.4083 28.9912 10.8027V10.8018C29.1559 10.5106 29.2334 10.1784 29.2334 9.81543V9.7832C29.2332 9.52214 29.0209 9.31258 28.7617 9.3125H27.5479Z" fill="#A1A3A7" stroke="#A1A3A7" stroke-width="0.64778"/>
        <path class="illustration-text-secondary-fill illustration-text-secondary-stroke" d="M34.2295 3.98438H35.749V4.72852H34.5195C34.1794 4.72852 33.9006 5.00326 33.9004 5.3457V5.9834C33.9004 6.24385 34.1127 6.4541 34.3721 6.4541H35.7363V7.19824H34.3721C34.1143 7.19824 33.9004 7.40684 33.9004 7.66895V12.2754H32.9316V7.66895C32.9316 7.40842 32.7193 7.19824 32.46 7.19824H31.668V6.4541H32.46C32.7178 6.4541 32.9316 6.24542 32.9316 5.9834V5.27441C32.9316 4.56303 33.5115 3.98438 34.2295 3.98438Z" fill="#A1A3A7" stroke="#A1A3A7" stroke-width="0.64778"/>
        <path class="illustration-text-secondary-fill illustration-text-secondary-stroke" d="M39.5273 6.18848C40.1432 6.18848 40.6745 6.31074 41.127 6.54102C41.5732 6.7682 41.9229 7.09075 42.1816 7.51074L42.1895 7.52344C42.4459 7.9455 42.5791 8.44235 42.5791 9.02344C42.5791 9.09944 42.5769 9.18378 42.5732 9.27637H38.0811C37.8083 9.27649 37.5767 9.51187 37.6104 9.80078V9.80176C37.6161 9.84999 37.6229 9.89688 37.6299 9.94043L37.6309 9.94238C37.6532 10.0771 37.6852 10.2137 37.7314 10.3477H37.7324C37.754 10.4098 37.7782 10.4715 37.8057 10.5322L37.8975 10.7119C38.0702 11.0104 38.3084 11.2446 38.6084 11.4102C38.9117 11.5775 39.2563 11.6553 39.6318 11.6553C40.0808 11.6553 40.4816 11.554 40.8154 11.332V11.3311C41.0802 11.1542 41.2769 10.9188 41.4004 10.6299H42.3984C42.3453 10.7834 42.2758 10.9309 42.1885 11.0723L42.0479 11.2754C41.843 11.5422 41.5794 11.7624 41.252 11.9346L41.1074 12.0059C40.7168 12.1845 40.2657 12.2773 39.749 12.2773C39.0684 12.2773 38.4928 12.1485 38.0127 11.9023C37.5331 11.657 37.1699 11.3102 36.915 10.8584C36.6593 10.4045 36.5274 9.88922 36.5273 9.25391C36.5273 8.61447 36.6566 8.07327 36.9043 7.62012C37.1531 7.1651 37.5003 6.81658 37.9502 6.56836C38.4016 6.31937 38.9167 6.18851 39.5273 6.18848ZM39.5918 6.78809C39.2696 6.78814 38.9657 6.85321 38.6846 6.98633C38.4005 7.12108 38.1658 7.31768 37.9854 7.57324C37.8455 7.77123 37.7481 7.99196 37.6924 8.23242L37.6914 8.2334C37.6223 8.53696 37.8601 8.80859 38.1543 8.80859H41.0693C41.3648 8.8083 41.6008 8.53483 41.5303 8.23145C41.435 7.81824 41.2319 7.47495 40.917 7.21973C40.5537 6.92539 40.1034 6.78809 39.5918 6.78809Z" fill="#A1A3A7" stroke="#A1A3A7" stroke-width="0.64778"/>
    </g>
   
    <defs>
        <clipPath id="clip0_4420_1460">
            <rect width="84.2114" height="12.3078" fill="white" transform="translate(16.6172 1.8457)"/>
        </clipPath>
    </defs>
</svg>
