<svg xmlns="http://www.w3.org/2000/svg" width="16" height="16" viewBox="0 0 16 16" fill="none">
  <g clip-path="url(#clip0_8790_81405)">
    <path class="safe-shield-shape" d="M16 1.28V5.75998C16 9.97757 13.8733 12.5336 12.0892 13.9352C10.1675 15.444 8.25583 15.9568 8.1725 15.9776C8.05792 16.0075 7.93708 16.0075 7.8225 15.9776C7.73917 15.9568 5.83 15.444 3.90583 13.9352C2.12667 12.5336 0 9.97757 0 5.75998L0 1.28C0 0.94052 0.140476 0.614948 0.390524 0.374902C0.640573 0.134856 0.979711 0 1.33333 0L14.6667 0C15.0203 0 15.3594 0.134856 15.6095 0.374902C15.8595 0.614948 16 0.94052 16 1.28Z" fill="#DDDEE0"/>
    <g filter="url(#filter0_i_8790_81405)">
      <path class="safe-shield-inner-logo" d="M11.1879 7.03809H10.4025C10.1679 7.03809 9.97784 7.22618 9.97784 7.4583V8.58637C9.97784 8.8185 9.78776 9.00659 9.55319 9.00659H6.42856C6.19398 9.00659 6.00391 9.19468 6.00391 9.42681V10.204C6.00391 10.4361 6.19398 10.6242 6.42856 10.6242H9.73405C9.96862 10.6242 10.156 10.4361 10.156 10.204V9.58045C10.156 9.34833 10.3461 9.18367 10.5806 9.18367H11.1877C11.4223 9.18367 11.6124 8.99558 11.6124 8.76346V7.45343C11.6124 7.2213 11.4223 7.03809 11.1877 7.03809H11.1879Z" fill="#A1A3A7"/>
      <path class="safe-shield-inner-logo" d="M6.0058 5.49391C6.0058 5.26179 6.19588 5.0737 6.43045 5.0737H9.55318C9.78775 5.0737 9.97783 4.88561 9.97783 4.65348V3.87627C9.97783 3.64415 9.78775 3.45605 9.55318 3.45605H6.24943C6.01486 3.45605 5.82479 3.64415 5.82479 3.87627V4.47514C5.82479 4.70727 5.63471 4.89536 5.40014 4.89536H4.79574C4.56117 4.89536 4.37109 5.08345 4.37109 5.31557V6.62702C4.37109 6.85914 4.56196 7.0378 4.79654 7.0378H5.58195C5.81652 7.0378 6.0066 6.84971 6.0066 6.61758L6.0058 5.49407V5.49391Z" fill="#A1A3A7"/>
      <path class="safe-shield-inner-logo" d="M7.62304 6.22461H8.37746C8.62332 6.22461 8.82277 6.42214 8.82277 6.66527V7.41181C8.82277 7.6551 8.62316 7.85247 8.37746 7.85247H7.62304C7.37719 7.85247 7.17773 7.65495 7.17773 7.41181V6.66527C7.17773 6.42198 7.37734 6.22461 7.62304 6.22461Z" fill="#A1A3A7"/>
    </g>
  </g>
  <defs>
    <filter id="filter0_i_8790_81405" x="4.37109" y="3.45605" width="7.24219" height="7.49383" filterUnits="userSpaceOnUse" color-interpolation-filters="sRGB">
      <feFlood flood-opacity="0" result="BackgroundImageFix"/>
      <feBlend mode="normal" in="SourceGraphic" in2="BackgroundImageFix" result="shape"/>
      <feColorMatrix in="SourceAlpha" type="matrix" values="0 0 0 0 0 0 0 0 0 0 0 0 0 0 0 0 0 0 127 0" result="hardAlpha"/>
      <feOffset dy="0.325866"/>
      <feGaussianBlur stdDeviation="0.581898"/>
      <feComposite in2="hardAlpha" operator="arithmetic" k2="-1" k3="1"/>
      <feColorMatrix type="matrix" values="0 0 0 0 0.0509804 0 0 0 0 0.129412 0 0 0 0 0.156863 0 0 0 0.3 0"/>
      <feBlend mode="normal" in2="shape" result="effect1_innerShadow_8790_81405"/>
    </filter>
    <clipPath id="clip0_8790_81405">
      <rect width="16" height="16" fill="white"/>
    </clipPath>
  </defs>
</svg>