<svg width="78" height="18" viewBox="0 0 78 18" fill="none" xmlns="http://www.w3.org/2000/svg">
    <rect class="shield-bg" width="78.0039" height="18.0039" rx="9.00193" fill="white"/>
    
    <g clip-path="url(#clip0_8937_14745)">
        <path class="shield-img" d="M15.5029 4.872V7.92399C15.5029 10.7972 14.1069 12.5385 12.9357 13.4933C11.6743 14.5212 10.4194 14.8705 10.3647 14.8847C10.2895 14.9051 10.2101 14.9051 10.1349 14.8847C10.0802 14.8705 8.82699 14.5212 7.56391 13.4933C6.39601 12.5385 5 10.7972 5 7.92399V4.872C5 4.64073 5.09221 4.41893 5.25635 4.2554C5.42049 4.09187 5.64311 4 5.87524 4H14.6277C14.8598 4 15.0824 4.09187 15.2465 4.2554C15.4107 4.41893 15.5029 4.64073 15.5029 4.872Z" fill="#DCDEE0"/>
        <g filter="url(#filter0_i_8937_14745)">
            <path class="shield-lines" d="M12.3439 8.79395H11.8283C11.6743 8.79395 11.5495 8.92208 11.5495 9.08022V9.84872C11.5495 10.0069 11.4248 10.135 11.2708 10.135H9.21967C9.06569 10.135 8.94092 10.2631 8.94092 10.4213V10.9507C8.94092 11.1089 9.06569 11.237 9.21967 11.237H11.3895C11.5435 11.237 11.6665 11.1089 11.6665 10.9507V10.5259C11.6665 10.3678 11.7912 10.2556 11.9452 10.2556H12.3437C12.4977 10.2556 12.6225 10.1275 12.6225 9.96935V9.0769C12.6225 8.91876 12.4977 8.79395 12.3437 8.79395H12.3439Z" fill="#A1A3A7"/>
            <path class="shield-lines" d="M8.9427 7.74181C8.9427 7.58367 9.06747 7.45553 9.22145 7.45553H11.2713C11.4253 7.45553 11.5501 7.3274 11.5501 7.16926V6.63979C11.5501 6.48165 11.4253 6.35352 11.2713 6.35352H9.10263C8.94865 6.35352 8.82388 6.48165 8.82388 6.63979V7.04777C8.82388 7.2059 8.69911 7.33404 8.54512 7.33404H8.14838C7.9944 7.33404 7.86963 7.46218 7.86963 7.62031V8.51373C7.86963 8.67187 7.99492 8.79358 8.1489 8.79358H8.66447C8.81845 8.79358 8.94322 8.66544 8.94322 8.50731L8.9427 7.74191V7.74181Z" fill="#A1A3A7"/>
            <path class="shield-lines" d="M10.0042 8.23828H10.4995C10.6608 8.23828 10.7918 8.37285 10.7918 8.53848V9.04706C10.7918 9.21281 10.6607 9.34726 10.4995 9.34726H10.0042C9.84284 9.34726 9.71191 9.2127 9.71191 9.04706V8.53848C9.71191 8.37274 9.84294 8.23828 10.0042 8.23828Z" fill="#A1A3A7"/>
        </g>
    </g>

    <path class="shield-text" d="M18.0039 10.2692H19.5295C19.6832 11.2499 20.3928 11.7347 21.4689 11.7347C22.2849 11.7347 23.0063 11.4262 23.0063 10.754C23.0063 10.2251 22.5806 9.94961 22.0721 9.81738L20.2745 9.34355C19.0919 9.02399 18.2996 8.25264 18.2996 7.20581C18.2996 5.93859 19.494 5.00195 21.2561 5.00195C22.8762 5.00195 24.047 5.76228 24.39 7.11766V7.56945H22.9354C22.7934 6.743 22.214 6.24713 21.2442 6.24713C20.4637 6.24713 19.8606 6.58873 19.8606 7.16173C19.8606 7.59148 20.1917 7.92206 20.783 8.07633L22.5806 8.53914C23.7395 8.83666 24.5673 9.55292 24.5673 10.721C24.5673 12.1975 23.2428 13.002 21.4571 13.002C19.6122 13.002 18.335 12.1314 18.0039 10.721V10.2692Z" fill="#A1A3A7"/>
    <path class="shield-text" d="M30.7394 11.7568H30.9641V12.8036H30.3965C29.8406 12.8036 29.3558 12.6163 29.2375 11.9661H29.0956C28.7999 12.5612 28.1022 13.002 27.097 13.002C26.0208 13.002 25.1575 12.484 25.1575 11.5364C25.1575 10.7761 25.7015 10.2141 26.6358 9.97165L28.8827 9.38763C28.8354 8.86972 28.3979 8.5722 27.842 8.5722C27.3217 8.5722 26.8605 8.82564 26.7186 9.38763H25.4295V9.02399C25.7252 8.09837 26.624 7.51435 27.8775 7.51435C29.3794 7.51435 30.3137 8.35182 30.3137 9.57496V11.305C30.3137 11.6025 30.4319 11.7568 30.7394 11.7568ZM27.4636 12.0433C28.3624 12.0433 28.8946 11.3931 28.8946 10.721V10.3353L27.3453 10.754C26.8368 10.8973 26.5885 11.1066 26.5885 11.4372C26.5885 11.8339 26.9314 12.0433 27.4636 12.0433Z" fill="#A1A3A7"/>
    <path class="shield-text" d="M35.1394 6.29121H33.9687C33.6375 6.29121 33.4838 6.4014 33.4838 6.70994V7.7127H34.8674V8.80361H33.4838V12.8036H32.041V8.80361H31.0949V7.7127H32.041V6.64383C32.041 5.67413 32.6205 5.2003 33.673 5.2003H35.1394V6.29121Z" fill="#A1A3A7"/>
    <path class="shield-text" d="M40.7068 10.2471V10.5777H36.5086C36.615 11.4152 37.1826 11.9661 37.9986 11.9661C38.6254 11.9661 39.0985 11.6356 39.2522 11.1066H40.5649V11.4813C40.2574 12.2637 39.4059 13.002 37.9986 13.002C36.272 13.002 35.1013 11.8559 35.1013 10.2582C35.1013 8.66035 36.2957 7.51435 37.975 7.51435C39.607 7.51435 40.7068 8.58322 40.7068 10.2471ZM37.9632 8.49507C37.2536 8.49507 36.7333 8.93584 36.5559 9.66311H39.3113C39.1694 8.95788 38.6964 8.49507 37.9632 8.49507Z" fill="#A1A3A7"/>
    <path class="shield-text" d="M43.0345 10.4565H43.8387C44.0397 11.6466 44.9267 12.2857 46.2867 12.2857C47.4574 12.2857 48.3207 11.7898 48.3207 10.8973C48.3207 10.17 47.7767 9.74024 47.0435 9.5419L45.175 9.04603C44.1225 8.75953 43.3302 8.06531 43.3302 7.05154C43.3302 5.86146 44.4536 5.00195 46.062 5.00195C47.623 5.00195 48.6873 5.75126 48.983 7.06256V7.3711H48.2143C48.0369 6.33529 47.3037 5.71821 46.062 5.71821C44.9503 5.71821 44.1698 6.24713 44.1698 7.01848C44.1698 7.61352 44.6192 8.09837 45.447 8.31876L47.3037 8.81463C48.3799 9.11215 49.1722 9.7733 49.1722 10.8752C49.1722 12.1975 48.0014 13.002 46.2867 13.002C44.4655 13.002 43.3656 12.1204 43.0345 10.765V10.4565Z" fill="#A1A3A7"/>
    <path class="shield-text" d="M50.3697 12.8036V5.2003H51.1502V8.67137H51.2566C51.5641 8.01022 52.2382 7.51435 53.137 7.51435C54.3669 7.51435 55.2065 8.38487 55.2065 9.64107V12.8036H54.426V9.76228C54.426 8.81462 53.882 8.20856 52.9596 8.20856C51.9071 8.20856 51.1502 9.04603 51.1502 10.3132V12.8036H50.3697Z" fill="#A1A3A7"/>
    <path class="shield-text" d="M56.5076 6.12592V5.2003H57.3945V6.12592H56.5076ZM56.5667 12.8036V7.7127H57.3472V12.8036H56.5667Z" fill="#A1A3A7"/>
    <path class="shield-text" d="M63.6959 10.17V10.4124H59.2494C59.3085 11.5474 60.0417 12.3739 61.177 12.3739C62.0048 12.3739 62.6198 11.9221 62.8208 11.2389H63.554V11.4923C63.2702 12.2857 62.466 13.002 61.177 13.002C59.5568 13.002 58.4688 11.8229 58.4688 10.2582C58.4688 8.68239 59.5687 7.51435 61.1534 7.51435C62.7617 7.51435 63.6959 8.66035 63.6959 10.17ZM61.1534 8.12041C60.1363 8.12041 59.4504 8.81462 59.2848 9.80636H62.9036C62.7853 8.82564 62.2059 8.12041 61.1534 8.12041Z" fill="#A1A3A7"/>
    <path class="shield-text" d="M64.7314 12.8036V5.2003H65.5119V12.8036H64.7314Z" fill="#A1A3A7"/>
    <path class="shield-text" d="M69.1538 7.51435C70.0763 7.51435 70.7858 7.97716 71.1288 8.64934H71.2234V5.2003H72.0039V12.8036H71.2707V11.8229H71.1643C70.8331 12.5061 70.0999 13.002 69.1538 13.002C67.6638 13.002 66.6112 11.8119 66.6112 10.2582C66.6112 8.70443 67.6638 7.51435 69.1538 7.51435ZM69.3312 8.16449C68.1841 8.16449 67.4272 9.04603 67.4272 10.2582C67.4272 11.4703 68.1841 12.3518 69.3312 12.3518C70.4783 12.3518 71.2589 11.4703 71.2589 10.2582C71.2589 9.04603 70.4783 8.16449 69.3312 8.16449Z" fill="#A1A3A7"/>
    
    <defs>
        <filter id="filter0_i_8937_14745" x="7.86963" y="6.35352" width="4.75293" height="5.07984" filterUnits="userSpaceOnUse" color-interpolation-filters="sRGB">
            <feFlood flood-opacity="0" result="BackgroundImageFix"/>
            <feBlend mode="normal" in="SourceGraphic" in2="BackgroundImageFix" result="shape"/>
            <feColorMatrix in="SourceAlpha" type="matrix" values="0 0 0 0 0 0 0 0 0 0 0 0 0 0 0 0 0 0 127 0" result="hardAlpha"/>
            <feOffset dy="0.196056"/>
            <feGaussianBlur stdDeviation="0.350097"/>
            <feComposite in2="hardAlpha" operator="arithmetic" k2="-1" k3="1"/>
            <feColorMatrix type="matrix" values="0 0 0 0 0.0509804 0 0 0 0 0.129412 0 0 0 0 0.156863 0 0 0 0.3 0"/>
            <feBlend mode="normal" in2="shape" result="effect1_innerShadow_8937_14745"/>
        </filter>
        <clipPath id="clip0_8937_14745">
            <rect width="10.5029" height="10.9" fill="white" transform="translate(5 4)"/>
        </clipPath>
    </defs>
</svg>
