<svg width="78" height="18" viewBox="0 0 78 18" fill="none" xmlns="http://www.w3.org/2000/svg">
<rect width="78.0039" height="18.0039" rx="9.00193"/>
<g clip-path="url(#clip0_8463_13416)">
<path d="M15.5029 4.872V7.92399C15.5029 10.7972 14.1069 12.5385 12.9357 13.4933C11.6743 14.5212 10.4194 14.8705 10.3647 14.8847C10.2895 14.9051 10.2101 14.9051 10.1349 14.8847C10.0802 14.8705 8.82699 14.5212 7.56391 13.4933C6.39601 12.5385 5 10.7972 5 7.92399V4.872C5 4.64073 5.09221 4.41893 5.25635 4.2554C5.42049 4.09187 5.64311 4 5.87524 4H14.6277C14.8598 4 15.0824 4.09187 15.2465 4.2554C15.4107 4.41893 15.5029 4.64073 15.5029 4.872Z" fill="#12FF80"/>
<g filter="url(#filter0_i_8463_13416)">
<path d="M12.3437 8.79297H11.8282C11.6742 8.79297 11.5494 8.92111 11.5494 9.07924V9.84774C11.5494 10.0059 11.4246 10.134 11.2707 10.134H9.21955C9.06557 10.134 8.9408 10.2621 8.9408 10.4203V10.9498C8.9408 11.1079 9.06557 11.236 9.21955 11.236H11.3894C11.5434 11.236 11.6664 11.1079 11.6664 10.9498V10.525C11.6664 10.3668 11.7911 10.2546 11.9451 10.2546H12.3436C12.4976 10.2546 12.6224 10.1265 12.6224 9.96838V9.07592C12.6224 8.91778 12.4976 8.79297 12.3436 8.79297H12.3437Z" fill="#121312"/>
<path d="M8.94282 7.74181C8.94282 7.58367 9.06759 7.45553 9.22158 7.45553H11.2714C11.4254 7.45553 11.5502 7.3274 11.5502 7.16926V6.63979C11.5502 6.48165 11.4254 6.35352 11.2714 6.35352H9.10275C8.94877 6.35352 8.824 6.48165 8.824 6.63979V7.04777C8.824 7.2059 8.69923 7.33404 8.54525 7.33404H8.1485C7.99452 7.33404 7.86975 7.46218 7.86975 7.62031V8.51373C7.86975 8.67187 7.99504 8.79358 8.14903 8.79358H8.66459C8.81857 8.79358 8.94335 8.66544 8.94335 8.50731L8.94282 7.74191V7.74181Z" fill="#121312"/>
<path d="M10.0043 8.23828H10.4995C10.6609 8.23828 10.7918 8.37285 10.7918 8.53848V9.04706C10.7918 9.21281 10.6608 9.34726 10.4995 9.34726H10.0043C9.8429 9.34726 9.71198 9.2127 9.71198 9.04706V8.53848C9.71198 8.37274 9.84301 8.23828 10.0043 8.23828Z" fill="#121312"/>
</g>
</g>
<path class="safeShieldText" d="M18.0038 10.2692H19.5294C19.6831 11.2499 20.3927 11.7347 21.4689 11.7347C22.2849 11.7347 23.0062 11.4262 23.0062 10.754C23.0062 10.2251 22.5805 9.94961 22.072 9.81738L20.2744 9.34355C19.0918 9.02399 18.2995 8.25264 18.2995 7.20581C18.2995 5.93859 19.4939 5.00195 21.256 5.00195C22.8762 5.00195 24.0469 5.76228 24.3899 7.11766V7.56945H22.9353C22.7934 6.743 22.2139 6.24713 21.2442 6.24713C20.4637 6.24713 19.8605 6.58873 19.8605 7.16173C19.8605 7.59148 20.1917 7.92206 20.783 8.07633L22.5805 8.53914C23.7395 8.83666 24.5673 9.55292 24.5673 10.721C24.5673 12.1975 23.2428 13.002 21.457 13.002C19.6122 13.002 18.335 12.1314 18.0038 10.721V10.2692Z" fill="#121312"/>
<path class="safeShieldText" d="M30.7394 11.7568H30.964V12.8036H30.3964C29.8406 12.8036 29.3557 12.6163 29.2374 11.9661H29.0955C28.7999 12.5612 28.1022 13.002 27.0969 13.002C26.0208 13.002 25.1575 12.484 25.1575 11.5364C25.1575 10.7761 25.7015 10.2141 26.6357 9.97165L28.8827 9.38763C28.8354 8.86972 28.3978 8.5722 27.842 8.5722C27.3216 8.5722 26.8604 8.82564 26.7185 9.38763H25.4295V9.02399C25.7251 8.09837 26.6239 7.51435 27.8775 7.51435C29.3794 7.51435 30.3136 8.35182 30.3136 9.57496V11.305C30.3136 11.6025 30.4319 11.7568 30.7394 11.7568ZM27.4635 12.0433C28.3623 12.0433 28.8945 11.3931 28.8945 10.721V10.3353L27.3453 10.754C26.8368 10.8973 26.5884 11.1066 26.5884 11.4372C26.5884 11.8339 26.9314 12.0433 27.4635 12.0433Z" fill="#121312"/>
<path class="safeShieldText" d="M35.1394 6.29121H33.9686C33.6375 6.29121 33.4837 6.4014 33.4837 6.70994V7.7127H34.8674V8.80361H33.4837V12.8036H32.041V8.80361H31.0949V7.7127H32.041V6.64383C32.041 5.67413 32.6204 5.2003 33.6729 5.2003H35.1394V6.29121Z" fill="#121312"/>
<path class="safeShieldText" d="M40.7067 10.2471V10.5777H36.5085C36.6149 11.4152 37.1826 11.9661 37.9986 11.9661C38.6254 11.9661 39.0984 11.6356 39.2521 11.1066H40.5648V11.4813C40.2574 12.2637 39.4059 13.002 37.9986 13.002C36.272 13.002 35.1012 11.8559 35.1012 10.2582C35.1012 8.66035 36.2956 7.51435 37.9749 7.51435C39.6069 7.51435 40.7067 8.58322 40.7067 10.2471ZM37.9631 8.49507C37.2535 8.49507 36.7332 8.93584 36.5558 9.66311H39.3113C39.1694 8.95788 38.6963 8.49507 37.9631 8.49507Z" fill="#121312"/>
<path class="safeShieldText" d="M43.0345 10.4565H43.8386C44.0397 11.6466 44.9266 12.2857 46.2866 12.2857C47.4574 12.2857 48.3207 11.7898 48.3207 10.8973C48.3207 10.17 47.7767 9.74024 47.0435 9.5419L45.175 9.04603C44.1224 8.75953 43.3301 8.06531 43.3301 7.05154C43.3301 5.86146 44.4536 5.00195 46.0619 5.00195C47.6229 5.00195 48.6873 5.75126 48.9829 7.06256V7.3711H48.2142C48.0369 6.33529 47.3036 5.71821 46.0619 5.71821C44.9503 5.71821 44.1698 6.24713 44.1698 7.01848C44.1698 7.61352 44.6191 8.09837 45.447 8.31876L47.3036 8.81463C48.3798 9.11215 49.1722 9.7733 49.1722 10.8752C49.1722 12.1975 48.0014 13.002 46.2866 13.002C44.4654 13.002 43.3656 12.1204 43.0345 10.765V10.4565Z" fill="#121312"/>
<path class="safeShieldText" d="M50.3696 12.8036V5.2003H51.1502V8.67137H51.2566C51.5641 8.01022 52.2381 7.51435 53.1369 7.51435C54.3668 7.51435 55.2065 8.38487 55.2065 9.64107V12.8036H54.426V9.76228C54.426 8.81462 53.882 8.20856 52.9595 8.20856C51.907 8.20856 51.1502 9.04603 51.1502 10.3132V12.8036H50.3696Z" fill="#121312"/>
<path class="safeShieldText" d="M56.5075 6.12592V5.2003H57.3945V6.12592H56.5075ZM56.5666 12.8036V7.7127H57.3472V12.8036H56.5666Z" fill="#121312"/>
<path class="safeShieldText" d="M63.6959 10.17V10.4124H59.2493C59.3084 11.5474 60.0416 12.3739 61.1769 12.3739C62.0048 12.3739 62.6197 11.9221 62.8208 11.2389H63.554V11.4923C63.2701 12.2857 62.466 13.002 61.1769 13.002C59.5568 13.002 58.4688 11.8229 58.4688 10.2582C58.4688 8.68239 59.5686 7.51435 61.1533 7.51435C62.7616 7.51435 63.6959 8.66035 63.6959 10.17ZM61.1533 8.12041C60.1363 8.12041 59.4503 8.81462 59.2848 9.80636H62.9035C62.7853 8.82564 62.2058 8.12041 61.1533 8.12041Z" fill="#121312"/>
<path class="safeShieldText" d="M64.7313 12.8036V5.2003H65.5118V12.8036H64.7313Z" fill="#121312"/>
<path class="safeShieldText" d="M69.1538 7.51435C70.0762 7.51435 70.7858 7.97716 71.1287 8.64934H71.2233V5.2003H72.0038V12.8036H71.2706V11.8229H71.1642C70.8331 12.5061 70.0999 13.002 69.1538 13.002C67.6637 13.002 66.6112 11.8119 66.6112 10.2582C66.6112 8.70443 67.6637 7.51435 69.1538 7.51435ZM69.3312 8.16449C68.184 8.16449 67.4272 9.04603 67.4272 10.2582C67.4272 11.4703 68.184 12.3518 69.3312 12.3518C70.4783 12.3518 71.2588 11.4703 71.2588 10.2582C71.2588 9.04603 70.4783 8.16449 69.3312 8.16449Z" fill="#121312"/>
<defs>
<filter id="filter0_i_8463_13416" x="7.86975" y="6.35352" width="4.75262" height="5.07887" filterUnits="userSpaceOnUse" color-interpolation-filters="sRGB">
<feFlood flood-opacity="0" result="BackgroundImageFix"/>
<feBlend mode="normal" in="SourceGraphic" in2="BackgroundImageFix" result="shape"/>
<feColorMatrix in="SourceAlpha" type="matrix" values="0 0 0 0 0 0 0 0 0 0 0 0 0 0 0 0 0 0 127 0" result="hardAlpha"/>
<feOffset dy="0.196056"/>
<feGaussianBlur stdDeviation="0.350097"/>
<feComposite in2="hardAlpha" operator="arithmetic" k2="-1" k3="1"/>
<feColorMatrix type="matrix" values="0 0 0 0 0.0509804 0 0 0 0 0.129412 0 0 0 0 0.156863 0 0 0 0.3 0"/>
<feBlend mode="normal" in2="shape" result="effect1_innerShadow_8463_13416"/>
</filter>
<clipPath id="clip0_8463_13416">
<rect width="10.5029" height="10.9" fill="white" transform="translate(5 4)"/>
</clipPath>
</defs>
</svg>
