<svg width="16" height="16" viewBox="0 0 16 16" fill="none" xmlns="http://www.w3.org/2000/svg">
<path fill-rule="evenodd" clip-rule="evenodd" d="M14.2044 3.582C13.8524 3.46867 13.4784 3.66 13.3638 4.01L13.0998 4.82333C12.0238 3.092 10.1231 2 8.00644 2C5.20978 2 2.80844 3.89867 2.16644 6.61667C2.08178 6.97467 2.30378 7.334 2.66311 7.41867C2.71444 7.43 2.76578 7.436 2.81644 7.436C3.11844 7.436 3.39178 7.23 3.46511 6.92267C3.96378 4.80933 5.83111 3.33333 8.00644 3.33333C9.66711 3.33333 11.1464 4.20533 11.9791 5.57267L10.9458 5.25533C10.5931 5.146 10.2204 5.346 10.1124 5.69667C10.0044 6.04867 10.2024 6.422 10.5538 6.53L13.0118 7.28533C13.0771 7.30533 13.1431 7.31467 13.2078 7.31467C13.4891 7.31467 13.7498 7.13533 13.8418 6.854L14.6324 4.42267C14.7458 4.072 14.5538 3.696 14.2044 3.582Z" fill="#A1A3A7"/>
<path fill-rule="evenodd" clip-rule="evenodd" d="M13.3668 8.38088C13.0008 8.30955 12.6541 8.54555 12.5835 8.90622C12.1555 11.0855 10.2295 12.6669 8.00481 12.6669C6.34948 12.6669 4.86881 11.7955 4.03548 10.4309L5.05481 10.7449C5.40815 10.8549 5.78015 10.6549 5.88815 10.3035C5.99615 9.95088 5.79881 9.57822 5.44681 9.47022L2.98948 8.71422C2.64081 8.60688 2.27215 8.79955 2.15881 9.14555L1.36881 11.5782C1.25481 11.9275 1.44681 12.3042 1.79748 12.4182C1.86548 12.4402 1.93481 12.4502 2.00281 12.4502C2.28415 12.4502 2.54548 12.2715 2.63681 11.9895L2.90481 11.1655C3.97948 12.9029 5.88748 14.0002 8.00481 14.0002C10.8648 14.0002 13.3408 11.9662 13.8921 9.16422C13.9635 8.80288 13.7275 8.45155 13.3668 8.38088Z" fill="#A1A3A7"/>
</svg>
