<?xml version="1.0" standalone="no"?>
<!DOCTYPE svg PUBLIC "-//W3C//DTD SVG 20010904//EN"
 "http://www.w3.org/TR/2001/REC-SVG-20010904/DTD/svg10.dtd">
<svg version="1.0" xmlns="http://www.w3.org/2000/svg"
 width="192.000000pt" height="192.000000pt" viewBox="0 0 192.000000 192.000000"
 preserveAspectRatio="xMidYMid meet">
<metadata>
Created by potrace 1.16, written by Peter Selinger 2001-2019
</metadata>
<g transform="translate(0.000000,192.000000) scale(0.100000,-0.100000)"
fill="#000000" stroke="none">
<path d="M1 1508 c1 -227 3 -404 6 -393 22 99 47 182 72 238 124 276 384 488
676 550 66 15 49 15 -342 16 l-413 1 1 -412z"/>
<path d="M1115 1913 c99 -22 182 -47 238 -72 276 -124 488 -384 550 -676 15
-66 15 -49 16 343 l1 412 -412 -1 c-227 -1 -404 -3 -393 -6z"/>
<path d="M624 1206 c-66 -31 -96 -73 -102 -142 -7 -88 26 -120 162 -155 38
-10 76 -24 84 -32 21 -22 5 -57 -34 -73 -54 -23 -92 -18 -126 16 -26 27 -36
30 -89 30 -69 0 -77 -10 -59 -65 20 -60 74 -88 180 -93 153 -7 245 42 269 146
23 92 -12 135 -136 167 -111 29 -134 46 -112 86 24 46 100 51 139 9 25 -26 35
-30 83 -30 62 0 73 12 56 58 -26 67 -91 102 -194 102 -53 0 -82 -6 -121 -24z"/>
<path d="M1222 1208 c-9 -12 -256 -438 -281 -485 -12 -23 -11 -23 56 -23 l68
0 27 45 28 45 105 0 c102 0 105 -1 105 -22 1 -62 8 -68 77 -68 l65 0 -6 28
c-3 15 -19 117 -36 227 -16 110 -32 215 -35 233 l-6 32 -78 0 c-51 0 -82 -4
-89 -12z m82 -209 c8 -52 11 -98 7 -102 -5 -4 -38 -7 -74 -5 l-67 3 57 102
c32 56 58 101 60 99 1 -1 9 -45 17 -97z"/>
<path d="M1 413 l-1 -413 413 1 c226 1 403 3 392 6 -99 22 -182 47 -238 72
-276 124 -488 384 -550 676 -15 66 -15 49 -16 -342z"/>
<path d="M1910 802 c0 -35 -40 -169 -69 -236 -124 -275 -385 -487 -676 -549
-66 -15 -49 -15 343 -16 l412 -1 0 410 c0 226 -2 410 -5 410 -3 0 -5 -8 -5
-18z"/>
</g>
</svg>
