<?xml version="1.0" standalone="no"?>
<!DOCTYPE svg PUBLIC "-//W3C//DTD SVG 20010904//EN"
 "http://www.w3.org/TR/2001/REC-SVG-20010904/DTD/svg10.dtd">
<svg version="1.0" xmlns="http://www.w3.org/2000/svg"
 width="512.000000pt" height="512.000000pt" viewBox="0 0 512.000000 512.000000"
 preserveAspectRatio="xMidYMid meet">
<metadata>
Created by potrace 1.16, written by Peter Selinger 2001-2019
</metadata>
<g transform="translate(0.000000,512.000000) scale(0.100000,-0.100000)"
fill="#000000" stroke="none">
<path d="M1 3948 c1 -710 5 -1143 10 -1098 39 338 153 686 319 977 418 727
1147 1201 1980 1286 19 2 -493 5 -1137 5 l-1173 2 1 -1172z"/>
<path d="M2850 5109 c338 -39 686 -153 977 -319 727 -418 1201 -1147 1286
-1980 2 -19 5 493 5 1138 l2 1172 -1172 -1 c-710 -1 -1143 -5 -1098 -10z"/>
<path d="M1815 3275 c-125 -27 -253 -93 -317 -161 -117 -126 -159 -333 -95
-460 57 -112 158 -169 400 -228 139 -33 208 -61 242 -96 24 -25 27 -35 22 -66
-7 -43 -45 -87 -102 -117 -34 -19 -57 -22 -162 -22 -121 0 -121 0 -160 31 -21
17 -48 48 -60 70 -12 21 -33 42 -45 46 -29 8 -266 10 -295 2 -30 -8 -47 -63
-38 -121 21 -144 131 -248 316 -300 99 -28 404 -25 514 5 219 60 347 178 395
366 35 137 20 229 -50 308 -61 70 -154 113 -355 164 -237 59 -275 80 -275 153
0 50 34 101 85 126 43 21 143 31 199 21 45 -9 92 -48 114 -95 l17 -36 173 -3
172 -2 10 25 c27 70 -10 167 -94 251 -105 105 -248 155 -440 153 -61 0 -138
-7 -171 -14z"/>
<path d="M3276 3248 c-14 -13 -190 -309 -392 -658 -445 -771 -405 -699 -393
-722 9 -16 24 -18 165 -18 85 0 164 4 174 10 10 5 48 62 85 125 l67 115 273 0
274 0 10 -52 c6 -29 15 -79 21 -112 5 -32 15 -65 21 -72 9 -11 47 -14 160 -14
167 0 184 6 174 63 -3 18 -50 323 -104 680 -54 356 -104 654 -111 662 -10 12
-47 15 -206 15 -186 0 -194 -1 -218 -22z m228 -811 l7 -47 -190 0 c-105 0
-191 2 -191 4 0 4 221 398 278 496 l26 45 32 -225 c17 -124 34 -247 38 -273z"/>
<path d="M2 1173 l-2 -1173 1173 1 c709 1 1142 5 1097 10 -338 39 -686 153
-977 319 -727 418 -1201 1147 -1286 1980 -2 19 -5 -493 -5 -1137z"/>
<path d="M5110 2301 c0 -102 -59 -376 -120 -561 -316 -948 -1173 -1630 -2180
-1733 -19 -2 493 -5 1138 -5 l1172 -2 0 1170 c0 644 -2 1170 -5 1170 -3 0 -5
-18 -5 -39z"/>
</g>
</svg>
