<?xml version="1.0" standalone="no"?>
<!DOCTYPE svg PUBLIC "-//W3C//DTD SVG 20010904//EN"
 "http://www.w3.org/TR/2001/REC-SVG-20010904/DTD/svg10.dtd">
<svg version="1.0" xmlns="http://www.w3.org/2000/svg"
 width="180.000000pt" height="180.000000pt" viewBox="0 0 180.000000 180.000000"
 preserveAspectRatio="xMidYMid meet">
<metadata>
Created by potrace 1.16, written by Peter Selinger 2001-2019
</metadata>
<g transform="translate(0.000000,180.000000) scale(0.100000,-0.100000)"
fill="#000000" stroke="none">
<path d="M1 1413 c1 -358 2 -383 15 -323 76 357 375 643 734 703 14 2 -149 5
-362 6 l-388 1 1 -387z"/>
<path d="M1090 1784 c357 -76 643 -375 703 -734 2 -14 5 149 6 363 l1 387
-387 -1 c-358 -1 -383 -2 -323 -15z"/>
<path d="M647 1149 c-87 -14 -147 -67 -161 -144 -9 -44 14 -95 52 -117 15 -9
56 -24 92 -33 81 -21 100 -31 100 -54 0 -28 -32 -50 -83 -57 -42 -6 -49 -4
-77 25 -27 27 -38 31 -85 31 -62 0 -71 -14 -48 -73 21 -52 80 -78 175 -79 133
-1 202 34 234 118 35 93 -4 146 -133 178 -68 17 -103 38 -103 61 0 20 36 46
73 52 29 4 40 1 62 -21 22 -22 35 -26 85 -26 68 0 75 11 40 67 -35 58 -124 87
-223 72z"/>
<path d="M1148 1133 c-22 -27 -259 -440 -265 -463 -5 -20 -2 -21 53 -18 56 3
59 4 87 46 l29 43 96 -3 c88 -3 97 -5 100 -23 10 -66 9 -65 67 -65 54 0 55 1
55 29 0 27 -54 395 -65 449 -5 20 -11 22 -74 22 -52 0 -71 -4 -83 -17z m75
-201 l14 -92 -70 0 -69 0 43 78 c51 93 62 112 66 108 1 -1 9 -44 16 -94z"/>
<path d="M1 388 l-1 -388 388 1 c357 1 382 2 322 15 -357 76 -643 375 -703
734 -2 14 -5 -149 -6 -362z"/>
<path d="M1790 749 c0 -73 -75 -259 -148 -365 -130 -191 -361 -338 -592 -377
-14 -2 149 -5 363 -6 l387 -1 0 385 c0 212 -2 385 -5 385 -3 0 -5 -9 -5 -21z"/>
</g>
</svg>
