<?xml version="1.0" standalone="no"?>
<!DOCTYPE svg PUBLIC "-//W3C//DTD SVG 20010904//EN"
 "http://www.w3.org/TR/2001/REC-SVG-20010904/DTD/svg10.dtd">
<svg version="1.0" xmlns="http://www.w3.org/2000/svg"
 width="32.000000pt" height="32.000000pt" viewBox="0 0 32.000000 32.000000"
 preserveAspectRatio="xMidYMid meet">
<metadata>
Created by potrace 1.16, written by Peter Selinger 2001-2019
</metadata>
<g transform="translate(0.000000,32.000000) scale(0.100000,-0.100000)"
fill="#000000" stroke="none">
<path d="M0 268 l0 -53 25 37 c14 21 38 44 53 52 27 15 27 15 -25 16 l-53 0 0
-52z"/>
<path d="M248 300 c18 -11 41 -34 52 -52 l20 -33 0 53 0 52 -52 0 -53 0 33
-20z"/>
<path d="M97 193 c-13 -13 -7 -32 13 -38 29 -9 25 -28 -5 -21 -15 4 -25 2 -25
-4 0 -7 14 -10 32 -8 38 4 51 33 19 43 -12 3 -21 11 -21 16 0 6 9 7 20 4 11
-4 20 -2 20 4 0 12 -43 15 -53 4z"/>
<path d="M182 162 l-21 -37 40 0 c41 0 45 6 33 53 -9 32 -27 27 -52 -16z m34
-9 c-10 -10 -19 5 -10 18 6 11 8 11 12 0 2 -7 1 -15 -2 -18z"/>
<path d="M0 53 l0 -53 53 0 52 0 -33 20 c-18 11 -41 34 -52 52 l-20 33 0 -52z"/>
<path d="M298 70 c-9 -16 -32 -39 -50 -50 l-33 -20 53 0 52 0 0 50 c0 28 -1
50 -2 50 -2 0 -11 -14 -20 -30z"/>
</g>
</svg>
