<?xml version="1.0" standalone="no"?>
<!DOCTYPE svg PUBLIC "-//W3C//DTD SVG 20010904//EN"
 "http://www.w3.org/TR/2001/REC-SVG-20010904/DTD/svg10.dtd">
<svg version="1.0" xmlns="http://www.w3.org/2000/svg"
 width="40.000000pt" height="40.000000pt" viewBox="0 0 40.000000 40.000000"
 preserveAspectRatio="xMidYMid meet">
<metadata>
Created by potrace 1.16, written by Peter Selinger 2001-2019
</metadata>
<g transform="translate(0.000000,40.000000) scale(0.100000,-0.100000)"
fill="#000000" stroke="none">
<path d="M0 328 c1 -69 1 -71 14 -43 17 38 63 84 101 101 28 13 26 13 -42 14
l-73 0 0 -72z"/>
<path d="M285 386 c17 -7 43 -26 59 -42 16 -16 35 -42 42 -59 13 -28 13 -26
14 43 l0 72 -72 0 c-69 -1 -71 -1 -43 -14z"/>
<path d="M117 243 c-16 -15 -6 -43 18 -49 33 -8 26 -30 -9 -26 -14 1 -26 -2
-26 -8 0 -17 77 -12 84 6 10 26 7 32 -25 43 -35 12 -30 34 7 25 14 -4 24 -2
24 5 0 12 -62 16 -73 4z"/>
<path d="M227 200 c-22 -40 -25 -50 -13 -50 9 0 16 5 16 10 0 15 48 12 53 -2
10 -29 19 4 13 47 -10 61 -33 60 -69 -5z m42 -14 c-14 -15 -22 0 -13 26 7 22
7 22 14 3 4 -11 4 -24 -1 -29z"/>
<path d="M0 73 l0 -73 73 0 c68 1 70 1 42 14 -38 17 -84 63 -101 101 -13 28
-13 26 -14 -42z"/>
<path d="M386 117 c-7 -29 -63 -86 -101 -103 -28 -13 -26 -13 43 -14 l72 0 0
70 c0 73 -4 86 -14 47z"/>
</g>
</svg>
