<?xml version="1.0" standalone="no"?>
<!DOCTYPE svg PUBLIC "-//W3C//DTD SVG 20010904//EN"
 "http://www.w3.org/TR/2001/REC-SVG-20010904/DTD/svg10.dtd">
<svg version="1.0" xmlns="http://www.w3.org/2000/svg"
 width="558.000000pt" height="558.000000pt" viewBox="0 0 558.000000 558.000000"
 preserveAspectRatio="xMidYMid meet">
<metadata>
Created by potrace 1.16, written by Peter Selinger 2001-2019
</metadata>
<g transform="translate(0.000000,558.000000) scale(0.100000,-0.100000)"
fill="#000000" stroke="none">
<path d="M0 2790 l0 -2790 2790 0 2790 0 0 2790 0 2790 -2790 0 -2790 0 0
-2790z m3011 1494 c264 -45 492 -165 690 -363 255 -256 379 -554 379 -916 0
-362 -124 -661 -379 -916 -256 -255 -554 -379 -916 -379 -362 0 -661 124 -916
379 -255 256 -379 554 -379 916 0 362 124 661 379 916 197 197 421 315 686
363 111 20 339 20 456 0z"/>
<path d="M2362 3351 c-111 -38 -172 -118 -172 -227 0 -53 4 -67 26 -94 35 -41
84 -65 189 -91 50 -13 99 -32 113 -44 23 -20 25 -25 14 -51 -17 -40 -45 -55
-112 -61 -66 -6 -114 13 -132 53 -11 24 -14 25 -97 22 l-86 -3 -3 -31 c-7 -73
52 -142 144 -170 26 -8 89 -14 140 -14 214 0 335 90 338 250 2 98 -50 143
-207 181 -141 35 -173 67 -124 125 33 38 119 46 160 14 15 -12 27 -28 27 -36
0 -11 19 -14 90 -14 105 0 112 6 85 75 -20 53 -71 98 -134 120 -62 21 -192 19
-259 -4z"/>
<path d="M3127 3323 c-64 -103 -377 -652 -377 -662 0 -7 28 -11 84 -11 93 0
97 2 141 83 l20 37 141 0 142 0 7 -42 c13 -82 7 -78 101 -78 l85 0 -6 53 c-4
28 -28 187 -53 352 l-47 300 -107 3 -107 3 -24 -38z m126 -300 l14 -103 -100
0 -99 0 14 23 c8 12 43 74 79 137 l63 115 8 -35 c4 -19 14 -81 21 -137z"/>
</g>
</svg>
