<?xml version="1.0" standalone="no"?>
<!DOCTYPE svg PUBLIC "-//W3C//DTD SVG 20010904//EN"
 "http://www.w3.org/TR/2001/REC-SVG-20010904/DTD/svg10.dtd">
<svg version="1.0" xmlns="http://www.w3.org/2000/svg"
 width="128.000000pt" height="128.000000pt" viewBox="0 0 128.000000 128.000000"
 preserveAspectRatio="xMidYMid meet">
<metadata>
Created by potrace 1.16, written by Peter Selinger 2001-2019
</metadata>
<g transform="translate(0.000000,128.000000) scale(0.100000,-0.100000)"
fill="#000000" stroke="none">
<path d="M0 640 l0 -640 640 0 640 0 0 640 0 640 -640 0 -640 0 0 -640z m771
464 c80 -24 149 -66 211 -132 90 -95 128 -191 128 -327 0 -142 -46 -250 -148
-347 -95 -90 -191 -128 -327 -128 -142 0 -250 46 -347 148 -90 95 -128 191
-128 327 0 142 46 250 147 347 65 61 101 83 183 109 71 23 208 24 281 3z"/>
<path d="M468 764 c-32 -17 -48 -43 -48 -77 0 -31 25 -52 77 -66 50 -14 59
-24 37 -45 -20 -20 -58 -21 -74 -1 -7 8 -25 15 -41 15 -22 0 -29 -5 -29 -19 0
-65 139 -83 196 -26 29 29 32 75 7 98 -10 8 -37 20 -60 26 -48 13 -60 26 -43
46 16 19 59 19 66 0 4 -9 19 -15 40 -15 38 0 38 0 23 34 -20 43 -99 59 -151
30z"/>
<path d="M698 651 c-38 -65 -68 -121 -68 -125 0 -3 13 -6 30 -6 19 0 33 7 40
20 9 16 21 20 65 20 48 0 55 -2 55 -20 0 -16 7 -20 30 -20 36 0 36 -2 14 143
l-17 107 -41 0 -41 0 -67 -119z m111 -13 c1 -25 -2 -28 -34 -28 -19 0 -35 2
-35 4 0 2 12 25 27 52 26 46 28 47 34 24 4 -14 7 -37 8 -52z"/>
</g>
</svg>
