<?xml version="1.0" standalone="no"?>
<!DOCTYPE svg PUBLIC "-//W3C//DTD SVG 20010904//EN"
 "http://www.w3.org/TR/2001/REC-SVG-20010904/DTD/svg10.dtd">
<svg version="1.0" xmlns="http://www.w3.org/2000/svg"
 width="558.000000pt" height="270.000000pt" viewBox="0 0 558.000000 270.000000"
 preserveAspectRatio="xMidYMid meet">
<metadata>
Created by potrace 1.16, written by Peter Selinger 2001-2019
</metadata>
<g transform="translate(0.000000,270.000000) scale(0.100000,-0.100000)"
fill="#000000" stroke="none">
<path d="M0 1350 l0 -1350 2790 0 2790 0 0 1350 0 1350 -2790 0 -2790 0 0
-1350z m2945 835 c221 -56 404 -239 460 -460 19 -76 19 -234 0 -310 -56 -221
-239 -404 -460 -460 -76 -19 -234 -19 -310 0 -221 56 -404 239 -460 460 -8 32
-15 102 -15 155 0 53 7 123 15 155 56 219 237 402 455 459 74 20 240 20 315 1z"/>
<path d="M2573 1731 c-66 -30 -93 -104 -55 -150 9 -12 44 -30 76 -39 69 -21
92 -45 62 -68 -29 -20 -80 -18 -101 6 -12 13 -31 20 -57 20 -34 0 -38 -3 -38
-25 0 -102 234 -114 285 -15 21 40 19 83 -4 104 -11 10 -45 25 -77 35 -64 19
-85 40 -65 65 17 20 65 21 81 1 16 -19 100 -21 100 -2 0 23 -32 59 -66 73 -45
19 -91 17 -141 -5z"/>
<path d="M2895 1618 c-38 -67 -82 -143 -98 -170 l-27 -48 44 0 c39 0 47 4 63
30 16 29 20 30 84 30 67 0 67 0 74 -30 6 -27 10 -30 46 -30 21 0 39 5 39 10 0
14 -39 278 -46 308 -4 19 -10 22 -57 22 l-52 0 -70 -122z m124 -50 l1 -38 -45
0 c-51 0 -52 -6 4 90 l26 45 6 -30 c4 -17 7 -47 8 -67z"/>
</g>
</svg>
