<?xml version="1.0" standalone="no"?>
<!DOCTYPE svg PUBLIC "-//W3C//DTD SVG 20010904//EN"
 "http://www.w3.org/TR/2001/REC-SVG-20010904/DTD/svg10.dtd">
<svg version="1.0" xmlns="http://www.w3.org/2000/svg"
 width="144.000000pt" height="144.000000pt" viewBox="0 0 144.000000 144.000000"
 preserveAspectRatio="xMidYMid meet">
<metadata>
Created by potrace 1.16, written by Peter Selinger 2001-2019
</metadata>
<g transform="translate(0.000000,144.000000) scale(0.100000,-0.100000)"
fill="#000000" stroke="none">
<path d="M1 1138 c1 -286 1 -300 15 -243 19 80 83 207 137 276 93 116 238 212
378 249 l74 19 -302 0 -303 1 1 -302z"/>
<path d="M895 1424 c80 -19 207 -83 276 -137 116 -93 212 -238 249 -378 l19
-74 0 303 1 302 -302 -1 c-286 -1 -300 -1 -243 -15z"/>
<path d="M458 899 c-43 -22 -68 -63 -68 -112 0 -51 26 -75 110 -100 59 -18 76
-27 78 -43 4 -26 -17 -43 -61 -51 -29 -4 -40 -1 -62 21 -20 20 -36 26 -70 26
-40 0 -45 -2 -45 -23 0 -59 60 -97 154 -97 109 0 172 37 190 114 15 61 -27
105 -117 121 -52 10 -85 38 -71 61 6 10 23 22 38 27 22 7 34 5 57 -12 19 -14
43 -21 75 -21 45 0 46 0 39 27 -4 16 -12 34 -18 42 -36 43 -164 55 -229 20z"/>
<path d="M918 903 c-18 -21 -218 -367 -218 -377 0 -4 21 -6 47 -4 41 3 50 7
68 35 20 32 21 32 102 33 l82 0 3 -32 c3 -32 5 -33 51 -36 26 -2 47 1 47 7 0
12 -48 327 -56 364 -5 25 -9 27 -58 27 -38 0 -57 -5 -68 -17z m66 -190 l6 -43
-55 0 c-30 0 -55 2 -55 4 0 2 19 37 42 77 l42 73 7 -34 c4 -19 9 -54 13 -77z"/>
<path d="M1 303 l-1 -303 303 1 c285 1 299 1 242 15 -80 19 -207 83 -276 137
-116 93 -212 238 -249 378 l-19 74 0 -302z"/>
<path d="M1426 558 c-9 -62 -66 -187 -120 -261 -92 -131 -245 -237 -398 -277
l-73 -19 303 0 302 -1 0 300 c0 165 -2 300 -4 300 -2 0 -7 -19 -10 -42z"/>
</g>
</svg>
