<svg width="934" height="934" viewBox="0 0 934 934" fill="none" xmlns="http://www.w3.org/2000/svg">
<path d="M205.402 707C160.833 707 124.286 700.765 95.7618 688.294C67.6832 675.824 47.4041 659.345 34.9247 638.858C22.891 617.926 18.6569 595.88 22.2225 572.721C23.1139 569.158 24.8966 566.04 27.5708 563.368C30.6906 560.25 34.2562 558.692 38.2674 558.692H123.84C130.08 558.692 134.537 559.805 137.211 562.032C139.885 564.259 142.56 567.154 145.234 570.717C147.016 577.397 150.582 583.855 155.93 590.09C161.279 596.325 168.633 601.447 177.992 605.456C187.797 609.019 199.831 610.8 214.093 610.8C239.943 610.8 260.668 606.792 276.267 598.775C291.867 590.758 301.003 579.847 303.678 566.04C306.352 556.242 304.569 548.225 298.329 541.99C292.535 535.31 282.061 529.52 266.908 524.621C252.2 519.276 232.367 513.932 207.408 508.588C174.872 501.462 148.131 491.663 127.183 479.193C106.236 466.277 91.5277 450.021 83.0596 430.425C75.0371 410.383 73.9229 386.556 79.7169 358.943C88.6307 317.969 110.693 285.68 145.902 262.075C181.112 238.025 226.796 226 282.953 226C311.923 226 337.55 230.008 359.835 238.025C382.565 246.042 401.507 256.731 416.661 270.092C431.814 283.453 442.734 297.705 449.419 312.847C456.105 327.544 458.333 342.019 456.105 356.271C455.659 359.834 453.876 363.174 450.756 366.292C447.636 368.964 444.071 370.3 440.06 370.3H350.475C346.018 370.3 342.007 369.409 338.442 367.628C335.322 365.846 332.648 362.951 330.419 358.943C330.419 349.145 325.294 340.683 315.043 333.557C304.792 325.986 291.198 322.2 274.262 322.2C255.097 322.2 239.052 325.763 226.127 332.889C213.202 339.569 205.179 350.036 202.06 364.288C199.831 373.195 200.945 380.989 205.402 387.669C210.305 394.35 219.219 400.14 232.144 405.039C245.515 409.938 263.788 415.06 286.964 420.404C326.185 427.975 356.938 438.219 379.223 451.135C401.507 463.605 416.438 479.416 424.015 498.567C432.037 517.718 433.151 541.1 427.357 568.713C417.552 614.14 393.708 648.656 355.824 672.261C318.385 695.42 268.245 707 205.402 707Z" fill="#FF0420"/>
<path d="M453.503 700.319C448.155 700.319 444.367 698.093 442.138 693.639C439.91 689.185 440.133 684.731 442.807 680.278L690.835 251.386C693.509 246.487 697.298 242.256 702.2 238.693C707.103 234.685 713.342 232.681 720.919 232.681H823.874C831.451 232.681 836.799 234.685 839.919 238.693C843.485 242.256 845.49 246.487 845.936 251.386L911.453 680.278C912.79 686.513 911.676 691.412 908.11 694.975C904.545 698.538 900.534 700.319 896.077 700.319H815.183C808.498 700.319 803.595 698.761 800.475 695.643C797.801 692.525 796.018 688.962 795.127 684.954L783.762 618.149H605.262L565.15 686.29C562.921 689.408 559.801 692.525 555.79 695.643C552.224 698.761 547.099 700.319 540.414 700.319H453.503ZM652.728 521.949H777.077L752.341 345.582L652.728 521.949Z" fill="#FF0420"/>
</svg>
