<svg width="934" height="934" viewBox="0 0 934 934" fill="none" xmlns="http://www.w3.org/2000/svg">
<path d="M698.935 257C698.935 257 745.974 337.356 788.125 378.802C830.277 420.248 912 466.5 912 466.5C912 466.5 830.277 512.752 788.125 554.198C745.974 595.644 698.935 676 698.935 676C698.935 676 651.895 595.644 609.744 554.198C567.593 512.752 485.87 466.5 485.87 466.5C485.87 466.5 567.593 420.248 609.744 378.802C651.895 337.356 698.935 257 698.935 257Z" fill="#7971D5"/>
<path fill-rule="evenodd" clip-rule="evenodd" d="M672.136 299.393C688.084 275.535 698.935 257 698.935 257C698.935 257 709.785 275.535 725.733 299.393C742.991 325.211 766.218 357.261 788.125 378.802C810.032 400.342 842.628 423.181 868.885 440.15C893.149 455.831 912 466.5 912 466.5C912 466.5 893.149 477.169 868.885 492.85C842.628 509.819 810.032 532.658 788.125 554.198C766.218 575.739 742.991 607.789 725.733 633.606C709.785 657.465 698.935 676 698.935 676C698.935 676 688.084 657.465 672.136 633.606C654.878 607.789 631.651 575.739 609.744 554.198C587.837 532.658 555.241 509.819 528.984 492.85C504.72 477.169 485.87 466.5 485.87 466.5C485.87 466.5 504.72 455.831 528.984 440.15C555.241 423.181 587.837 400.342 609.744 378.802C631.651 357.261 654.878 325.211 672.136 299.393ZM698.935 339.864C682.654 363.178 662.212 390.059 641.702 410.225C621.192 430.392 593.855 450.491 570.144 466.5C593.855 482.509 621.192 502.608 641.702 522.775C662.212 542.941 682.654 569.822 698.935 593.136C715.216 569.822 735.657 542.941 756.167 522.775C776.677 502.608 804.015 482.509 827.726 466.5C804.015 450.491 776.677 430.392 756.167 410.225C735.657 390.059 715.216 363.178 698.935 339.864Z" fill="black"/>
<path d="M234.065 257C234.065 257 281.105 337.356 323.256 378.802C365.407 420.248 447.13 466.5 447.13 466.5C447.13 466.5 365.407 512.752 323.256 554.198C281.105 595.644 234.065 676 234.065 676C234.065 676 187.026 595.644 144.875 554.198C102.723 512.752 21 466.5 21 466.5C21 466.5 102.723 420.248 144.875 378.802C187.026 337.356 234.065 257 234.065 257Z" fill="#39D551"/>
<path fill-rule="evenodd" clip-rule="evenodd" d="M207.267 299.393C223.215 275.535 234.065 257 234.065 257C234.065 257 244.916 275.535 260.864 299.393C278.122 325.211 301.349 357.261 323.256 378.802C345.163 400.342 377.759 423.181 404.016 440.15C428.28 455.831 447.13 466.5 447.13 466.5C447.13 466.5 428.28 477.169 404.016 492.85C377.759 509.819 345.163 532.658 323.256 554.198C301.349 575.739 278.122 607.789 260.864 633.606C244.916 657.465 234.065 676 234.065 676C234.065 676 223.215 657.465 207.267 633.606C190.009 607.789 166.781 575.739 144.875 554.198C122.968 532.658 90.3718 509.819 64.1149 492.85C39.8508 477.169 21 466.5 21 466.5C21 466.5 39.8508 455.831 64.1149 440.15C90.3718 423.181 122.968 400.342 144.875 378.802C166.781 357.261 190.009 325.211 207.267 299.393ZM234.065 339.864C217.784 363.178 197.343 390.059 176.833 410.225C156.323 430.392 128.985 450.491 105.274 466.5C128.985 482.509 156.323 502.608 176.833 522.775C197.343 542.941 217.784 569.822 234.065 593.136C250.347 569.822 270.788 542.941 291.298 522.775C311.807 502.608 339.145 482.509 362.856 466.5C339.145 450.491 311.807 430.392 291.298 410.225C270.788 390.059 250.347 363.178 234.065 339.864Z" fill="black"/>
<path d="M466.5 257C466.5 257 513.539 337.356 555.691 378.802C597.842 420.248 679.565 466.5 679.565 466.5C679.565 466.5 597.842 512.752 555.691 554.198C513.539 595.644 466.5 676 466.5 676C466.5 676 419.461 595.644 377.309 554.198C335.158 512.752 253.435 466.5 253.435 466.5C253.435 466.5 335.158 420.248 377.309 378.802C419.461 337.356 466.5 257 466.5 257Z" fill="#FF0420"/>
<path fill-rule="evenodd" clip-rule="evenodd" d="M439.702 299.393C455.65 275.535 466.5 257 466.5 257C466.5 257 477.35 275.535 493.299 299.393C510.556 325.211 533.784 357.261 555.691 378.802C577.598 400.342 610.193 423.181 636.45 440.15C660.714 455.831 679.565 466.5 679.565 466.5C679.565 466.5 660.714 477.169 636.45 492.85C610.193 509.819 577.598 532.658 555.691 554.198C533.784 575.739 510.556 607.789 493.299 633.606C477.35 657.465 466.5 676 466.5 676C466.5 676 455.65 657.465 439.701 633.606C422.444 607.789 399.216 575.739 377.309 554.198C355.402 532.658 322.807 509.819 296.55 492.85C272.286 477.169 253.435 466.5 253.435 466.5C253.435 466.5 272.286 455.831 296.55 440.15C322.807 423.181 355.402 400.342 377.309 378.802C399.216 357.261 422.444 325.211 439.702 299.393ZM466.5 339.864C450.219 363.178 429.777 390.059 409.267 410.225C388.758 430.392 361.42 450.491 337.709 466.5C361.42 482.509 388.758 502.608 409.267 522.775C429.777 542.941 450.219 569.822 466.5 593.136C482.781 569.822 503.223 542.941 523.733 522.775C544.242 502.608 571.58 482.509 595.291 466.5C571.58 450.491 544.242 430.392 523.733 410.225C503.223 390.059 482.781 363.178 466.5 339.864Z" fill="black"/>
</svg>
