<svg preserveAspectRatio="none" width="100%" height="100%" overflow="visible" style="display: block;" viewBox="0 0 16 16" fill="none" xmlns="http://www.w3.org/2000/svg">
<g id="Group">
<g id="Rectangle Copy">
</g>
<path id="Fill 1" fill-rule="evenodd" clip-rule="evenodd" d="M6.59989 11.3333C6.47575 11.3333 6.35721 11.2833 6.26994 11.1938L3.47019 8.33529C3.28771 8.1491 3.28771 7.84768 3.47019 7.66197C3.65267 7.47578 3.94763 7.47578 4.13011 7.66197L6.59989 10.1838L11.8699 4.80631C12.0524 4.62012 12.3473 4.62012 12.5298 4.80631C12.7123 4.99249 12.7123 5.29344 12.5298 5.47963L6.92985 11.1938C6.84258 11.2833 6.72404 11.3333 6.59989 11.3333Z" fill="url(#paint0_linear_3145_4820)"/>
<path id="Fill 1 (Stroke)" fill-rule="evenodd" clip-rule="evenodd" d="M12.2917 5.03963C12.24 4.98679 12.1597 4.98679 12.108 5.03963L6.59982 10.6601L3.89205 7.89529C3.84026 7.84245 3.76004 7.84245 3.70825 7.89529C3.65337 7.95115 3.65264 8.04523 3.70825 8.10197L6.50862 10.9611C6.53341 10.9866 6.56599 11 6.59989 11C6.6338 11 6.66639 10.9866 6.69117 10.9611L6.69178 10.9605L12.2917 5.24632C12.3472 5.18974 12.3472 5.0962 12.2917 5.03963ZM11.6318 4.57299C11.945 4.25345 12.4547 4.25345 12.7679 4.57299C13.0774 4.88879 13.0774 5.39715 12.7679 5.71295L7.16853 11.4265C7.16837 11.4267 7.16821 11.4268 7.16805 11.427C7.01834 11.5803 6.81404 11.6667 6.59989 11.6667C6.38578 11.6667 6.18151 11.5803 6.0318 11.4271C6.03179 11.427 6.03181 11.4271 6.0318 11.4271C6.03163 11.4269 6.03143 11.4267 6.03126 11.4265L3.23213 8.56861C2.92282 8.25302 2.92236 7.74403 3.23233 7.42845C3.54552 7.10911 4.05506 7.10918 4.36817 7.42865L6.59997 9.70751L11.6318 4.57299Z" fill="url(#paint1_linear_3145_4820)"/>
</g>
<defs>
<linearGradient id="paint0_linear_3145_4820" x1="11.2348" y1="5.31061" x2="6.46929" y2="11.9824" gradientUnits="userSpaceOnUse">
<stop stop-color="#5FDDFF"/>
<stop offset="1" stop-color="#12FF80"/>
</linearGradient>
<linearGradient id="paint1_linear_3145_4820" x1="11.4659" y1="5.04167" x2="6.1805" y2="12.249" gradientUnits="userSpaceOnUse">
<stop stop-color="#5FDDFF"/>
<stop offset="1" stop-color="#12FF80"/>
</linearGradient>
</defs>
</svg>
