<svg width="850" height="95" viewBox="0 0 850 95" fill="none" xmlns="http://www.w3.org/2000/svg">
    <path
        d="M431.612 14.301V80.699C431.612 82.2887 432.91 83.5781 434.51 83.5781H438.973C441.258 83.5781 443.112 85.4175 443.112 87.6899V92.1208C443.112 93.7105 444.41 95 446.01 95H454.711C456.311 95 457.609 93.7105 457.609 92.1208V85.9485C457.609 84.3588 456.311 83.0693 454.711 83.0693H447.76C445.476 83.0693 443.621 81.2299 443.621 78.9575V16.0393C443.621 13.7701 445.473 11.9275 447.76 11.9275H454.708C456.308 11.9275 457.606 10.6381 457.606 9.04837V2.87917C457.606 1.28946 456.308 0 454.708 0H446.007C444.407 0 443.109 1.28946 443.109 2.87917V7.31012C443.109 9.57933 441.258 11.4219 438.97 11.4219H434.507C432.907 11.4219 431.609 12.7113 431.609 14.301H431.612Z"
        fill="currentColor" />
    <path
        d="M849.606 80.6936V14.3001C849.606 12.7105 848.308 11.4211 846.708 11.4211H842.244C839.96 11.4211 838.106 9.58185 838.106 7.30964V2.87898C838.106 1.28938 836.808 0 835.208 0H826.507C824.907 0 823.609 1.28938 823.609 2.87898V9.05093C823.609 10.6405 824.907 11.9299 826.507 11.9299H833.458C835.742 11.9299 837.597 13.7692 837.597 16.0414V78.9586C837.597 81.2277 835.745 83.0701 833.458 83.0701H826.51C824.91 83.0701 823.612 84.3595 823.612 85.9491V92.121C823.612 93.7106 824.91 95 826.51 95H835.211C836.811 95 838.109 93.7106 838.109 92.121V87.6904C838.109 85.4213 839.96 83.5789 842.248 83.5789H846.711C848.311 83.5789 849.609 82.2895 849.609 80.6999L849.606 80.6936Z"
        fill="currentColor" />
    <path
        d="M252.019 45.3493C248.863 44.0746 245.008 43.0117 240.455 42.1577H240.357C235.933 41.3732 232.613 40.6521 230.403 39.9973C228.189 39.3457 226.45 38.46 225.183 37.3466C223.916 36.2332 223.281 34.6959 223.281 32.7316C223.281 29.8531 224.353 27.6611 226.5 26.1554C228.648 24.6498 231.478 23.897 234.99 23.897C238.829 23.897 241.933 24.8775 244.31 26.8418C246.441 28.6069 247.746 30.8464 248.227 33.5603C248.322 34.1012 248.778 34.5029 249.325 34.5061L260.122 34.5883C260.786 34.5947 261.314 34.0221 261.248 33.3579C260.886 29.7266 259.695 26.4275 257.679 23.4541C255.434 20.1487 252.343 17.5802 248.41 15.7488C244.473 13.9173 240.002 13 234.993 13C230.245 13 225.966 13.8825 222.161 15.6507C218.357 17.4189 215.395 19.8703 213.282 23.0145C211.166 26.1554 210.109 29.6918 210.109 33.6173C210.109 37.9381 211.053 41.4049 212.939 44.024C214.826 46.643 217.297 48.6231 220.357 49.9643C223.413 51.3055 227.088 52.3683 231.384 53.1559L231.871 53.254C236.424 54.1048 239.823 54.8577 242.068 55.5124C244.313 56.1672 246.083 57.0845 247.385 58.2612C248.686 59.441 249.337 61.0447 249.337 63.0723C249.337 65.9539 248.168 68.2092 245.825 69.8446C243.483 71.4799 240.458 72.2991 236.751 72.2991C232.327 72.2991 228.749 71.1699 226.016 68.9114C223.529 66.8554 222.067 64.2205 221.627 61.0005C221.551 60.4437 221.092 60.0199 220.533 60.0136L209.748 59.8491C209.091 59.8396 208.562 60.3963 208.613 61.0542C208.918 65.0145 210.15 68.5825 212.304 71.7582C214.678 75.2598 217.948 78.0086 222.111 80.0045C226.274 82.0005 231.057 83 236.455 83C241.464 83 245.954 82.0827 249.922 80.2512C253.89 78.4198 256.997 75.883 259.242 72.6439C261.487 69.4049 262.609 65.7578 262.609 61.6995C262.609 57.3787 261.631 53.8961 259.682 51.2454C257.729 48.5947 255.176 46.6304 252.023 45.3556L252.019 45.3493Z"
        fill="currentColor" />
    <path
        d="M319.476 71.6922H317.78C316.799 71.6922 316.027 71.4307 315.473 70.9015C314.916 70.3755 314.637 69.5179 314.637 68.3288V49.4301C314.637 43.427 312.739 38.8585 308.941 35.7279C305.144 32.5972 300.673 31 293.666 31C287.052 31 281.885 32.4474 277.828 35.2847C274.128 37.8702 271.897 41.4121 271.135 45.9137C271.018 46.6118 271.54 47.2558 272.245 47.2558H282.226C282.726 47.2558 283.176 46.9243 283.309 46.4397C283.764 44.7723 284.771 43.4142 286.325 42.359C288.125 41.138 290.264 40.5291 293.081 40.5291C298.391 40.5291 302.169 43.8287 302.169 48.7414V50.2781C302.169 50.9061 301.663 51.413 301.043 51.413H292.002C284.669 51.413 279.103 52.8636 275.306 55.7647C271.508 58.669 269.609 62.7911 269.609 68.1311C269.609 72.7506 271.344 76.3786 274.815 79.0151C277.419 80.9949 280.53 82.1362 283.736 82.6367C286.185 83.0193 288.698 83.1595 291.154 82.761C293.723 82.3466 295.812 81.2786 297.9 79.7579C299.777 78.3934 301.344 76.6432 302.774 74.5072C303.47 73.3021 305.299 73.7835 305.299 75.1799V76.8568C305.299 79.9045 307.749 82.3785 310.777 82.3785H319.482C320.106 82.3785 320.609 81.8684 320.609 81.2435V72.8303C320.609 72.2022 320.103 71.6953 319.482 71.6953L319.476 71.6922ZM302.163 61.5C302.163 63.942 301.654 66.0684 300.641 67.8824C298.514 71.6858 294.711 73.6687 290.426 73.6687C287.935 73.6687 285.938 73.0758 284.435 71.8898C282.929 70.7007 282.176 69.1194 282.176 67.1396C282.176 64.8984 283.011 63.1673 284.679 61.9463C286.35 60.7285 288.72 60.1164 291.799 60.1164H301.037C301.66 60.1164 302.163 60.6265 302.163 61.2513V61.5Z"
        fill="currentColor" />
    <path
        d="M355.491 14H342.571C335.755 14 330.227 19.5768 330.227 26.4597V31.9316C330.227 32.5576 329.723 33.0629 329.106 33.0629H321.73C321.11 33.0629 320.609 33.5713 320.609 34.1941V42.6785C320.609 43.3045 321.113 43.8098 321.73 43.8098H329.106C329.726 43.8098 330.227 44.3182 330.227 44.941V81.8688C330.227 82.4948 330.731 83 331.348 83H341.416C342.036 83 342.536 82.4916 342.536 81.8688V44.941C342.536 44.315 343.04 43.8098 343.657 43.8098H355.387C356.008 43.8098 356.508 43.3013 356.508 42.6785V34.1941C356.508 33.5681 356.005 33.0629 355.387 33.0629H343.657C343.037 33.0629 342.536 32.5544 342.536 31.9316V27.0126C342.536 25.7606 343.541 24.7469 344.781 24.7469H355.488C356.108 24.7469 356.609 24.2385 356.609 23.6156V15.1313C356.609 14.5052 356.105 14 355.488 14H355.491Z"
        fill="currentColor" />
    <path
        d="M405.29 42.512C403.074 38.8182 400.046 35.9793 396.209 33.9984C392.372 32.0175 387.937 31 382.914 31C377.891 31 373.552 32.1005 369.715 34.2472C365.878 36.3939 362.901 39.4274 360.784 43.3541C358.667 47.2807 357.609 51.8836 357.609 57.1627C357.609 62.4418 358.703 66.8501 360.883 70.7735C363.067 74.7002 366.191 77.7209 370.261 79.8325C374.329 81.9474 379.109 83 384.602 83C388.836 83 392.625 82.2249 395.966 80.6746C399.304 79.1244 402.003 76.9968 404.053 74.2887C405.808 71.9729 407.007 69.437 407.647 66.681C407.813 65.9665 407.272 65.2807 406.537 65.2807H396.263C395.771 65.2807 395.339 65.5997 395.183 66.0622C394.46 68.1962 393.181 69.8804 391.349 71.1212C389.296 72.5056 386.751 73.201 383.707 73.201C381.194 73.201 378.994 72.6746 377.107 71.6188C375.221 70.563 373.734 69.0797 372.64 67.1627C372.209 66.4067 371.857 65.6093 371.576 64.7863C371.275 63.9027 371.058 62.9904 370.907 62.0686C370.856 61.7464 370.808 61.4211 370.77 61.0957C370.693 60.4258 371.227 59.8389 371.905 59.8389H407.33C407.906 59.8389 408.398 59.4147 408.462 58.8437C408.51 58.4258 408.545 57.9984 408.561 57.5614C408.593 56.7703 408.609 56.0431 408.609 55.3828C408.609 50.4992 407.499 46.2089 405.284 42.512H405.29ZM394.646 51.2233H372.461C371.732 51.2233 371.186 50.5502 371.345 49.8421C371.7 48.2887 372.314 46.8852 373.187 45.6316C374.313 44.0144 375.768 42.7767 377.552 41.9187C379.339 41.0606 381.29 40.6332 383.406 40.6332C386.847 40.6332 389.693 41.5582 391.94 43.4051C393.869 44.9904 395.144 47.134 395.758 49.8389C395.921 50.5502 395.375 51.2265 394.646 51.2265V51.2233Z"
        fill="currentColor" />
    <path
        d="M464.609 14H476.602L485.401 57.2332C486.272 61.4426 486.948 65.5542 487.334 70.4326H489.076C489.561 65.6489 490.333 61.4426 491.3 57.2332L500.679 17.2533H517.024L526.113 57.2332C526.984 61.3448 527.756 65.6489 528.241 70.4326H530.079C530.465 65.5542 531.24 61.5373 532.012 57.1386L540.811 14H552.609V18.0169L539.069 79.9968H520.31L511.897 42.7906C510.93 38.4865 510.155 34.5643 509.673 29.4966H507.835C507.35 34.5674 506.578 38.3919 505.612 42.6013L496.908 80H478.245L464.609 18.0201V14.0032V14Z"
        fill="currentColor" />
    <path
        d="M590.865 14L612.609 75.9829V80H600.775L596.062 65.5567H568.061L563.347 80H551.609V75.9829L573.353 14H590.865ZM571.718 54.654H592.405L586.053 35.3321C584.609 30.9331 583.647 27.4872 582.879 23.1829H581.146C580.473 27.4872 579.511 30.93 578.067 35.2342L571.715 54.6508L571.718 54.654Z"
        fill="currentColor" />
    <path d="M618.609 14H630.761V68.8075H660.609V80H618.609V14Z" fill="currentColor" />
    <path d="M666.609 14H678.76V68.8075H708.609V80H666.609V14Z" fill="currentColor" />
    <path d="M715.609 14H760.937V25.0947H727.804V40.6859H756.806V51.6859H727.804V68.8075H761.609V80H715.609V14Z"
        fill="currentColor" />
    <path d="M817.609 14V25.1899H797.795V80H785.423V25.1899H765.609V14H817.609Z" fill="currentColor" />
    <path
        d="M155.812 51.2969H138.281L138.188 41.6406H152.906C155.5 41.6406 157.625 41.3125 159.281 40.6562C160.938 39.9688 162.172 38.9844 162.984 37.7031C163.828 36.3906 164.25 34.7969 164.25 32.9219C164.25 30.7969 163.844 29.0781 163.031 27.7656C162.25 26.4531 161.016 25.5 159.328 24.9062C157.672 24.3125 155.531 24.0156 152.906 24.0156H143.156V81.25H129.094V13H152.906C156.875 13 160.422 13.375 163.547 14.125C166.703 14.875 169.375 16.0156 171.562 17.5469C173.75 19.0781 175.422 21.0156 176.578 23.3594C177.734 25.6719 178.312 28.4219 178.312 31.6094C178.312 34.4219 177.672 37.0156 176.391 39.3906C175.141 41.7656 173.156 43.7031 170.438 45.2031C167.75 46.7031 164.234 47.5312 159.891 47.6875L155.812 51.2969ZM155.203 81.25H134.438L139.922 70.2812H155.203C157.672 70.2812 159.688 69.8906 161.25 69.1094C162.812 68.2969 163.969 67.2031 164.719 65.8281C165.469 64.4531 165.844 62.875 165.844 61.0938C165.844 59.0938 165.5 57.3594 164.812 55.8906C164.156 54.4219 163.094 53.2969 161.625 52.5156C160.156 51.7031 158.219 51.2969 155.812 51.2969H142.266L142.359 41.6406H159.234L162.469 45.4375C166.625 45.375 169.969 46.1094 172.5 47.6406C175.062 49.1406 176.922 51.0938 178.078 53.5C179.266 55.9062 179.859 58.4844 179.859 61.2344C179.859 65.6094 178.906 69.2969 177 72.2969C175.094 75.2656 172.297 77.5 168.609 79C164.953 80.5 160.484 81.25 155.203 81.25Z"
        fill="currentColor" />
    <path d="M116.859 13V81.25H102.797L75.375 35.5V81.25H61.3125V13H75.375L102.844 58.7969V13H116.859Z"
        fill="currentColor" />
    <path
        d="M26.7188 51.2969H9.1875L9.09375 41.6406H23.8125C26.4062 41.6406 28.5312 41.3125 30.1875 40.6562C31.8438 39.9688 33.0781 38.9844 33.8906 37.7031C34.7344 36.3906 35.1562 34.7969 35.1562 32.9219C35.1562 30.7969 34.75 29.0781 33.9375 27.7656C33.1562 26.4531 31.9219 25.5 30.2344 24.9062C28.5781 24.3125 26.4375 24.0156 23.8125 24.0156H14.0625V81.25H0V13H23.8125C27.7812 13 31.3281 13.375 34.4531 14.125C37.6094 14.875 40.2812 16.0156 42.4688 17.5469C44.6562 19.0781 46.3281 21.0156 47.4844 23.3594C48.6406 25.6719 49.2188 28.4219 49.2188 31.6094C49.2188 34.4219 48.5781 37.0156 47.2969 39.3906C46.0469 41.7656 44.0625 43.7031 41.3438 45.2031C38.6562 46.7031 35.1406 47.5312 30.7969 47.6875L26.7188 51.2969ZM26.1094 81.25H5.34375L10.8281 70.2812H26.1094C28.5781 70.2812 30.5938 69.8906 32.1562 69.1094C33.7188 68.2969 34.875 67.2031 35.625 65.8281C36.375 64.4531 36.75 62.875 36.75 61.0938C36.75 59.0938 36.4062 57.3594 35.7188 55.8906C35.0625 54.4219 34 53.2969 32.5312 52.5156C31.0625 51.7031 29.125 51.2969 26.7188 51.2969H13.1719L13.2656 41.6406H30.1406L33.375 45.4375C37.5312 45.375 40.875 46.1094 43.4062 47.6406C45.9688 49.1406 47.8281 51.0938 48.9844 53.5C50.1719 55.9062 50.7656 58.4844 50.7656 61.2344C50.7656 65.6094 49.8125 69.2969 47.9062 72.2969C46 75.2656 43.2031 77.5 39.5156 79C35.8594 80.5 31.3906 81.25 26.1094 81.25Z"
        fill="currentColor" />
</svg>