<svg width="54" height="54" viewBox="0 0 54 54" fill="none" xmlns="http://www.w3.org/2000/svg">
<path d="M21.3676 5.95424C21.3675 4.9412 20.5464 4.12001 19.5333 4.12001H5.95453C4.94151 4.12013 4.12032 4.94128 4.1202 5.95424V19.5322C4.1202 20.5452 4.94144 21.3663 5.95453 21.3664H19.5333C20.5465 21.3664 21.3676 20.5453 21.3676 19.5322V5.95424ZM24.4878 19.5322C24.4878 22.2685 22.2697 24.4864 19.5333 24.4864H5.95453C3.2182 24.4863 1 22.2684 1 19.5322V5.95424C1.00012 3.21814 3.21828 1.00012 5.95453 1H19.5333C22.2697 1 24.4877 3.21807 24.4878 5.95424V19.5322Z" stroke="url(#paint0_linear_8142_14242)" stroke-width="1.06" stroke-linecap="round" stroke-linejoin="round"/>
<path d="M49.8793 5.95436C49.8792 4.94132 49.0581 4.12013 48.045 4.12013H34.4663C33.4532 4.12026 32.632 4.9414 32.6319 5.95436V19.5323C32.6319 20.5454 33.4532 21.3664 34.4663 21.3665H48.045C49.0582 21.3665 49.8793 20.5454 49.8793 19.5323V5.95436ZM52.9995 19.5323C52.9995 22.2686 50.7814 24.4865 48.045 24.4865H34.4663C31.7299 24.4864 29.5117 22.2685 29.5117 19.5323V5.95436C29.5118 3.21826 31.73 1.00024 34.4663 1.00012H48.045C50.7814 1.00012 52.9994 3.21819 52.9995 5.95436V19.5323Z" stroke="url(#paint1_linear_8142_14242)" stroke-width="1.06" stroke-linecap="round" stroke-linejoin="round"/>
<path d="M49.8793 34.4677C49.8792 33.4546 49.0581 32.6334 48.045 32.6334H34.4663C33.4532 32.6336 32.632 33.4547 32.6319 34.4677V48.0456C32.6319 49.0587 33.4532 49.8797 34.4663 49.8798H48.045C49.0582 49.8798 49.8793 49.0587 49.8793 48.0456V34.4677ZM52.9995 48.0456C52.9995 50.7819 50.7814 52.9998 48.045 52.9998H34.4663C31.7299 52.9997 29.5117 50.7818 29.5117 48.0456V34.4677C29.5118 31.7316 31.73 29.5135 34.4663 29.5134H48.045C50.7814 29.5134 52.9994 31.7315 52.9995 34.4677V48.0456Z" stroke="url(#paint2_linear_8142_14242)" stroke-width="1.06" stroke-linecap="round" stroke-linejoin="round"/>
<path d="M21.3676 34.4677C21.3675 33.4546 20.5464 32.6334 19.5333 32.6334H5.95453C4.94151 32.6336 4.12032 33.4547 4.1202 34.4677V48.0456C4.1202 49.0587 4.94144 49.8797 5.95453 49.8798H19.5333C20.5465 49.8798 21.3676 49.0587 21.3676 48.0456V34.4677ZM24.4878 48.0456C24.4878 50.7819 22.2697 52.9998 19.5333 52.9998H5.95453C3.2182 52.9997 1 50.7818 1 48.0456V34.4677C1.00012 31.7316 3.21827 29.5135 5.95453 29.5134H19.5333C22.2697 29.5134 24.4877 31.7315 24.4878 34.4677V48.0456Z" stroke="url(#paint3_linear_8142_14242)" stroke-width="1.06" stroke-linecap="round" stroke-linejoin="round"/>
<defs>
<linearGradient id="paint0_linear_8142_14242" x1="3.29914" y1="10.4835" x2="52.7187" y2="21.9774" gradientUnits="userSpaceOnUse">
<stop stop-color="#00B460"/>
<stop offset="0.475962" stop-color="#08763B"/>
<stop offset="1" stop-color="#237E4D"/>
</linearGradient>
<linearGradient id="paint1_linear_8142_14242" x1="1.97691" y1="8.84922" x2="52.3763" y2="18.1205" gradientUnits="userSpaceOnUse">
<stop stop-color="#00B460"/>
<stop offset="0.475962" stop-color="#08763B"/>
<stop offset="1" stop-color="#237E4D"/>
</linearGradient>
<linearGradient id="paint2_linear_8142_14242" x1="2.46751" y1="38.2831" x2="52.44" y2="46.6051" gradientUnits="userSpaceOnUse">
<stop stop-color="#00B460"/>
<stop offset="0.475962" stop-color="#08763B"/>
<stop offset="1" stop-color="#237E4D"/>
</linearGradient>
<linearGradient id="paint3_linear_8142_14242" x1="3.29914" y1="38.9969" x2="53.7651" y2="49.5192" gradientUnits="userSpaceOnUse">
<stop stop-color="#00B460"/>
<stop offset="0.475962" stop-color="#08763B"/>
<stop offset="1" stop-color="#237E4D"/>
</linearGradient>
</defs>
</svg>
