<svg width="54" height="54" viewBox="0 0 54 54" fill="none" xmlns="http://www.w3.org/2000/svg">
<path d="M21.3664 5.95424C21.3663 4.9412 20.5452 4.12001 19.5322 4.12001H5.95424C4.94128 4.12013 4.12013 4.94128 4.12001 5.95424V19.5322C4.12001 20.5452 4.9412 21.3663 5.95424 21.3664H19.5322C20.5453 21.3664 21.3664 20.5453 21.3664 19.5322V5.95424ZM24.4864 19.5322C24.4864 22.2685 22.2685 24.4864 19.5322 24.4864H5.95424C3.21807 24.4863 1 22.2684 1 19.5322V5.95424C1.00012 3.21814 3.21814 1.00012 5.95424 1H19.5322C22.2684 1 24.4863 3.21807 24.4864 5.95424V19.5322Z" stroke="url(#paint0_linear_8142_14191)" stroke-width="1.06" stroke-linecap="round" stroke-linejoin="round"/>
<path d="M49.8781 5.95424C49.878 4.9412 49.057 4.12001 48.0439 4.12001H34.466C33.453 4.12013 32.6319 4.94128 32.6317 5.95424V19.5322C32.6317 20.5452 33.4529 21.3663 34.466 21.3664H48.0439C49.057 21.3664 49.8781 20.5453 49.8781 19.5322V5.95424ZM52.9981 19.5322C52.9981 22.2685 50.7802 24.4864 48.0439 24.4864H34.466C31.7298 24.4863 29.5117 22.2684 29.5117 19.5322V5.95424C29.5118 3.21814 31.7299 1.00012 34.466 1H48.0439C50.7801 1 52.998 3.21807 52.9981 5.95424V19.5322Z" stroke="url(#paint1_linear_8142_14191)" stroke-width="1.06" stroke-linecap="round" stroke-linejoin="round"/>
<path d="M49.8781 34.4678C49.878 33.4548 49.057 32.6336 48.0439 32.6336H34.466C33.453 32.6337 32.6319 33.4548 32.6317 34.4678V48.0457C32.6317 49.0588 33.4529 49.8798 34.466 49.88H48.0439C49.057 49.88 49.8781 49.0589 49.8781 48.0457V34.4678ZM52.9981 48.0457C52.9981 50.782 50.7802 53 48.0439 53H34.466C31.7298 52.9998 29.5117 50.7819 29.5117 48.0457V34.4678C29.5118 31.7317 31.7299 29.5137 34.466 29.5135H48.0439C50.7801 29.5135 52.998 31.7316 52.9981 34.4678V48.0457Z" stroke="url(#paint2_linear_8142_14191)" stroke-width="1.06" stroke-linecap="round" stroke-linejoin="round"/>
<path d="M21.3664 34.4678C21.3663 33.4548 20.5452 32.6336 19.5322 32.6336H5.95424C4.94128 32.6337 4.12013 33.4548 4.12001 34.4678V48.0457C4.12001 49.0588 4.9412 49.8798 5.95424 49.88H19.5322C20.5453 49.88 21.3664 49.0589 21.3664 48.0457V34.4678ZM24.4864 48.0457C24.4864 50.782 22.2685 53 19.5322 53H5.95424C3.21807 52.9998 1 50.7819 1 48.0457V34.4678C1.00012 31.7317 3.21814 29.5137 5.95424 29.5135H19.5322C22.2684 29.5135 24.4863 31.7316 24.4864 34.4678V48.0457Z" stroke="url(#paint3_linear_8142_14191)" stroke-width="1.06" stroke-linecap="round" stroke-linejoin="round"/>
<defs>
<linearGradient id="paint0_linear_8142_14191" x1="3.29901" y1="10.4835" x2="52.3258" y2="20.4782" gradientUnits="userSpaceOnUse">
<stop stop-color="#C3C3C3"/>
<stop offset="0.475962" stop-color="#CCCBCB"/>
<stop offset="1" stop-color="#E0E0E0"/>
</linearGradient>
<linearGradient id="paint1_linear_8142_14191" x1="17.6768" y1="10.3208" x2="52.5438" y2="17.0774" gradientUnits="userSpaceOnUse">
<stop stop-color="#C3C3C3"/>
<stop offset="0.475962" stop-color="#CCCBCB"/>
<stop offset="1" stop-color="#E0E0E0"/>
</linearGradient>
<linearGradient id="paint2_linear_8142_14191" x1="6.88424" y1="36.3209" x2="52.3275" y2="46.3005" gradientUnits="userSpaceOnUse">
<stop stop-color="#C3C3C3"/>
<stop offset="0.475962" stop-color="#CCCBCB"/>
<stop offset="1" stop-color="#E0E0E0"/>
</linearGradient>
<linearGradient id="paint3_linear_8142_14191" x1="3.29901" y1="38.997" x2="52.2316" y2="50.3966" gradientUnits="userSpaceOnUse">
<stop stop-color="#C3C3C3"/>
<stop offset="0.475962" stop-color="#CCCBCB"/>
<stop offset="1" stop-color="#E0E0E0"/>
</linearGradient>
</defs>
</svg>
