<svg width="46" height="54" viewBox="0 0 46 54" fill="none" xmlns="http://www.w3.org/2000/svg">
<path d="M43 27C43 26.4477 42.5523 26 42 26C41.4477 26 41 26.4477 41 27V34.172L31.5355 24.7076C31.2929 24.465 31.0506 24.2233 30.8284 24.0304C30.5994 23.8314 30.3379 23.6346 30.0221 23.5183C29.5889 23.3607 29.1168 23.3607 28.6836 23.5183C28.3682 23.6345 28.107 23.8313 27.8782 24.0303C27.656 24.2233 27.4128 24.465 27.1702 24.7076L23.3431 28.5348C23.0697 28.8082 22.9466 28.9297 22.8536 29.0053C22.8496 29.0085 22.8458 29.0117 22.8421 29.015C22.8384 29.0117 22.8346 29.0085 22.8306 29.0053C22.7376 28.9297 22.6145 28.8082 22.3411 28.5348L14.5355 20.7292C14.0533 20.247 13.3107 20.247 12.8284 20.7292C12.3462 21.2114 12.3462 21.954 12.8284 22.4363L20.634 30.2419C20.8765 30.4844 21.1188 30.7258 21.3409 30.9188C21.5699 31.1178 21.8315 31.3146 22.1473 31.431C22.5805 31.5886 23.0526 31.5886 23.4858 31.431C23.8017 31.3146 24.0634 31.1178 24.2924 30.9188C24.5145 30.7258 24.7568 30.4844 24.9993 30.2419L28.8284 26.4127C29.1017 26.1394 29.2243 26.0176 29.3173 25.942C29.3205 25.9388 29.3242 25.936 29.3279 25.9327C29.3316 25.936 29.3353 25.9388 29.3385 25.942C29.4315 26.0176 29.5541 26.1394 29.8274 26.4127L39.293 35.8784H32C31.4477 35.8784 31 36.3261 31 36.8784C31 37.4307 31.4477 37.8784 32 37.8784H42C42.5523 37.8784 43 37.4307 43 36.8784V27Z" fill="url(#paint0_linear_earn_dark)"/>
<defs>
<linearGradient id="paint0_linear_earn_dark" x1="15" y1="25" x2="40" y2="35" gradientUnits="userSpaceOnUse">
<stop stop-color="#0FCC66"/>
<stop offset="0.5" stop-color="#15B862"/>
<stop offset="1" stop-color="#1AA35D"/>
</linearGradient>
</defs>
</svg>
