<svg width="54" height="54" viewBox="0 0 54 54" fill="none" xmlns="http://www.w3.org/2000/svg">
<path d="M48.2709 44.3207C48.2709 43.5462 48.2713 43.1072 48.2452 42.7877C48.2373 42.6907 48.2232 42.6287 48.217 42.5925C48.2002 42.5694 48.1813 42.55 48.158 42.5335C48.1215 42.5273 48.0599 42.5181 47.9657 42.5103C47.6465 42.4842 47.2082 42.4821 46.4346 42.4821H7.56541C6.7918 42.4821 6.35352 42.4842 6.03433 42.5103C5.93788 42.5182 5.87562 42.5272 5.83942 42.5335C5.8164 42.55 5.79701 42.5695 5.78044 42.5925C5.77424 42.6287 5.76268 42.691 5.75479 42.7877C5.72874 43.1072 5.72915 43.5462 5.72915 44.3207V46.4263C5.72915 47.2007 5.72875 47.6397 5.75479 47.9593C5.76267 48.0558 5.77424 48.1182 5.78044 48.1545C5.79671 48.1771 5.81691 48.1945 5.83942 48.211C5.87555 48.2172 5.93749 48.2313 6.03433 48.2392C6.35351 48.2653 6.79196 48.2649 7.56541 48.2649H46.4346C47.208 48.2649 47.6465 48.2653 47.9657 48.2392C48.0603 48.2315 48.1215 48.2171 48.158 48.211C48.1808 48.1946 48.2005 48.1772 48.217 48.1545C48.2232 48.1183 48.2373 48.0562 48.2452 47.9593C48.2713 47.6397 48.2709 47.2007 48.2709 46.4263V44.3207ZM35.93 37.747H43.0185V21.4463H35.93V37.747ZM22.7992 37.747H31.2008V21.4463H22.7992V37.747ZM10.9815 37.747H18.07V21.4463H10.9815V37.747ZM48.2503 10.6922C48.245 10.6193 48.2366 10.5719 48.2324 10.5432C48.2172 10.5166 48.1993 10.4938 48.176 10.4739C48.1484 10.4635 48.1045 10.4471 48.04 10.4277C47.7941 10.3537 47.4523 10.2781 46.8321 10.1401L27.3975 5.81583C27.2168 5.77564 27.1232 5.75492 27.0539 5.74137C26.9975 5.73038 26.9995 5.73159 27.0231 5.73366C27.0078 5.73232 26.9922 5.73232 26.9769 5.73366C27.0005 5.73159 27.0025 5.73038 26.9461 5.74137C26.8768 5.75492 26.7832 5.77563 26.6025 5.81583L7.16789 10.1401C6.54775 10.2781 6.20593 10.3537 5.95996 10.4277C5.89373 10.4476 5.84893 10.4635 5.82147 10.4739C5.79844 10.4938 5.77995 10.5167 5.76505 10.5432C5.76081 10.5719 5.75499 10.6197 5.74966 10.6922C5.73086 10.9486 5.72915 11.299 5.72915 11.935V14.8726C5.72915 15.647 5.72875 16.0861 5.75479 16.4056C5.76267 16.5022 5.77424 16.5645 5.78044 16.6008C5.79671 16.6234 5.81691 16.6409 5.83942 16.6573C5.87555 16.6635 5.93749 16.6776 6.03433 16.6855C6.35351 16.7116 6.79196 16.7112 7.56541 16.7112H46.4346C47.208 16.7112 47.6465 16.7116 47.9657 16.6855C48.0603 16.6778 48.1215 16.6635 48.158 16.6573C48.1808 16.6409 48.2005 16.6235 48.217 16.6008C48.2232 16.5646 48.2373 16.5025 48.2452 16.4056C48.2713 16.0861 48.2709 15.647 48.2709 14.8726V11.935C48.2709 11.299 48.2691 10.9486 48.2503 10.6922ZM53 14.8726C53 15.5693 53.0018 16.234 52.9564 16.7908C52.9087 17.3753 52.797 18.0466 52.4563 18.7167C51.9779 19.6567 51.2127 20.4229 50.2738 20.9019C49.6045 21.2431 48.9341 21.3549 48.3504 21.4027C48.1611 21.4181 47.959 21.4193 47.7477 21.4258V37.765C47.959 37.7714 48.161 37.7752 48.3504 37.7906C48.9341 37.8384 49.6046 37.9502 50.2738 38.2914C51.2127 38.7704 51.9779 39.5366 52.4563 40.4766C52.7971 41.1467 52.9087 41.818 52.9564 42.4025C53.0018 42.9593 53 43.624 53 44.3207V46.4263C53 47.1229 53.0018 47.7877 52.9564 48.3445C52.9087 48.929 52.797 49.6003 52.4563 50.2704C51.9779 51.2104 51.2127 51.9766 50.2738 52.4556C49.6045 52.7968 48.9341 52.9086 48.3504 52.9563C47.7943 53.0018 47.1304 53 46.4346 53H7.56541C6.86964 53 6.20573 53.0018 5.64964 52.9563C5.06586 52.9086 4.39545 52.7968 3.72619 52.4556C2.78732 51.9766 2.02209 51.2104 1.54371 50.2704C1.20296 49.6003 1.0913 48.929 1.04361 48.3445C0.998219 47.7877 1.00001 47.1229 1.00001 46.4263V44.3207C1.00001 43.624 0.998212 42.9593 1.04361 42.4025C1.09131 41.818 1.20293 41.1467 1.54371 40.4766L1.73862 40.1325C2.21803 39.3499 2.9047 38.7105 3.72619 38.2914L4.22629 38.0757C4.72447 37.8981 5.21167 37.8265 5.64964 37.7906C5.83897 37.7752 6.04102 37.7714 6.25233 37.765V21.4258C6.04105 21.4193 5.83894 21.4181 5.64964 21.4027C5.06586 21.3549 4.39545 21.2431 3.72619 20.9019C2.78732 20.4229 2.02209 19.6567 1.54371 18.7167C1.20296 18.0466 1.0913 17.3753 1.04361 16.7908C0.998219 16.234 1.00001 15.5693 1.00001 14.8726V11.935C1.00001 11.3676 0.998903 10.8151 1.03335 10.3455C1.06998 9.84619 1.1553 9.28258 1.40522 8.69952L1.54884 8.39138C1.90851 7.68852 2.4322 7.08052 3.07478 6.617L3.46203 6.36792C3.85076 6.14691 4.23896 6.00357 4.59815 5.89544C5.04873 5.75984 5.58855 5.64112 6.14205 5.51796L25.5766 1.19371C25.8587 1.13095 26.2026 1.05084 26.564 1.0191C26.854 0.993634 27.146 0.993634 27.436 1.0191C27.7974 1.05084 28.1413 1.13095 28.4234 1.19371L47.858 5.51796C48.4114 5.64112 48.9513 5.75984 49.4018 5.89544C49.761 6.00357 50.1492 6.14692 50.538 6.36792L50.9252 6.617L51.1945 6.825C51.8013 7.32891 52.2824 7.97129 52.5948 8.69952C52.8447 9.28258 52.93 9.84619 52.9667 10.3455C53.0011 10.8151 53 11.3676 53 11.935V14.8726Z" stroke="url(#paint0_linear_8142_14183)" stroke-linecap="round" stroke-linejoin="round"/>
<defs>
<linearGradient id="paint0_linear_8142_14183" x1="6.0901" y1="21.9968" x2="52.1583" y2="34.5074" gradientUnits="userSpaceOnUse">
<stop stop-color="#C3C3C3"/>
<stop offset="0.475962" stop-color="#CCCBCB"/>
<stop offset="1" stop-color="#E0E0E0"/>
</linearGradient>
</defs>
</svg>
