<svg width="46" height="54" viewBox="0 0 46 54" fill="none" xmlns="http://www.w3.org/2000/svg">
<path d="M43.0518 27.2109V26.7109H43.0516L43.0518 27.2109ZM44.9961 33.5234L45.4961 33.5235V33.5234H44.9961ZM41.7939 41.0918L42.1435 41.4493L42.1435 41.4493L41.7939 41.0918ZM7.60352 44.2051V43.7051C7.40026 43.7051 7.21723 43.8281 7.14051 44.0163C7.06378 44.2046 7.10863 44.4205 7.25396 44.5626L7.60352 44.2051ZM13.1328 49.6113L13.4824 49.2538L13.4824 49.2538L13.1328 49.6113ZM13.1641 52.3604L13.5215 52.71L13.5216 52.7099L13.1641 52.3604ZM10.415 52.3906L10.0655 52.7481L10.0655 52.7481L10.415 52.3906ZM1.47949 43.6533L1.12988 44.0108L1.12993 44.0108L1.47949 43.6533ZM1.02441 42.9551L1.49163 42.777L1.49136 42.7763L1.02441 42.9551ZM0.894531 42.2607L0.394531 42.2606V42.2608L0.894531 42.2607ZM1.50391 40.8486L1.84742 41.212L1.85346 41.2061L1.50391 40.8486ZM10.415 32.1357L10.0655 31.7782L10.0655 31.7782L10.415 32.1357ZM13.1641 32.167L13.5216 31.8175L13.5215 31.8174L13.1641 32.167ZM13.1328 34.915L13.4824 35.2726L13.4824 35.2725L13.1328 34.915ZM7.60742 40.3174L7.25787 39.9599C7.11254 40.102 7.06769 40.3179 7.14441 40.5061C7.22114 40.6943 7.40417 40.8174 7.60742 40.8174V40.3174ZM39.0762 38.3125L39.4257 38.67L39.4257 38.67L39.0762 38.3125ZM41.1084 33.5234L41.6084 33.5235V33.5234H41.1084ZM32.7295 1.58496L32.372 1.2354L32.3719 1.23545L32.7295 1.58496ZM35.4775 1.55371L35.8271 1.19621L35.827 1.19616L35.4775 1.55371ZM44.4141 10.292L44.0645 10.6495L44.0645 10.6495L44.4141 10.292ZM44.999 11.6816L45.499 11.6817V11.6816L44.999 11.6816ZM44.4141 13.0713L44.7636 13.4288L44.7636 13.4288L44.4141 13.0713ZM35.4775 21.8086L35.8271 22.1661V22.1661L35.4775 21.8086ZM32.7295 21.7783L32.372 22.1279L32.372 22.1279L32.7295 21.7783ZM32.7607 19.0293L33.1103 19.3868L33.1104 19.3867L32.7607 19.0293ZM38.2871 13.624L38.6367 13.9815C38.782 13.8394 38.8268 13.6234 38.7501 13.4352C38.6734 13.247 38.4903 13.124 38.2871 13.124V13.624ZM11.7744 13.624V13.124V13.624ZM6.81445 15.6299L6.4649 15.2724L6.46489 15.2724L6.81445 15.6299ZM4.78125 20.4189L4.28125 20.4189V20.4189H4.78125ZM0.894531 20.4189L0.394531 20.4189V20.4189H0.894531ZM4.09668 12.8506L3.74712 12.4931L3.74712 12.4931L4.09668 12.8506ZM38.2871 9.7373V10.2373C38.4904 10.2373 38.6734 10.1143 38.7501 9.92606C38.8268 9.73786 38.782 9.52193 38.6367 9.37983L38.2871 9.7373ZM32.7607 4.33301L33.1103 3.97553L33.1103 3.97551L32.7607 4.33301ZM43.0518 27.2109V27.7109C43.8494 27.7109 44.4961 28.3573 44.4961 29.1543H44.9961H45.4961C45.4961 27.8043 44.4011 26.7109 43.0518 26.7109V27.2109ZM44.9961 29.1543H44.4961V33.5234H44.9961H45.4961V29.1543H44.9961ZM44.9961 33.5234L44.4961 33.5234C44.496 36.2342 43.3944 38.8276 41.4444 40.7343L41.7939 41.0918L42.1435 41.4493C44.2834 39.3569 45.496 36.5068 45.4961 33.5235L44.9961 33.5234ZM41.7939 41.0918L41.4444 40.7343C39.4954 42.6399 36.8579 43.7051 34.1152 43.7051V44.2051V44.7051C37.1159 44.7051 40.0053 43.54 42.1435 41.4493L41.7939 41.0918ZM34.1152 44.2051V43.7051H7.60352V44.2051V44.7051H34.1152V44.2051ZM7.60352 44.2051L7.25396 44.5626L12.7833 49.9688L13.1328 49.6113L13.4824 49.2538L7.95307 43.8476L7.60352 44.2051ZM13.1328 49.6113L12.7833 49.9688C13.3534 50.5263 13.3637 51.4408 12.8065 52.0108L13.1641 52.3604L13.5216 52.7099C14.4649 51.7448 14.4472 50.1972 13.4824 49.2538L13.1328 49.6113ZM13.1641 52.3604L12.8066 52.0107C12.2493 52.5806 11.3348 52.5907 10.7646 52.0331L10.415 52.3906L10.0655 52.7481C11.0302 53.6915 12.5778 53.6749 13.5215 52.71L13.1641 52.3604ZM10.415 52.3906L10.7646 52.0331L1.82906 43.2958L1.47949 43.6533L1.12993 44.0108L10.0655 52.7481L10.415 52.3906ZM1.47949 43.6533L1.82911 43.2959C1.6802 43.1502 1.56634 42.973 1.49163 42.777L1.02441 42.9551L0.557199 43.1332C0.680937 43.4578 0.872642 43.7592 1.12988 44.0108L1.47949 43.6533ZM1.02441 42.9551L1.49136 42.7763C1.42915 42.6138 1.39455 42.4407 1.39453 42.2607L0.894531 42.2607L0.394531 42.2608C0.394556 42.5706 0.454387 42.8646 0.557468 43.1339L1.02441 42.9551ZM0.894531 42.2607L1.39453 42.2609C1.39462 41.8479 1.56796 41.4761 1.84737 41.212L1.50391 40.8486L1.16044 40.4853C0.690268 40.9297 0.394685 41.5606 0.394531 42.2606L0.894531 42.2607ZM1.50391 40.8486L1.85346 41.2061L10.7646 32.4932L10.415 32.1357L10.0655 31.7782L1.15435 40.4911L1.50391 40.8486ZM10.415 32.1357L10.7645 32.4933C11.3345 31.9362 12.2491 31.9466 12.8066 32.5166L13.1641 32.167L13.5215 31.8174C12.5781 30.8529 11.0306 30.8349 10.0655 31.7782L10.415 32.1357ZM13.1641 32.167L12.8065 32.5165C13.3636 33.0864 13.3532 34.0001 12.7832 34.5576L13.1328 34.915L13.4824 35.2725C14.4469 34.3291 14.465 32.7825 13.5216 31.8175L13.1641 32.167ZM13.1328 34.915L12.7833 34.5575L7.25787 39.9599L7.60742 40.3174L7.95697 40.6749L13.4824 35.2726L13.1328 34.915ZM7.60742 40.3174V40.8174H34.1152V40.3174V39.8174H7.60742V40.3174ZM34.1152 40.3174V40.8174C36.1126 40.8174 38.0229 40.0416 39.4257 38.67L39.0762 38.3125L38.7266 37.955C37.5131 39.1415 35.8548 39.8174 34.1152 39.8174V40.3174ZM39.0762 38.3125L39.4257 38.67C40.8275 37.2994 41.6083 35.4471 41.6084 33.5235L41.1084 33.5234L40.6084 33.5234C40.6083 35.1748 39.9382 36.7703 38.7266 37.955L39.0762 38.3125ZM41.1084 33.5234H41.6084V29.1543H41.1084H40.6084V33.5234H41.1084ZM41.1084 29.1543H41.6084C41.6084 28.3572 42.2545 27.7111 43.0519 27.7109L43.0518 27.2109L43.0516 26.7109C41.7024 26.7113 40.6084 27.8047 40.6084 29.1543H41.1084ZM32.7295 1.58496L33.087 1.93452C33.6444 1.36442 34.558 1.35405 35.128 1.91127L35.4775 1.55371L35.827 1.19616C34.862 0.252812 33.3154 0.270579 32.372 1.2354L32.7295 1.58496ZM35.4775 1.55371L35.128 1.91121L44.0645 10.6495L44.4141 10.292L44.7636 9.9345L35.8271 1.19621L35.4775 1.55371ZM44.4141 10.292L44.0645 10.6495C44.3424 10.9212 44.499 11.2932 44.499 11.6817L44.999 11.6816L45.499 11.6816C45.499 11.0239 45.2337 10.3942 44.7636 9.93449L44.4141 10.292ZM44.999 11.6816L44.499 11.6815C44.499 12.0699 44.3422 12.4422 44.0645 12.7138L44.4141 13.0713L44.7636 13.4288C45.2337 12.9692 45.4989 12.3392 45.499 11.6817L44.999 11.6816ZM44.4141 13.0713L44.0645 12.7138L35.128 21.4511L35.4775 21.8086L35.8271 22.1661L44.7636 13.4288L44.4141 13.0713ZM35.4775 21.8086L35.128 21.4511C34.5578 22.0086 33.6442 21.9985 33.087 21.4287L32.7295 21.7783L32.372 22.1279C33.3157 23.0928 34.8623 23.1094 35.8271 22.1661L35.4775 21.8086ZM32.7295 21.7783L33.087 21.4288C32.5297 20.8588 32.5401 19.9443 33.1103 19.3868L32.7607 19.0293L32.4112 18.6718C31.4463 19.6152 31.4283 21.1628 32.372 22.1279L32.7295 21.7783ZM32.7607 19.0293L33.1104 19.3867L38.6367 13.9815L38.2871 13.624L37.9375 13.2666L32.4111 18.6718L32.7607 19.0293ZM38.2871 13.624V13.124H11.7744V13.624V14.124H38.2871V13.624ZM11.7744 13.624V13.124C9.77676 13.124 7.86759 13.9009 6.4649 15.2724L6.81445 15.6299L7.164 15.9874C8.37774 14.8007 10.0351 14.124 11.7744 14.124V13.624ZM6.81445 15.6299L6.46489 15.2724C5.06326 16.6429 4.28129 18.495 4.28125 20.4189L4.78125 20.4189L5.28125 20.419C5.28129 18.7677 5.95224 17.1722 7.16401 15.9874L6.81445 15.6299ZM4.78125 20.4189H4.28125V24.7871H4.78125H5.28125V20.4189H4.78125ZM4.78125 24.7871H4.28125C4.28125 25.5848 3.63491 26.2314 2.83789 26.2314V26.7314V27.2314C4.18784 27.2314 5.28125 26.1364 5.28125 24.7871H4.78125ZM2.83789 26.7314V26.2314C2.04088 26.2314 1.39453 25.5848 1.39453 24.7871H0.894531H0.394531C0.394531 26.1364 1.48794 27.2314 2.83789 27.2314V26.7314ZM0.894531 24.7871H1.39453V20.4189H0.894531H0.394531V24.7871H0.894531ZM0.894531 20.4189L1.39453 20.419C1.39457 17.7081 2.49619 15.1149 4.44624 13.2081L4.09668 12.8506L3.74712 12.4931C1.60714 14.5856 0.394572 17.4355 0.394531 20.4189L0.894531 20.4189ZM4.09668 12.8506L4.44623 13.2081C6.39527 11.3024 9.03178 10.2373 11.7744 10.2373V9.7373V9.2373C8.77372 9.2373 5.88532 10.4024 3.74712 12.4931L4.09668 12.8506ZM11.7744 9.7373V10.2373H38.2871V9.7373V9.2373H11.7744V9.7373ZM38.2871 9.7373L38.6367 9.37983L33.1103 3.97553L32.7607 4.33301L32.4112 4.69049L37.9375 10.0948L38.2871 9.7373ZM32.7607 4.33301L33.1103 3.97551C32.5402 3.41805 32.5298 2.50451 33.087 1.93447L32.7295 1.58496L32.3719 1.23545C31.4286 2.20052 31.4464 3.7471 32.4112 4.69051L32.7607 4.33301Z" fill="url(#paint0_linear_8142_14174)"/>
<defs>
<linearGradient id="paint0_linear_8142_14174" x1="5.21177" y1="21.9745" x2="45.0487" y2="31.16" gradientUnits="userSpaceOnUse">
<stop stop-color="#C3C3C3"/>
<stop offset="0.475962" stop-color="#CCCBCB"/>
<stop offset="1" stop-color="#E0E0E0"/>
</linearGradient>
</defs>
</svg>
