<svg width="49" height="53" viewBox="0 0 49 53" fill="none" xmlns="http://www.w3.org/2000/svg">
<path d="M7.03946 18.9199C7.95386 17.9969 9.43604 17.9969 10.3504 18.9199C11.2648 19.843 11.2648 21.3392 10.3504 22.2623L6.15226 26.5002L10.3504 30.7381C11.2648 31.6611 11.2648 33.1573 10.3504 34.0804C9.43604 35.0034 7.95386 35.0034 7.03946 34.0804L1.1858 28.1713C0.2714 27.2483 0.2714 25.7521 1.1858 24.829L7.03946 18.9199ZM16.4053 18.9199C17.3197 17.9969 18.8019 17.9969 19.7163 18.9199L25.57 24.829C26.4844 25.7521 26.4844 27.2483 25.57 28.1713L19.7163 34.0804C18.8019 35.0034 17.3197 35.0034 16.4053 34.0804C15.4909 33.1573 15.4909 31.6611 16.4053 30.7381L20.6035 26.5002L16.4053 22.2623C15.4909 21.3392 15.4909 19.843 16.4053 18.9199ZM6.35348 11.1366C6.35348 10.114 6.34834 9.37298 6.43351 8.71988C6.9871 4.47799 10.2939 1.1399 14.496 0.58107C15.143 0.495088 15.8771 0.500282 16.8901 0.500282H27.4541C29.0608 0.500282 30.2465 0.484693 31.387 0.761112C32.3425 0.992729 33.2565 1.37616 34.0944 1.89445C35.0941 2.51309 35.922 3.37013 37.0578 4.5166L44.5212 12.0507C45.6569 13.1971 46.5059 14.033 47.1187 15.0421C47.6322 15.8879 48.012 16.8105 48.2415 17.7751C48.5153 18.9264 48.4998 20.1234 48.4998 21.7452V38.7915C48.4998 40.7379 48.5022 42.3402 48.3969 43.6411C48.2894 44.9696 48.059 46.1918 47.48 47.3389C46.5821 49.1175 45.149 50.5642 43.387 51.4706C42.2507 52.0551 41.04 52.2876 39.7239 52.3962C38.4352 52.5025 36.848 52.5001 34.9198 52.5001H16.8901C15.8771 52.5001 15.143 52.5053 14.496 52.4193C10.2939 51.8604 6.9871 48.5224 6.43351 44.2805C6.34834 43.6274 6.35348 42.8863 6.35348 41.8637C6.35348 40.5583 7.40179 39.5001 8.69495 39.5001C9.9881 39.5001 11.0364 40.5583 11.0364 41.8637C11.0364 43.0357 11.0426 43.3934 11.0776 43.6619C11.3542 45.7831 13.0074 47.452 15.1088 47.7313C15.3747 47.7665 15.7291 47.7728 16.8901 47.7728H34.9198C36.925 47.7728 38.2883 47.772 39.3421 47.6851C40.3686 47.6004 40.8943 47.4464 41.2605 47.2581C42.1415 46.8049 42.8581 46.0815 43.307 45.1922C43.4936 44.8225 43.6462 44.2919 43.73 43.2556C43.8161 42.1919 43.8169 40.8157 43.8169 38.7915V21.7452C43.8169 19.8983 43.8009 19.3592 43.6866 18.8784C43.5718 18.3964 43.3829 17.9346 43.1264 17.5119C42.8705 17.0907 42.503 16.698 41.2102 15.393L33.7468 7.85892C32.454 6.55388 32.065 6.18294 31.6477 5.92462C31.229 5.66561 30.7715 5.47493 30.294 5.3591C29.8178 5.24368 29.2837 5.22753 27.4541 5.22753H16.8901C15.7291 5.22753 15.3747 5.23381 15.1088 5.26908C13.0074 5.54835 11.3542 7.21721 11.0776 9.33849C11.0426 9.6069 11.0364 9.9646 11.0364 11.1366C11.0364 12.442 9.9881 13.5002 8.69495 13.5002C7.40179 13.5002 6.35348 12.442 6.35348 11.1366Z" stroke="url(#paint0_linear_8384_13398)" stroke-linecap="round" stroke-linejoin="round"/>
<defs>
<linearGradient id="paint0_linear_8384_13398" x1="5.19856" y1="21.497" x2="48.1595" y2="32.2662" gradientUnits="userSpaceOnUse">
<stop stop-color="#C3C3C3"/>
<stop offset="0.475962" stop-color="#CCCBCB"/>
<stop offset="1" stop-color="#E0E0E0"/>
</linearGradient>
</defs>
</svg>
