<svg width="54" height="54" viewBox="0 0 54 54" fill="none" xmlns="http://www.w3.org/2000/svg">
<path d="M49.5789 36.7566C50.7465 36.1697 52.1666 36.6456 52.7504 37.8195C53.3335 38.9931 52.8602 40.4189 51.6932 41.0059L28.902 52.4632C28.7142 52.5577 28.2172 52.8326 27.6532 52.939C27.2215 53.0203 26.7785 53.0203 26.3468 52.939C25.7828 52.8326 25.2858 52.5577 25.098 52.4632L2.30676 41.0059C1.13984 40.4189 0.666518 38.9931 1.2496 37.8195C1.83339 36.6456 3.25351 36.1697 4.42108 36.7566L27 48.1049L49.5789 36.7566ZM49.5789 24.8746C50.7465 24.2876 52.1666 24.7636 52.7504 25.9374C53.3335 27.111 52.8602 28.5368 51.6932 29.1238L28.902 40.5812C28.7142 40.6756 28.2172 40.9505 27.6532 41.0569C27.2215 41.1383 26.7785 41.1383 26.3468 41.0569C25.7828 40.9505 25.2858 40.6756 25.098 40.5812L2.30676 29.1238C1.13984 28.5368 0.666518 27.111 1.2496 25.9374C1.83339 24.7636 3.25351 24.2876 4.42108 24.8746L27 36.2229L49.5789 24.8746ZM27.3278 1.01527L27.6532 1.05937L28.0595 1.16612C28.4462 1.29238 28.761 1.46422 28.902 1.53511L51.6932 12.9925C52.4938 13.3951 52.9997 14.2183 52.9997 15.1183C52.9993 16.0178 52.4934 16.8392 51.6932 17.2417L28.902 28.6991C28.7142 28.7935 28.2172 29.0685 27.6532 29.1748C27.2215 29.2562 26.7785 29.2562 26.3468 29.1748C25.7828 29.0685 25.2858 28.7935 25.098 28.6991L2.30676 17.2417C1.50661 16.8392 1.00069 16.0178 1.00031 15.1183C1.00031 14.2183 1.50624 13.3951 2.30676 12.9925L25.098 1.53511C25.2859 1.44065 25.7829 1.16573 26.3468 1.05937L26.6722 1.01527C26.8903 0.994909 27.1097 0.994909 27.3278 1.01527ZM8.64742 15.1159L27 24.3408L45.3503 15.1159L27 5.8911L8.64742 15.1159Z" stroke="url(#paint0_linear_8142_14226)" stroke-linecap="round" stroke-linejoin="round"/>
<path d="M49.5789 36.7566C50.7465 36.1697 52.1666 36.6456 52.7504 37.8195C53.3335 38.9931 52.8602 40.4189 51.6932 41.0059L28.902 52.4632C28.7142 52.5577 28.2172 52.8326 27.6532 52.939C27.2215 53.0203 26.7785 53.0203 26.3468 52.939C25.7828 52.8326 25.2858 52.5577 25.098 52.4632L2.30676 41.0059C1.13984 40.4189 0.666518 38.9931 1.2496 37.8195C1.83339 36.6456 3.25351 36.1697 4.42108 36.7566L27 48.1049L49.5789 36.7566ZM49.5789 24.8746C50.7465 24.2876 52.1666 24.7636 52.7504 25.9374C53.3335 27.111 52.8602 28.5368 51.6932 29.1238L28.902 40.5812C28.7142 40.6756 28.2172 40.9505 27.6532 41.0569C27.2215 41.1383 26.7785 41.1383 26.3468 41.0569C25.7828 40.9505 25.2858 40.6756 25.098 40.5812L2.30676 29.1238C1.13984 28.5368 0.666518 27.111 1.2496 25.9374C1.83339 24.7636 3.25351 24.2876 4.42108 24.8746L27 36.2229L49.5789 24.8746ZM27.3278 1.01527L27.6532 1.05937L28.0595 1.16612C28.4462 1.29238 28.761 1.46422 28.902 1.53511L51.6932 12.9925C52.4938 13.3951 52.9997 14.2183 52.9997 15.1183C52.9993 16.0178 52.4934 16.8392 51.6932 17.2417L28.902 28.6991C28.7142 28.7935 28.2172 29.0685 27.6532 29.1748C27.2215 29.2562 26.7785 29.2562 26.3468 29.1748C25.7828 29.0685 25.2858 28.7935 25.098 28.6991L2.30676 17.2417C1.50661 16.8392 1.00069 16.0178 1.00031 15.1183C1.00031 14.2183 1.50624 13.3951 2.30676 12.9925L25.098 1.53511C25.2859 1.44065 25.7829 1.16573 26.3468 1.05937L26.6722 1.01527C26.8903 0.994909 27.1097 0.994909 27.3278 1.01527ZM8.64742 15.1159L27 24.3408L45.3503 15.1159L27 5.8911L8.64742 15.1159Z" stroke="url(#paint1_linear_8142_14226)" stroke-linecap="round" stroke-linejoin="round"/>
<defs>
<linearGradient id="paint0_linear_8142_14226" x1="6.0901" y1="21.9968" x2="52.1583" y2="34.5074" gradientUnits="userSpaceOnUse">
<stop stop-color="#C3C3C3"/>
<stop offset="0.475962" stop-color="#CCCBCB"/>
<stop offset="1" stop-color="#E0E0E0"/>
</linearGradient>
<linearGradient id="paint1_linear_8142_14226" x1="6.0901" y1="21.9968" x2="52.1583" y2="34.5074" gradientUnits="userSpaceOnUse">
<stop stop-color="#00B460"/>
<stop offset="0.475962" stop-color="#08763B"/>
<stop offset="1" stop-color="#237E4D"/>
</linearGradient>
</defs>
</svg>
