<svg width="49" height="53" viewBox="0 0 49 53" fill="none" xmlns="http://www.w3.org/2000/svg">
<path d="M7.03946 18.9198C7.95386 17.9968 9.43604 17.9968 10.3504 18.9198C11.2648 19.8429 11.2648 21.3391 10.3504 22.2621L6.15226 26.5L10.3504 30.738C11.2648 31.661 11.2648 33.1572 10.3504 34.0803C9.43604 35.0033 7.95386 35.0033 7.03946 34.0803L1.1858 28.1712C0.2714 27.2482 0.2714 25.7519 1.1858 24.8289L7.03946 18.9198ZM16.4053 18.9198C17.3197 17.9968 18.8019 17.9968 19.7163 18.9198L25.57 24.8289C26.4844 25.7519 26.4844 27.2482 25.57 28.1712L19.7163 34.0803C18.8019 35.0033 17.3197 35.0033 16.4053 34.0803C15.4909 33.1572 15.4909 31.661 16.4053 30.738L20.6035 26.5L16.4053 22.2621C15.4909 21.3391 15.4909 19.8429 16.4053 18.9198ZM6.35348 11.1365C6.35348 10.1139 6.34834 9.37286 6.43351 8.71976C6.9871 4.47787 10.2939 1.13978 14.496 0.580948C15.143 0.494966 15.8771 0.50016 16.8901 0.50016H27.4541C29.0608 0.50016 30.2465 0.484571 31.387 0.76099C32.3425 0.992607 33.2565 1.37604 34.0944 1.89433C35.0941 2.51297 35.922 3.37001 37.0578 4.51648L44.5212 12.0505C45.6569 13.197 46.5059 14.0328 47.1187 15.042C47.6322 15.8878 48.012 16.8104 48.2415 17.7749C48.5153 18.9263 48.4998 20.1232 48.4998 21.7451V38.7914C48.4998 40.7378 48.5022 42.3401 48.3969 43.641C48.2894 44.9694 48.059 46.1917 47.48 47.3387C46.5821 49.1174 45.149 50.5641 43.387 51.4705C42.2507 52.0549 41.04 52.2875 39.7239 52.3961C38.4352 52.5024 36.848 52.4999 34.9198 52.4999H16.8901C15.8771 52.4999 15.143 52.5051 14.496 52.4192C10.2939 51.8603 6.9871 48.5222 6.43351 44.2803C6.34834 43.6272 6.35348 42.8862 6.35348 41.8636C6.35348 40.5582 7.40179 39.5 8.69495 39.5C9.9881 39.5 11.0364 40.5582 11.0364 41.8636C11.0364 43.0356 11.0426 43.3933 11.0776 43.6617C11.3542 45.783 13.0074 47.4519 15.1088 47.7311C15.3747 47.7664 15.7291 47.7727 16.8901 47.7727H34.9198C36.925 47.7727 38.2883 47.7719 39.3421 47.685C40.3686 47.6003 40.8943 47.4463 41.2605 47.258C42.1415 46.8048 42.8581 46.0814 43.307 45.1921C43.4936 44.8224 43.6462 44.2917 43.73 43.2555C43.8161 42.1918 43.8169 40.8156 43.8169 38.7914V21.7451C43.8169 19.8982 43.8009 19.359 43.6866 18.8783C43.5718 18.3963 43.3829 17.9345 43.1264 17.5118C42.8705 17.0906 42.503 16.6979 41.2102 15.3929L33.7468 7.85879C32.454 6.55375 32.065 6.18282 31.6477 5.9245C31.229 5.66549 30.7715 5.47481 30.294 5.35898C29.8178 5.24356 29.2837 5.22741 27.4541 5.22741H16.8901C15.7291 5.22741 15.3747 5.23368 15.1088 5.26896C13.0074 5.54823 11.3542 7.21709 11.0776 9.33837C11.0426 9.60678 11.0364 9.96447 11.0364 11.1365C11.0364 12.4419 9.9881 13.5001 8.69495 13.5001C7.40179 13.5001 6.35348 12.4419 6.35348 11.1365Z" stroke="url(#paint0_linear_8384_13439)" stroke-linecap="round" stroke-linejoin="round"/>
<path d="M7.03946 18.9198C7.95386 17.9968 9.43604 17.9968 10.3504 18.9198C11.2648 19.8429 11.2648 21.3391 10.3504 22.2621L6.15226 26.5L10.3504 30.738C11.2648 31.661 11.2648 33.1572 10.3504 34.0803C9.43604 35.0033 7.95386 35.0033 7.03946 34.0803L1.1858 28.1712C0.2714 27.2482 0.2714 25.7519 1.1858 24.8289L7.03946 18.9198ZM16.4053 18.9198C17.3197 17.9968 18.8019 17.9968 19.7163 18.9198L25.57 24.8289C26.4844 25.7519 26.4844 27.2482 25.57 28.1712L19.7163 34.0803C18.8019 35.0033 17.3197 35.0033 16.4053 34.0803C15.4909 33.1572 15.4909 31.661 16.4053 30.738L20.6035 26.5L16.4053 22.2621C15.4909 21.3391 15.4909 19.8429 16.4053 18.9198ZM6.35348 11.1365C6.35348 10.1139 6.34834 9.37286 6.43351 8.71976C6.9871 4.47787 10.2939 1.13978 14.496 0.580948C15.143 0.494966 15.8771 0.50016 16.8901 0.50016H27.4541C29.0608 0.50016 30.2465 0.484571 31.387 0.76099C32.3425 0.992607 33.2565 1.37604 34.0944 1.89433C35.0941 2.51297 35.922 3.37001 37.0578 4.51648L44.5212 12.0505C45.6569 13.197 46.5059 14.0328 47.1187 15.042C47.6322 15.8878 48.012 16.8104 48.2415 17.7749C48.5153 18.9263 48.4998 20.1232 48.4998 21.7451V38.7914C48.4998 40.7378 48.5022 42.3401 48.3969 43.641C48.2894 44.9694 48.059 46.1917 47.48 47.3387C46.5821 49.1174 45.149 50.5641 43.387 51.4705C42.2507 52.0549 41.04 52.2875 39.7239 52.3961C38.4352 52.5024 36.848 52.4999 34.9198 52.4999H16.8901C15.8771 52.4999 15.143 52.5051 14.496 52.4192C10.2939 51.8603 6.9871 48.5222 6.43351 44.2803C6.34834 43.6272 6.35348 42.8862 6.35348 41.8636C6.35348 40.5582 7.40179 39.5 8.69495 39.5C9.9881 39.5 11.0364 40.5582 11.0364 41.8636C11.0364 43.0356 11.0426 43.3933 11.0776 43.6617C11.3542 45.783 13.0074 47.4519 15.1088 47.7311C15.3747 47.7664 15.7291 47.7727 16.8901 47.7727H34.9198C36.925 47.7727 38.2883 47.7719 39.3421 47.685C40.3686 47.6003 40.8943 47.4463 41.2605 47.258C42.1415 46.8048 42.8581 46.0814 43.307 45.1921C43.4936 44.8224 43.6462 44.2917 43.73 43.2555C43.8161 42.1918 43.8169 40.8156 43.8169 38.7914V21.7451C43.8169 19.8982 43.8009 19.359 43.6866 18.8783C43.5718 18.3963 43.3829 17.9345 43.1264 17.5118C42.8705 17.0906 42.503 16.6979 41.2102 15.3929L33.7468 7.85879C32.454 6.55375 32.065 6.18282 31.6477 5.9245C31.229 5.66549 30.7715 5.47481 30.294 5.35898C29.8178 5.24356 29.2837 5.22741 27.4541 5.22741H16.8901C15.7291 5.22741 15.3747 5.23368 15.1088 5.26896C13.0074 5.54823 11.3542 7.21709 11.0776 9.33837C11.0426 9.60678 11.0364 9.96447 11.0364 11.1365C11.0364 12.4419 9.9881 13.5001 8.69495 13.5001C7.40179 13.5001 6.35348 12.4419 6.35348 11.1365Z" stroke="url(#paint1_linear_8384_13439)" stroke-linecap="round" stroke-linejoin="round"/>
<defs>
<linearGradient id="paint0_linear_8384_13439" x1="5.19856" y1="21.4968" x2="48.1595" y2="32.2661" gradientUnits="userSpaceOnUse">
<stop stop-color="#C3C3C3"/>
<stop offset="0.475962" stop-color="#CCCBCB"/>
<stop offset="1" stop-color="#E0E0E0"/>
</linearGradient>
<linearGradient id="paint1_linear_8384_13439" x1="5.19856" y1="21.4968" x2="48.1595" y2="32.2661" gradientUnits="userSpaceOnUse">
<stop stop-color="#00B460"/>
<stop offset="0.475962" stop-color="#08763B"/>
<stop offset="1" stop-color="#237E4D"/>
</linearGradient>
</defs>
</svg>
