<svg preserveAspectRatio="none" width="100%" height="100%" overflow="visible" style="display: block;" viewBox="0 0 13 15" fill="none" xmlns="http://www.w3.org/2000/svg">
<g id="Group">
<path id="Vector" d="M7.90216 1.18357L8.05654 0.952427L8.20809 0.724392L8.5493 0.212723C8.59106 0.149788 8.57413 0.0651214 8.51176 0.0230704C8.44826 -0.0189807 8.36359 -0.00204729 8.32154 0.0611704L7.95607 0.609809L7.80226 0.840385L7.64619 1.07406C7.15173 0.882436 6.60055 0.774909 6.01833 0.774909C5.43667 0.774909 4.88549 0.882436 4.39104 1.07406L4.23582 0.840385L4.08201 0.609809L3.71597 0.0608882C3.6742 -0.00204727 3.58925 -0.0189806 3.52603 0.0227882C3.46338 0.064557 3.44644 0.149506 3.48821 0.212441L3.82914 0.724109L3.98125 0.952145L4.13563 1.18328C2.97429 1.72402 2.18886 2.74849 2.18886 3.92112H9.84893C9.84893 2.74877 9.0635 1.7243 7.90216 1.18357ZM4.37749 2.82694C4.1503 2.82694 3.96686 2.64322 3.96686 2.41659C3.96686 2.18997 4.1503 2.00653 4.37749 2.00653C4.60412 2.00653 4.78756 2.18997 4.78756 2.41659C4.78756 2.64322 4.60412 2.82694 4.37749 2.82694ZM7.66001 2.82694C7.43339 2.82694 7.24995 2.64322 7.24995 2.41659C7.24995 2.18997 7.43339 2.00653 7.66001 2.00653C7.8872 2.00653 8.07065 2.18997 8.07065 2.41659C8.07065 2.64322 7.8872 2.82694 7.66001 2.82694Z" fill="var(--fill-0, white)"/>
<path id="Vector_2" d="M2.24785 4.46859H2.18886V5.151V5.70782V10.4875C2.18886 10.9653 2.5772 11.354 3.055 11.354H3.68041C3.65952 11.4262 3.64767 11.5027 3.64767 11.5817V11.6274V11.9009V13.3148C3.64767 13.7678 4.0154 14.1355 4.46865 14.1355C4.9219 14.1355 5.28935 13.7678 5.28935 13.3148V11.9009V11.6274V11.5817C5.28935 11.503 5.27722 11.4262 5.2569 11.354H6.78089C6.76001 11.4262 6.74844 11.5027 6.74844 11.5817V11.6274V11.9009V13.3148C6.74844 13.7678 7.11617 14.1355 7.56914 14.1355C8.02211 14.1355 8.38984 13.7678 8.38984 13.3148V11.9009V11.6274V11.5817C8.38984 11.503 8.37827 11.4262 8.35739 11.354H8.98251C9.46031 11.354 9.84893 10.9653 9.84893 10.4875V5.70782V5.151V4.46859H9.78994H2.24785Z" fill="var(--fill-0, white)"/>
<path id="Vector_3" d="M0.820692 4.46859C0.367444 4.46859 -8.73486e-06 4.83576 -8.73486e-06 5.28957V8.80013C-8.73486e-06 9.25309 0.367444 9.62083 0.820692 9.62083C1.27366 9.62083 1.64139 9.25309 1.64139 8.80013V5.28929C1.64139 4.83576 1.27394 4.46859 0.820692 4.46859Z" fill="var(--fill-0, white)"/>
<path id="Vector_4" d="M11.2171 4.46859C10.7636 4.46859 10.3964 4.83576 10.3964 5.28957V8.80013C10.3964 9.25309 10.7636 9.62083 11.2171 9.62083C11.6701 9.62083 12.0373 9.25309 12.0373 8.80013V5.28929C12.0373 4.83576 11.6701 4.46859 11.2171 4.46859Z" fill="var(--fill-0, white)"/>
</g>
</svg>
