<svg preserveAspectRatio="none" width="100%" height="100%" overflow="visible" style="display: block;" viewBox="0 0 16 16" fill="none" xmlns="http://www.w3.org/2000/svg">
<g id="ic-ios">
<path id="Vector" d="M9.75808 2.23285C10.0227 1.92787 10.2245 1.57361 10.3518 1.19044C10.4791 0.807258 10.5295 0.402703 10.5 0C9.68765 0.0655765 8.93354 0.44766 8.40017 1.06393C8.14476 1.35929 7.95121 1.7029 7.83098 2.07441C7.71075 2.44592 7.66628 2.83778 7.70022 3.22679C8.09649 3.23009 8.48821 3.14216 8.84506 2.9698C9.20191 2.79745 9.51431 2.54529 9.75808 2.23285ZM11.522 7.44051C11.5267 6.90416 11.6679 6.37785 11.9325 5.91125C12.197 5.44465 12.5761 5.05314 13.0339 4.77368C12.7449 4.35738 12.363 4.01412 11.9183 3.77112C11.4736 3.52813 10.9784 3.39208 10.472 3.37378C9.38011 3.26178 8.37217 4.01073 7.79121 4.01073C7.21025 4.01073 6.39131 3.38778 5.48137 3.40177C4.8865 3.42137 4.30686 3.59481 3.79899 3.90517C3.29112 4.21553 2.87236 4.65223 2.58356 5.17266C1.35164 7.31451 2.26858 10.4993 3.5005 12.2282C4.06046 13.0751 4.76041 14.0341 5.68435 13.9991C6.60829 13.9641 6.90927 13.4251 7.9802 13.4251C9.05113 13.4251 9.38011 13.9991 10.29 13.9781C11.2 13.9571 11.8439 13.1101 12.4319 12.2632C12.8484 11.6483 13.1738 10.9764 13.3978 10.2683C12.8431 10.0317 12.3698 9.63786 12.0365 9.13531C11.7031 8.63276 11.5242 8.04357 11.522 7.44051Z" fill="var(--fill-0, white)"/>
</g>
</svg>
