<svg width="16" height="16" viewBox="0 0 16 16" fill="none" xmlns="http://www.w3.org/2000/svg">
<path d="M10.8618 4.19501C11.1221 3.93493 11.5439 3.93504 11.8042 4.19501C12.0645 4.45536 12.0645 4.87802 11.8042 5.13837L5.13818 11.8044C4.87783 12.0647 4.45517 12.0647 4.19482 11.8044C3.93485 11.5441 3.93475 11.1223 4.19482 10.862L10.8618 4.19501Z" fill="currentColor"/>
<path d="M10.6665 11.3337V5.33368H4.6665C4.29831 5.33368 3.99951 5.03488 3.99951 4.66669C3.99951 4.2985 4.29831 3.99969 4.6665 3.99969H11.3335C11.7015 3.99987 11.9995 4.29861 11.9995 4.66669V11.3337C11.9993 11.7016 11.7014 11.9995 11.3335 11.9997C10.9654 11.9997 10.6667 11.7017 10.6665 11.3337Z" fill="currentColor"/>
</svg>
