<svg width="16" height="16" viewBox="0 0 16 16" fill="none" xmlns="http://www.w3.org/2000/svg">
<path d="M10.862 4.19531C11.1223 3.93497 11.5443 3.93497 11.8047 4.19531C12.065 4.45566 12.065 4.87767 11.8047 5.13802L6.27604 10.6667H11.3333C11.7015 10.6667 12 10.9651 12 11.3333C12 11.7015 11.7015 12 11.3333 12H4.66667C4.48986 12 4.32034 11.9297 4.19531 11.8047C4.07029 11.6797 4 11.5101 4 11.3333V4.66667C4 4.29848 4.29848 4 4.66667 4C5.03486 4 5.33333 4.29848 5.33333 4.66667V9.72396L10.862 4.19531Z" fill="currentColor"/>
</svg>
