<svg width="24" height="24" viewBox="0 0 24 24" fill="none" xmlns="http://www.w3.org/2000/svg">
<path id="Vector" fill-rule="evenodd" clip-rule="evenodd" d="M22 12C22 17.5228 17.5228 22 12 22C6.47715 22 2 17.5228 2 12C2 6.47715 6.47715 2 12 2C17.5228 2 22 6.47715 22 12ZM4 12C4 16.4183 7.58172 20 12 20C16.4183 20 20 16.4183 20 12C20 7.58172 16.4183 4 12 4C7.58172 4 4 7.58172 4 12Z" fill="currentColor"/>
<path id="Vector_2" d="M7.68141 10.2759C7.2782 9.89846 6.64538 9.91938 6.26797 10.3226C5.89056 10.7258 5.91148 11.3587 6.31469 11.7361L10.4557 15.6121C10.8531 15.984 11.475 15.9698 11.855 15.5801L17.202 10.0961C17.5876 9.70062 17.5796 9.06751 17.1841 8.68196C16.7887 8.2964 16.1556 8.30441 15.77 8.69984L11.107 13.4823L7.68141 10.2759Z" fill="currentColor"/>
</svg>
