<svg width="24" height="24" viewBox="0 0 24 24" fill="none" xmlns="http://www.w3.org/2000/svg">
<path fill-rule="evenodd" clip-rule="evenodd" d="M8.99718 15.0039C8.67418 15.0039 8.35718 14.8479 8.16418 14.5589C7.85718 14.0999 7.98118 13.4789 8.44118 13.1719L11.0002 11.4649V7.01392C11.0002 6.46092 11.4472 6.01392 12.0002 6.01392C12.5532 6.01392 13.0002 6.46092 13.0002 7.01392V11.9999C13.0002 12.3339 12.8332 12.6469 12.5552 12.8319L9.55118 14.8359C9.38118 14.9489 9.18718 15.0039 8.99718 15.0039Z" fill="currentColor"/>
<path fill-rule="evenodd" clip-rule="evenodd" d="M12 4C7.589 4 4 7.589 4 12C4 16.411 7.589 20 12 20C16.411 20 20 16.411 20 12C20 7.589 16.411 4 12 4ZM12 22C6.486 22 2 17.514 2 12C2 6.486 6.486 2 12 2C17.514 2 22 6.486 22 12C22 17.514 17.514 22 12 22Z" fill="currentColor"/>
</svg>
