<svg width="16" height="16" viewBox="0 0 16 16" fill="none" xmlns="http://www.w3.org/2000/svg">
<path d="M15.3332 9.33368C15.333 9.70172 15.0343 9.99969 14.6662 9.99969C14.2983 9.99952 14.0004 9.70161 14.0002 9.33368V6.27509L9.8918 10.3835C9.76757 10.5077 9.64693 10.6304 9.53633 10.7243C9.41978 10.8232 9.27139 10.9292 9.07832 10.9919C8.81058 11.0788 8.52183 11.0789 8.2541 10.9919C8.06133 10.9292 7.9135 10.8231 7.79707 10.7243C7.68646 10.6304 7.56485 10.5077 7.44062 10.3835L5.61641 8.55927C5.47667 8.41953 5.39948 8.34313 5.34004 8.29266C5.33764 8.29063 5.33536 8.2886 5.3332 8.2868C5.33104 8.2886 5.32876 8.29063 5.32637 8.29266C5.26693 8.34313 5.18973 8.41953 5.05 8.55927L1.80488 11.8044C1.54453 12.0647 1.12187 12.0647 0.861522 11.8044C0.601552 11.5441 0.601444 11.1223 0.861522 10.862L4.10762 7.61591C4.2317 7.49182 4.35258 7.3699 4.46308 7.27606C4.57961 7.17714 4.72804 7.07125 4.92109 7.00848C5.15533 6.93237 5.40555 6.92215 5.64375 6.97919L5.74531 7.00848L5.88203 7.06219C6.01056 7.12323 6.1159 7.20185 6.20332 7.27606C6.31382 7.3699 6.4347 7.49182 6.55879 7.61591L8.38398 9.4411C8.52358 9.5807 8.59996 9.65725 8.65937 9.7077C8.66158 9.70958 8.6642 9.71092 8.66621 9.71259C8.66824 9.71089 8.6708 9.70961 8.67305 9.7077C8.73249 9.65724 8.80964 9.58088 8.94941 9.4411L13.0568 5.33368H10.0002C9.632 5.33368 9.3332 5.03488 9.3332 4.66669C9.3332 4.2985 9.632 3.99969 10.0002 3.99969H14.6662C15.0344 3.99969 15.3332 4.2985 15.3332 4.66669V9.33368Z" fill="currentColor"/>
</svg>
