<svg xmlns="http://www.w3.org/2000/svg" viewBox="0 0 25 25"><path d="M 0 0 L 25 0 L 25 25 L 0 25 Z" fill="transparent"></path><path d="M 7.348 14.233 C 8.066 14.233 8.768 13.993 9.334 13.555 L 4.778 9 C 3.681 10.421 3.942 12.463 5.362 13.562 C 5.933 13.996 6.631 14.232 7.348 14.234 Z M 20.9 10.98 C 20.9 10.261 20.66 9.56 20.222 8.994 L 15.666 13.55 C 16.646 14.308 17.972 14.442 19.083 13.896 C 20.195 13.35 20.899 12.219 20.899 10.98 Z" fill="currentColor"></path><path d="M 23.195 6.02 L 21.18 8.037 C 22.805 9.982 22.546 12.877 20.602 14.503 C 18.898 15.928 16.418 15.928 14.714 14.503 L 12.5 16.716 L 10.292 14.508 C 8.347 16.133 5.452 15.874 3.826 13.93 C 2.401 12.226 2.401 9.746 3.826 8.042 L 2.792 7.008 L 1.811 6.021 C 0.626 7.974 -0.001 10.215 0 12.499 C 0 19.403 5.596 24.999 12.5 24.999 C 19.404 24.999 25 19.403 25 12.499 C 25.003 10.215 24.379 7.974 23.195 6.021 Z" fill="currentColor"></path><path d="M 21.542 3.872 C 16.782 -1.122 8.872 -1.309 3.879 3.452 C 3.412 3.9 2.978 4.382 2.582 4.894 L 12.5 14.818 L 22.418 4.894 C 22.145 4.537 21.853 4.196 21.542 3.872 Z M 12.5 1.635 C 15.42 1.635 18.142 2.762 20.187 4.818 L 12.5 12.505 L 4.813 4.818 C 6.857 2.762 9.58 1.635 12.5 1.635 Z" fill="currentColor"></path></svg>
