<svg width="16" height="16" viewBox="0 0 16 16" fill="none" xmlns="http://www.w3.org/2000/svg">
<g clip-path="url(#clip0_5287_3837)">
<path d="M15.04 8.16663C15.04 7.64663 14.9933 7.14663 14.9067 6.66663H8V9.50663H11.9467C11.8646 9.95558 11.6924 10.3832 11.4403 10.7637C11.1882 11.1441 10.8615 11.4694 10.48 11.72V13.5666H12.86C14.2467 12.2866 15.0467 10.4066 15.0467 8.16663H15.04Z" fill="#4285F4"/>
<path d="M7.99979 15.3334C9.97979 15.3334 11.6398 14.68 12.8531 13.56L10.4731 11.7134C9.81979 12.1534 8.98646 12.42 7.99979 12.42C6.09312 12.42 4.47313 11.1334 3.89313 9.40002H1.45312V11.2934C2.65979 13.6867 5.13312 15.3334 7.99979 15.3334Z" fill="#34A853"/>
<path d="M3.89464 9.39338C3.74797 8.95338 3.6613 8.48671 3.6613 8.00005C3.6613 7.51338 3.74797 7.04671 3.89464 6.60671V4.71338H1.45464C0.954635 5.70005 0.667969 6.81338 0.667969 8.00005C0.667969 9.18671 0.954635 10.3 1.45464 11.2867L3.35464 9.80671L3.89464 9.39338Z" fill="#FBBC05"/>
<path d="M7.99979 3.58663C9.07979 3.58663 10.0398 3.95996 10.8065 4.67996L12.9065 2.57996C11.6331 1.39329 9.97979 0.666626 7.99979 0.666626C5.13312 0.666626 2.65979 2.31329 1.45312 4.71329L3.89313 6.60663C4.47313 4.87329 6.09312 3.58663 7.99979 3.58663Z" fill="#EA4335"/>
</g>
<defs>
<clipPath id="clip0_5287_3837">
<rect width="16" height="16" fill="white"/>
</clipPath>
</defs>
</svg>
