<svg xmlns="http://www.w3.org/2000/svg" width="16" height="16" viewBox="0 0 16 16" fill="none">
  <path d="M13.5 3.33333C13.5 2.8731 13.1269 2.5 12.6667 2.5H3.33333C2.8731 2.5 2.5 2.8731 2.5 3.33333V12.6667C2.5 13.1269 2.8731 13.5 3.33333 13.5H12.6667C13.1269 13.5 13.5 13.1269 13.5 12.6667V3.33333ZM14.5 12.6667C14.5 13.6792 13.6792 14.5 12.6667 14.5H3.33333C2.32081 14.5 1.5 13.6792 1.5 12.6667V3.33333C1.5 2.32081 2.32081 1.5 3.33333 1.5H12.6667C13.6792 1.5 14.5 2.32081 14.5 3.33333V12.6667Z" fill="currentColor"/>
  <path d="M13.5 6C13.5 5.77899 13.4121 5.56709 13.2559 5.41081C13.0996 5.25453 12.8877 5.16667 12.6667 5.16667H3.33333C3.11232 5.16667 2.90042 5.25453 2.74414 5.41081C2.58786 5.56709 2.5 5.77899 2.5 6C2.5 6.27614 2.27614 6.5 2 6.5C1.72386 6.5 1.5 6.27614 1.5 6C1.5 5.51377 1.69329 5.04759 2.03711 4.70378C2.38093 4.35996 2.8471 4.16667 3.33333 4.16667H12.6667C13.1529 4.16667 13.6191 4.35996 13.9629 4.70378C14.3067 5.04759 14.5 5.51377 14.5 6C14.5 6.27614 14.2761 6.5 14 6.5C13.7239 6.5 13.5 6.27614 13.5 6Z" fill="currentColor"/>
  <path d="M4 6.83333C4.62793 6.83333 5.29506 7.06174 5.74414 7.56836L6.44987 8.14648L6.48698 8.17969C7.35838 9.05109 8.70867 9.05109 9.58008 8.17969L9.61654 8.14648L10.3379 7.55599C10.751 7.15523 11.394 6.83342 12.0664 6.83333H14C14.2761 6.83333 14.5 7.05719 14.5 7.33333C14.5 7.60948 14.2761 7.83333 14 7.83333H12.0664C11.6858 7.83342 11.2749 8.03244 11.0202 8.28711C11.0085 8.29881 10.9959 8.30983 10.9831 8.32031L10.2604 8.91146C9.00726 10.1383 7.06446 10.1397 5.8099 8.91536L5.08333 8.32031C5.05877 8.30022 5.03594 8.27763 5.01562 8.25326C4.79773 7.99196 4.42008 7.83333 4 7.83333H2C1.72386 7.83333 1.5 7.60948 1.5 7.33333C1.5 7.05719 1.72386 6.83333 2 6.83333H4Z" fill="currentColor"/>
</svg>
