<svg preserveAspectRatio="none" width="100%" height="100%" overflow="visible" style="display: block;" viewBox="0 0 14 14" fill="none" xmlns="http://www.w3.org/2000/svg">
<g id="Group 3">
<path id="Vector" d="M12.97 6.88637H11.4761C11.0299 6.88637 10.6683 7.24799 10.6683 7.69426V9.86307C10.6683 10.3093 10.3068 10.671 9.86063 10.671H3.91733C3.47116 10.671 3.10962 11.0326 3.10962 11.4789V12.9731C3.10962 13.4194 3.47116 13.781 3.91733 13.781H10.2046C10.6508 13.781 11.0072 13.4194 11.0072 12.9731V11.7743C11.0072 11.328 11.3687 11.0114 11.8149 11.0114H12.9697C13.4158 11.0114 13.7774 10.6498 13.7774 10.2035V7.68489C13.7774 7.23861 13.4158 6.88637 12.9697 6.88637H12.97Z" fill="var(--fill-0, #121312)"/>
<path id="Vector_2" d="M3.10935 3.91786C3.10935 3.47159 3.47088 3.10997 3.91706 3.10997H9.85672C10.3029 3.10997 10.6644 2.74835 10.6644 2.30207V0.807821C10.6644 0.361543 10.3029 -7.62939e-05 9.85672 -7.62939e-05H3.57275C3.12658 -7.62939e-05 2.76504 0.361543 2.76504 0.807821V1.9592C2.76504 2.40548 2.4035 2.76709 1.95732 2.76709H0.807722C0.361544 2.76709 7.51019e-06 3.12871 7.51019e-06 3.57499V6.09635C7.51019e-06 6.54262 0.363056 6.8861 0.809234 6.8861H2.30314C2.74932 6.8861 3.11086 6.52448 3.11086 6.0782L3.10935 3.91817V3.91786Z" fill="var(--fill-0, #121312)"/>
<path id="Vector_3" d="M6.18576 5.31568H7.62072C8.08836 5.31568 8.46773 5.69544 8.46773 6.16288V7.59817C8.46773 8.06592 8.08806 8.44538 7.62072 8.44538H6.18576C5.71812 8.44538 5.33875 8.06562 5.33875 7.59817V6.16288C5.33875 5.69514 5.71842 5.31568 6.18576 5.31568V5.31568Z" fill="var(--fill-0, #121312)"/>
</g>
</svg>
