<svg width="16" height="16" viewBox="0 0 16 16" fill="none" xmlns="http://www.w3.org/2000/svg">
<path d="M12.6665 11.2952C12.4602 11.4045 12.2386 11.5046 12.0054 11.5921C10.9478 11.9887 9.53105 12.22 7.99951 12.22C6.4682 12.22 5.05207 11.9886 3.99463 11.5921C3.7616 11.5047 3.53964 11.4053 3.3335 11.2962V12.6663C3.3335 12.6833 3.33992 12.78 3.52783 12.9466C3.71493 13.1124 4.02383 13.2919 4.4624 13.4564C5.33509 13.7836 6.58566 14.0003 7.99951 14.0003C9.41337 14.0003 10.6639 13.7836 11.5366 13.4564C11.9755 13.2918 12.285 13.1125 12.4722 12.9466C12.66 12.78 12.6665 12.6833 12.6665 12.6663V11.2952ZM12.6665 8.18683C12.4603 8.29602 12.2385 8.3953 12.0054 8.48273C10.9478 8.8793 9.53105 9.11066 7.99951 9.11066C6.46813 9.11062 5.05208 8.87926 3.99463 8.48273C3.76168 8.39537 3.53958 8.29689 3.3335 8.18781V9.55304L3.3374 9.58038C3.34802 9.62228 3.38656 9.70806 3.52783 9.83331C3.71493 9.99915 4.02385 10.1786 4.4624 10.3431C5.33509 10.6703 6.58566 10.887 7.99951 10.887C9.41336 10.887 10.6639 10.6703 11.5366 10.3431C11.9755 10.1785 12.285 9.99922 12.4722 9.83331C12.66 9.66674 12.6665 9.57006 12.6665 9.55304V8.18683ZM12.6665 5.0755C12.4603 5.1847 12.2385 5.28396 12.0054 5.3714C10.9478 5.76797 9.53105 6.00031 7.99951 6.00031C6.4681 6.00027 5.05209 5.76795 3.99463 5.3714C3.76164 5.28403 3.5396 5.18558 3.3335 5.07648V6.44464L3.3374 6.47198C3.3482 6.51405 3.38719 6.59923 3.52783 6.72394C3.71494 6.88983 4.02364 7.07013 4.4624 7.23468C5.33509 7.56194 6.58566 7.77762 7.99951 7.77765C9.41326 7.77765 10.6639 7.56187 11.5366 7.23468C11.9755 7.07012 12.285 6.88985 12.4722 6.72394C12.6127 6.59924 12.6518 6.514 12.6626 6.47198L12.6665 6.44464V5.0755ZM12.6665 3.33331C12.6665 3.3163 12.6597 3.2204 12.4722 3.05402C12.285 2.8881 11.9755 2.70784 11.5366 2.54327C10.6639 2.21606 9.41331 2.00031 7.99951 2.00031C6.58566 2.00034 5.33509 2.21602 4.4624 2.54327C4.02369 2.70781 3.71493 2.88813 3.52783 3.05402C3.34013 3.2205 3.3335 3.3163 3.3335 3.33331C3.3335 3.35033 3.34013 3.44613 3.52783 3.61261C3.71493 3.77849 4.02369 3.95881 4.4624 4.12335C5.33509 4.45061 6.58566 4.66629 7.99951 4.66632C9.41331 4.66632 10.6639 4.45056 11.5366 4.12335C11.9755 3.95879 12.285 3.77852 12.4722 3.61261C12.6597 3.44622 12.6665 3.35032 12.6665 3.33331ZM13.9995 12.6663C13.9995 13.2016 13.7078 13.6317 13.356 13.9437C13.0034 14.2563 12.5316 14.508 12.0054 14.7054C10.9478 15.102 9.53105 15.3333 7.99951 15.3333C6.46819 15.3333 5.05207 15.1019 3.99463 14.7054C3.46832 14.508 2.9957 14.2563 2.64307 13.9437C2.29135 13.6317 1.99951 13.2014 1.99951 12.6663V3.33331C1.99951 2.79813 2.29128 2.36791 2.64307 2.05597C2.99569 1.74333 3.46833 1.49259 3.99463 1.29523C5.05209 0.898679 6.4681 0.666354 7.99951 0.666321C9.53105 0.666321 10.9478 0.898651 12.0054 1.29523C12.5315 1.49254 13.0034 1.74347 13.356 2.05597C13.7078 2.36792 13.9995 2.79805 13.9995 3.33331V12.6663Z" fill="currentColor"/>
</svg>
