<svg width="16" height="16" viewBox="0 0 16 16" fill="none" xmlns="http://www.w3.org/2000/svg">
<path d="M12.6318 8.00024C12.908 8.00024 13.1318 8.2241 13.1318 8.50024V9.50024C13.1317 10.1691 12.8566 10.8074 12.3721 11.2747C11.8882 11.7412 11.2353 12.0002 10.5586 12.0002H4.53809L5.7207 13.1399C5.91932 13.3316 5.92494 13.6482 5.7334 13.8469C5.54177 14.0455 5.2251 14.052 5.02637 13.8606L2.95312 11.8606C2.95167 11.8592 2.95065 11.8571 2.94922 11.8557C2.88 11.7875 2.82983 11.6997 2.80957 11.6008C2.80279 11.568 2.79982 11.5342 2.7998 11.5002C2.7998 11.3623 2.85592 11.2372 2.94629 11.1467L2.95312 11.1399L5.02637 9.13989C5.22514 8.94832 5.54175 8.95483 5.7334 9.15356C5.92485 9.35235 5.91939 9.66899 5.7207 9.8606L4.53809 11.0002H10.5586C10.9815 11.0002 11.384 10.8381 11.6777 10.5549C11.9709 10.2722 12.1317 9.89196 12.1318 9.50024V8.50024C12.1318 8.22422 12.3559 8.00044 12.6318 8.00024ZM10.1982 2.15356C10.3898 1.95494 10.7065 1.94864 10.9053 2.13989L12.9795 4.13989C13.0772 4.23413 13.1328 4.36449 13.1328 4.50024C13.1327 4.6359 13.0771 4.76642 12.9795 4.8606L10.9053 6.8606C10.7065 7.05159 10.3897 7.04546 10.1982 6.84692C10.0071 6.64822 10.0135 6.33147 10.2119 6.13989L11.3926 5.00024H5.37402C4.95088 5.00025 4.54778 5.16215 4.25391 5.44556C3.96069 5.72837 3.7998 6.10843 3.7998 6.50024V7.50024C3.79975 7.77633 3.57591 8.00024 3.2998 8.00024C3.02371 8.00023 2.79986 7.77633 2.7998 7.50024V6.50024C2.7998 5.83126 3.076 5.19315 3.56055 4.72583C4.04447 4.25932 4.6973 4.00025 5.37402 4.00024H11.3926L10.2119 2.8606C10.0134 2.66913 10.0072 2.35237 10.1982 2.15356Z" fill="currentColor"/>
</svg>
