<svg width="16" height="16" viewBox="0 0 16 16" fill="none" xmlns="http://www.w3.org/2000/svg">
<path fill-rule="evenodd" clip-rule="evenodd" d="M9.9987 3.33203C7.42203 3.33203 5.33203 5.42203 5.33203 7.9987C5.33203 10.576 7.42203 12.6654 9.9987 12.6654C12.576 12.6654 14.6654 10.576 14.6654 7.9987C14.6654 5.42203 12.576 3.33203 9.9987 3.33203M9.9987 4.66536C11.8374 4.66536 13.332 6.1607 13.332 7.9987C13.332 9.83736 11.8374 11.332 9.9987 11.332C8.1607 11.332 6.66536 9.83736 6.66536 7.9987C6.66536 6.1607 8.1607 4.66536 9.9987 4.66536" fill="#636669"/>
<path d="M4.5364 3.57266C2.63963 4.19699 1.3335 5.97076 1.3335 7.99791C1.3335 10.0251 2.63963 11.7988 4.5364 12.4232C4.88613 12.5383 5.26296 12.3481 5.37808 11.9983C5.49319 11.6486 5.30299 11.2718 4.95326 11.1567C3.5992 10.711 2.66683 9.44478 2.66683 7.99791C2.66683 6.55104 3.5992 5.28485 4.95326 4.83916C5.30299 4.72404 5.49319 4.34721 5.37808 3.99748C5.26296 3.64774 4.88613 3.45755 4.5364 3.57266Z" fill="#636669"/>
</svg>
