<svg width="24" height="24" viewBox="0 0 24 24" fill="none" xmlns="http://www.w3.org/2000/svg">
<path fill-rule="evenodd" clip-rule="evenodd" d="M14.998 4.99951C11.133 4.99951 7.99805 8.13451 7.99805 11.9995C7.99805 15.8655 11.133 18.9995 14.998 18.9995C18.864 18.9995 21.998 15.8655 21.998 11.9995C21.998 8.13451 18.864 4.99951 14.998 4.99951M14.998 6.99951C17.756 6.99951 19.998 9.24251 19.998 11.9995C19.998 14.7575 17.756 16.9995 14.998 16.9995C12.241 16.9995 9.99805 14.7575 9.99805 11.9995C9.99805 9.24251 12.241 6.99951 14.998 6.99951" fill="#A1A3A7"/>
<path d="M6.80435 5.35802C3.9592 6.2945 2 8.95517 2 11.9959C2 15.0366 3.9592 17.6973 6.80435 18.6338C7.32895 18.8064 7.8942 18.5211 8.06687 17.9965C8.23954 17.4719 7.95425 16.9067 7.42965 16.734C5.39855 16.0655 4 14.1662 4 11.9959C4 9.82558 5.39855 7.92629 7.42965 7.25776C7.95425 7.08508 8.23954 6.51984 8.06687 5.99524C7.8942 5.47064 7.32895 5.18535 6.80435 5.35802Z" fill="#A1A3A7"/>
</svg>
