<svg width="16" height="16" viewBox="0 0 16 16" fill="none" xmlns="http://www.w3.org/2000/svg">
<path d="M12.6665 3.33203C13.4028 3.33203 14.0003 3.92881 14.0005 4.66504V5.99902C14.3684 5.9992 14.6663 6.29711 14.6665 6.66504V9.33203C14.6665 9.70011 14.3685 9.99885 14.0005 9.99902V11.332C14.0005 12.0684 13.4029 12.665 12.6665 12.665H2.6665C1.93027 12.6649 1.3335 12.0683 1.3335 11.332V4.66504C1.33367 3.92892 1.93038 3.33221 2.6665 3.33203H12.6665ZM2.6665 11.332H12.6665V9.99902H10.6665C10.2985 9.99885 10.0005 9.70011 10.0005 9.33203V6.66504C10.0007 6.29711 10.2986 5.9992 10.6665 5.99902H12.6665V4.66504H2.6665V11.332ZM11.3335 8.66504H13.3335V7.33203H11.3335V8.66504Z" fill="currentColor"/>
</svg>
