<svg width="14" height="14" viewBox="0 0 14 14" fill="none" xmlns="http://www.w3.org/2000/svg">
<path fill-rule="evenodd" clip-rule="evenodd" d="M7.0022 1.66748C8.10486 1.66748 9.0022 2.56415 9.0022 3.66748C9.0022 4.77015 8.10486 5.66748 7.0022 5.66748C5.89953 5.66748 5.0022 4.77015 5.0022 3.66748C5.0022 2.56415 5.89953 1.66748 7.0022 1.66748ZM9.87617 7.04665C9.48951 6.83132 9.07484 6.66998 8.63951 6.55265C9.64684 5.97865 10.3355 4.90732 10.3355 3.66732C10.3355 1.82932 8.84017 0.333984 7.00217 0.333984C5.16417 0.333984 3.66884 1.82932 3.66884 3.66732C3.66884 4.90265 4.35217 5.97065 5.35351 6.54665C2.36484 7.32798 1.11351 10.2327 0.360173 12.8173C0.257507 13.1707 0.460173 13.5413 0.813507 13.644C0.876173 13.6627 0.93884 13.6707 1.00017 13.6707C1.28951 13.6707 1.55551 13.482 1.64017 13.1913C2.76817 9.32198 4.37151 7.67065 7.00017 7.67065C7.84817 7.67065 8.57551 7.84732 9.22484 8.21065C9.54551 8.38932 9.95217 8.27465 10.1322 7.95398C10.3122 7.63265 10.1968 7.22598 9.87617 7.04665Z" fill="#121312"/>
<path fill-rule="evenodd" clip-rule="evenodd" d="M6.99998 1.66748C5.89731 1.66748 4.99998 2.56415 4.99998 3.66748C4.99998 4.77015 5.89731 5.66748 6.99998 5.66748C8.10264 5.66748 8.99998 4.77015 8.99998 3.66748C8.99998 2.56415 8.10264 1.66748 6.99998 1.66748ZM4.126 7.04665C4.51267 6.83132 4.92733 6.66998 5.36267 6.55265C4.35533 5.97865 3.66667 4.90732 3.66667 3.66732C3.66667 1.82932 5.162 0.333984 7 0.333984C8.838 0.333984 10.3333 1.82932 10.3333 3.66732C10.3333 4.90265 9.65 5.97065 8.64867 6.54665C11.6373 7.32798 12.8887 10.2327 13.642 12.8173C13.7447 13.1707 13.542 13.5413 13.1887 13.644C13.126 13.6627 13.0633 13.6707 13.002 13.6707C12.7127 13.6707 12.4467 13.482 12.362 13.1913C11.234 9.32198 9.63067 7.67065 7.002 7.67065C6.154 7.67065 5.42667 7.84732 4.77733 8.21065C4.45667 8.38932 4.05 8.27465 3.87 7.95398C3.69 7.63265 3.80533 7.22598 4.126 7.04665Z" fill="#121312"/>
</svg>
