<svg width="16" height="16" viewBox="0 0 16 16" fill="none" xmlns="http://www.w3.org/2000/svg">
<path d="M13.6003 5.05988C13.6003 4.46045 13.5999 4.05289 13.5742 3.73786C13.5491 3.43096 13.5031 3.27362 13.4473 3.16414C13.3131 2.90089 13.0991 2.68693 12.8359 2.55274C12.7264 2.49695 12.569 2.45092 12.2621 2.42584C11.9471 2.40012 11.5396 2.39969 10.9401 2.39969H5.05988C4.46045 2.39969 4.05289 2.40012 3.73786 2.42584C3.43096 2.45092 3.27362 2.49695 3.16414 2.55274C2.90089 2.68693 2.68693 2.90089 2.55274 3.16414C2.49695 3.27362 2.45092 3.43096 2.42584 3.73786C2.40012 4.05289 2.39969 4.46045 2.39969 5.05988V10.9401C2.39969 11.5396 2.40012 11.9471 2.42584 12.2621C2.45092 12.569 2.49695 12.7264 2.55274 12.8359C2.68693 13.0991 2.90089 13.3131 3.16414 13.4473C3.27362 13.5031 3.43096 13.5491 3.73786 13.5742C4.05289 13.5999 4.46045 13.6003 5.05988 13.6003H10.9401C11.5396 13.6003 11.9471 13.5999 12.2621 13.5742C12.569 13.5491 12.7264 13.5031 12.8359 13.4473C13.0991 13.3131 13.3131 13.0991 13.4473 12.8359C13.5031 12.7264 13.5491 12.569 13.5742 12.2621C13.5999 11.9471 13.6003 11.5396 13.6003 10.9401V5.05988ZM5.75511 5.40519C6.02848 5.13181 6.47152 5.13181 6.74489 5.40519C7.01818 5.67857 7.01824 6.12162 6.74489 6.39497L5.13986 8L6.74489 9.60503C7.01824 9.87838 7.01818 10.3214 6.74489 10.5948C6.47152 10.8682 6.02848 10.8682 5.75511 10.5948L3.6548 8.49528C3.38143 8.2219 3.38143 7.7781 3.6548 7.50473L5.75511 5.40519ZM9.25511 5.40519C9.52848 5.13181 9.97152 5.13181 10.2449 5.40519L12.3452 7.50473C12.6186 7.7781 12.6186 8.2219 12.3452 8.49528L10.2449 10.5948C9.97152 10.8682 9.52848 10.8682 9.25511 10.5948C8.98182 10.3214 8.98177 9.87838 9.25511 9.60503L10.8601 8L9.25511 6.39497C8.98177 6.12162 8.98182 5.67857 9.25511 5.40519ZM15 10.9401C15 11.5166 15.0007 11.9914 14.9692 12.3767C14.9371 12.7701 14.8677 13.1315 14.6947 13.4711C14.4262 13.998 13.998 14.4262 13.4711 14.6947C13.1315 14.8677 12.7701 14.9371 12.3767 14.9692C11.9914 15.0007 11.5166 15 10.9401 15H5.05988C4.48338 15 4.00857 15.0007 3.62327 14.9692C3.22994 14.9371 2.86853 14.8677 2.5289 14.6947C2.00203 14.4262 1.57377 13.998 1.30532 13.4711C1.13228 13.1315 1.06292 12.7701 1.03076 12.3767C0.999284 11.9914 1 11.5166 1 10.9401V5.05988C1 4.48338 0.999284 4.00857 1.03076 3.62327C1.06292 3.22994 1.13228 2.86853 1.30532 2.5289C1.57377 2.00203 2.00203 1.57377 2.5289 1.30532C2.86853 1.13228 3.22994 1.06292 3.62327 1.03076C4.00857 0.999284 4.48338 1 5.05988 1H10.9401C11.5166 1 11.9914 0.999284 12.3767 1.03076C12.7701 1.06292 13.1315 1.13228 13.4711 1.30532C13.998 1.57377 14.4262 2.00203 14.6947 2.5289C14.8677 2.86853 14.9371 3.22994 14.9692 3.62327C15.0007 4.00857 15 4.48338 15 5.05988V10.9401Z" fill="currentColor"/>
</svg>
