<svg width="15" height="15" viewBox="0 0 15 15" fill="none" xmlns="http://www.w3.org/2000/svg">
<path d="M5.16667 0C5.31087 0 5.45103 0.0469656 5.56641 0.133464C5.65293 0.198359 5.7221 0.282898 5.76823 0.379557L5.80664 0.479818L5.80794 0.485026L9.16667 12.4336L10.4121 8.00456C10.5203 7.61902 10.7516 7.27935 11.071 7.03776C11.3901 6.79635 11.7796 6.66611 12.1797 6.66667H13.8333C14.1095 6.66667 14.3333 6.89052 14.3333 7.16667C14.3333 7.44281 14.1095 7.66667 13.8333 7.66667H12.179C11.997 7.66628 11.8197 7.72548 11.6745 7.83529C11.5293 7.94508 11.4242 8.09953 11.375 8.27474L9.80794 13.849L9.80664 13.8535C9.76623 13.9919 9.68176 14.1134 9.56641 14.1999C9.45103 14.2864 9.31087 14.3333 9.16667 14.3333C9.02247 14.3333 8.88231 14.2864 8.76693 14.1999C8.65158 14.1134 8.5671 13.9919 8.52669 13.8535L8.52539 13.8483L5.16602 1.89909L3.92122 6.32878C3.81343 6.71281 3.58314 7.05153 3.26562 7.29297C2.94805 7.53435 2.56036 7.66552 2.16146 7.66667H0.5C0.223858 7.66667 0 7.44281 0 7.16667C0 6.89052 0.223858 6.66667 0.5 6.66667H2.15885C2.34014 6.66609 2.5165 6.60648 2.66081 6.49674C2.80514 6.38696 2.90937 6.23255 2.95833 6.05794L4.52539 0.484375L4.52669 0.479818C4.5671 0.341413 4.65158 0.219975 4.76693 0.133464L4.85742 0.0761719C4.95239 0.0264374 5.05841 0 5.16667 0Z" fill="currentColor"/>
</svg>
