<svg preserveAspectRatio="none" width="100%" height="100%" overflow="visible" style="display: block;" viewBox="0 0 172 32" fill="none" xmlns="http://www.w3.org/2000/svg">
<g id="Group">
<path id="Vector" fill-rule="evenodd" clip-rule="evenodd" d="M0 6.35915L1.05176 21.5235H10.2747L10.2963 21.5385L14.6452 32L18.2397 25.6397L17.1892 10.4766H7.95708L7.94347 10.4603L3.59458 0L0 6.35915ZM11.3197 14.4856L11.326 14.4931L7.9949 14.4769L6.90927 17.5069L6.91452 17.5132L10.246 17.5219L11.3304 14.4931L11.3197 14.4856Z" fill="var(--fill-0, #C8FF33)"/>
<path id="Vector_2" d="M37.7496 15.5146V10.488H38.6358V21.5225H37.7496V16.5569H27.6675V21.5225H26.7815V10.488H27.6675V15.5146H37.7496Z" fill="var(--fill-0, white)"/>
<path id="Vector_3" d="M47.3628 16.7875L53.0031 10.488H54.1879L47.7406 17.8449H47.7142V21.5238H46.8281V17.8449H46.8017L40.2628 10.488H41.4614L47.1796 16.7875H47.3616H47.3628Z" fill="var(--fill-0, white)"/>
<path id="Vector_4" d="M70.4474 10.488H82.2368V11.5305H71.3334V15.4848H81.9238V16.5272H71.3334V20.4814H82.2368V21.5238H70.4474V10.4893V10.488Z" fill="var(--fill-0, white)"/>
<path id="Vector_5" d="M96.7502 21.5225H95.6561L93.7927 18.3343H85.4421V21.5225H84.5573V10.488H93.9878C94.3956 10.488 94.7761 10.5752 95.1273 10.7484C95.4785 10.9228 95.7875 11.1519 96.0527 11.4384C96.3171 11.7248 96.5256 12.0536 96.6777 12.4272C96.8291 12.7996 96.9055 13.1807 96.9055 13.5692V15.1783C96.9055 15.5059 96.8465 15.8372 96.7303 16.1747C96.6132 16.5121 96.4556 16.8235 96.2597 17.11C96.0639 17.3965 95.8393 17.6394 95.5829 17.8386C95.3273 18.0378 95.0637 18.1686 94.7946 18.2297L96.7487 21.5251L96.7502 21.5225ZM96.0208 14.887V13.8445C96.0208 13.5381 95.9619 13.2417 95.8456 12.9552C95.7286 12.6688 95.5661 12.421 95.3623 12.2117C95.1576 12.0025 94.9155 11.8368 94.6336 11.7136C94.3509 11.5916 94.0444 11.5292 93.7147 11.5292H85.4436V17.2918H93.7147C94.1399 17.2918 94.4975 17.2146 94.7889 17.0614C95.0804 16.9082 95.3169 16.714 95.5 16.4786C95.6824 16.2432 95.8153 15.9829 95.8982 15.6964C95.981 15.4101 96.0224 15.1398 96.0224 14.8845L96.0208 14.887Z" fill="var(--fill-0, white)"/>
<path id="Vector_6" d="M65.2504 18.3343H56.9002V21.5225H56.0143V10.488H65.4448C65.8528 10.488 66.233 10.5752 66.5845 10.7484C66.936 10.9228 67.2447 11.1519 67.5095 11.4384C67.7744 11.7248 67.9826 12.0536 68.1346 12.4272C68.2864 12.7996 68.363 13.1807 68.363 13.5692V15.1783C68.363 15.5059 68.3039 15.8372 68.1873 16.1747C68.0705 16.5121 67.9136 16.8235 67.7178 17.11C67.5221 17.3965 67.2961 17.6394 67.0401 17.8386C66.7842 18.0378 66.5206 18.1686 66.252 18.2297M67.4769 14.887V13.8445C67.4769 13.5381 67.4179 13.2417 67.3011 12.9552C67.1845 12.6688 67.0226 12.421 66.8192 12.2117C66.6146 12.0025 66.3724 11.8368 66.0901 11.7136C65.8076 11.5916 65.5013 11.5292 65.1713 11.5292H56.9002V17.2918H65.1713C65.5968 17.2918 65.9545 17.2146 66.2456 17.0614C66.5369 16.9082 66.7728 16.714 66.956 16.4786C67.138 16.2432 67.271 15.9829 67.354 15.6964C67.4367 15.4101 67.4781 15.1398 67.4781 14.8845L67.4769 14.887Z" fill="var(--fill-0, white)"/>
<path id="Vector_7" d="M109.327 18.5647V10.488H111.476V21.5225H108.78L101.512 13.4609V21.5225H99.3629V10.488H102.073L109.329 18.5647H109.327Z" fill="var(--fill-0, #C8FF33)"/>
<path id="Vector_8" d="M127.153 21.5225H124.677L123.544 19.4539H116.445L115.325 21.5225H112.862L118.619 10.488H121.381L127.152 21.5225H127.153ZM119.858 13.0163L117.696 16.9244H122.32L120.131 13.0163H119.857H119.858Z" fill="var(--fill-0, #C8FF33)"/>
<path id="Vector_9" d="M137.765 10.488V13.0176H132.555V21.5238H130.407V13.0176H125.261V10.488H137.765Z" fill="var(--fill-0, #C8FF33)"/>
<path id="Vector_10" d="M139.706 10.488H141.855V21.5225H139.706V10.488Z" fill="var(--fill-0, #C8FF33)"/>
<path id="Vector_11" d="M151.054 19.3156H151.444L156.591 10.488H159.103L152.813 21.5225H149.699L143.409 10.488H145.934L151.054 19.3156Z" fill="var(--fill-0, #C8FF33)"/>
<path id="Vector_12" d="M160.21 10.488H172V13.0176H162.361V14.7499H171.689V17.2632H162.361V18.9956H172V21.5251H160.21V10.4906V10.488Z" fill="var(--fill-0, #C8FF33)"/>
</g>
</svg>
