<svg preserveAspectRatio="none" width="100%" height="100%" overflow="visible" style="display: block;" viewBox="0 0 172 32" fill="none" xmlns="http://www.w3.org/2000/svg">
<g id="Group">
<path id="Vector" fill-rule="evenodd" clip-rule="evenodd" d="M0 6.35914L1.05176 21.5234H10.2747L10.2963 21.5385L14.6452 32L18.2397 25.6396L17.1892 10.4766H7.95709L7.94346 10.4603L3.59457 0L0 6.35914ZM11.3198 14.4856L11.326 14.493L7.99489 14.4769L6.90927 17.507L6.91451 17.5132L10.246 17.5219L11.3304 14.493L11.3198 14.4856Z" fill="var(--fill-0, white)"/>
<path id="Vector_2" d="M37.7497 15.5144V10.4878H38.636V21.5223H37.7497V16.5568H27.6677V21.5223H26.7816V10.4878H27.6677V15.5144H37.7497Z" fill="var(--fill-0, white)"/>
<path id="Vector_3" d="M47.3626 16.7873L53.0031 10.4878H54.1879L47.7404 17.8446H47.7141V21.5236H46.828V17.8446H46.8017L40.2628 10.4878H41.4614L47.1794 16.7873H47.3616H47.3626Z" fill="var(--fill-0, white)"/>
<path id="Vector_4" d="M70.4473 10.4878H82.2367V11.5303H71.3334V15.4845H81.9237V16.5269H71.3334V20.4812H82.2367V21.5236H70.4473V10.4891V10.4878Z" fill="var(--fill-0, white)"/>
<path id="Vector_5" d="M96.7501 21.5223H95.6559L93.7926 18.334H85.4419V21.5223H84.5572V10.4878H93.9877C94.3955 10.4878 94.7761 10.575 95.1273 10.7481C95.4784 10.9225 95.7872 11.1517 96.0525 11.4381C96.3168 11.7245 96.5253 12.0533 96.6775 12.427C96.8288 12.7993 96.9052 13.1805 96.9052 13.569V15.1781C96.9052 15.5056 96.8465 15.8369 96.7301 16.1744C96.613 16.512 96.4553 16.8233 96.2595 17.1098C96.0636 17.3962 95.8391 17.6391 95.5827 17.8384C95.3271 18.0377 95.0636 18.1684 94.7943 18.2294L96.7483 21.5248L96.7501 21.5223ZM96.0207 14.8867V13.8443C96.0207 13.5379 95.9617 13.2415 95.8454 12.955C95.7282 12.6686 95.5658 12.4208 95.3621 12.2115C95.1575 12.0023 94.9154 11.8366 94.6334 11.7133C94.3507 11.5913 94.0443 11.529 93.7145 11.529H85.4435V17.2916H93.7145C94.1399 17.2916 94.4973 17.2144 94.7887 17.0612C95.0802 16.9081 95.3168 16.7137 95.4997 16.4784C95.6822 16.2429 95.8151 15.9827 95.898 15.6962C95.9807 15.4098 96.0223 15.1395 96.0223 14.8842L96.0207 14.8867Z" fill="var(--fill-0, white)"/>
<path id="Vector_6" d="M65.2505 18.334H56.9003V21.5223H56.0145V10.4878H65.445C65.853 10.4878 66.2332 10.575 66.5848 10.7481C66.9363 10.9225 67.2448 11.1517 67.5096 11.4381C67.7747 11.7245 67.9829 12.0533 68.1348 12.427C68.2867 12.7993 68.3633 13.1805 68.3633 13.569V15.1781C68.3633 15.5056 68.3041 15.8369 68.1874 16.1744C68.0708 16.512 67.9139 16.8233 67.7181 17.1098C67.5222 17.3962 67.2964 17.6391 67.0402 17.8384C66.7844 18.0377 66.5206 18.1684 66.2521 18.2294M67.477 14.8867V13.8443C67.477 13.5379 67.418 13.2415 67.3014 12.955C67.1848 12.6686 67.0226 12.4208 66.8194 12.2115C66.6149 12.0023 66.3727 11.8366 66.0902 11.7133C65.8078 11.5913 65.5016 11.529 65.1715 11.529H56.9003V17.2916H65.1715C65.5969 17.2916 65.9547 17.2144 66.2458 17.0612C66.5369 16.9081 66.7731 16.7137 66.9563 16.4784C67.1382 16.2429 67.2711 15.9827 67.354 15.6962C67.4369 15.4098 67.4783 15.1395 67.4783 14.8842L67.477 14.8867Z" fill="var(--fill-0, white)"/>
<path id="Vector_7" d="M109.327 18.5644V10.4878H111.476V21.5223H108.78L101.512 13.4607V21.5223H99.3625V10.4878H102.073L109.328 18.5644H109.327Z" fill="var(--fill-0, white)"/>
<path id="Vector_8" d="M127.153 21.5223H124.678L123.545 19.4536H116.446L115.325 21.5223H112.862L118.619 10.4878H121.381L127.152 21.5223H127.153ZM119.859 13.016L117.696 16.9242H122.32L120.131 13.016H119.857H119.859Z" fill="var(--fill-0, white)"/>
<path id="Vector_9" d="M137.766 10.4878V13.0173H132.556V21.5236H130.407V13.0173H125.261V10.4878H137.766Z" fill="var(--fill-0, white)"/>
<path id="Vector_10" d="M139.706 10.4878H141.856V21.5223H139.706V10.4878Z" fill="var(--fill-0, white)"/>
<path id="Vector_11" d="M151.054 19.3154H151.445L156.59 10.4878H159.104L152.813 21.5223H149.7L143.408 10.4878H145.935L151.054 19.3154Z" fill="var(--fill-0, white)"/>
<path id="Vector_12" d="M160.211 10.4878H172V13.0173H162.361V14.7497H171.688V17.2629H162.361V18.9953H172V21.5248H160.211V10.4904V10.4878Z" fill="var(--fill-0, white)"/>
</g>
</svg>
