<svg width="164" height="40" viewBox="0 0 164 40" fill="none" xmlns="http://www.w3.org/2000/svg">
  <path d="M3.55614 0.0593555C3.91317 0.0445344 4.24403 0.247079 4.3932 0.57205L9.13334 10.9006C9.36247 11.3207 9.57575 11.4524 9.70244 11.5057C9.8583 11.5713 10.0094 11.5762 10.2576 11.5762L20.9968 11.594L20.9992 11.5943L21.0345 11.595H21.0372C21.4512 11.6139 21.7984 11.9205 21.866 12.3334L23.5226 22.4764L25.171 31.5155C25.1989 31.6689 25.1856 31.8271 25.1326 31.9737L22.5544 39.1025C22.4333 39.4371 22.1231 39.6661 21.7679 39.6829C21.4127 39.6993 21.0821 39.5007 20.9301 39.1786L16.0183 28.7724C16.0094 28.7536 16.0012 28.7344 15.9935 28.7148C15.8435 28.3278 15.5092 28.1014 15.1296 28.1014L4.62105 28.0829C4.19322 28.0828 3.82699 27.775 3.75328 27.3532L0.324408 7.72468C0.298011 7.57329 0.311552 7.4175 0.363837 7.273L2.76479 0.639714C2.88652 0.303558 3.19917 0.0742358 3.55614 0.0593555ZM11.476 17.168C11.126 17.168 10.7434 17.4339 10.6215 17.762L9.03705 22.0275C8.91517 22.3556 9.10007 22.6218 9.45019 22.6218H14.0022C14.3524 22.6218 14.7349 22.3556 14.8568 22.0275L16.4412 17.762C16.5631 17.434 16.3782 17.1681 16.0281 17.168H11.476Z" fill="url(#paint0_linear_7330_93261)" class="hypernative-logo-fill"/>
  <path d="M158.066 28.1815C154.278 28.1815 151.902 25.7359 151.902 22.0439C151.902 18.3285 154.278 15.8594 157.831 15.8594C161.289 15.8594 163.665 18.0934 163.665 21.7147V22.5848H154.561V22.7259C154.561 24.7482 155.925 26.1121 157.925 26.1121C159.501 26.1121 160.654 25.3361 161.007 24.0192H163.547C163.124 26.3708 161.054 28.1815 158.066 28.1815ZM154.631 20.7036H161.077C160.865 18.9164 159.642 17.9052 157.854 17.9052C156.254 17.9052 154.843 18.9399 154.631 20.7036Z" fill="white" class="hypernative-logo-fill"/>
  <path d="M143.523 28.0416L139.077 16.0017H141.806L145.123 25.3138L148.393 16.0017H151.075L146.629 28.0416H143.523Z" fill="white" class="hypernative-logo-fill"/>
  <path d="M134.612 28.0404V16.0005H137.176V28.0404H134.612ZM135.882 14.2368C135.059 14.2368 134.4 13.6019 134.4 12.7553C134.4 11.9088 135.059 11.2974 135.882 11.2974C136.729 11.2974 137.364 11.9088 137.364 12.7553C137.364 13.6019 136.729 14.2368 135.882 14.2368Z" fill="white" class="hypernative-logo-fill"/>
  <path d="M129.852 28.0449C127.546 28.0449 126.582 26.9633 126.582 24.7763V18.239H124.488V16.005H126.582V12.6423H129.122V16.005H132.228V18.239H129.122V24.5177C129.122 25.4583 129.475 25.811 130.44 25.811H132.228V28.0449H129.852Z" fill="white" class="hypernative-logo-fill"/>
  <path d="M116.466 28.1815C113.831 28.1815 111.996 26.8881 111.996 24.6542C111.996 22.1851 113.784 20.7976 117.149 20.7976H120.183V20.0687C120.183 18.6812 119.219 17.9052 117.548 17.9052C115.996 17.9052 115.031 18.5872 114.843 19.6689H112.349C112.608 17.3173 114.631 15.8594 117.666 15.8594C120.866 15.8594 122.701 17.3879 122.701 20.2333V25.0539C122.701 25.6653 122.936 25.8299 123.477 25.8299H123.994V28.0404H122.653C121.077 28.0404 120.442 27.3114 120.442 26.2062V26.1592C119.689 27.3349 118.442 28.1815 116.466 28.1815ZM116.819 26.2062C118.936 26.2062 120.183 24.9599 120.183 23.1022V22.6789H117.031C115.455 22.6789 114.584 23.2668 114.584 24.4661C114.584 25.5713 115.431 26.2062 116.819 26.2062Z" fill="white" class="hypernative-logo-fill"/>
  <path d="M98.3507 28.0404V16.0005H100.586L100.844 17.576C101.574 16.6589 102.75 15.8594 104.702 15.8594C107.385 15.8594 109.549 17.3173 109.549 21.3385V28.0404H107.008V21.5266C107.008 19.2456 106.02 18.0463 104.138 18.0463C101.997 18.0463 100.915 19.3867 100.915 21.6912V28.0404H98.3507Z" fill="white" class="hypernative-logo-fill"/>
  <path d="M89.5619 28.0416V16.0017H91.7968L92.0555 17.8124C92.6672 16.8247 93.6083 16.0017 95.6317 16.0017H96.2198V18.3768H95.114C92.8319 18.3768 92.1262 20.1404 92.1262 21.9981V28.0416H89.5619Z" fill="white" class="hypernative-logo-fill"/>
  <path d="M81.3665 28.1815C77.5792 28.1815 75.2031 25.7359 75.2031 22.0439C75.2031 18.3285 77.5792 15.8594 81.1314 15.8594C84.5897 15.8594 86.9657 18.0934 86.9657 21.7147V22.5848H77.8614V22.7259C77.8614 24.7482 79.2259 26.1121 81.2254 26.1121C82.8018 26.1121 83.9544 25.3361 84.3074 24.0192H86.8482C86.4248 26.3708 84.3546 28.1815 81.3665 28.1815ZM77.9318 20.7036H84.3778C84.1663 18.9164 82.9429 17.9052 81.155 17.9052C79.5554 17.9052 78.1437 18.9399 77.9318 20.7036Z" fill="white" class="hypernative-logo-fill"/>
  <path d="M60.9612 32.7435V16.0005H63.1961L63.4551 17.8112C64.2548 16.753 65.5017 15.8594 67.4072 15.8594C70.7008 15.8594 73.124 18.1639 73.124 22.0204C73.124 25.7359 70.7008 28.1815 67.4308 28.1815C65.5489 28.1815 64.2548 27.429 63.5255 26.3238V32.7435H60.9612ZM66.9838 26.0181C69.1012 26.0181 70.5128 24.419 70.5128 22.0204C70.5128 19.6454 69.1012 18.0228 66.9838 18.0228C64.89 18.0228 63.4783 19.6454 63.4783 21.9969C63.4783 24.3955 64.89 26.0181 66.9838 26.0181Z" fill="white" class="hypernative-logo-fill"/>
  <path d="M47.8209 32.7447V30.5107H49.6088C50.5967 30.5107 50.8322 30.2756 51.1849 29.2879L51.6318 28.0886L46.9973 16.0017H49.7264L53.0435 25.1492L56.3371 16.0017H59.0426L53.5845 29.9464C52.8316 31.8981 52.3143 32.7447 50.5496 32.7447H47.8209Z" fill="white" class="hypernative-logo-fill"/>
  <path d="M31.9252 28.0401V11.5793H34.6306V18.4929H42.2766V11.5793H44.9821V28.0401H42.2766V20.8915H34.6306V28.0401H31.9252Z" fill="white" class="hypernative-logo-fill"/>
  <defs>
    <linearGradient id="paint0_linear_7330_93261" x1="3.43439" y1="0.0585977" x2="21.8807" y2="39.6897" gradientUnits="userSpaceOnUse">
      <stop stop-color="#EAFEFF"/>
      <stop offset="1" stop-color="#5BEFEF"/>
    </linearGradient>
  </defs>
</svg>
