<svg preserveAspectRatio="none" width="100%" height="100%" overflow="visible" style="display: block;" viewBox="0 0 29 30" fill="none" xmlns="http://www.w3.org/2000/svg">
<g id="Frame">
<g id="Vector" filter="url(#filter0_d_0_44)">
<path d="M25.1204 5.61613V12.0903C25.1204 18.1854 22.17 21.8791 19.6948 23.9047C17.0288 26.0851 14.3767 26.8261 14.2611 26.8562C14.1021 26.8994 13.9345 26.8994 13.7755 26.8562C13.6599 26.8261 11.0112 26.0851 8.34178 23.9047C5.87348 21.8791 2.92309 18.1854 2.92309 12.0903V5.61613C2.92309 5.12553 3.11797 4.65504 3.46487 4.30814C3.81178 3.96123 4.28227 3.76635 4.77287 3.76635H23.2706C23.7612 3.76635 24.2317 3.96123 24.5786 4.30814C24.9255 4.65504 25.1204 5.12553 25.1204 5.61613Z" fill="var(--fill-0, #1A1C1B)"/>
<path d="M25.1204 5.61613V12.0903C25.1204 18.1854 22.17 21.8791 19.6948 23.9047C17.0288 26.0851 14.3767 26.8261 14.2611 26.8562C14.1021 26.8994 13.9345 26.8994 13.7755 26.8562C13.6599 26.8261 11.0112 26.0851 8.34178 23.9047C5.87348 21.8791 2.92309 18.1854 2.92309 12.0903V5.61613C2.92309 5.12553 3.11797 4.65504 3.46487 4.30814C3.81178 3.96123 4.28227 3.76635 4.77287 3.76635H23.2706C23.7612 3.76635 24.2317 3.96123 24.5786 4.30814C24.9255 4.65504 25.1204 5.12553 25.1204 5.61613Z" fill="url(#paint0_linear_0_44)" style="mix-blend-mode:overlay"/>
</g>
<g id="Vector_2">
<path d="M24.5305 6.13061V12.2615C24.5305 18.0333 21.7366 21.5312 19.3926 23.4493C16.868 25.5141 14.3565 26.2159 14.247 26.2444C14.0965 26.2853 13.9377 26.2853 13.7872 26.2444C13.6777 26.2159 11.1695 25.5141 8.64161 23.4493C6.3042 21.5312 3.51026 18.0333 3.51026 12.2615V6.13061C3.51026 5.66603 3.69481 5.22048 4.02331 4.89197C4.35182 4.56347 4.79737 4.37892 5.26194 4.37892H22.7788C23.2434 4.37892 23.689 4.56347 24.0175 4.89197C24.346 5.22048 24.5305 5.66603 24.5305 6.13061Z" fill="var(--fill-0, #12FF80)"/>
<path d="M24.5305 6.13061V12.2615C24.5305 18.0333 21.7366 21.5312 19.3926 23.4493C16.868 25.5141 14.3565 26.2159 14.247 26.2444C14.0965 26.2853 13.9377 26.2853 13.7872 26.2444C13.6777 26.2159 11.1695 25.5141 8.64161 23.4493C6.3042 21.5312 3.51026 18.0333 3.51026 12.2615V6.13061C3.51026 5.66603 3.69481 5.22048 4.02331 4.89197C4.35182 4.56347 4.79737 4.37892 5.26194 4.37892H22.7788C23.2434 4.37892 23.689 4.56347 24.0175 4.89197C24.346 5.22048 24.5305 5.66603 24.5305 6.13061Z" fill="url(#paint1_linear_0_44)" style="mix-blend-mode:overlay"/>
</g>
<g id="Group_3" filter="url(#filter1_i_0_44)">
<path id="Vector_20" d="M18.2068 14.0103H17.175C16.8668 14.0103 16.6171 14.2677 16.6171 14.5854V16.1291C16.6171 16.4468 16.3674 16.7042 16.0592 16.7042H11.9542C11.646 16.7042 11.3963 16.9616 11.3963 17.2793V18.3429C11.3963 18.6606 11.646 18.918 11.9542 18.918H16.2968C16.605 18.918 16.8512 18.6606 16.8512 18.3429V17.4896C16.8512 17.1719 17.1009 16.9466 17.4091 16.9466H18.2066C18.5148 16.9466 18.7645 16.6891 18.7645 16.3715V14.5787C18.7645 14.261 18.5148 14.0103 18.2066 14.0103H18.2068Z" fill="var(--fill-0, black)"/>
<path id="Vector_21" d="M11.3996 11.8977C11.3996 11.58 11.6493 11.3226 11.9575 11.3226H16.0601C16.3682 11.3226 16.6179 11.0652 16.6179 10.7476V9.68393C16.6179 9.36626 16.3682 9.10886 16.0601 9.10886H11.7197C11.4115 9.10886 11.1618 9.36626 11.1618 9.68393V10.5035C11.1618 10.8212 10.9121 11.0786 10.6039 11.0786H9.8099C9.50172 11.0786 9.25201 11.336 9.25201 11.6536V13.4484C9.25201 13.766 9.50276 14.0105 9.81094 14.0105H10.8428C11.151 14.0105 11.4007 13.7531 11.4007 13.4354L11.3996 11.8979V11.8977Z" fill="var(--fill-0, black)"/>
<path id="Vector_22" d="M13.5219 12.893H14.513C14.836 12.893 15.0981 13.1633 15.0981 13.496V14.5177C15.0981 14.8506 14.8358 15.1207 14.513 15.1207H13.5219C13.1989 15.1207 12.9369 14.8504 12.9369 14.5177V13.496C12.9369 13.1631 13.1991 12.893 13.5219 12.893V12.893Z" fill="var(--fill-0, black)"/>
</g>
</g>
<defs>
<filter id="filter0_d_0_44" x="0.555371" y="1.99056" width="26.9328" height="27.8577" filterUnits="userSpaceOnUse" color-interpolation-filters="sRGB">
<feFlood flood-opacity="0" result="BackgroundImageFix"/>
<feColorMatrix in="SourceAlpha" type="matrix" values="0 0 0 0 0 0 0 0 0 0 0 0 0 0 0 0 0 0 127 0" result="hardAlpha"/>
<feOffset dy="0.591929"/>
<feGaussianBlur stdDeviation="1.18386"/>
<feComposite in2="hardAlpha" operator="out"/>
<feColorMatrix type="matrix" values="0 0 0 0 0 0 0 0 0 0 0 0 0 0 0 0 0 0 0.3 0"/>
<feBlend mode="normal" in2="BackgroundImageFix" result="effect1_dropShadow_0_44"/>
<feBlend mode="normal" in="SourceGraphic" in2="effect1_dropShadow_0_44" result="shape"/>
</filter>
<filter id="filter1_i_0_44" x="9.25201" y="9.10886" width="9.51252" height="10.2015" filterUnits="userSpaceOnUse" color-interpolation-filters="sRGB">
<feFlood flood-opacity="0" result="BackgroundImageFix"/>
<feBlend mode="normal" in="SourceGraphic" in2="BackgroundImageFix" result="shape"/>
<feColorMatrix in="SourceAlpha" type="matrix" values="0 0 0 0 0 0 0 0 0 0 0 0 0 0 0 0 0 0 127 0" result="hardAlpha"/>
<feOffset dy="0.392382"/>
<feGaussianBlur stdDeviation="0.700675"/>
<feComposite in2="hardAlpha" operator="arithmetic" k2="-1" k3="1"/>
<feColorMatrix type="matrix" values="0 0 0 0 0.0509804 0 0 0 0 0.129412 0 0 0 0 0.156863 0 0 0 0.3 0"/>
<feBlend mode="normal" in2="shape" result="effect1_innerShadow_0_44"/>
</filter>
<linearGradient id="paint0_linear_0_44" x1="14.0218" y1="3.76635" x2="14.0218" y2="26.8886" gradientUnits="userSpaceOnUse">
<stop stop-color="white" stop-opacity="0.3"/>
<stop offset="0.7125" stop-color="white" stop-opacity="0"/>
</linearGradient>
<linearGradient id="paint1_linear_0_44" x1="14.0204" y1="4.37892" x2="14.0204" y2="26.2751" gradientUnits="userSpaceOnUse">
<stop stop-color="white" stop-opacity="0.3"/>
<stop offset="0.7125" stop-color="white" stop-opacity="0"/>
</linearGradient>
</defs>
</svg>
