<svg width="189" height="171" viewBox="0 0 189 171" fill="none" xmlns="http://www.w3.org/2000/svg">
<g opacity="0.05" clip-path="url(#clip0_14399_22587)">
<path d="M157.425 91.949H177.921V91.9417C184.041 91.9417 189 96.6456 189 102.604V136.231C189 142.19 184.041 147.018 177.921 147.018H162.085C155.964 147.018 151.005 151.248 151.005 157.206V173.214C151.005 179.172 146.114 184 139.993 184H53.741C47.6208 184 42.6617 179.172 42.6617 173.214V153.26C42.6617 147.302 47.6208 142.474 53.741 142.474H135.266C141.387 142.474 146.346 137.646 146.346 131.688V102.735C146.346 96.7768 151.305 91.949 157.425 91.949Z" fill="white"/>
<path d="M53.7335 41.5258C47.6133 41.5258 42.6542 46.3537 42.6542 52.312V52.3193L42.6767 81.1554C42.6767 87.1138 37.7176 91.9417 31.5974 91.9417H11.1018C4.98157 91.9417 0 87.3544 0 81.3961V47.7321C0 41.7738 4.9591 36.9459 11.0793 36.9459H26.8555C32.9757 36.9459 37.9348 32.118 37.9348 26.1597V10.7862C37.9348 4.8279 42.8939 0 49.0142 0H135.214C141.334 0 146.293 4.8279 146.293 10.7862V30.7396C146.293 36.6979 141.334 41.5258 135.214 41.5258H53.7335Z" fill="white"/>
<path d="M73.2328 82.2859C73.2328 76.0431 78.4316 70.9746 84.8515 70.9746H104.538C110.95 70.9746 116.157 76.0358 116.157 82.2859V101.452C116.157 107.694 110.958 112.763 104.538 112.763H84.8515C78.4391 112.763 73.2328 107.702 73.2328 101.452V82.2859Z" fill="white"/>
</g>
<defs>
<clipPath id="clip0_14399_22587">
<rect width="189" height="171" fill="white"/>
</clipPath>
</defs>
</svg>
