<svg width="139" height="33" viewBox="0 0 139 33" fill="none" xmlns="http://www.w3.org/2000/svg">
<g filter="url(#filter0_d_46_53)">
<path d="M17.1041 13.601H15.1834C14.6098 13.601 14.145 14.0513 14.145 14.6071V17.3082C14.145 17.864 13.6802 18.3143 13.1065 18.3143H5.46545C4.89182 18.3143 4.427 18.7647 4.427 19.3205V21.1815C4.427 21.7373 4.89182 22.1876 5.46545 22.1876H13.5488C14.1224 22.1876 14.5806 21.7373 14.5806 21.1815V19.6884C14.5806 19.1326 15.0455 18.7383 15.6191 18.7383H17.1037C17.6773 18.7383 18.1422 18.288 18.1422 17.7322V14.5954C18.1422 14.0396 17.6773 13.601 17.1037 13.601H17.1041Z" fill="currentColor"/>
<path d="M4.42664 9.90325C4.42664 9.34745 4.89146 8.89709 5.46509 8.89709H13.1015C13.6751 8.89709 14.14 8.44672 14.14 7.89092V6.02997C14.14 5.47417 13.6751 5.0238 13.1015 5.0238H5.02243C4.44879 5.0238 3.98398 5.47417 3.98398 6.02997V7.4639C3.98398 8.0197 3.51916 8.47007 2.94553 8.47007H1.46753C0.893892 8.47007 0.429077 8.92043 0.429077 9.47623V12.6164C0.429077 13.1722 0.895835 13.5999 1.46947 13.5999H3.39014C3.96377 13.5999 4.42858 13.1496 4.42858 12.5938L4.42664 9.90363V9.90325Z" fill="currentColor"/>
<path d="M8.38194 11.6442H10.2268C10.828 11.6442 11.3158 12.1171 11.3158 12.6993V14.4868C11.3158 15.0693 10.8277 15.5419 10.2268 15.5419H8.38194C7.78071 15.5419 7.29297 15.069 7.29297 14.4868V12.6993C7.29297 12.1167 7.7811 11.6442 8.38194 11.6442Z" fill="currentColor"/>
</g>
<path d="M34.4203 13.0142C33.7361 12.7309 32.9003 12.4948 31.9131 12.3054H31.8922C30.9331 12.1311 30.2136 11.9711 29.734 11.8253C29.2545 11.6805 28.8773 11.4841 28.6021 11.2368C28.3269 10.9898 28.1897 10.6482 28.1897 10.2118C28.1897 9.57221 28.4225 9.08525 28.8878 8.75096C29.3535 8.41666 29.9669 8.2493 30.7283 8.2493C31.5607 8.2493 32.2337 8.46726 32.7489 8.90362C33.2112 9.29543 33.4944 9.7932 33.5984 10.3961C33.619 10.5163 33.7176 10.6049 33.8359 10.6062L36.177 10.6244C36.3204 10.6257 36.4354 10.4985 36.4211 10.3511C36.3427 9.54453 36.0847 8.81107 35.6475 8.15113C35.1608 7.41724 34.4908 6.84639 33.6375 6.43901C32.7841 6.03206 31.8145 5.82837 30.7283 5.82837C29.6988 5.82837 28.7716 6.02471 27.9464 6.41739C27.1215 6.81006 26.4796 7.35497 26.0211 8.05296C25.5625 8.75096 25.3334 9.53588 25.3334 10.4082C25.3334 11.3678 25.5377 12.1384 25.9468 12.7197C26.3559 13.3013 26.8916 13.7412 27.5545 14.0391C28.2174 14.3371 29.0141 14.5732 29.9451 14.7479L30.0508 14.7696C31.0376 14.9585 31.7751 15.1259 32.2618 15.2712C32.7485 15.417 33.1323 15.6202 33.4147 15.8819C33.6966 16.1435 33.8376 16.4998 33.8376 16.9505C33.8376 17.5905 33.5838 18.0917 33.0761 18.455C32.5685 18.8187 31.9123 19.0004 31.1085 19.0004C30.149 19.0004 29.3736 18.7495 28.7812 18.2479C28.2421 17.7916 27.925 17.2056 27.8297 16.4903C27.8134 16.3666 27.7135 16.2728 27.5927 16.2711L25.2546 16.2347C25.1123 16.2326 24.9974 16.3563 25.0083 16.5024C25.0746 17.3821 25.3414 18.1748 25.8088 18.8806C26.3236 19.6586 27.0322 20.2692 27.935 20.7125C28.8375 21.1562 29.8742 21.3776 31.0451 21.3776C32.1309 21.3776 33.1042 21.1743 33.9647 20.767C34.8248 20.36 35.4986 19.7965 35.9852 19.0769C36.4719 18.3573 36.7152 17.5468 36.7152 16.6452C36.7152 15.6855 36.5034 14.9114 36.0805 14.3224C35.6576 13.7338 35.1038 13.2975 34.4199 13.0138L34.4203 13.0142Z" fill="currentColor"/>
<path d="M48.798 18.8912H48.4326C48.2211 18.8912 48.055 18.8333 47.9354 18.7165C47.8154 18.6006 47.7554 18.4112 47.7554 18.1496V13.9841C47.7554 12.6612 47.3464 11.6544 46.5287 10.9637C45.7106 10.2735 44.7473 9.92151 43.2382 9.92151C41.8134 9.92151 40.7004 10.2407 39.8261 10.8656C39.0289 11.4356 38.5485 12.2162 38.3841 13.2087C38.3585 13.3631 38.4718 13.5045 38.6232 13.5045H40.7734C40.8812 13.5045 40.9777 13.4314 41.0062 13.3241C41.1044 12.957 41.3209 12.6573 41.6557 12.425C42.0433 12.156 42.504 12.0216 43.1107 12.0216C44.2548 12.0216 45.0683 12.7485 45.0683 13.8314V14.17C45.0683 14.3084 44.9596 14.4204 44.8253 14.4204H42.8778C41.2982 14.4204 40.0992 14.7405 39.2815 15.3801C38.4634 16.0201 38.0543 16.9287 38.0543 18.1059C38.0543 19.1239 38.4281 19.9235 39.1758 20.5048C39.7367 20.9407 40.4071 21.1924 41.0973 21.3027C41.6246 21.387 42.1663 21.4177 42.6949 21.3303C43.2487 21.2391 43.6984 21.0038 44.1486 20.6682C44.5531 20.3672 44.8904 19.9815 45.1983 19.511C45.3485 19.245 45.7425 19.3518 45.7425 19.6593V20.0291C45.742 20.7011 46.2702 21.246 46.9222 21.246H48.798C48.9323 21.246 49.0409 21.134 49.0409 20.9956V19.1412C49.0409 19.0028 48.9323 18.8908 48.798 18.8908V18.8912ZM45.0687 16.645C45.0687 17.183 44.9592 17.6518 44.7406 18.0514C44.2825 18.8895 43.4627 19.3272 42.5401 19.3272C42.0039 19.3272 41.5739 19.1966 41.2496 18.9349C40.9248 18.6733 40.7629 18.3243 40.7629 17.8879C40.7629 17.3941 40.9429 17.0122 41.3024 16.7432C41.662 16.4746 42.173 16.3397 42.8363 16.3397H44.8258C44.96 16.3397 45.0687 16.4517 45.0687 16.5901V16.645Z" fill="currentColor"/>
<path d="M56.6352 5.98669H53.8373C52.3613 5.98669 51.1648 7.22008 51.1648 8.74149V9.95196C51.1648 10.0903 51.0561 10.2024 50.9218 10.2024H49.3242C49.19 10.2024 49.0813 10.3144 49.0813 10.4527V12.3288C49.0813 12.4672 49.19 12.5792 49.3242 12.5792H50.9218C51.0561 12.5792 51.1648 12.6912 51.1648 12.8296V20.9954C51.1648 21.1337 51.2734 21.2457 51.4077 21.2457H53.5876C53.7219 21.2457 53.8305 21.1337 53.8305 20.9954V12.8296C53.8305 12.6912 53.9392 12.5792 54.0735 12.5792H56.6138C56.748 12.5792 56.8567 12.4672 56.8567 12.3288V10.4527C56.8567 10.3144 56.748 10.2024 56.6138 10.2024H54.0735C53.9392 10.2024 53.8305 10.0903 53.8305 9.95196V8.86431C53.8305 8.58753 54.0483 8.36352 54.3164 8.36352H56.6348C56.769 8.36352 56.8777 8.25151 56.8777 8.11312V6.23709C56.8777 6.0987 56.769 5.98669 56.6348 5.98669H56.6352Z" fill="currentColor"/>
<path d="M67.3155 12.4586C66.843 11.6447 66.1974 11.0193 65.3797 10.583C64.5616 10.1471 63.6163 9.92261 62.5448 9.92261C61.4733 9.92261 60.5486 10.1652 59.7309 10.6375C58.9128 11.1102 58.2781 11.7787 57.827 12.6437C57.3756 13.509 57.1499 14.5227 57.1499 15.6861C57.1499 16.8494 57.3827 17.8198 57.848 18.6848C58.3137 19.5497 58.98 20.2148 59.8472 20.6801C60.7143 21.1455 61.7334 21.3781 62.9044 21.3781C63.8068 21.3781 64.6144 21.2073 65.3268 20.8657C66.0388 20.5245 66.6136 20.0552 67.0507 19.4593C67.425 18.949 67.6805 18.3902 67.8172 17.7835C67.8529 17.6261 67.7375 17.4747 67.5806 17.4747H65.3906C65.2857 17.4747 65.1938 17.5448 65.1603 17.6473C65.0059 18.1174 64.7336 18.4889 64.343 18.7613C63.9054 19.0666 63.3625 19.2193 62.7139 19.2193C62.1777 19.2193 61.7091 19.103 61.3072 18.8703C60.9052 18.6381 60.5881 18.3107 60.3552 17.889C60.2633 17.7225 60.1882 17.5465 60.1282 17.3653C60.0641 17.1707 60.0179 16.97 59.986 16.7668C59.9751 16.6959 59.965 16.6241 59.9567 16.5523C59.9403 16.4044 60.054 16.2751 60.1983 16.2751H67.7505C67.873 16.2751 67.9779 16.1817 67.9918 16.0558C68.0022 15.9637 68.0094 15.8699 68.0132 15.7734C68.0203 15.5991 68.0236 15.4391 68.0236 15.2938C68.0236 14.2183 67.7874 13.2733 67.315 12.459L67.3155 12.4586ZM65.0461 14.3774H60.3162C60.161 14.3774 60.0439 14.2291 60.0783 14.073C60.1538 13.7309 60.2847 13.4221 60.471 13.1453C60.7106 12.7894 61.021 12.5165 61.402 12.3275C61.7829 12.1386 62.1987 12.0438 62.6501 12.0438C63.3835 12.0438 63.9901 12.2475 64.4697 12.6545C64.8813 13.0039 65.1523 13.4762 65.2836 14.0717C65.318 14.2282 65.2018 14.3774 65.0461 14.3774Z" fill="currentColor"/>
<path d="M70.885 4.80846V22.4028C70.885 22.824 71.2253 23.1657 71.6449 23.1657H72.8153C73.4142 23.1657 73.9006 23.6531 73.9006 24.2553V25.4294C73.9006 25.8507 74.2409 26.1923 74.6605 26.1923H76.942C77.3616 26.1923 77.702 25.8507 77.702 25.4294V23.7938C77.702 23.3726 77.3616 23.0309 76.942 23.0309H75.1193C74.5204 23.0309 74.034 22.5435 74.034 21.9414V5.26907C74.034 4.66776 74.5195 4.17952 75.1193 4.17952H76.9412C77.3608 4.17952 77.7011 3.83783 77.7011 3.41659V1.78185C77.7011 1.36061 77.3608 1.01892 76.9412 1.01892H74.6597C74.2401 1.01892 73.8997 1.36061 73.8997 1.78185V2.95598C73.8997 3.55728 73.4142 4.04553 72.8145 4.04553H71.6441C71.2245 4.04553 70.8842 4.38721 70.8842 4.80846H70.885Z" fill="currentColor"/>
<path d="M78.2146 8.68501V7.80623H81.0707L82.4804 15.2759C82.6452 16.173 82.7733 17.0151 82.8466 18.1319H83.2493C83.3409 17.0151 83.5056 16.1364 83.6887 15.2759L85.19 8.4287H88.7417L90.1881 15.2576C90.3711 16.118 90.5542 17.0151 90.6458 18.1319H91.0302C91.1035 17.0151 91.2499 16.1913 91.4147 15.2759L92.8244 7.80623H95.6438V8.68501L93.1539 20.4387H88.8882L87.5883 14.3605C87.3869 13.4451 87.2405 12.6578 87.1306 11.5044H86.7462C86.6363 12.6761 86.4898 13.4451 86.2885 14.3605L84.9337 20.4387H80.7228L78.2146 8.68501ZM104.563 18.315H104.948V20.4387H103.776C102.897 20.4387 102.183 20.1092 101.982 19.029H101.726C101.25 20.0543 100.115 20.7683 98.595 20.7683C96.9107 20.7683 95.5925 19.9078 95.5925 18.3333C95.5925 17.0517 96.4346 16.1547 97.9176 15.7519L101.213 14.8365C101.121 14.1042 100.609 13.7014 99.8948 13.7014C99.1808 13.7014 98.6316 14.1042 98.4485 14.8731H95.9953V14.1774C96.5262 12.6578 97.9176 11.6509 99.9681 11.6509C102.403 11.6509 103.978 13.0606 103.978 15.2026V17.6376C103.978 18.077 104.142 18.315 104.563 18.315ZM99.4188 18.9009C100.591 18.9009 101.231 17.9488 101.231 16.9968V16.594L99.3273 17.1433C98.6316 17.3447 98.3204 17.6376 98.3204 18.0953C98.3204 18.6262 98.7414 18.9009 99.4188 18.9009ZM106.188 20.4387V7.80623H108.971V20.4387H106.188ZM110.908 20.4387V7.80623H113.691V20.4387H110.908ZM124.105 16.173V16.8137H117.752C117.935 18.0038 118.667 18.7361 119.747 18.7361C120.571 18.7361 121.194 18.2967 121.432 17.5461H123.885V18.2601C123.354 19.6149 121.944 20.7683 119.766 20.7683C117.001 20.7683 115.115 18.8459 115.115 16.2096C115.115 13.5549 117.001 11.6509 119.729 11.6509C122.255 11.6509 124.105 13.3169 124.105 16.173ZM119.711 13.5549C118.832 13.5549 118.136 14.1408 117.862 15.1294H121.487C121.267 14.1408 120.626 13.5549 119.711 13.5549ZM129.562 18.2418H131.155V20.4387H128.83C127.072 20.4387 126.138 19.6149 126.138 17.8573V14.1774H124.674V11.9804H126.138V9.05117H128.884V11.9804H131.045V14.1774H128.884V17.6193C128.884 18.0587 129.104 18.2418 129.562 18.2418Z" fill="currentColor"/>
<path d="M138.428 22.4028L138.428 4.8085C138.428 4.38725 138.088 4.04557 137.668 4.04557L136.498 4.04557C135.899 4.04557 135.413 3.55816 135.413 2.95602L135.413 1.78189C135.413 1.36065 135.072 1.01896 134.653 1.01896L132.371 1.01896C131.952 1.01896 131.611 1.36065 131.611 1.78189L131.611 3.41747C131.611 3.83871 131.952 4.1804 132.371 4.1804L134.194 4.1804C134.793 4.1804 135.279 4.6678 135.279 5.26994L135.279 21.9422C135.279 22.5435 134.794 23.0318 134.194 23.0318L132.372 23.0318C131.952 23.0318 131.612 23.3735 131.612 23.7947L131.612 25.4294C131.612 25.8507 131.952 26.1924 132.372 26.1924L134.653 26.1924C135.073 26.1924 135.413 25.8507 135.413 25.4295L135.413 24.2553C135.413 23.654 135.899 23.1658 136.499 23.1658L137.669 23.1658C138.089 23.1658 138.429 22.8241 138.429 22.4028L138.428 22.4028Z" fill="currentColor"/>
<path d="M83.1146 29.7624C82.8565 29.7624 82.6334 29.7248 82.4452 29.6495C82.2624 29.5689 82.1065 29.4694 81.9775 29.3511C81.8538 29.2329 81.7517 29.1173 81.671 29.0044L81.6146 29.6656H81.0017V23.8592H81.6791V26.0931C81.8081 25.8404 81.999 25.6495 82.2517 25.5205C82.5043 25.3915 82.7866 25.3269 83.0984 25.3269C83.4855 25.3269 83.8242 25.421 84.1146 25.6092C84.4049 25.7974 84.6307 26.0581 84.792 26.3915C84.9533 26.7194 85.0339 27.0984 85.0339 27.5286C85.0339 27.9533 84.9533 28.335 84.792 28.6737C84.6307 29.0124 84.4049 29.2786 84.1146 29.4721C83.8296 29.6656 83.4963 29.7624 83.1146 29.7624ZM83.0259 29.1737C83.2785 29.1737 83.5017 29.1092 83.6952 28.9802C83.8941 28.8458 84.05 28.6576 84.1629 28.4156C84.2812 28.1683 84.3404 27.878 84.3404 27.5447C84.3404 27.2113 84.2812 26.9237 84.1629 26.6818C84.05 26.4345 83.8941 26.2463 83.6952 26.1173C83.5017 25.9829 83.2785 25.9156 83.0259 25.9156C82.757 25.9156 82.5232 25.9829 82.3242 26.1173C82.1253 26.2463 81.9721 26.4345 81.8646 26.6818C81.757 26.9237 81.7033 27.2113 81.7033 27.5447C81.7033 27.878 81.757 28.1683 81.8646 28.4156C81.9721 28.6576 82.1253 28.8458 82.3242 28.9802C82.5232 29.1092 82.757 29.1737 83.0259 29.1737ZM86.3084 31.4398L87.268 29.214H87.0342L85.4455 25.4237H86.1793L87.4938 28.6898L88.8648 25.4237H89.5664L87.01 31.4398H86.3084ZM94.6164 29.7624C94.2024 29.7624 93.8422 29.6872 93.5357 29.5366C93.2293 29.3861 92.9927 29.1764 92.8261 28.9076C92.6594 28.6388 92.5761 28.3269 92.5761 27.9721H93.2857C93.2857 28.1925 93.3368 28.3968 93.439 28.585C93.5411 28.7678 93.689 28.9156 93.8825 29.0286C94.0814 29.1361 94.3261 29.1898 94.6164 29.1898C94.8691 29.1898 95.0841 29.1495 95.2615 29.0689C95.4443 28.9829 95.5814 28.8673 95.6728 28.7221C95.7696 28.5769 95.818 28.413 95.818 28.2302C95.818 28.0259 95.7723 27.8565 95.6809 27.7221C95.5949 27.5823 95.4739 27.4694 95.318 27.3834C95.1621 27.292 94.982 27.2113 94.7777 27.1415C94.5734 27.0716 94.3529 26.999 94.1164 26.9237C93.6433 26.7732 93.2992 26.585 93.0841 26.3592C92.8745 26.128 92.7696 25.8323 92.7696 25.4721C92.7696 25.1656 92.8395 24.8968 92.9793 24.6656C93.1245 24.4345 93.3288 24.2544 93.5922 24.1253C93.861 23.9909 94.1782 23.9237 94.5438 23.9237C94.904 23.9237 95.2159 23.9909 95.4793 24.1253C95.7481 24.2597 95.9578 24.4452 96.1083 24.6818C96.2589 24.913 96.3341 25.1818 96.3341 25.4882H95.6245C95.6245 25.3323 95.5841 25.1791 95.5035 25.0286C95.4228 24.878 95.2992 24.7544 95.1325 24.6576C94.9712 24.5554 94.7669 24.5044 94.5196 24.5044C94.3153 24.499 94.1325 24.5339 93.9712 24.6092C93.8153 24.6791 93.6917 24.7812 93.6003 24.9156C93.5142 25.0501 93.4712 25.214 93.4712 25.4076C93.4712 25.5904 93.5089 25.7382 93.5841 25.8511C93.6648 25.964 93.7777 26.0608 93.9228 26.1415C94.0734 26.2167 94.2481 26.2866 94.447 26.3511C94.646 26.4156 94.8664 26.4882 95.1083 26.5689C95.3825 26.6603 95.6245 26.7732 95.8341 26.9076C96.0492 27.0366 96.2159 27.2033 96.3341 27.4076C96.4578 27.6119 96.5196 27.8726 96.5196 28.1898C96.5196 28.4587 96.447 28.714 96.3019 28.956C96.1621 29.1925 95.9524 29.3861 95.6728 29.5366C95.3933 29.6872 95.0411 29.7624 94.6164 29.7624ZM98.9465 29.7624C98.6239 29.7624 98.3551 29.7033 98.1401 29.585C97.925 29.4613 97.7637 29.3001 97.6562 29.1011C97.5487 28.8968 97.4949 28.6791 97.4949 28.4479C97.4949 28.1683 97.5648 27.9318 97.7046 27.7382C97.8498 27.5393 98.0514 27.3888 98.3094 27.2866C98.5675 27.1845 98.8686 27.1334 99.2127 27.1334H100.269C100.269 26.8592 100.237 26.6307 100.172 26.4479C100.108 26.2651 100.003 26.128 99.8578 26.0366C99.7127 25.9452 99.5191 25.8995 99.2772 25.8995C99.0352 25.8995 98.8282 25.9613 98.6562 26.085C98.4842 26.2033 98.3766 26.3807 98.3336 26.6173H97.6401C97.6723 26.3377 97.7664 26.1038 97.9223 25.9156C98.0782 25.7221 98.2745 25.5769 98.511 25.4802C98.753 25.378 99.0084 25.3269 99.2772 25.3269C99.6589 25.3269 99.9734 25.3968 100.221 25.5366C100.468 25.671 100.651 25.8619 100.769 26.1092C100.887 26.3511 100.947 26.6388 100.947 26.9721V29.6656H100.342L100.301 28.9398C100.248 29.0527 100.178 29.1603 100.092 29.2624C100.011 29.3592 99.9143 29.4452 99.8014 29.5205C99.6885 29.5958 99.5594 29.6549 99.4143 29.6979C99.2745 29.7409 99.1186 29.7624 98.9465 29.7624ZM99.0433 29.1898C99.2207 29.1898 99.3847 29.1495 99.5352 29.0689C99.6858 28.9882 99.8148 28.8807 99.9223 28.7463C100.035 28.6065 100.121 28.4506 100.18 28.2786C100.24 28.1065 100.269 27.9264 100.269 27.7382V27.6576H99.2691C99.0164 27.6576 98.8094 27.6898 98.6481 27.7544C98.4922 27.8189 98.3793 27.9103 98.3094 28.0286C98.2395 28.1415 98.2046 28.2705 98.2046 28.4156C98.2046 28.5716 98.2369 28.7087 98.3014 28.8269C98.3659 28.9398 98.46 29.0286 98.5836 29.0931C98.7127 29.1576 98.8659 29.1898 99.0433 29.1898ZM102.469 29.6656V24.9721C102.469 24.714 102.512 24.5044 102.598 24.3431C102.684 24.1764 102.81 24.0554 102.977 23.9802C103.149 23.8995 103.359 23.8592 103.606 23.8592H104.227V24.4398H103.719C103.515 24.4398 103.367 24.4829 103.275 24.5689C103.189 24.6495 103.146 24.792 103.146 24.9963V29.6656H102.469ZM101.808 25.9963V25.4237H104.275V25.9963H101.808ZM106.854 29.7624C106.478 29.7624 106.145 29.671 105.854 29.4882C105.564 29.3054 105.336 29.0474 105.169 28.714C105.008 28.3807 104.927 27.9909 104.927 27.5447C104.927 27.0984 105.008 26.7087 105.169 26.3753C105.336 26.042 105.564 25.7839 105.854 25.6011C106.15 25.4183 106.489 25.3269 106.871 25.3269C107.279 25.3269 107.621 25.4183 107.895 25.6011C108.169 25.7839 108.376 26.0286 108.516 26.335C108.655 26.6415 108.725 26.9775 108.725 27.3431C108.725 27.3968 108.725 27.4506 108.725 27.5044C108.725 27.5581 108.723 27.6226 108.717 27.6979H105.435V27.1737H108.064C108.053 26.7597 107.932 26.4452 107.701 26.2302C107.475 26.0097 107.193 25.8995 106.854 25.8995C106.629 25.8995 106.419 25.956 106.225 26.0689C106.037 26.1764 105.884 26.3377 105.766 26.5527C105.647 26.7678 105.588 27.0366 105.588 27.3592V27.585C105.588 27.9398 105.647 28.2382 105.766 28.4802C105.884 28.7167 106.037 28.8941 106.225 29.0124C106.419 29.1307 106.629 29.1898 106.854 29.1898C107.155 29.1898 107.392 29.1334 107.564 29.0205C107.736 28.9022 107.862 28.7355 107.943 28.5205H108.612C108.548 28.757 108.435 28.9694 108.274 29.1576C108.118 29.3458 107.919 29.4936 107.677 29.6011C107.44 29.7087 107.166 29.7624 106.854 29.7624ZM112.152 29.6656V24.0205H112.83V29.1253H115.459V29.6656H112.152ZM117.848 29.7624C117.525 29.7624 117.257 29.7033 117.042 29.585C116.827 29.4613 116.665 29.3001 116.558 29.1011C116.45 28.8968 116.396 28.6791 116.396 28.4479C116.396 28.1683 116.466 27.9318 116.606 27.7382C116.751 27.5393 116.953 27.3888 117.211 27.2866C117.469 27.1845 117.77 27.1334 118.114 27.1334H119.171C119.171 26.8592 119.138 26.6307 119.074 26.4479C119.009 26.2651 118.905 26.128 118.759 26.0366C118.614 25.9452 118.421 25.8995 118.179 25.8995C117.937 25.8995 117.73 25.9613 117.558 26.085C117.386 26.2033 117.278 26.3807 117.235 26.6173H116.542C116.574 26.3377 116.668 26.1038 116.824 25.9156C116.98 25.7221 117.176 25.5769 117.413 25.4802C117.655 25.378 117.91 25.3269 118.179 25.3269C118.56 25.3269 118.875 25.3968 119.122 25.5366C119.37 25.671 119.552 25.8619 119.671 26.1092C119.789 26.3511 119.848 26.6388 119.848 26.9721V29.6656H119.243L119.203 28.9398C119.149 29.0527 119.079 29.1603 118.993 29.2624C118.913 29.3592 118.816 29.4452 118.703 29.5205C118.59 29.5958 118.461 29.6549 118.316 29.6979C118.176 29.7409 118.02 29.7624 117.848 29.7624ZM117.945 29.1898C118.122 29.1898 118.286 29.1495 118.437 29.0689C118.587 28.9882 118.716 28.8807 118.824 28.7463C118.937 28.6065 119.023 28.4506 119.082 28.2786C119.141 28.1065 119.171 27.9264 119.171 27.7382V27.6576H118.171C117.918 27.6576 117.711 27.6898 117.55 27.7544C117.394 27.8189 117.281 27.9103 117.211 28.0286C117.141 28.1415 117.106 28.2705 117.106 28.4156C117.106 28.5716 117.138 28.7087 117.203 28.8269C117.267 28.9398 117.361 29.0286 117.485 29.0931C117.614 29.1576 117.767 29.1898 117.945 29.1898ZM123.217 29.7624C122.959 29.7624 122.736 29.7248 122.548 29.6495C122.365 29.5689 122.209 29.4694 122.08 29.3511C121.957 29.2329 121.854 29.1173 121.774 29.0044L121.717 29.6656H121.104V23.8592H121.782V26.0931C121.911 25.8404 122.102 25.6495 122.354 25.5205C122.607 25.3915 122.889 25.3269 123.201 25.3269C123.588 25.3269 123.927 25.421 124.217 25.6092C124.508 25.7974 124.733 26.0581 124.895 26.3915C125.056 26.7194 125.137 27.0984 125.137 27.5286C125.137 27.9533 125.056 28.335 124.895 28.6737C124.733 29.0124 124.508 29.2786 124.217 29.4721C123.932 29.6656 123.599 29.7624 123.217 29.7624ZM123.129 29.1737C123.381 29.1737 123.604 29.1092 123.798 28.9802C123.997 28.8458 124.153 28.6576 124.266 28.4156C124.384 28.1683 124.443 27.878 124.443 27.5447C124.443 27.2113 124.384 26.9237 124.266 26.6818C124.153 26.4345 123.997 26.2463 123.798 26.1173C123.604 25.9829 123.381 25.9156 123.129 25.9156C122.86 25.9156 122.626 25.9829 122.427 26.1173C122.228 26.2463 122.075 26.4345 121.967 26.6818C121.86 26.9237 121.806 27.2113 121.806 27.5447C121.806 27.878 121.86 28.1683 121.967 28.4156C122.075 28.6576 122.228 28.8458 122.427 28.9802C122.626 29.1092 122.86 29.1737 123.129 29.1737ZM127.79 29.7624C127.409 29.7624 127.091 29.706 126.839 29.5931C126.591 29.4748 126.403 29.3135 126.274 29.1092C126.145 28.8995 126.067 28.6576 126.04 28.3834H126.734C126.755 28.5286 126.804 28.663 126.879 28.7866C126.96 28.9049 127.075 29.0017 127.226 29.0769C127.376 29.1522 127.567 29.1898 127.798 29.1898C127.981 29.1898 128.137 29.163 128.266 29.1092C128.395 29.0501 128.492 28.9694 128.557 28.8673C128.626 28.7651 128.661 28.6468 128.661 28.5124C128.661 28.335 128.621 28.1979 128.54 28.1011C128.465 27.999 128.352 27.9237 128.202 27.8753C128.057 27.8216 127.874 27.7812 127.653 27.7544C127.417 27.7221 127.207 27.6764 127.024 27.6173C126.841 27.5581 126.686 27.4802 126.557 27.3834C126.433 27.2866 126.339 27.1656 126.274 27.0205C126.21 26.8753 126.178 26.7033 126.178 26.5044C126.178 26.2732 126.239 26.0689 126.363 25.8915C126.487 25.714 126.661 25.5769 126.887 25.4802C127.118 25.378 127.39 25.3269 127.702 25.3269C128.159 25.3269 128.519 25.4318 128.782 25.6415C129.051 25.8511 129.21 26.1495 129.258 26.5366H128.589C128.562 26.3377 128.471 26.1818 128.315 26.0689C128.159 25.956 127.952 25.8995 127.694 25.8995C127.419 25.8995 127.212 25.9506 127.073 26.0527C126.933 26.1549 126.863 26.2893 126.863 26.456C126.863 26.5796 126.893 26.6925 126.952 26.7947C127.016 26.8915 127.124 26.9748 127.274 27.0447C127.425 27.1092 127.626 27.1576 127.879 27.1898C128.196 27.2275 128.465 27.2893 128.686 27.3753C128.906 27.456 129.073 27.5823 129.186 27.7544C129.304 27.9264 129.36 28.1603 129.355 28.456C129.355 28.7355 129.288 28.9721 129.153 29.1656C129.024 29.3592 128.841 29.507 128.605 29.6092C128.374 29.7113 128.102 29.7624 127.79 29.7624Z" fill="currentColor" fill-opacity="0.6"/>
<defs>
<filter id="filter0_d_46_53" x="-1.39177e-05" y="5.0238" width="18.5713" height="18.022" filterUnits="userSpaceOnUse" color-interpolation-filters="sRGB">
<feFlood flood-opacity="0" result="BackgroundImageFix"/>
<feColorMatrix in="SourceAlpha" type="matrix" values="0 0 0 0 0 0 0 0 0 0 0 0 0 0 0 0 0 0 127 0" result="hardAlpha"/>
<feOffset dy="0.429091"/>
<feGaussianBlur stdDeviation="0.214546"/>
<feComposite in2="hardAlpha" operator="out"/>
<feColorMatrix type="matrix" values="0 0 0 0 0 0 0 0 0 0 0 0 0 0 0 0 0 0 0.06 0"/>
<feBlend mode="normal" in2="BackgroundImageFix" result="effect1_dropShadow_46_53"/>
<feBlend mode="normal" in="SourceGraphic" in2="effect1_dropShadow_46_53" result="shape"/>
</filter>
</defs>
</svg>
