<svg width="245" height="20" viewBox="0 0 245 20" fill="none" xmlns="http://www.w3.org/2000/svg">
<g clip-path="url(#clip0_14519_42845)">
<g clip-path="url(#clip1_14519_42845)">
<path d="M75.0269 17.8828C75.2086 17.9665 75.4101 18.0146 75.6216 18.0146H77.105C77.1661 18.0146 77.1978 18.0608 77.1978 18.0947V19.3936C77.1978 19.4274 77.1661 19.4736 77.105 19.4736H75.2476C75.1866 19.4736 75.1558 19.4274 75.1558 19.3936V18.4609C75.1558 18.2533 75.1083 18.0583 75.0269 17.8828ZM74.3384 2.79883C74.2573 2.9742 74.2115 3.16978 74.2115 3.37695V16.623C74.2115 16.8301 74.2574 17.0251 74.3384 17.2002C74.1572 17.117 73.9566 17.0694 73.7457 17.0693H72.7925C72.7315 17.0693 72.7007 17.0231 72.7007 16.9893V3.00586C72.7036 2.97264 72.7343 2.93066 72.7925 2.93066H73.7447C73.9562 2.93066 74.157 2.88227 74.3384 2.79883ZM75.2466 0.526367H77.105C77.1659 0.526575 77.1968 0.572635 77.1968 0.606445V1.90527C77.1966 1.93904 77.1657 1.98417 77.105 1.98438H75.6216C75.4102 1.98438 75.2084 2.03174 75.0269 2.11523C75.1078 1.94014 75.1548 1.74581 75.1548 1.53906V0.606445C75.1548 0.572645 75.1858 0.526604 75.2466 0.526367Z" fill="currentColor" stroke="currentColor" stroke-width="1.05263"/>
<path d="M158.555 17.8828C158.474 18.0583 158.427 18.2535 158.427 18.4609V19.3936C158.427 19.4274 158.395 19.4736 158.334 19.4736H156.477C156.416 19.4735 156.385 19.4274 156.385 19.3936V18.0947C156.385 18.0609 156.416 18.0147 156.477 18.0146H157.96C158.172 18.0146 158.373 17.9665 158.555 17.8828ZM159.242 2.7998C159.424 2.88315 159.625 2.93066 159.836 2.93066H160.789C160.85 2.93087 160.881 2.97698 160.881 3.01074V16.9932C160.879 17.0265 160.848 17.0693 160.789 17.0693H159.837C159.625 17.0693 159.423 17.1165 159.241 17.2002C159.323 17.0248 159.37 16.8302 159.37 16.623V3.37695C159.37 3.16978 159.323 2.975 159.242 2.7998ZM156.477 0.526367H158.334C158.395 0.526559 158.426 0.572687 158.426 0.606445V1.53906C158.426 1.74622 158.473 1.941 158.554 2.11621C158.372 2.03281 158.171 1.98535 157.96 1.98535H156.477C156.416 1.98535 156.384 1.9391 156.384 1.90527V0.606445C156.384 0.572616 156.416 0.526367 156.477 0.526367Z" fill="currentColor" stroke="currentColor" stroke-width="1.05263"/>
<path d="M30.1993 3.26318C31.2043 3.26322 32.0822 3.44404 32.8438 3.79346C33.5105 4.09957 34.0398 4.50716 34.4434 5.01318L34.6085 5.23584C34.9267 5.69893 35.133 6.20293 35.2325 6.75244L33.4903 6.73877C33.3351 6.14499 33.0089 5.64243 32.5206 5.24365V5.24268L32.2794 5.06494C31.6984 4.68064 30.9941 4.5044 30.1983 4.50439C29.3778 4.50439 28.6591 4.67824 28.087 5.07373C27.4722 5.49879 27.1719 6.13025 27.1719 6.89111C27.172 7.43138 27.3559 7.91021 27.7598 8.26025C28.1046 8.55904 28.5518 8.77516 29.0723 8.92627V8.92529C29.5729 9.07147 30.3043 9.22814 31.253 9.39404L31.2989 9.40186H31.3126C32.2238 9.57248 32.9843 9.78031 33.6006 10.022L33.6397 10.0376C34.153 10.2423 34.5735 10.5394 34.9092 10.9302L35.0479 11.103C35.3783 11.5461 35.5684 12.1592 35.5684 12.9897C35.5683 13.7384 35.3606 14.3999 34.9454 14.9907C34.5261 15.5873 33.9399 16.0642 33.168 16.4155C32.3988 16.7657 31.5159 16.9478 30.5108 16.9478C29.4231 16.9477 28.4811 16.7493 27.6739 16.3677C26.8607 15.9832 26.2381 15.462 25.7891 14.8091C25.442 14.3044 25.2219 13.7466 25.129 13.1304L26.8682 13.1567C27.0178 13.8593 27.3808 14.4513 27.9503 14.9155C28.6494 15.4853 29.5404 15.7476 30.5743 15.7476C31.4404 15.7475 32.1988 15.5578 32.8096 15.1372C33.4521 14.6949 33.787 14.0586 33.7872 13.2788C33.7872 12.7262 33.6008 12.2358 33.1944 11.8726C32.8415 11.558 32.3856 11.3339 31.8546 11.1812C31.3508 11.0363 30.6067 10.8742 29.6339 10.6948H29.6348L29.5313 10.6743L29.5215 10.6724C28.7437 10.5317 28.0771 10.3502 27.5167 10.1313L27.2833 10.0356C26.7126 9.78894 26.2611 9.42992 25.9161 8.95752C25.5979 8.52196 25.4132 7.9121 25.4131 7.07764C25.4131 6.35342 25.6084 5.71267 25.9981 5.14209L25.9991 5.14111C26.3898 4.56784 26.943 4.11017 27.6788 3.77295C28.4133 3.4363 29.251 3.26318 30.1993 3.26318Z" fill="currentColor" stroke="currentColor" stroke-width="1.05263"/>
<path d="M42.7247 7.05273C44.1269 7.05273 44.9561 7.36284 45.6534 7.92969C46.3152 8.46768 46.6748 9.26414 46.6749 10.4062V14.3848C46.6749 14.7023 46.7498 15.0556 47.0196 15.3086V15.3096C47.2624 15.5382 47.5712 15.6191 47.8721 15.6191H47.9503V16.8164H46.378C46.0195 16.8164 45.7346 16.5288 45.7344 16.1807V15.8271C45.7342 14.9843 44.6557 14.7327 44.2344 15.3906L44.2335 15.3896C43.9537 15.8017 43.6605 16.1207 43.3223 16.3633H43.3214C42.9192 16.6521 42.5493 16.8327 42.1055 16.9033C41.6539 16.9756 41.1758 16.9526 40.6846 16.877C40.0664 16.7817 39.4883 16.5681 39.0157 16.2139C38.4151 15.764 38.1154 15.1602 38.1153 14.3438C38.1153 13.3643 38.4588 12.6605 39.1221 12.1602C39.804 11.6467 40.8602 11.3506 42.3692 11.3506H44.2999C44.7185 11.3503 45.0664 11.0119 45.0665 10.585V10.2617C45.0665 9.59877 44.8033 9.0205 44.3428 8.61426C43.8879 8.213 43.2724 8.00586 42.5997 8.00586C41.9179 8.00586 41.353 8.15365 40.8643 8.48047C40.5043 8.72161 40.2368 9.03653 40.0811 9.42188H38.5098C38.6923 8.7737 39.0647 8.25904 39.6417 7.86133H39.6426C40.3987 7.34005 41.3892 7.05273 42.7247 7.05273ZM42.3262 12.1299C41.6097 12.1299 40.9793 12.2691 40.4991 12.6143H40.4981C39.9937 12.9784 39.7452 13.5083 39.7452 14.1348C39.7452 14.6382 39.9234 15.0747 40.2715 15.4121L40.4307 15.5498C40.869 15.8908 41.4207 16.0352 42.0333 16.0352C43.1146 16.035 44.1139 15.5351 44.6719 14.5508C44.9397 14.0777 45.0645 13.5372 45.0645 12.9473V12.8955C45.0645 12.471 44.7194 12.1299 44.2979 12.1299H42.3262Z" fill="currentColor" stroke="currentColor" stroke-width="1.05263"/>
<path d="M53.1653 3.47375H55.636V4.68372H53.637C53.0842 4.68379 52.6313 5.1301 52.6312 5.68665V6.72278C52.6313 7.14579 52.9756 7.4872 53.3968 7.48743H55.6146V8.69641H53.3968C52.9781 8.69664 52.6313 9.0354 52.6312 9.46106V16.9474H51.056V9.46106C51.0558 9.03781 50.7117 8.69641 50.2903 8.69641H49.0032V7.48743H50.2903C50.7092 7.48743 51.0558 7.14847 51.056 6.72278V5.57043C51.056 4.41448 51.9986 3.47377 53.1653 3.47375Z" fill="currentColor" stroke="currentColor" stroke-width="1.05263"/>
<path d="M61.7781 7.05261C62.779 7.05264 63.6423 7.25245 64.3777 7.62683C65.095 7.99211 65.6578 8.5087 66.0769 9.18054L66.1033 9.22351C66.5199 9.90923 66.737 10.715 66.7371 11.6591C66.7371 11.7827 66.7342 11.9205 66.7283 12.0712H59.4275C58.9843 12.0713 58.6083 12.4533 58.6628 12.9227V12.9237C58.6722 13.0024 58.6837 13.0792 58.6951 13.1503V13.1532C58.7314 13.372 58.7849 13.5937 58.8601 13.8114C58.9301 14.0137 59.0186 14.2127 59.1287 14.4032C59.3744 14.8279 59.7016 15.1726 60.1062 15.4325L60.2839 15.538C60.7768 15.8099 61.3368 15.9374 61.947 15.9374C62.6767 15.9374 63.3273 15.7718 63.8699 15.411L63.8708 15.41C64.3014 15.1225 64.6204 14.7392 64.821 14.2694H66.4431C66.3147 14.6409 66.1262 14.9907 65.8738 15.3192H65.8728C65.4924 15.8148 64.9875 16.2117 64.3455 16.5057C63.7107 16.7962 62.9782 16.9471 62.1384 16.9471C61.0324 16.9471 60.0974 16.7387 59.3171 16.3387L59.3162 16.3378C58.537 15.939 57.947 15.3755 57.533 14.6415C57.1174 13.9039 56.9021 13.0665 56.9021 12.0341C56.9021 10.9951 57.1129 10.1161 57.5154 9.37976C57.9196 8.64036 58.4835 8.07413 59.2146 7.67078C59.9482 7.26605 60.7856 7.05261 61.7781 7.05261ZM61.8826 8.0282C61.4243 8.02824 60.9887 8.10825 60.5808 8.27332L60.408 8.34949C59.9463 8.56842 59.5644 8.88743 59.2712 9.30261C59.0441 9.62426 58.8862 9.98326 58.7957 10.3739L58.7947 10.3759C58.6824 10.8692 59.0686 11.3104 59.5466 11.3104H64.283C64.7332 11.3101 65.0992 10.9199 65.0486 10.4647L65.033 10.3729C64.8781 9.7014 64.5477 9.14414 64.0359 8.72937C63.4456 8.25087 62.7141 8.0282 61.8826 8.0282Z" fill="currentColor" stroke="currentColor" stroke-width="1.05263"/>
<path d="M81.3498 3.47375L83.1408 12.1554L83.1418 12.1573C83.3244 13.0277 83.4649 13.8708 83.5451 14.8702L83.5832 15.3546H84.9162L84.965 14.882C85.0658 13.9016 85.2263 13.0378 85.4289 12.1681L85.4279 12.1671L87.3342 4.15833H89.9885L91.8332 12.1583V12.1593C92.0166 13.0132 92.1775 13.8999 92.2785 14.882L92.3273 15.3546H93.6808L93.7189 14.8702C93.7984 13.8794 93.9566 13.0656 94.1223 12.1359L95.9142 3.47375H97.4777V3.73547L94.6906 16.3156H91.5285L89.8264 8.89075C89.6224 7.99556 89.4623 7.19437 89.3625 6.1593L89.3166 5.68372H87.968L87.9221 6.1593C87.8217 7.19377 87.6626 7.97358 87.4592 8.84778L85.6965 16.3156H82.551L79.7443 3.73547V3.47375H81.3498Z" fill="currentColor" stroke="currentColor" stroke-width="1.05263"/>
<path d="M105.8 3.47375L110.287 16.087V16.3156H108.667L107.78 13.6359L107.661 13.2755H100.923L100.804 13.6359L99.9172 16.3156H98.3176V16.087L102.805 3.47375H105.8ZM103.577 4.79797C103.44 5.66442 103.244 6.35882 102.942 7.24817L102.94 7.25208L101.584 11.34L101.485 11.6407L101.703 11.8693L101.704 11.8702L101.86 12.0323H107.231L107 11.34L105.644 7.27161C105.34 6.36041 105.143 5.66061 104.985 4.78723L104.906 4.35461H103.648L103.577 4.79797Z" fill="currentColor" stroke="currentColor" stroke-width="1.05263"/>
<path d="M114.163 3.47375V15.0118H120.534V16.3156H112.621V3.47375H114.163Z" fill="currentColor" stroke="currentColor" stroke-width="1.05263"/>
<path d="M124.408 3.47375V15.0118H130.78V16.3156H122.867V3.47375H124.408Z" fill="currentColor" stroke="currentColor" stroke-width="1.05263"/>
<path d="M141.952 3.47375V4.75696H134.879V9.09192H141.07V10.3546H134.879V15.0118H142.095V16.3156H133.328V3.47375H141.952Z" fill="currentColor" stroke="currentColor" stroke-width="1.05263"/>
<path d="M154.051 3.47375V4.77649H149.821V16.3156H148.232V4.77649H144.002V3.47375H154.051Z" fill="currentColor" stroke="currentColor" stroke-width="1.05263"/>
</g>
<path d="M18.4588 10.2271H16.3327C15.6977 10.2271 15.1831 10.7416 15.1831 11.3766V14.4625C15.1831 15.0974 14.6686 15.612 14.0336 15.612H5.5753C4.94031 15.612 4.42578 16.1265 4.42578 16.7615V18.8876C4.42578 19.5226 4.94031 20.0371 5.5753 20.0371H14.5232C15.1582 20.0371 15.6654 19.5226 15.6654 18.8876V17.1818C15.6654 16.5468 16.1799 16.0964 16.8149 16.0964H18.4583C19.0933 16.0964 19.6078 15.5819 19.6078 14.9469V11.3632C19.6078 10.7282 19.0933 10.2271 18.4583 10.2271H18.4588Z" fill="currentColor"/>
<path d="M4.42525 6.00323C4.42525 5.36824 4.93978 4.85371 5.57476 4.85371H14.0279C14.6629 4.85371 15.1774 4.33918 15.1774 3.7042V1.57811C15.1774 0.943118 14.6629 0.428589 14.0279 0.428589H5.08476C4.44977 0.428589 3.93524 0.943118 3.93524 1.57811V3.21634C3.93524 3.85133 3.42071 4.36586 2.78572 4.36586H1.14964C0.514651 4.36586 0.00012207 4.88039 0.00012207 5.51537V9.10288C0.00012207 9.73787 0.516803 10.2266 1.15179 10.2266H3.27788C3.91287 10.2266 4.4274 9.71206 4.4274 9.07707L4.42525 6.00366V6.00323Z" fill="currentColor"/>
<path d="M8.80359 7.99207H10.8458C11.5113 7.99207 12.0512 8.53241 12.0512 9.19751V11.2397C12.0512 11.9052 11.5109 12.4452 10.8458 12.4452H8.80359C8.13806 12.4452 7.59814 11.9048 7.59814 11.2397V9.19751C7.59814 8.53198 8.13849 7.99207 8.80359 7.99207Z" fill="currentColor"/>
<path d="M171.162 10.2149C172.882 10.2149 174.137 11.7236 174.137 13.7259C174.137 15.7282 172.882 17.2369 171.148 17.2369C169.992 17.2369 169.216 16.5601 168.906 15.8833H168.765V16.9831H167.566V7.25381H168.835V11.498H168.976C169.315 10.8212 170.062 10.2149 171.162 10.2149ZM170.81 11.3429C169.625 11.3429 168.779 12.3018 168.779 13.7259C168.779 15.1501 169.625 16.1089 170.81 16.1089C172.008 16.1089 172.826 15.1501 172.826 13.7259C172.826 12.3018 172.008 11.3429 170.81 11.3429Z" fill="currentColor" fill-opacity="0.5"/>
<path d="M178.197 14.3604L179.65 10.4687H180.891V10.8917L177.168 20.0993H175.984V19.6763L177.069 17.11L174.517 10.8917V10.4687H175.786L177.239 14.3745C177.422 14.868 177.563 15.3052 177.633 15.7423H177.803C177.887 15.3052 178.014 14.8398 178.197 14.3604Z" fill="currentColor" fill-opacity="0.5"/>
<path d="M184.743 13.8528H186.068C186.28 15.277 187.253 15.9961 188.719 15.9961C189.876 15.9961 190.891 15.5167 190.891 14.4591C190.891 13.6131 190.256 13.1901 189.523 12.9786L187.394 12.3723C186.068 11.9916 185.096 11.075 185.096 9.72138C185.096 8.11393 186.52 7 188.451 7C190.242 7 191.652 7.88833 192.047 9.69318V10.1867H190.792C190.609 8.95996 189.791 8.24084 188.451 8.24084C187.338 8.24084 186.463 8.76255 186.463 9.66498C186.463 10.3277 186.929 10.8494 187.831 11.1032L189.96 11.7095C191.272 12.0903 192.259 12.9363 192.259 14.4168C192.259 16.2076 190.778 17.2369 188.719 17.2369C186.548 17.2369 185.166 16.1371 184.743 14.3463V13.8528Z" fill="currentColor"/>
<path d="M199.528 15.9538H199.782V16.9831H199.331C198.71 16.9831 198.09 16.7575 197.949 15.9115H197.808C197.498 16.6588 196.708 17.2369 195.481 17.2369C194.198 17.2369 193.169 16.5883 193.169 15.3616C193.169 14.3886 193.803 13.6695 194.903 13.3593L197.723 12.5556C197.667 11.7941 197.047 11.3147 196.243 11.3147C195.552 11.3147 194.861 11.6672 194.664 12.5133H193.493V12.1467C193.803 10.934 194.861 10.2149 196.257 10.2149C197.963 10.2149 198.978 11.2583 198.978 12.753V15.3052C198.978 15.7423 199.119 15.9538 199.528 15.9538ZM195.707 16.2217C196.934 16.2217 197.723 15.3052 197.723 14.3181V13.6131L195.467 14.2758C194.79 14.4732 194.452 14.8116 194.452 15.3052C194.452 15.9115 194.96 16.2217 195.707 16.2217Z" fill="currentColor"/>
<path d="M204.573 8.32544H203.177C202.726 8.32544 202.528 8.46644 202.528 8.91766V10.4687H204.234V11.5403H202.528V16.9831H201.259V11.5403H200.061V10.4687H201.259V8.90356C201.259 7.77552 201.88 7.25381 203.008 7.25381H204.573V8.32544Z" fill="currentColor"/>
<path d="M211.082 13.7259V14.0925H205.95C206.077 15.3193 206.852 16.1512 207.994 16.1512C208.868 16.1512 209.517 15.6436 209.714 14.8821H210.913V15.2911C210.617 16.2217 209.658 17.2369 207.994 17.2369C206.02 17.2369 204.681 15.7705 204.681 13.7259C204.681 11.6672 206.048 10.2149 207.966 10.2149C209.926 10.2149 211.082 11.6813 211.082 13.7259ZM207.952 11.2583C206.937 11.2583 206.203 11.9634 205.992 13.0491H209.799C209.644 11.9775 208.995 11.2583 207.952 11.2583Z" fill="currentColor"/>
<path d="M215.724 16.9831V7.25381H217.05V15.7705H221.618V16.9831H215.724Z" fill="currentColor"/>
<path d="M228.473 15.9538H228.726V16.9831H228.275C227.655 16.9831 227.034 16.7575 226.893 15.9115H226.752C226.442 16.6588 225.653 17.2369 224.426 17.2369C223.143 17.2369 222.113 16.5883 222.113 15.3616C222.113 14.3886 222.748 13.6695 223.848 13.3593L226.668 12.5556C226.611 11.7941 225.991 11.3147 225.187 11.3147C224.496 11.3147 223.805 11.6672 223.608 12.5133H222.438V12.1467C222.748 10.934 223.805 10.2149 225.201 10.2149C226.908 10.2149 227.923 11.2583 227.923 12.753V15.3052C227.923 15.7423 228.064 15.9538 228.473 15.9538ZM224.651 16.2217C225.878 16.2217 226.668 15.3052 226.668 14.3181V13.6131L224.412 14.2758C223.735 14.4732 223.397 14.8116 223.397 15.3052C223.397 15.9115 223.904 16.2217 224.651 16.2217Z" fill="currentColor"/>
<path d="M233.306 10.2149C235.026 10.2149 236.281 11.7236 236.281 13.7259C236.281 15.7282 235.026 17.2369 233.292 17.2369C232.136 17.2369 231.36 16.5601 231.05 15.8833H230.909V16.9831H229.71V7.25381H230.979V11.498H231.12C231.459 10.8212 232.206 10.2149 233.306 10.2149ZM232.953 11.3429C231.769 11.3429 230.923 12.3018 230.923 13.7259C230.923 15.1501 231.769 16.1089 232.953 16.1089C234.152 16.1089 234.97 15.1501 234.97 13.7259C234.97 12.3018 234.152 11.3429 232.953 11.3429Z" fill="currentColor"/>
<path d="M239.76 10.2149C241.297 10.2149 242.172 10.9763 242.397 12.0762V12.4569H241.255C241.142 11.7659 240.691 11.2865 239.76 11.2865C238.985 11.2865 238.505 11.6249 238.505 12.1185C238.505 12.5415 238.844 12.8094 239.323 12.9363L240.846 13.3452C241.918 13.6272 242.566 14.2899 242.566 15.2629C242.566 16.5178 241.495 17.2369 239.944 17.2369C238.35 17.2369 237.321 16.4896 237.025 15.2206V14.8398H238.181C238.379 15.7564 239.027 16.1653 239.944 16.1653C240.79 16.1653 241.311 15.8269 241.311 15.277C241.311 14.7975 240.917 14.5437 240.423 14.4027L238.872 13.9797C237.956 13.7259 237.265 13.1055 237.265 12.1326C237.265 10.9622 238.308 10.2149 239.76 10.2149Z" fill="currentColor"/>
</g>
<defs>
<clipPath id="clip0_14519_42845">
<rect width="245" height="20" fill="white"/>
</clipPath>
<clipPath id="clip1_14519_42845">
<rect width="136.842" height="20" fill="white" transform="translate(24.5664)"/>
</clipPath>
</defs>
</svg>
