<svg height="19" viewBox="0 0 102 19" fill="none" xmlns="http://www.w3.org/2000/svg">
<path d="M35.6846 10.1785C36.1219 10.7463 36.3413 11.4926 36.3413 12.4174C36.3413 13.2864 36.0898 14.0674 35.5866 14.761C35.0835 15.4545 34.3869 15.9983 33.4974 16.3899C32.608 16.7822 31.6017 16.9788 30.4788 16.9788C29.268 16.9788 28.196 16.7649 27.2634 16.3379C26.3301 15.9109 25.5974 15.322 25.0653 14.5719C24.5818 13.8919 24.3059 13.1275 24.2377 12.2796C24.226 12.1388 24.3451 12.0198 24.4924 12.0213L26.91 12.0559C27.0354 12.0574 27.138 12.1486 27.1553 12.2675C27.2532 12.9574 27.5816 13.5214 28.1388 13.962C28.7508 14.4454 29.5533 14.6872 30.5446 14.6872C31.3761 14.6872 32.0539 14.5124 32.579 14.1615C33.104 13.8113 33.3665 13.3279 33.3665 12.7111C33.3665 12.2766 33.2208 11.9332 32.9293 11.6809C32.637 11.4286 32.2404 11.2328 31.7373 11.092C31.2342 10.9519 30.4717 10.7908 29.4514 10.6085L29.3417 10.5874C28.3794 10.4195 27.5549 10.1913 26.87 9.9044C26.1843 9.61748 25.6303 9.1935 25.2079 8.63246C24.7847 8.07218 24.5731 7.32889 24.5731 6.40412C24.5731 5.56369 24.8098 4.80686 25.2839 4.13361C25.758 3.46112 26.4218 2.93547 27.2744 2.55743C28.1278 2.17939 29.0862 1.98962 30.1512 1.98962C31.2742 1.98962 32.2765 2.18617 33.1589 2.57852C34.0413 2.97087 34.734 3.52136 35.2371 4.2285C35.6893 4.86484 35.9557 5.57122 36.0372 6.34915C36.0521 6.49148 35.933 6.61348 35.7849 6.61272L33.3642 6.5954C33.2419 6.59465 33.1401 6.5088 33.1181 6.39283C33.0108 5.81145 32.7177 5.33175 32.2396 4.95371C31.7068 4.53349 31.0109 4.32338 30.1504 4.32338C29.3628 4.32338 28.7289 4.48454 28.2477 4.80686C27.7665 5.12917 27.5259 5.59834 27.5259 6.2151C27.5259 6.63531 27.6678 6.96516 27.9523 7.20313C28.2367 7.44186 28.6262 7.63088 29.1223 7.77095C29.6175 7.91102 30.362 8.0654 31.3533 8.23333H31.3753C32.3964 8.41558 33.26 8.643 33.9676 8.91637C34.6745 9.18973 35.2473 9.60995 35.6846 10.1778V10.1785ZM49.0843 14.8235V16.6113C49.0843 16.7446 48.9723 16.853 48.8328 16.853H46.8932C46.2193 16.853 45.6731 16.3273 45.6731 15.6797V15.3235C45.6731 15.0268 45.2664 14.9244 45.1104 15.1804C44.7923 15.6338 44.4435 16.0058 44.0251 16.2957C43.5596 16.6188 43.0941 16.8455 42.522 16.9336C41.975 17.0179 41.4155 16.9878 40.8701 16.9072C40.1562 16.801 39.4626 16.5585 38.8827 16.1383C38.11 15.578 37.7237 14.8069 37.7237 13.8256C37.7237 12.6908 38.1469 11.8149 38.9924 11.1982C39.838 10.5814 41.0777 10.2734 42.7109 10.2734H44.7241C44.8628 10.2734 44.9756 10.1657 44.9756 10.0317V9.70559C44.9756 8.66183 44.1348 7.96072 42.9515 7.96072C42.3245 7.96072 41.8481 8.09025 41.4468 8.34931C41.1005 8.57297 40.8771 8.86215 40.7752 9.21609C40.7455 9.31926 40.6459 9.39005 40.5347 9.39005H38.3114C38.1547 9.39005 38.0379 9.25375 38.0638 9.10464C38.2338 8.14824 38.7307 7.39516 39.5543 6.84618C40.4586 6.24372 41.609 5.93646 43.0823 5.93646C44.6426 5.93646 45.6386 6.27535 46.4842 6.94106C47.3297 7.60678 47.7529 8.57749 47.7529 9.85244V13.8678C47.7529 14.1201 47.8148 14.3023 47.9386 14.4145C48.0625 14.5268 48.2341 14.5825 48.4527 14.5825H48.8304C48.9692 14.5825 49.082 14.6909 49.082 14.8242L49.0843 14.8235ZM44.9764 12.3639C44.9764 12.2306 44.8636 12.1222 44.7249 12.1222H42.6678C41.9821 12.1222 41.4539 12.2517 41.0816 12.5108C40.7102 12.7706 40.5237 13.1381 40.5237 13.614C40.5237 14.0342 40.6914 14.3709 41.0268 14.6231C41.3622 14.8754 41.8065 15.0012 42.3614 15.0012C43.3159 15.0012 44.163 14.5795 44.6371 13.7714C44.8628 13.3858 44.9764 12.934 44.9764 12.4159V12.3632V12.3639ZM56.9374 2.144H54.0449C52.5183 2.144 51.2817 3.3331 51.2817 4.79933V5.96583C51.2817 6.09913 51.1689 6.20757 51.0302 6.20757H49.3782C49.2395 6.20757 49.1267 6.31601 49.1267 6.44931V8.25743C49.1267 8.39073 49.2395 8.49917 49.3782 8.49917H51.0302C51.1689 8.49917 51.2817 8.60686 51.2817 8.7409V16.612C51.2817 16.7453 51.3946 16.8537 51.5333 16.8537H53.7871C53.9258 16.8537 54.0386 16.7453 54.0386 16.612V8.7409C54.0386 8.60761 54.1515 8.49917 54.2902 8.49917H56.917C57.0557 8.49917 57.1686 8.39073 57.1686 8.25743V6.44931C57.1686 6.31601 57.0557 6.20757 56.917 6.20757H54.2902C54.1515 6.20757 54.0386 6.09913 54.0386 5.96583V4.91756C54.0386 4.65097 54.2635 4.43484 54.541 4.43484H56.9382C57.0769 4.43484 57.1897 4.3264 57.1897 4.1931V2.38498C57.1897 2.25168 57.0769 2.14324 56.9382 2.14324L56.9374 2.144ZM18.6126 9.49473H16.4685C15.8283 9.49473 15.3095 9.99326 15.3095 10.6085V13.5982C15.3095 14.2135 14.7907 14.712 14.1505 14.712H5.62195C4.98171 14.712 4.46293 15.2105 4.46293 15.8258V17.8862C4.46293 18.5015 4.98171 19 5.62195 19H14.645C15.2852 19 15.797 18.5015 15.797 17.8862V16.2332C15.797 15.618 16.3157 15.1812 16.956 15.1812H18.6126C19.2529 15.1812 19.7717 14.6826 19.7717 14.0674V10.595C19.7717 9.97971 19.2529 9.49398 18.6126 9.49398V9.49473ZM4.46214 5.40178C4.46214 4.78652 4.98092 4.28799 5.62117 4.28799H14.145C14.7853 4.28799 15.304 3.78946 15.304 3.1742V1.11379C15.304 0.498533 14.7853 0 14.145 0H5.12747C4.48722 0 3.96844 0.498533 3.96844 1.11379V2.70127C3.96844 3.31653 3.44966 3.81506 2.80941 3.81506H1.15903C0.518781 3.81506 0 4.31359 0 4.92885V8.40503C0 9.02029 0.521132 9.49398 1.16138 9.49398H3.30546C3.94571 9.49398 4.46449 8.99544 4.46449 8.38018L4.46214 5.40254V5.40178ZM8.87648 7.32889C8.20489 7.32889 7.66103 7.85228 7.66103 8.49691V10.476C7.66103 11.1214 8.20567 11.644 8.87648 11.644H10.9359C11.6075 11.644 12.1514 11.1206 12.1514 10.476V8.49691C12.1514 7.85153 11.6067 7.32889 10.9359 7.32889H8.87648ZM67.9799 8.38094C68.4681 9.16564 68.7126 10.0769 68.7126 11.1138C68.7126 11.2539 68.7087 11.4083 68.7016 11.5762C68.6977 11.6688 68.6899 11.76 68.6797 11.8488C68.6648 11.9701 68.5567 12.0597 68.4297 12.0597H60.6206C60.4717 12.0597 60.3533 12.1839 60.3706 12.327C60.3792 12.3963 60.3894 12.4656 60.4011 12.5341C60.4341 12.7299 60.4819 12.9235 60.5485 13.111C60.6104 13.2857 60.688 13.4551 60.7828 13.6155C61.0234 14.0222 61.3517 14.3377 61.7671 14.5614C62.1824 14.7858 62.6675 14.898 63.2215 14.898C63.8923 14.898 64.4534 14.7512 64.9064 14.4567C65.31 14.1939 65.5921 13.8362 65.7512 13.3828C65.7857 13.2842 65.8813 13.2164 65.9894 13.2164H68.2542C68.4164 13.2164 68.5355 13.3618 68.4987 13.5139C68.3576 14.099 68.0935 14.6367 67.7064 15.1292C67.2542 15.7038 66.6602 16.1556 65.9236 16.4847C65.1869 16.8146 64.3516 16.9788 63.419 16.9788C62.2083 16.9788 61.155 16.7551 60.2577 16.3063C59.3604 15.8582 58.6716 15.2166 58.1904 14.3829C57.7093 13.5493 57.4687 12.5853 57.4687 11.4926C57.4687 10.3999 57.7022 9.39382 58.1685 8.56017C58.6348 7.72652 59.2915 7.08189 60.1371 6.62628C60.9826 6.17067 61.9528 5.93722 63.0468 5.93722C64.1408 5.93722 65.1321 6.15335 65.9776 6.57432C66.8232 6.99453 67.4909 7.59774 67.9791 8.38244L67.9799 8.38094ZM65.8797 9.93603C65.7441 9.36219 65.4636 8.90658 65.038 8.56996C64.542 8.17761 63.9151 7.98105 63.1565 7.98105C62.6894 7.98105 62.26 8.07218 61.8658 8.25442C61.4724 8.43666 61.1511 8.69948 60.9035 9.04289C60.7107 9.30947 60.5759 9.60769 60.4975 9.93678C60.4615 10.0874 60.583 10.2305 60.7436 10.2305H65.6344C65.7951 10.2305 65.9157 10.0866 65.8797 9.93603ZM101.341 6.20757H98.9398V3.74954C98.9398 3.37075 98.6209 3.06425 98.2267 3.06425H96.8294C96.4352 3.06425 96.1163 3.37075 96.1163 3.74954V6.20757H94.596C94.2324 6.20757 93.9377 6.49073 93.9377 6.84015V7.86132C93.9377 8.21074 94.2324 8.4939 94.596 8.4939H96.1163V14.2059C96.1163 14.5847 96.4352 14.8912 96.8294 14.8912H97.8458C98.24 14.8912 98.559 15.0916 98.559 15.4704V16.1715C98.559 16.5503 98.8779 16.8568 99.2721 16.8568H101.056C101.451 16.8568 101.754 16.5488 101.754 16.17V15.2821C101.754 14.9033 101.435 14.5968 101.041 14.5968L99.5754 14.5983C99.1812 14.5983 98.9406 14.2052 98.9406 13.8272V8.4939H101.342C101.705 8.4939 102 8.21074 102 7.86132V6.84015C102 6.49073 101.705 6.20757 101.342 6.20757H101.341ZM92.9809 8.50519V11.3172C92.9809 11.7223 92.6392 12.0514 92.2168 12.0514H84.8787V13.7805C84.8787 14.1856 85.2203 14.5795 85.6427 14.5795L90.9959 14.578C91.4175 14.578 91.76 14.9063 91.76 15.3122V16.1218C91.76 16.5269 91.4355 16.8568 91.0131 16.8568H85.3183C84.8967 16.8568 84.5542 16.5284 84.5542 16.1225V15.636C84.5542 15.2309 84.2126 14.9018 83.7902 14.9018H82.8239C82.4023 14.9018 82.0599 14.5734 82.0599 14.1675V8.50444C82.0599 8.09929 82.4015 7.77019 82.8239 7.77019H83.7902C84.2118 7.77019 84.5542 7.44185 84.5542 7.03595V6.51859C84.5542 6.11344 84.8959 5.78434 85.3183 5.78434H89.8024C90.224 5.78434 90.5664 6.11268 90.5664 6.51859V7.03595C90.5664 7.4411 90.9081 7.77019 91.3305 7.77019H92.2176C92.6392 7.77019 92.9817 8.09853 92.9817 8.50444L92.9809 8.50519ZM84.8787 8.89378V10.2418H90.2412V8.89378C90.2412 8.48862 89.8996 8.15953 89.4772 8.15953H85.6419C85.2203 8.15953 84.8779 8.48787 84.8779 8.89378H84.8787ZM79.6681 7.74158H78.7364C78.3148 7.74158 77.9723 7.41324 77.9723 7.00733V6.52763C77.9723 6.12247 77.6306 5.79338 77.2082 5.79338H73.4349C73.0133 5.79338 72.6709 6.12172 72.6709 6.52763V7.00733C72.6709 7.41249 72.3292 7.74158 71.9068 7.74158H70.975C70.5534 7.74158 70.211 8.06992 70.211 8.47582V16.1233C70.211 16.5284 70.5526 16.8575 70.975 16.8575H72.2312C72.6528 16.8575 72.9953 16.5292 72.9953 16.1233V8.89905C72.9953 8.4939 73.337 8.1648 73.7594 8.1648H75.322H76.8846C77.3062 8.1648 77.6486 8.49314 77.6486 8.89905V16.1233C77.6486 16.5284 77.9903 16.8575 78.4127 16.8575H79.6689C80.0905 16.8575 80.433 16.5292 80.433 16.1233V8.47582C80.433 8.07067 80.0913 7.74158 79.6689 7.74158H79.6681Z" fill="url(#paint0_radial_14857_51558)"/>
<defs>
<radialGradient id="paint0_radial_14857_51558" cx="0" cy="0" r="1" gradientUnits="userSpaceOnUse" gradientTransform="translate(98.29 0.735319) rotate(168.527) scale(96.2967 39.6516)">
<stop/>
<stop offset="1" stop-color="#003F54"/>
</radialGradient>
</defs>
</svg>
