<svg width="20" height="20" viewBox="0 0 20 20" fill="none" xmlns="http://www.w3.org/2000/svg">
<rect width="20" height="20" rx="10" fill="url(#paint0_radial_15188_41784)"/>
<path d="M14.5525 9.99766H13.4336C13.0995 9.99766 12.8288 10.2684 12.8288 10.6025V12.226C12.8288 12.5601 12.5581 12.8308 12.224 12.8308H7.77355C7.43945 12.8308 7.16874 13.1015 7.16874 13.4356V14.5544C7.16874 14.8885 7.43945 15.1593 7.77355 15.1593H12.482C12.8161 15.1593 13.0832 14.8885 13.0832 14.5544V13.6568C13.0832 13.3227 13.3539 13.0855 13.688 13.0855H14.5525C14.8866 13.0855 15.1573 12.8148 15.1573 12.4807V10.5951C15.1573 10.261 14.8866 9.99766 14.5525 9.99766ZM7.16833 7.7751C7.16833 7.441 7.43904 7.17028 7.77314 7.17028H12.2211C12.5552 7.17028 12.826 6.89956 12.826 6.56546V5.44661C12.826 5.11251 12.5552 4.8418 12.2211 4.8418H7.51551C7.18141 4.8418 6.9107 5.11251 6.9107 5.44661V6.30865C6.9107 6.64275 6.63998 6.91347 6.30588 6.91347H5.44466C5.11056 6.91347 4.83984 7.18418 4.83984 7.51828V9.40593C4.83984 9.74003 5.11179 9.99726 5.44589 9.99726H6.56474C6.89884 9.99726 7.16955 9.72654 7.16955 9.39244L7.16833 7.7751ZM9.47186 8.82156C9.12141 8.82156 8.8376 9.10577 8.8376 9.45582V10.5305C8.8376 10.881 9.12181 11.1648 9.47186 11.1648H10.5465C10.897 11.1648 11.1808 10.8806 11.1808 10.5305V9.45582C11.1808 9.10537 10.8966 8.82156 10.5465 8.82156H9.47186Z" fill="url(#paint1_radial_15188_41784)"/>
<defs>
<radialGradient id="paint0_radial_15188_41784" cx="0" cy="0" r="1" gradientUnits="userSpaceOnUse" gradientTransform="translate(23.8022 -2.83063) rotate(136.194) scale(32.9815 34.9479)">
<stop stop-color="#FF5F00"/>
<stop offset="0.5" stop-color="#FFD200"/>
<stop offset="1" stop-color="#12FF80"/>
</radialGradient>
<radialGradient id="paint1_radial_15188_41784" cx="0" cy="0" r="1" gradientUnits="userSpaceOnUse" gradientTransform="translate(14.782 5.24109) rotate(132.546) scale(14.1174 14.8563)">
<stop/>
<stop offset="1" stop-color="#003F54"/>
</radialGradient>
</defs>
</svg>
