<svg width="200" height="200" viewBox="0 0 200 200" fill="none" xmlns="http://www.w3.org/2000/svg">
<rect width="200" height="200" fill="#FF0420"/>
<path fill-rule="evenodd" clip-rule="evenodd" d="M125.279 42.4023C124.824 42.6001 124.257 43.0391 124.019 43.3775C123.465 44.1676 123.466 45.7018 124.02 46.4922C124.841 47.6625 125.838 47.8471 131.34 47.8471H136.457L140.628 52.0175L144.798 56.1879L144.165 57.7766C143.332 59.8634 143.109 61.7209 143.461 63.6228C144.152 67.3561 146.502 70.4374 149.853 72.0057L151.699 72.8695L151.634 102.526L151.569 132.182L150.961 133.319C150.023 135.072 148.619 136.463 146.97 137.271C145.702 137.892 145.139 138.006 143.347 138C140.577 137.992 138.918 137.279 137.137 135.334C134.904 132.894 134.911 132.94 134.734 120.399C134.584 109.754 134.561 109.362 133.973 107.891C132.371 103.884 129.428 100.964 125.457 99.4453C124.419 99.0481 123.087 98.8339 120.935 98.7179L117.885 98.5538L117.753 81.6074L117.62 64.6611L116.775 62.8809C115.601 60.407 113.869 58.6454 111.425 57.4393L109.426 56.4527L84.5004 56.3812C57.2993 56.3031 58.1729 56.2602 55.5268 57.8081C54.1131 58.6353 51.9316 60.9411 51.1903 62.3916C49.8371 65.0397 49.8642 64.1355 49.8591 106.828L49.8546 146.613H47.8957C45.2713 146.613 43.4608 147.509 42.2997 149.384C41.513 150.654 41.5 150.733 41.5 154.27V157.866L83.8699 157.933L126.24 158V154.414C126.24 151.405 126.158 150.67 125.734 149.846C124.569 147.585 122.769 146.613 119.75 146.613H117.753V125.394V104.176L120.354 104.301C122.663 104.412 123.141 104.525 124.611 105.307C126.449 106.285 127.249 107.11 128.31 109.117L129.025 110.469L129.178 121.458C129.286 129.239 129.429 132.755 129.668 133.506C131.045 137.83 134.477 141.464 138.583 142.948C140.733 143.725 144.403 143.901 146.619 143.335C151.429 142.104 155.215 138.608 156.811 133.922L157.404 132.182L157.483 97.2298C157.526 78.0063 157.486 61.8609 157.394 61.3512C157.255 60.5738 155.813 59.0071 148.445 51.6259C143.615 46.7869 139.28 42.6462 138.813 42.4245C137.645 41.8717 126.543 41.8531 125.279 42.4023ZM102.311 67.7524C103.193 67.9741 103.904 68.4189 104.787 69.3004C106.639 71.1489 106.665 71.3835 106.566 85.3144L106.481 97.2298L105.817 98.4097C105.453 99.0585 104.637 99.9521 104.004 100.396L102.855 101.202L84.1784 101.273C66.1788 101.342 65.4664 101.326 64.5081 100.834C63.2327 100.179 62.1919 99.0786 61.6713 97.8341C61.3188 96.9918 61.2594 95.061 61.2594 84.448V72.0468L61.9551 70.6529C62.699 69.1624 64.0469 68.0601 65.5656 67.7005C67.0535 67.3481 100.893 67.396 102.311 67.7524Z" fill="white"/>
</svg>
