<svg width="160" height="160" viewBox="0 0 160 160" fill="none" xmlns="http://www.w3.org/2000/svg">
<path d="M66.29 146.58C92.9598 146.58 114.58 124.96 114.58 98.29C114.58 71.6202 92.9598 50 66.29 50C39.6202 50 18 71.6202 18 98.29C18 124.96 39.6202 146.58 66.29 146.58Z" fill="#B0FFC9"/>
<path d="M99.35 125.7C125.501 125.7 146.7 104.501 146.7 78.35C146.7 52.1993 125.501 31 99.35 31C73.1993 31 52 52.1993 52 78.35C52 104.501 73.1993 125.7 99.35 125.7Z" fill="white"/>
<path d="M99.35 125.7C125.501 125.7 146.7 104.501 146.7 78.35C146.7 52.1993 125.501 31 99.35 31C73.1993 31 52 52.1993 52 78.35C52 104.501 73.1993 125.7 99.35 125.7Z" fill="white" stroke="#121312" stroke-width="1.33" stroke-miterlimit="10" stroke-linecap="round" stroke-dasharray="6 6"/>
<path d="M43.57 74.4899C60.0944 74.4899 73.49 61.0943 73.49 44.5699C73.49 28.0455 60.0944 14.6499 43.57 14.6499C27.0457 14.6499 13.65 28.0455 13.65 44.5699C13.65 61.0943 27.0457 74.4899 43.57 74.4899Z" fill="white"/>
<path d="M46.1344 47.5345L45.5344 47.5346L45.5344 48.1345L45.5344 57.5379C45.5344 58.9376 44.3997 60.0723 43 60.0723C41.6003 60.0723 40.4656 58.9376 40.4656 57.5379L40.4656 48.1345L40.4656 47.5346L39.8656 47.5345L30.4622 47.5346C29.0625 47.5346 27.9278 46.3998 27.9278 45.0001C27.9278 43.6004 29.0625 42.4657 30.4622 42.4657L39.8656 42.4657L40.4656 42.4657L40.4656 41.8657L40.4656 32.4623C40.4656 31.0626 41.6003 29.9279 43 29.9279C44.3997 29.9279 45.5344 31.0626 45.5344 32.4623L45.5344 41.8657L45.5344 42.4657L46.1344 42.4657L55.5378 42.4657C56.9375 42.4657 58.0722 43.6004 58.0722 45.0001C58.0722 46.3998 56.9375 47.5346 55.5378 47.5346L46.1344 47.5345Z" stroke="#121312" stroke-width="1.2"/>
<path fill-rule="evenodd" clip-rule="evenodd" d="M43.57 15.3C27.4046 15.3 14.3 28.4046 14.3 44.57C14.3 60.7354 27.4046 73.84 43.57 73.84C59.7354 73.84 72.84 60.7354 72.84 44.57C72.84 28.4046 59.7354 15.3 43.57 15.3ZM13 44.57C13 27.6867 26.6867 14 43.57 14C60.4533 14 74.14 27.6867 74.14 44.57C74.14 61.4533 60.4533 75.14 43.57 75.14C26.6867 75.14 13 61.4533 13 44.57Z" fill="#121312"/>
<path fill-rule="evenodd" clip-rule="evenodd" d="M81.7365 80.1563C79.7215 82.8747 78.6745 86.1545 78.3344 88.3311C78.279 88.6858 77.9465 88.9284 77.5919 88.873C77.2372 88.8175 76.9946 88.4851 77.05 88.1304C77.415 85.7942 78.5257 82.3048 80.6921 79.3822C82.8704 76.4435 86.1493 74.0423 90.8076 74.0423C95.4796 74.0423 98.696 76.6535 100.713 79.1918C101.722 80.4627 102.445 81.7303 102.915 82.6789C103.15 83.154 103.323 83.5513 103.438 83.8319C103.496 83.9723 103.539 84.0836 103.568 84.1611C103.583 84.1999 103.594 84.2302 103.601 84.2514L103.61 84.2764L103.613 84.2837L103.614 84.286L103.614 84.2868C103.614 84.2872 103.614 84.2874 103 84.4999L103.614 84.2874C103.732 84.6267 103.552 84.9969 103.212 85.1142C102.873 85.2315 102.503 85.0518 102.386 84.7128L102.386 84.7125L102.386 84.7124L102.385 84.7092L102.378 84.6921C102.373 84.6763 102.364 84.6515 102.351 84.6184C102.326 84.5522 102.288 84.4529 102.236 84.3251C102.131 84.0693 101.97 83.7004 101.75 83.256C101.309 82.3658 100.633 81.1814 99.6948 80.0005C97.8154 77.6349 94.9355 75.3423 90.8076 75.3423C86.6659 75.3423 83.7396 77.454 81.7365 80.1563Z" fill="#121312"/>
<path d="M100.115 65.8077C100.115 70.9482 95.9481 75.1154 90.8076 75.1154C85.6671 75.1154 81.4999 70.9482 81.4999 65.8077C81.4999 60.6672 85.6671 56.5 90.8076 56.5C95.9481 56.5 100.115 60.6672 100.115 65.8077Z" fill="white"/>
<path fill-rule="evenodd" clip-rule="evenodd" d="M90.8076 73.7854C95.2135 73.7854 98.7853 70.2137 98.7853 65.8077C98.7853 61.4017 95.2135 57.83 90.8076 57.83C86.4016 57.83 82.8299 61.4017 82.8299 65.8077C82.8299 70.2137 86.4016 73.7854 90.8076 73.7854ZM90.8076 75.1154C95.9481 75.1154 100.115 70.9482 100.115 65.8077C100.115 60.6672 95.9481 56.5 90.8076 56.5C85.6671 56.5 81.4999 60.6672 81.4999 65.8077C81.4999 70.9482 85.6671 75.1154 90.8076 75.1154Z" fill="#121312"/>
<path fill-rule="evenodd" clip-rule="evenodd" d="M101.544 87.6563C99.5292 90.3747 98.4823 93.6545 98.1422 95.8311C98.0867 96.1858 97.7543 96.4284 97.3996 96.373C97.0449 96.3175 96.8023 95.9851 96.8577 95.6304C97.2228 93.2942 98.3335 89.8048 100.5 86.8822C102.678 83.9435 105.957 81.5423 110.615 81.5423C115.271 81.5423 118.617 83.9403 120.882 86.8719C123.136 89.79 124.355 93.2758 124.793 95.611C124.859 95.9638 124.626 96.3035 124.274 96.3696C123.921 96.4358 123.581 96.2034 123.515 95.8505C123.107 93.6729 121.956 90.3895 119.853 87.6666C117.76 84.9572 114.76 82.8423 110.615 82.8423C106.474 82.8423 103.547 84.954 101.544 87.6563Z" fill="#121312"/>
<path d="M119.923 73.3077C119.923 78.4482 115.756 82.6154 110.615 82.6154C105.475 82.6154 101.308 78.4482 101.308 73.3077C101.308 68.1672 105.475 64 110.615 64C115.756 64 119.923 68.1672 119.923 73.3077Z" fill="white"/>
<path fill-rule="evenodd" clip-rule="evenodd" d="M110.615 81.2854C115.021 81.2854 118.593 77.7137 118.593 73.3077C118.593 68.9017 115.021 65.33 110.615 65.33C106.209 65.33 102.638 68.9017 102.638 73.3077C102.638 77.7137 106.209 81.2854 110.615 81.2854ZM110.615 82.6154C115.756 82.6154 119.923 78.4482 119.923 73.3077C119.923 68.1672 115.756 64 110.615 64C105.475 64 101.308 68.1672 101.308 73.3077C101.308 78.4482 105.475 82.6154 110.615 82.6154Z" fill="#121312"/>
</svg>
