<svg width="187" height="118" viewBox="0 0 187 118" fill="none" xmlns="http://www.w3.org/2000/svg">
<g opacity="0.5">
<path d="M124.976 36.5947C137.103 48.721 137.103 68.3818 124.976 80.5081C112.85 92.6345 93.1892 92.6345 81.0628 80.5081C68.9364 68.3818 68.9364 48.721 81.0628 36.5947C93.1892 24.4683 112.85 24.4683 124.976 36.5947Z" fill="white"/>
<path d="M124.976 36.5947C137.103 48.721 137.103 68.3818 124.976 80.5081C112.85 92.6345 93.1892 92.6345 81.0628 80.5081C68.9364 68.3818 68.9364 48.721 81.0628 36.5947C93.1892 24.4683 112.85 24.4683 124.976 36.5947Z" stroke="#F4FFF9" stroke-opacity="0.6" stroke-width="2.27711" stroke-linecap="round" stroke-linejoin="round"/>
<path d="M124.976 36.5947C137.103 48.721 137.103 68.3818 124.976 80.5081C112.85 92.6345 93.1892 92.6345 81.0628 80.5081C68.9364 68.3818 68.9364 48.721 81.0628 36.5947C93.1892 24.4683 112.85 24.4683 124.976 36.5947Z" stroke="url(#paint0_linear_8144_15564)" stroke-width="2.27711" stroke-linecap="round" stroke-linejoin="round"/>
</g>
<g opacity="0.5">
<path d="M73.7439 87.827C89.9124 103.996 116.127 103.996 132.295 87.827C148.464 71.6585 148.464 45.4442 132.295 29.2758C116.127 13.1073 89.9124 13.1073 73.7439 29.2758C57.5754 45.4442 57.5754 71.6585 73.7439 87.827Z" fill="white"/>
<path d="M73.7439 87.827C89.9124 103.996 116.127 103.996 132.295 87.827C148.464 71.6585 148.464 45.4442 132.295 29.2758C116.127 13.1073 89.9124 13.1073 73.7439 29.2758C57.5754 45.4442 57.5754 71.6585 73.7439 87.827Z" stroke="#F4FFF9" stroke-opacity="0.6" stroke-width="2.27711" stroke-linecap="round" stroke-linejoin="round"/>
<path d="M73.7439 87.827C89.9124 103.996 116.127 103.996 132.295 87.827C148.464 71.6585 148.464 45.4442 132.295 29.2758C116.127 13.1073 89.9124 13.1073 73.7439 29.2758C57.5754 45.4442 57.5754 71.6585 73.7439 87.827Z" stroke="url(#paint1_linear_8144_15564)" stroke-width="2.27711" stroke-linecap="round" stroke-linejoin="round"/>
</g>
<path d="M98.7908 87.827C114.959 103.996 141.174 103.996 157.342 87.827C173.511 71.6585 173.511 45.4442 157.342 29.2758C141.174 13.1073 114.959 13.1073 98.7908 29.2758C82.6223 45.4442 82.6223 71.6585 98.7908 87.827Z" fill="white"/>
<path d="M98.7908 87.827C114.959 103.996 141.174 103.996 157.342 87.827C173.511 71.6585 173.511 45.4442 157.342 29.2758C141.174 13.1073 114.959 13.1073 98.7908 29.2758C82.6223 45.4442 82.6223 71.6585 98.7908 87.827Z" stroke="#F4FFF9" stroke-opacity="0.6" stroke-width="2.27711" stroke-linecap="round" stroke-linejoin="round"/>
<path d="M98.7908 87.827C114.959 103.996 141.174 103.996 157.342 87.827C173.511 71.6585 173.511 45.4442 157.342 29.2758C141.174 13.1073 114.959 13.1073 98.7908 29.2758C82.6223 45.4442 82.6223 71.6585 98.7908 87.827Z" stroke="url(#paint2_linear_8144_15564)" stroke-width="2.27711" stroke-linecap="round" stroke-linejoin="round"/>
<path d="M150.023 36.5947C162.15 48.721 162.15 68.3818 150.023 80.5081C137.897 92.6345 118.236 92.6345 106.11 80.5081C93.9833 68.3818 93.9833 48.721 106.11 36.5947C118.236 24.4683 137.897 24.4683 150.023 36.5947Z" fill="white"/>
<path d="M150.023 36.5947C162.15 48.721 162.15 68.3818 150.023 80.5081C137.897 92.6345 118.236 92.6345 106.11 80.5081C93.9833 68.3818 93.9833 48.721 106.11 36.5947C118.236 24.4683 137.897 24.4683 150.023 36.5947Z" stroke="#F4FFF9" stroke-opacity="0.6" stroke-width="2.27711" stroke-linecap="round" stroke-linejoin="round"/>
<path d="M150.023 36.5947C162.15 48.721 162.15 68.3818 150.023 80.5081C137.897 92.6345 118.236 92.6345 106.11 80.5081C93.9833 68.3818 93.9833 48.721 106.11 36.5947C118.236 24.4683 137.897 24.4683 150.023 36.5947Z" stroke="url(#paint3_linear_8144_15564)" stroke-width="2.27711" stroke-linecap="round" stroke-linejoin="round"/>
<path d="M4.61719 80.8375L4.61719 80.7807M21.6973 80.8375L21.6973 80.7807M9.95472 58.0949L9.95472 58.038M27.0348 58.0949L27.0348 58.038M4.61719 35.3522L4.61719 35.2953M21.6973 35.3522L21.6973 35.2953M39.1291 80.8375L39.1291 80.7807M44.4666 58.0949L44.4666 58.038M39.1291 35.3522L39.1291 35.2953" stroke="url(#paint4_linear_8144_15564)" stroke-width="9.23673" stroke-linecap="round" stroke-linejoin="round"/>
<defs>
<linearGradient id="paint0_linear_8144_15564" x1="100.349" y1="18.4321" x2="152.304" y2="109.125" gradientUnits="userSpaceOnUse">
<stop stop-color="#C3C3C3"/>
<stop offset="0.475962" stop-color="#CCCBCB"/>
<stop offset="1" stop-color="#E0E0E0"/>
</linearGradient>
<linearGradient id="paint1_linear_8144_15564" x1="100.349" y1="18.4321" x2="152.304" y2="109.125" gradientUnits="userSpaceOnUse">
<stop stop-color="#C3C3C3"/>
<stop offset="0.475962" stop-color="#CCCBCB"/>
<stop offset="1" stop-color="#E0E0E0"/>
</linearGradient>
<linearGradient id="paint2_linear_8144_15564" x1="125.396" y1="18.4321" x2="177.351" y2="109.125" gradientUnits="userSpaceOnUse">
<stop stop-color="#C3C3C3"/>
<stop offset="0.475962" stop-color="#CCCBCB"/>
<stop offset="1" stop-color="#E0E0E0"/>
</linearGradient>
<linearGradient id="paint3_linear_8144_15564" x1="125.396" y1="18.4321" x2="177.351" y2="109.125" gradientUnits="userSpaceOnUse">
<stop stop-color="#C3C3C3"/>
<stop offset="0.475962" stop-color="#CCCBCB"/>
<stop offset="1" stop-color="#E0E0E0"/>
</linearGradient>
<linearGradient id="paint4_linear_8144_15564" x1="4.61719" y1="80.8126" x2="50.32" y2="84.0229" gradientUnits="userSpaceOnUse">
<stop stop-color="#C3C3C3" stop-opacity="0.02"/>
<stop offset="1" stop-color="#E0E0E0"/>
</linearGradient>
</defs>
</svg>
