<svg width="187" height="118" viewBox="0 0 187 118" fill="none" xmlns="http://www.w3.org/2000/svg">
<g opacity="0.5">
<path d="M124.976 36.5947C137.103 48.721 137.103 68.3818 124.976 80.5081C112.85 92.6345 93.1892 92.6345 81.0628 80.5081C68.9364 68.3818 68.9364 48.721 81.0628 36.5947C93.1892 24.4683 112.85 24.4683 124.976 36.5947Z" fill="#1C1C1C"/>
<path d="M124.976 36.5947C137.103 48.721 137.103 68.3818 124.976 80.5081C112.85 92.6345 93.1892 92.6345 81.0628 80.5081C68.9364 68.3818 68.9364 48.721 81.0628 36.5947C93.1892 24.4683 112.85 24.4683 124.976 36.5947Z" stroke="#F4FFF9" stroke-opacity="0.6" stroke-width="2.27711" stroke-linecap="round" stroke-linejoin="round"/>
<path d="M124.976 36.5947C137.103 48.721 137.103 68.3818 124.976 80.5081C112.85 92.6345 93.1892 92.6345 81.0628 80.5081C68.9364 68.3818 68.9364 48.721 81.0628 36.5947C93.1892 24.4683 112.85 24.4683 124.976 36.5947Z" stroke="#303033" stroke-width="2.27711" stroke-linecap="round" stroke-linejoin="round"/>
</g>
<g opacity="0.5">
<path d="M73.7439 87.8269C89.9124 103.995 116.127 103.995 132.295 87.8269C148.464 71.6584 148.464 45.4441 132.295 29.2756C116.127 13.1071 89.9124 13.1071 73.7439 29.2756C57.5754 45.4441 57.5754 71.6584 73.7439 87.8269Z" fill="#1C1C1C"/>
<path d="M73.7439 87.8269C89.9124 103.995 116.127 103.995 132.295 87.8269C148.464 71.6584 148.464 45.4441 132.295 29.2756C116.127 13.1071 89.9124 13.1071 73.7439 29.2756C57.5754 45.4441 57.5754 71.6584 73.7439 87.8269Z" stroke="#F4FFF9" stroke-opacity="0.6" stroke-width="2.27711" stroke-linecap="round" stroke-linejoin="round"/>
<path d="M73.7439 87.8269C89.9124 103.995 116.127 103.995 132.295 87.8269C148.464 71.6584 148.464 45.4441 132.295 29.2756C116.127 13.1071 89.9124 13.1071 73.7439 29.2756C57.5754 45.4441 57.5754 71.6584 73.7439 87.8269Z" stroke="#303033" stroke-width="2.27711" stroke-linecap="round" stroke-linejoin="round"/>
</g>
<path d="M98.7908 87.8269C114.959 103.995 141.174 103.995 157.342 87.8269C173.511 71.6584 173.511 45.4441 157.342 29.2756C141.174 13.1071 114.959 13.1071 98.7908 29.2756C82.6223 45.4441 82.6223 71.6584 98.7908 87.8269Z" fill="#1C1C1C"/>
<path d="M98.7908 87.8269C114.959 103.995 141.174 103.995 157.342 87.8269C173.511 71.6584 173.511 45.4441 157.342 29.2756C141.174 13.1071 114.959 13.1071 98.7908 29.2756C82.6223 45.4441 82.6223 71.6584 98.7908 87.8269Z" stroke="#F4FFF9" stroke-opacity="0.6" stroke-width="2.27711" stroke-linecap="round" stroke-linejoin="round"/>
<path d="M98.7908 87.8269C114.959 103.995 141.174 103.995 157.342 87.8269C173.511 71.6584 173.511 45.4441 157.342 29.2756C141.174 13.1071 114.959 13.1071 98.7908 29.2756C82.6223 45.4441 82.6223 71.6584 98.7908 87.8269Z" stroke="#303033" stroke-width="2.27711" stroke-linecap="round" stroke-linejoin="round"/>
<path d="M150.023 36.5947C162.15 48.721 162.15 68.3818 150.023 80.5081C137.897 92.6345 118.236 92.6345 106.11 80.5081C93.9833 68.3818 93.9833 48.721 106.11 36.5947C118.236 24.4683 137.897 24.4683 150.023 36.5947Z" fill="#1C1C1C"/>
<path d="M150.023 36.5947C162.15 48.721 162.15 68.3818 150.023 80.5081C137.897 92.6345 118.236 92.6345 106.11 80.5081C93.9833 68.3818 93.9833 48.721 106.11 36.5947C118.236 24.4683 137.897 24.4683 150.023 36.5947Z" stroke="#F4FFF9" stroke-opacity="0.6" stroke-width="2.27711" stroke-linecap="round" stroke-linejoin="round"/>
<path d="M150.023 36.5947C162.15 48.721 162.15 68.3818 150.023 80.5081C137.897 92.6345 118.236 92.6345 106.11 80.5081C93.9833 68.3818 93.9833 48.721 106.11 36.5947C118.236 24.4683 137.897 24.4683 150.023 36.5947Z" stroke="#303033" stroke-width="2.27711" stroke-linecap="round" stroke-linejoin="round"/>
<path d="M4.61719 80.8374L4.61719 80.7805M21.6973 80.8374L21.6973 80.7805M9.95472 58.0947L9.95472 58.0379M27.0348 58.0947L27.0348 58.0379M4.61719 35.3521L4.61719 35.2952M21.6973 35.3521L21.6973 35.2952M39.1291 80.8374L39.1291 80.7805M44.4666 58.0947L44.4666 58.0379M39.1291 35.3521L39.1291 35.2952" stroke="url(#paint0_linear_8359_13699)" stroke-width="9.23673" stroke-linecap="round" stroke-linejoin="round"/>
<defs>
<linearGradient id="paint0_linear_8359_13699" x1="4.61719" y1="80.8125" x2="50.32" y2="84.0228" gradientUnits="userSpaceOnUse">
<stop stop-color="#1C1C1C"/>
<stop offset="1" stop-color="#444343"/>
</linearGradient>
</defs>
</svg>
