<svg width="56" height="66" viewBox="0 0 56 66" fill="none" xmlns="http://www.w3.org/2000/svg">
<path d="M7.2959 11.125C11.3829 8.36744 16.9236 7.51524 23.1758 9.19043C30.0449 11.031 36.4687 15.5732 41.2988 21.4326C46.129 27.2921 49.3623 34.4645 49.8584 41.5586C50.3989 49.2881 47.5783 55.3253 42.6865 58.626C38.5995 61.3835 33.0588 62.2367 26.8066 60.5615C19.9375 58.7209 13.5138 54.1778 8.68359 48.3184C3.85361 42.459 0.620165 35.2873 0.124023 28.1934C-0.416485 20.4637 2.40398 14.4257 7.2959 11.125Z" fill="black" stroke="#12FF80" stroke-width="0.115859"/>
<path d="M25.1211 7.90332C31.9809 9.74814 38.3944 14.2872 43.2188 20.1396C48.0413 25.9898 51.2724 33.1483 51.7764 40.2314L49.9648 41.4521C49.4434 34.3626 46.2063 27.209 41.3867 21.3623C36.5724 15.522 30.1765 10.9827 23.3252 9.11426L25.1211 7.90332Z" fill="black" stroke="#12FF80" stroke-width="0.115859" stroke-linejoin="round"/>
<path d="M51.7856 40.3635C52.2948 48.0451 49.4787 54.0449 44.6079 57.3313L44.2271 57.5872C48.2318 54.1075 50.4527 48.5195 49.9761 41.5842L51.7856 40.3635Z" fill="black" stroke="#12FF80" stroke-width="0.115859" stroke-linejoin="round"/>
<path d="M9.21631 9.82886C13.2761 7.08965 18.7701 6.23143 24.9712 7.86206L23.1792 9.07104C17.7047 7.60986 12.7649 8.0767 8.86084 10.0681L9.21631 9.82886Z" fill="black" stroke="#12FF80" stroke-width="0.115859" stroke-linejoin="round"/>
<path d="M42.6865 58.6292C38.6263 61.3684 33.1323 62.2262 26.9307 60.595L28.7236 59.386C34.197 60.8471 39.1353 60.381 43.0391 58.3909L42.6865 58.6292Z" fill="black" stroke="#12FF80" stroke-width="0.115859" stroke-linejoin="round"/>
<path d="M7.67676 10.8652C3.67177 14.3447 1.45126 19.9338 1.92773 26.8691L0.118164 28.0889C-0.390557 20.4081 2.42557 14.4092 7.2959 11.123L7.67676 10.8652Z" fill="black" stroke="#12FF80" stroke-width="0.115859" stroke-linejoin="round"/>
<path d="M1.94043 27.0022C2.46139 34.0925 5.69843 41.2477 10.5186 47.095C15.3325 52.9348 21.7284 57.4733 28.5791 59.342L26.7832 60.552C19.9241 58.7068 13.5114 54.1686 8.6875 48.3167C3.8647 42.4661 0.632559 35.3074 0.128906 28.2239L1.94043 27.0022Z" fill="black" stroke="#12FF80" stroke-width="0.115859" stroke-linejoin="round"/>
<circle cx="25.8045" cy="25.8045" r="25.7466" transform="matrix(0.965926 0.258819 0.0697565 0.997564 0.190918 1.15845)" fill="black" stroke="#12FF80" stroke-width="0.115859"/>
<path d="M34.2627 36.1429L32.7754 35.5116C32.3313 35.3231 32.0485 35.5663 32.1434 36.055L32.605 38.4294C32.7 38.918 32.4171 39.1612 31.973 38.9727L26.0573 36.4616C25.6132 36.2731 25.3303 36.5163 25.4253 37.0049L25.7433 38.6413C25.8383 39.1299 26.2751 39.6786 26.7192 39.8671L32.9779 42.5238C33.422 42.7123 33.7 42.467 33.605 41.9784L33.3499 40.6656C33.2549 40.177 33.5473 39.9828 33.9914 40.1713L35.1405 40.6591C35.5846 40.8476 35.8675 40.6044 35.7725 40.1158L35.2365 37.358C35.1415 36.8693 34.7066 36.3308 34.2625 36.1423L34.2627 36.1429ZM23.8155 28.726C23.7205 28.2373 24.0034 27.9941 24.4475 28.1826L30.3599 30.6923C30.804 30.8808 31.0869 30.6376 30.9919 30.149L30.6739 28.5126C30.5789 28.024 30.1421 27.4753 29.698 27.2868L23.4431 24.6318C22.999 24.4432 22.7161 24.6864 22.8111 25.1751L23.0561 26.4358C23.1511 26.9245 22.8682 27.1677 22.4241 26.9792L21.2794 26.4932C20.8353 26.3047 20.5524 26.5479 20.6474 27.0366L21.184 29.7973C21.279 30.286 21.7136 30.8156 22.1577 31.0041L23.6449 31.6354C24.089 31.8239 24.3719 31.5807 24.2769 31.0921L23.8155 28.726ZM27.1749 31.5562C26.7091 31.3584 26.4127 31.614 26.5122 32.126L26.8177 33.6977C26.9173 34.2103 27.3758 34.7857 27.8411 34.9832L29.2696 35.5896C29.7354 35.7873 30.0319 35.5318 29.9324 35.0198L29.6269 33.4481C29.5272 32.9355 29.0688 32.3601 28.6035 32.1626L27.1749 31.5562Z" fill="#12FF80"/>
<path d="M9.14795 9.96924C13.235 7.21168 18.7757 6.35948 25.0278 8.03467C31.8969 9.87524 38.3207 14.4175 43.1509 20.2769C47.981 26.1363 51.2144 33.3087 51.7104 40.4028C52.2509 48.1323 49.4303 54.1695 44.5386 57.4702C40.4516 60.2278 34.9108 61.0809 28.6587 59.4058C21.7895 57.5652 15.3658 53.0221 10.5356 47.1626C5.70566 41.3033 2.47222 34.1315 1.97607 27.0376C1.43557 19.308 4.25603 13.2699 9.14795 9.96924Z" fill="black" stroke="#12FF80" stroke-width="0.115859"/>
<path d="M26.9749 6.7439C33.8347 8.58872 40.2481 13.1278 45.0725 18.9802C49.895 24.8304 53.1262 31.9889 53.6301 39.072L51.8186 40.2927C51.2971 33.2031 48.0601 26.0495 43.2405 20.2029C38.4261 14.3626 32.0303 9.82332 25.179 7.95483L26.9749 6.7439Z" fill="black" stroke="#12FF80" stroke-width="0.115859" stroke-linejoin="round"/>
<path d="M53.6414 39.2041C54.1506 46.8857 51.3344 52.8855 46.4636 56.1719L46.0828 56.4277C50.0875 52.9481 52.3084 47.3601 51.8318 40.4248L53.6414 39.2041Z" fill="black" stroke="#12FF80" stroke-width="0.115859" stroke-linejoin="round"/>
<path d="M11.0703 8.67139C15.1301 5.93218 20.6241 5.07396 26.8252 6.70459L25.0332 7.91357C19.5587 6.45239 14.6189 6.91923 10.7148 8.91064L11.0703 8.67139Z" fill="black" stroke="#12FF80" stroke-width="0.115859" stroke-linejoin="round"/>
<path d="M44.5422 57.4678C40.482 60.207 34.988 61.0648 28.7864 59.4336L30.5793 58.2246C36.0527 59.6857 40.991 59.2196 44.8948 57.2295L44.5422 57.4678Z" fill="black" stroke="#12FF80" stroke-width="0.115859" stroke-linejoin="round"/>
<path d="M9.52881 9.70581C5.52382 13.1853 3.30331 18.7744 3.77979 25.7097L1.97021 26.9294C1.46149 19.2487 4.27762 13.2498 9.14795 9.96362L9.52881 9.70581Z" fill="black" stroke="#12FF80" stroke-width="0.115859" stroke-linejoin="round"/>
<path d="M3.79248 25.8445C4.31345 32.9348 7.55049 40.09 12.3706 45.9373C17.1846 51.777 23.5804 56.3156 30.4312 58.1843L28.6353 59.3943C21.7761 57.5491 15.3635 53.0108 10.5396 47.1589C5.71675 41.3084 2.48461 34.1497 1.98096 27.0662L3.79248 25.8445Z" fill="black" stroke="#12FF80" stroke-width="0.115859" stroke-linejoin="round"/>
<circle cx="25.8045" cy="25.8045" r="25.7466" transform="matrix(0.965926 0.258819 0.0697565 0.997564 2.04053 0)" fill="black" stroke="#12FF80" stroke-width="0.115859"/>
<path d="M36.1159 34.9862L34.6287 34.3549C34.1846 34.1664 33.9017 34.4096 33.9967 34.8982L34.4582 37.2726C34.5532 37.7613 34.2703 38.0045 33.8262 37.816L27.9105 35.3049C27.4664 35.1164 27.1836 35.3596 27.2785 35.8482L27.5966 37.4846C27.6916 37.9732 28.1284 38.5219 28.5725 38.7104L34.8312 41.3671C35.2753 41.5556 35.5533 41.3103 35.4583 40.8217L35.2031 39.5089C35.1082 39.0202 35.4006 38.8261 35.8447 39.0146L36.9938 39.5024C37.4379 39.6909 37.7208 39.4477 37.6258 38.959L37.0897 36.2012C36.9947 35.7126 36.56 35.1747 36.1159 34.9862ZM25.6688 27.5692C25.5738 27.0806 25.8567 26.8374 26.3008 27.0259L32.2132 29.5356C32.6573 29.7241 32.9402 29.4809 32.8452 28.9923L32.5271 27.3559C32.4322 26.8673 31.9954 26.3186 31.5513 26.1301L25.2963 23.475C24.8522 23.2865 24.5694 23.5297 24.6643 24.0183L24.9094 25.2791C25.0044 25.7677 24.7215 26.0109 24.2774 25.8224L23.1326 25.3365C22.6885 25.148 22.4057 25.3912 22.5006 25.8798L23.0373 28.6406C23.1323 29.1292 23.5669 29.6589 24.011 29.8474L25.4982 30.4787C25.9423 30.6672 26.2252 30.424 26.1302 29.9354L25.6688 27.5692ZM29.0282 30.3995C28.5624 30.2017 28.2659 30.4573 28.3654 30.9692L28.671 32.541C28.7706 33.0536 29.2291 33.629 29.6944 33.8265L31.1229 34.4329C31.5887 34.6306 31.8852 34.3751 31.7856 33.8631L31.4801 32.2913C31.3805 31.7788 30.922 31.2033 30.4567 31.0058L29.0282 30.3995Z" fill="#12FF80"/>
</svg>
