<svg width="24" height="24" viewBox="0 0 24 24" fill="none" xmlns="http://www.w3.org/2000/svg">
<path d="M9.46973 8.46973C9.76262 8.17683 10.2374 8.17683 10.5303 8.46973C10.8232 8.76262 10.8232 9.23738 10.5303 9.53027L8.06055 12L10.5303 14.4697C10.8232 14.7626 10.8232 15.2374 10.5303 15.5303C10.2374 15.8232 9.76262 15.8232 9.46973 15.5303L6.46973 12.5303C6.17683 12.2374 6.17683 11.7626 6.46973 11.4697L9.46973 8.46973Z" fill="#0A0A0A"/>
<path d="M13.4697 8.46973C13.7626 8.17683 14.2374 8.17683 14.5303 8.46973L17.5303 11.4697C17.8232 11.7626 17.8232 12.2374 17.5303 12.5303L14.5303 15.5303C14.2374 15.8232 13.7626 15.8232 13.4697 15.5303C13.1768 15.2374 13.1768 14.7626 13.4697 14.4697L15.9395 12L13.4697 9.53027C13.1768 9.23738 13.1768 8.76262 13.4697 8.46973Z" fill="#0A0A0A"/>
<path d="M20.25 5C20.25 4.30964 19.6904 3.75 19 3.75H5C4.30964 3.75 3.75 4.30964 3.75 5V19C3.75 19.6904 4.30964 20.25 5 20.25H19C19.6904 20.25 20.25 19.6904 20.25 19V5ZM21.75 19C21.75 20.5188 20.5188 21.75 19 21.75H5C3.48122 21.75 2.25 20.5188 2.25 19V5C2.25 3.48122 3.48122 2.25 5 2.25H19C20.5188 2.25 21.75 3.48122 21.75 5V19Z" fill="#0A0A0A"/>
</svg>
