<svg width="296" height="154" viewBox="0 0 296 154" fill="none" xmlns="http://www.w3.org/2000/svg">
<g filter="url(#filter0_d_12085_93283)">
<rect x="32" y="46.9189" width="217" height="59.2281" rx="19.9067" fill="white" fill-opacity="0.1" shape-rendering="crispEdges"/>
<g filter="url(#filter1_d_12085_93283)">
<path d="M37.3086 66.8385C37.3086 58.7689 43.8503 52.2273 51.9198 52.2273L229.08 52.2273C237.15 52.2273 243.692 58.769 243.692 66.8385V86.2273C243.692 94.2968 237.15 100.838 229.08 100.838H51.9198C43.8502 100.838 37.3086 94.2968 37.3086 86.2273V66.8385Z" fill="black" fill-opacity="0.8" shape-rendering="crispEdges"/>
<g clip-path="url(#clip0_12085_93283)">
<path d="M42.6562 73.1371C42.6562 67.0849 47.5625 62.1787 53.6146 62.1787H60.9203C66.9724 62.1787 71.8786 67.085 71.8786 73.1371V80.4427C71.8786 86.4949 66.9724 91.4011 60.9202 91.4011H53.6146C47.5625 91.4011 42.6562 86.4949 42.6562 80.4427V73.1371Z" fill="#4ADE80"/>
<path d="M53.1361 80.7898L56.4218 71.8404H58.135L61.3951 80.7898H59.7714L57.2656 73.6303L54.747 80.7898H53.1361ZM54.5936 78.6803L55.0155 77.4657H59.4134L59.8226 78.6803H54.5936Z" fill="#1F201F"/>
</g>
<path d="M77.8738 72.533L81.1723 63.5836H82.3101L85.5958 72.533H84.4579L81.7348 64.926L78.9988 72.533H77.8738ZM79.3824 70.2317L79.6892 69.3623H83.742L84.0488 70.2317H79.3824ZM89.4276 72.6864C88.8225 72.6864 88.277 72.5457 87.7912 72.2645C87.3139 71.9747 86.9389 71.5741 86.6661 71.0627C86.3934 70.5513 86.257 69.959 86.257 69.2856C86.257 68.5952 86.3934 67.9986 86.6661 67.4957C86.9389 66.9844 87.3139 66.588 87.7912 66.3068C88.277 66.017 88.8268 65.8721 89.4404 65.8721C90.199 65.8721 90.834 66.0724 91.3454 66.473C91.8568 66.8736 92.1849 67.4063 92.3298 68.0711H91.2303C91.1365 67.6705 90.9235 67.3594 90.5911 67.1378C90.2587 66.9076 89.8666 66.7926 89.4149 66.7926C89.0484 66.7926 88.7074 66.8863 88.3921 67.0738C88.0767 67.2614 87.8253 67.5384 87.6378 67.9049C87.4503 68.2714 87.3565 68.7316 87.3565 69.2856C87.3565 69.6862 87.4119 70.0442 87.5227 70.3595C87.6335 70.6749 87.7827 70.9391 87.9702 71.1522C88.1577 71.3568 88.375 71.5144 88.6222 71.6252C88.8779 71.7275 89.1421 71.7787 89.4149 71.7787C89.7217 71.7787 89.9987 71.7275 90.2459 71.6252C90.493 71.523 90.7019 71.3738 90.8723 71.1778C91.0513 70.9817 91.1706 70.7516 91.2303 70.4874H92.3298C92.1934 71.1437 91.8653 71.6764 91.3454 72.0855C90.8254 72.4861 90.1862 72.6864 89.4276 72.6864ZM93.8543 72.533V66.0255H94.8259L94.8898 66.946C95.0944 66.6051 95.3671 66.3409 95.7081 66.1533C96.0575 65.9658 96.4368 65.8721 96.8459 65.8721C97.1698 65.8721 97.4639 65.919 97.7281 66.0127C98.0008 66.0979 98.2395 66.2343 98.444 66.4218C98.6486 66.6008 98.8105 66.8309 98.9298 67.1122C99.1514 66.7116 99.454 66.4048 99.8376 66.1917C100.23 65.9786 100.643 65.8721 101.078 65.8721C101.572 65.8721 102.002 65.9701 102.369 66.1661C102.735 66.3622 103.017 66.6647 103.213 67.0738C103.417 67.4744 103.52 67.9773 103.52 68.5825V72.533H102.458V68.6975C102.458 68.0668 102.326 67.5938 102.062 67.2784C101.798 66.9545 101.427 66.7926 100.95 66.7926C100.626 66.7926 100.332 66.8778 100.068 67.0483C99.8035 67.2187 99.5947 67.4702 99.4412 67.8026C99.2963 68.1265 99.2239 68.5271 99.2239 69.0044V72.533H98.15V68.6975C98.15 68.0668 98.0179 67.5938 97.7536 67.2784C97.4894 66.9545 97.1187 66.7926 96.6414 66.7926C96.326 66.7926 96.0362 66.8778 95.772 67.0483C95.5163 67.2187 95.3117 67.4702 95.1583 67.8026C95.0049 68.1265 94.9282 68.5271 94.9282 69.0044V72.533H93.8543ZM108.029 72.6864C107.424 72.6864 106.887 72.5457 106.418 72.2645C105.958 71.9832 105.595 71.5869 105.331 71.0755C105.067 70.5641 104.935 69.9675 104.935 69.2856C104.935 68.5952 105.063 67.9944 105.318 67.483C105.583 66.9716 105.949 66.5752 106.418 66.294C106.895 66.0127 107.441 65.8721 108.054 65.8721C108.685 65.8721 109.218 66.0127 109.652 66.294C110.096 66.5752 110.432 66.9503 110.662 67.419C110.893 67.8793 111.008 68.3864 111.008 68.9404C111.008 69.0257 111.008 69.1152 111.008 69.2089C111.008 69.3027 111.003 69.4092 110.995 69.5285H105.74V68.6975H109.959C109.934 68.0838 109.738 67.6108 109.371 67.2784C109.013 66.946 108.566 66.7798 108.029 66.7798C107.662 66.7798 107.321 66.865 107.006 67.0355C106.699 67.1974 106.452 67.4403 106.264 67.7642C106.077 68.0881 105.983 68.4972 105.983 68.9916V69.3495C105.983 69.8865 106.077 70.3382 106.264 70.7047C106.46 71.0627 106.712 71.3312 107.019 71.5102C107.334 71.6892 107.671 71.7787 108.029 71.7787C108.48 71.7787 108.851 71.6806 109.141 71.4846C109.431 71.2886 109.64 71.0201 109.767 70.6792H110.829C110.726 71.0627 110.547 71.4079 110.292 71.7147C110.036 72.013 109.716 72.2517 109.333 72.4307C108.958 72.6011 108.523 72.6864 108.029 72.6864ZM118.039 72.533V64.4658H115.367V63.5836H121.785V64.4658H119.113V72.533H118.039ZM122.333 72.533V66.0255H123.305L123.381 67.2528C123.526 66.9545 123.714 66.7031 123.944 66.4985C124.182 66.294 124.464 66.1406 124.788 66.0383C125.12 65.9275 125.491 65.8721 125.9 65.8721V66.9971H125.452C125.18 66.9971 124.92 67.0355 124.673 67.1122C124.425 67.1804 124.204 67.2955 124.008 67.4574C123.82 67.6108 123.671 67.8239 123.56 68.0966C123.458 68.3694 123.407 68.7103 123.407 69.1194V72.533H122.333ZM129.715 72.6864C129.11 72.6864 128.573 72.5457 128.105 72.2645C127.644 71.9832 127.282 71.5869 127.018 71.0755C126.754 70.5641 126.622 69.9675 126.622 69.2856C126.622 68.5952 126.749 67.9944 127.005 67.483C127.269 66.9716 127.636 66.5752 128.105 66.294C128.582 66.0127 129.127 65.8721 129.741 65.8721C130.372 65.8721 130.904 66.0127 131.339 66.294C131.782 66.5752 132.119 66.9503 132.349 67.419C132.579 67.8793 132.694 68.3864 132.694 68.9404C132.694 69.0257 132.694 69.1152 132.694 69.2089C132.694 69.3027 132.69 69.4092 132.682 69.5285H127.427V68.6975H131.646C131.62 68.0838 131.424 67.6108 131.058 67.2784C130.7 66.946 130.252 66.7798 129.715 66.7798C129.349 66.7798 129.008 66.865 128.693 67.0355C128.386 67.1974 128.139 67.4403 127.951 67.7642C127.764 68.0881 127.67 68.4972 127.67 68.9916V69.3495C127.67 69.8865 127.764 70.3382 127.951 70.7047C128.147 71.0627 128.399 71.3312 128.705 71.5102C129.021 71.6892 129.357 71.7787 129.715 71.7787C130.167 71.7787 130.538 71.6806 130.828 71.4846C131.118 71.2886 131.326 71.0201 131.454 70.6792H132.515C132.413 71.0627 132.234 71.4079 131.978 71.7147C131.723 72.013 131.403 72.2517 131.019 72.4307C130.644 72.6011 130.21 72.6864 129.715 72.6864ZM136.253 72.6864C135.733 72.6864 135.298 72.5969 134.949 72.4179C134.608 72.2304 134.352 71.9832 134.182 71.6764C134.011 71.3695 133.926 71.0371 133.926 70.6792C133.926 70.236 134.037 69.8652 134.259 69.5669C134.489 69.2601 134.808 69.0299 135.217 68.8765C135.635 68.7146 136.121 68.6336 136.675 68.6336H138.375C138.375 68.216 138.316 67.8708 138.196 67.598C138.077 67.3253 137.898 67.1207 137.659 66.9844C137.429 66.848 137.135 66.7798 136.777 66.7798C136.377 66.7798 136.031 66.8821 135.742 67.0866C135.452 67.2827 135.273 67.5767 135.205 67.9688H134.105C134.156 67.5171 134.31 67.1378 134.565 66.8309C134.821 66.5156 135.145 66.2769 135.537 66.115C135.929 65.953 136.343 65.8721 136.777 65.8721C137.374 65.8721 137.868 65.9829 138.26 66.2045C138.661 66.4176 138.959 66.7201 139.155 67.1122C139.351 67.4957 139.449 67.9475 139.449 68.4674V72.533H138.49L138.426 71.3951C138.341 71.5741 138.23 71.7446 138.094 71.9065C137.966 72.0599 137.813 72.1963 137.634 72.3156C137.455 72.4264 137.25 72.5159 137.02 72.5841C136.799 72.6523 136.543 72.6864 136.253 72.6864ZM136.419 71.7787C136.718 71.7787 136.986 71.719 137.225 71.5997C137.463 71.4718 137.668 71.3014 137.838 71.0883C138.017 70.8667 138.149 70.6238 138.235 70.3595C138.328 70.0868 138.375 69.8055 138.375 69.5157V69.4646H136.764C136.355 69.4646 136.023 69.5157 135.767 69.618C135.512 69.7118 135.328 69.8482 135.217 70.0271C135.107 70.1976 135.051 70.3979 135.051 70.628C135.051 70.8582 135.102 71.0627 135.205 71.2417C135.316 71.4122 135.473 71.5443 135.678 71.638C135.882 71.7318 136.129 71.7787 136.419 71.7787ZM143.565 72.6864C143.019 72.6864 142.546 72.5969 142.146 72.4179C141.745 72.2389 141.43 71.9875 141.199 71.6636C140.978 71.3397 140.842 70.9604 140.79 70.5257H141.89C141.932 70.7559 142.018 70.9647 142.146 71.1522C142.282 71.3397 142.469 71.4931 142.708 71.6125C142.947 71.7233 143.237 71.7787 143.577 71.7787C143.876 71.7787 144.123 71.736 144.319 71.6508C144.515 71.5571 144.664 71.4335 144.766 71.28C144.869 71.1266 144.92 70.9562 144.92 70.7687C144.92 70.4959 144.856 70.2914 144.728 70.155C144.609 70.0101 144.43 69.8993 144.191 69.8226C143.952 69.7373 143.663 69.6692 143.322 69.618C143.015 69.5669 142.725 69.4987 142.452 69.4135C142.18 69.3197 141.937 69.2004 141.724 69.0555C141.511 68.9106 141.344 68.7316 141.225 68.5185C141.106 68.3055 141.046 68.0498 141.046 67.7514C141.046 67.3849 141.14 67.0611 141.327 66.7798C141.523 66.4985 141.796 66.2769 142.146 66.115C142.504 65.953 142.921 65.8721 143.398 65.8721C144.097 65.8721 144.66 66.0383 145.086 66.3707C145.512 66.7031 145.759 67.1804 145.828 67.8026H144.766C144.732 67.4872 144.596 67.2401 144.357 67.0611C144.119 66.8736 143.795 66.7798 143.386 66.7798C142.977 66.7798 142.665 66.8608 142.452 67.0227C142.239 67.1847 142.133 67.3977 142.133 67.662C142.133 67.8409 142.188 67.9986 142.299 68.135C142.41 68.2714 142.58 68.3864 142.81 68.4802C143.04 68.5739 143.33 68.6549 143.68 68.7231C144.123 68.7913 144.519 68.8893 144.869 69.0171C145.218 69.145 145.495 69.3368 145.7 69.5925C145.913 69.8482 146.019 70.2104 146.019 70.6792C146.019 71.0883 145.917 71.442 145.713 71.7403C145.508 72.0386 145.222 72.273 144.856 72.4435C144.489 72.6054 144.059 72.6864 143.565 72.6864ZM149.93 72.6864C149.436 72.6864 149.006 72.5884 148.639 72.3923C148.273 72.1963 147.987 71.898 147.782 71.4974C147.578 71.0968 147.476 70.5897 147.476 69.976V66.0255H148.55V69.8609C148.55 70.5002 148.69 70.9775 148.971 71.2928C149.261 71.6082 149.662 71.7659 150.173 71.7659C150.531 71.7659 150.851 71.6806 151.132 71.5102C151.413 71.3397 151.635 71.0925 151.797 70.7687C151.967 70.4448 152.053 70.0484 152.053 69.5797V66.0255H153.126V72.533H152.155L152.091 71.4207C151.903 71.8213 151.618 72.1324 151.234 72.354C150.851 72.5756 150.416 72.6864 149.93 72.6864ZM154.919 72.533V66.0255H155.891L155.968 67.2528C156.112 66.9545 156.3 66.7031 156.53 66.4985C156.769 66.294 157.05 66.1406 157.374 66.0383C157.706 65.9275 158.077 65.8721 158.486 65.8721V66.9971H158.039C157.766 66.9971 157.506 67.0355 157.259 67.1122C157.012 67.1804 156.79 67.2955 156.594 67.4574C156.406 67.6108 156.257 67.8239 156.147 68.0966C156.044 68.3694 155.993 68.7103 155.993 69.1194V72.533H154.919ZM160.429 75.3456L161.989 71.817H161.618L159.087 66.0255H160.25L162.347 71.0116L164.546 66.0255H165.658L161.554 75.3456H160.429Z" fill="#F5F5F5"/>
<path opacity="0.6" d="M79.8901 89.533L77.7861 81.8621H78.7724L80.4271 88.4371L82.3119 81.8621H83.3311L85.1611 88.459L86.8377 81.8621H87.824L85.6762 89.533H84.6242L82.7941 83.188L80.9202 89.533H79.8901ZM90.7934 89.6645C90.2674 89.6645 89.7998 89.5439 89.3907 89.3028C88.9816 89.0544 88.6602 88.7074 88.4264 88.2618C88.1999 87.8161 88.0867 87.2974 88.0867 86.7057C88.0867 86.0993 88.2036 85.577 88.4373 85.1386C88.6711 84.693 88.9926 84.3496 89.4017 84.1086C89.8181 83.8602 90.2893 83.736 90.8153 83.736C91.3486 83.736 91.8198 83.8602 92.2289 84.1086C92.6381 84.3496 92.9558 84.693 93.1823 85.1386C93.4088 85.577 93.522 86.0957 93.522 86.6947C93.522 87.2938 93.4051 87.8161 93.1714 88.2618C92.9449 88.7074 92.6234 89.0544 92.207 89.3028C91.7979 89.5439 91.3267 89.6645 90.7934 89.6645ZM90.7934 88.8755C91.1294 88.8755 91.4326 88.7951 91.7029 88.6344C91.9732 88.4736 92.1851 88.2326 92.3385 87.9111C92.4992 87.5824 92.5796 87.1769 92.5796 86.6947C92.5796 86.2126 92.5029 85.8108 92.3495 85.4893C92.1961 85.1679 91.9842 84.9268 91.7139 84.7661C91.4436 84.6053 91.1441 84.525 90.8153 84.525C90.4939 84.525 90.198 84.6053 89.9277 84.7661C89.6574 84.9268 89.4382 85.1679 89.2702 85.4893C89.1094 85.8108 89.0291 86.2126 89.0291 86.6947C89.0291 87.1769 89.1094 87.5824 89.2702 87.9111C89.4309 88.2326 89.6428 88.4736 89.9058 88.6344C90.1761 88.7951 90.4719 88.8755 90.7934 88.8755ZM94.8447 89.533V83.8675H95.6776L95.7543 84.9195C95.8785 84.6565 96.0429 84.4373 96.2474 84.262C96.452 84.0866 96.7004 83.9551 96.9926 83.8675C97.2848 83.7798 97.6136 83.736 97.9788 83.736V84.7003H97.5076C97.2812 84.7003 97.062 84.7295 96.8501 84.788C96.6456 84.8464 96.4593 84.945 96.2913 85.0838C96.1305 85.2153 96.0027 85.398 95.9077 85.6318C95.8127 85.8582 95.7652 86.1432 95.7652 86.4865V89.533H94.8447ZM102.426 89.533L99.7961 86.4536L102.24 83.8675H103.369L100.574 86.7824L100.585 86.1249L103.599 89.533H102.426ZM99.0291 89.533V81.6429H99.9496V89.533H99.0291ZM106.323 89.6645C105.833 89.6645 105.417 89.5878 105.074 89.4343C104.737 89.2809 104.474 89.0654 104.285 88.7878C104.102 88.5029 103.989 88.1741 103.945 87.8015H104.887C104.924 87.9988 104.997 88.1814 105.106 88.3495C105.216 88.5102 105.373 88.6417 105.578 88.744C105.782 88.8389 106.034 88.8864 106.334 88.8864C106.589 88.8864 106.801 88.8499 106.969 88.7768C107.145 88.6965 107.276 88.5905 107.364 88.459C107.452 88.3202 107.495 88.1632 107.495 87.9878C107.495 87.754 107.441 87.5751 107.331 87.4509C107.229 87.3194 107.075 87.2207 106.871 87.155C106.673 87.0819 106.429 87.0235 106.137 86.9797C105.844 86.9358 105.574 86.8774 105.326 86.8043C105.085 86.724 104.876 86.6217 104.701 86.4975C104.526 86.366 104.39 86.2089 104.296 86.0263C104.201 85.8363 104.153 85.6062 104.153 85.3359C104.153 85.0218 104.237 84.7441 104.405 84.5031C104.573 84.262 104.807 84.0757 105.106 83.9442C105.413 83.8054 105.779 83.736 106.202 83.736C106.809 83.736 107.291 83.8784 107.649 84.1633C108.014 84.4483 108.23 84.8537 108.295 85.3797H107.386C107.349 85.1094 107.225 84.8976 107.013 84.7441C106.809 84.5907 106.535 84.514 106.191 84.514C105.826 84.514 105.548 84.5834 105.358 84.7222C105.176 84.861 105.085 85.0437 105.085 85.2701C105.085 85.4309 105.128 85.5733 105.216 85.6975C105.311 85.8217 105.457 85.9276 105.654 86.0153C105.859 86.103 106.122 86.1687 106.443 86.2126C106.845 86.271 107.196 86.3587 107.495 86.4756C107.795 86.5851 108.029 86.7532 108.197 86.9797C108.365 87.2061 108.445 87.5166 108.438 87.9111C108.445 88.2764 108.357 88.5905 108.175 88.8535C107.999 89.1165 107.755 89.3174 107.441 89.4563C107.126 89.5951 106.754 89.6645 106.323 89.6645ZM109.784 91.9438V83.8675H110.617L110.705 84.7661C110.822 84.5761 110.968 84.4044 111.143 84.251C111.326 84.0976 111.541 83.9734 111.79 83.8784C112.045 83.7835 112.341 83.736 112.677 83.736C113.196 83.736 113.652 83.8675 114.047 84.1305C114.441 84.3862 114.748 84.7368 114.967 85.1825C115.194 85.6281 115.307 86.1359 115.307 86.7057C115.307 87.2755 115.194 87.7833 114.967 88.2289C114.748 88.6746 114.438 89.0252 114.036 89.2809C113.641 89.5366 113.185 89.6645 112.666 89.6645C112.221 89.6645 111.826 89.5731 111.483 89.3905C111.147 89.2079 110.887 88.9522 110.705 88.6234V91.9438H109.784ZM112.557 88.8645C112.907 88.8645 113.218 88.7768 113.488 88.6015C113.758 88.4262 113.97 88.1778 114.124 87.8563C114.284 87.5276 114.365 87.1404 114.365 86.6947C114.365 86.2564 114.284 85.8765 114.124 85.5551C113.97 85.2263 113.758 84.9743 113.488 84.7989C113.218 84.6236 112.907 84.5359 112.557 84.5359C112.191 84.5359 111.87 84.6236 111.592 84.7989C111.322 84.9743 111.11 85.2263 110.957 85.5551C110.811 85.8765 110.738 86.2564 110.738 86.6947C110.738 87.1404 110.811 87.5276 110.957 87.8563C111.11 88.1778 111.322 88.4262 111.592 88.6015C111.87 88.7768 112.191 88.8645 112.557 88.8645ZM118.431 89.6645C117.985 89.6645 117.616 89.5841 117.324 89.4234C117.032 89.2627 116.812 89.0471 116.666 88.7768C116.52 88.5065 116.447 88.218 116.447 87.9111C116.447 87.5312 116.542 87.2098 116.732 86.9468C116.929 86.6838 117.203 86.4829 117.554 86.3441C117.905 86.2053 118.314 86.1359 118.781 86.1359H120.228C120.228 85.7779 120.18 85.4784 120.085 85.2373C119.998 84.9962 119.851 84.8172 119.647 84.7003C119.45 84.5761 119.194 84.514 118.88 84.514C118.544 84.514 118.252 84.598 118.003 84.7661C117.762 84.9341 117.612 85.1825 117.554 85.5112H116.611C116.655 85.124 116.783 84.7989 116.995 84.5359C117.214 84.2729 117.488 84.0757 117.817 83.9442C118.153 83.8054 118.507 83.736 118.88 83.736C119.391 83.736 119.815 83.8309 120.151 84.0209C120.487 84.2035 120.735 84.4629 120.896 84.7989C121.064 85.1277 121.148 85.5185 121.148 85.9715V89.533H120.326L120.272 88.5467C120.199 88.7001 120.104 88.8462 119.987 88.985C119.877 89.1165 119.746 89.2334 119.592 89.3357C119.446 89.438 119.274 89.5183 119.077 89.5768C118.88 89.6352 118.664 89.6645 118.431 89.6645ZM118.562 88.8864C118.81 88.8864 119.037 88.8316 119.241 88.722C119.446 88.6125 119.621 88.4663 119.767 88.2837C119.921 88.1011 120.034 87.8929 120.107 87.6591C120.188 87.4253 120.228 87.1842 120.228 86.9358V86.8482H118.858C118.515 86.8482 118.233 86.892 118.014 86.9797C117.802 87.0673 117.649 87.1879 117.554 87.3413C117.459 87.4947 117.411 87.67 117.411 87.8673C117.411 88.0718 117.455 88.2508 117.543 88.4042C117.631 88.5577 117.758 88.6782 117.926 88.7659C118.102 88.8462 118.314 88.8864 118.562 88.8864ZM125.125 89.6645C124.599 89.6645 124.131 89.5403 123.722 89.2919C123.313 89.0435 122.988 88.6965 122.747 88.2508C122.513 87.8052 122.396 87.2901 122.396 86.7057C122.396 86.1066 122.513 85.5879 122.747 85.1496C122.988 84.704 123.313 84.3569 123.722 84.1086C124.131 83.8602 124.599 83.736 125.125 83.736C125.775 83.736 126.319 83.9113 126.757 84.262C127.203 84.6053 127.488 85.0656 127.612 85.6427H126.67C126.589 85.2921 126.403 85.0181 126.111 84.8208C125.826 84.6236 125.493 84.525 125.114 84.525C124.785 84.525 124.485 84.609 124.215 84.777C123.952 84.9377 123.74 85.1788 123.579 85.5003C123.419 85.8217 123.338 86.2199 123.338 86.6947C123.338 87.0527 123.382 87.3705 123.47 87.6481C123.565 87.9184 123.693 88.1485 123.853 88.3385C124.014 88.5211 124.2 88.6599 124.412 88.7549C124.631 88.8426 124.865 88.8864 125.114 88.8864C125.369 88.8864 125.603 88.8426 125.815 88.7549C126.034 88.6672 126.217 88.5394 126.363 88.3714C126.516 88.196 126.619 87.9878 126.67 87.7467H127.612C127.495 88.3166 127.214 88.7805 126.768 89.1385C126.323 89.4891 125.775 89.6645 125.125 89.6645ZM131.34 89.6645C130.829 89.6645 130.372 89.5439 129.97 89.3028C129.576 89.0544 129.265 88.7074 129.039 88.2618C128.812 87.8161 128.699 87.2938 128.699 86.6947C128.699 86.103 128.812 85.5843 129.039 85.1386C129.265 84.693 129.576 84.3496 129.97 84.1086C130.372 83.8602 130.836 83.736 131.362 83.736C131.91 83.736 132.37 83.8602 132.743 84.1086C133.123 84.3496 133.408 84.6747 133.597 85.0838C133.795 85.4857 133.893 85.9313 133.893 86.4208C133.893 86.4938 133.893 86.5669 133.893 86.6399C133.893 86.713 133.89 86.8007 133.882 86.9029H129.389V86.1906H132.984C132.969 85.65 132.805 85.2373 132.491 84.9523C132.184 84.6601 131.8 84.514 131.34 84.514C131.033 84.514 130.748 84.5871 130.485 84.7332C130.222 84.8793 130.007 85.0948 129.839 85.3797C129.678 85.6646 129.598 86.019 129.598 86.4427V86.7495C129.598 87.2244 129.678 87.6225 129.839 87.944C130.007 88.2581 130.222 88.4956 130.485 88.6563C130.748 88.8097 131.033 88.8864 131.34 88.8864C131.742 88.8864 132.06 88.8061 132.293 88.6453C132.535 88.4846 132.714 88.2545 132.83 87.9549H133.74C133.645 88.2837 133.488 88.5759 133.269 88.8316C133.057 89.0873 132.787 89.2919 132.458 89.4453C132.136 89.5914 131.764 89.6645 131.34 89.6645Z" fill="#F5F5F5"/>
<path d="M227.002 78.4123C227.225 78.1894 227.586 78.1894 227.809 78.4123C228.032 78.6352 228.032 78.9965 227.809 79.2194L224.004 83.0244C223.781 83.2473 223.42 83.2473 223.197 83.0244L219.392 79.2194C219.169 78.9965 219.169 78.6352 219.392 78.4123C219.615 78.1894 219.976 78.1894 220.199 78.4123L223.6 81.8138L227.002 78.4123Z" fill="#A3A3A3"/>
<path d="M223.24 70.0019C223.464 69.8191 223.795 69.8324 224.004 70.0413L227.809 73.8463C228.032 74.0692 228.032 74.4305 227.809 74.6534C227.586 74.8763 227.225 74.8763 227.002 74.6534L223.6 71.2519L220.199 74.6534C219.976 74.8763 219.615 74.8763 219.392 74.6534C219.169 74.4305 219.169 74.0692 219.392 73.8463L223.197 70.0413L223.24 70.0019Z" fill="#A3A3A3"/>
</g>
</g>
<defs>
<filter id="filter0_d_12085_93283" x="-14.9189" y="2.28882e-05" width="310.838" height="153.066" filterUnits="userSpaceOnUse" color-interpolation-filters="sRGB">
<feFlood flood-opacity="0" result="BackgroundImageFix"/>
<feColorMatrix in="SourceAlpha" type="matrix" values="0 0 0 0 0 0 0 0 0 0 0 0 0 0 0 0 0 0 127 0" result="hardAlpha"/>
<feOffset/>
<feGaussianBlur stdDeviation="23.4595"/>
<feComposite in2="hardAlpha" operator="out"/>
<feColorMatrix type="matrix" values="0 0 0 0 0 0 0 0 0 0 0 0 0 0 0 0 0 0 1 0"/>
<feBlend mode="normal" in2="BackgroundImageFix" result="effect1_dropShadow_12085_93283"/>
<feBlend mode="normal" in="SourceGraphic" in2="effect1_dropShadow_12085_93283" result="shape"/>
</filter>
<filter id="filter1_d_12085_93283" x="7.63762" y="22.5563" width="265.725" height="107.953" filterUnits="userSpaceOnUse" color-interpolation-filters="sRGB">
<feFlood flood-opacity="0" result="BackgroundImageFix"/>
<feColorMatrix in="SourceAlpha" type="matrix" values="0 0 0 0 0 0 0 0 0 0 0 0 0 0 0 0 0 0 127 0" result="hardAlpha"/>
<feOffset/>
<feGaussianBlur stdDeviation="14.8355"/>
<feComposite in2="hardAlpha" operator="out"/>
<feColorMatrix type="matrix" values="0 0 0 0 0.361159 0 0 0 0 0.360311 0 0 0 0 0.360311 0 0 0 0.2 0"/>
<feBlend mode="normal" in2="BackgroundImageFix" result="effect1_dropShadow_12085_93283"/>
<feBlend mode="normal" in="SourceGraphic" in2="effect1_dropShadow_12085_93283" result="shape"/>
</filter>
<clipPath id="clip0_12085_93283">
<rect width="29.2224" height="29.2224" fill="white" transform="translate(42.6562 61.7898)"/>
</clipPath>
</defs>
</svg>
